<?xml version="1.0" encoding="utf-8" standalone="no"?>
<!DOCTYPE svg PUBLIC "-//W3C//DTD SVG 1.1//EN"
  "http://www.w3.org/Graphics/SVG/1.1/DTD/svg11.dtd">
<svg xmlns:xlink="http://www.w3.org/1999/xlink" width="500.888281pt" height="339.620469pt" viewBox="0 0 500.888281 339.620469" xmlns="http://www.w3.org/2000/svg" version="1.1">
 <metadata>
  <rdf:RDF xmlns:dc="http://purl.org/dc/elements/1.1/" xmlns:cc="http://creativecommons.org/ns#" xmlns:rdf="http://www.w3.org/1999/02/22-rdf-syntax-ns#">
   <cc:Work>
    <dc:type rdf:resource="http://purl.org/dc/dcmitype/StillImage"/>
    <dc:date>2026-07-17T19:09:27.140468</dc:date>
    <dc:format>image/svg+xml</dc:format>
    <dc:creator>
     <cc:Agent>
      <dc:title>Matplotlib v3.11.0, https://matplotlib.org/</dc:title>
     </cc:Agent>
    </dc:creator>
   </cc:Work>
  </rdf:RDF>
 </metadata>
 <defs>
  <style type="text/css">*{stroke-linejoin: round; stroke-linecap: butt}</style>
 </defs>
 <g id="figure_1">
  <g id="patch_1">
   <path d="M 0 339.620469 
L 500.888281 339.620469 
L 500.888281 0 
L 0 0 
z
" style="fill: #ffffff"/>
  </g>
  <g id="axes_1">
   <g id="patch_2">
    <path d="M 47.288281 299.518125 
L 493.688281 299.518125 
L 493.688281 22.318125 
L 47.288281 22.318125 
z
" style="fill: #ffffff"/>
   </g>
   <g id="patch_3">
    <path d="M 67.57919 299.518125 
L 68.36243 299.518125 
L 68.36243 297.847239 
L 67.57919 297.847239 
z
" clip-path="url(#pa33b628d37)" style="fill: #2e75b6; opacity: 0.8"/>
   </g>
   <g id="patch_4">
    <path d="M 68.36243 299.518125 
L 69.145671 299.518125 
L 69.145671 299.518125 
L 68.36243 299.518125 
z
" clip-path="url(#pa33b628d37)" style="fill: #2e75b6; opacity: 0.8"/>
   </g>
   <g id="patch_5">
    <path d="M 69.145671 299.518125 
L 69.928911 299.518125 
L 69.928911 299.518125 
L 69.145671 299.518125 
z
" clip-path="url(#pa33b628d37)" style="fill: #2e75b6; opacity: 0.8"/>
   </g>
   <g id="patch_6">
    <path d="M 69.928911 299.518125 
L 70.712151 299.518125 
L 70.712151 294.505467 
L 69.928911 294.505467 
z
" clip-path="url(#pa33b628d37)" style="fill: #2e75b6; opacity: 0.8"/>
   </g>
   <g id="patch_7">
    <path d="M 70.712151 299.518125 
L 71.495391 299.518125 
L 71.495391 292.834581 
L 70.712151 292.834581 
z
" clip-path="url(#pa33b628d37)" style="fill: #2e75b6; opacity: 0.8"/>
   </g>
   <g id="patch_8">
    <path d="M 71.495391 299.518125 
L 72.278631 299.518125 
L 72.278631 294.505467 
L 71.495391 294.505467 
z
" clip-path="url(#pa33b628d37)" style="fill: #2e75b6; opacity: 0.8"/>
   </g>
   <g id="patch_9">
    <path d="M 72.278631 299.518125 
L 73.061871 299.518125 
L 73.061871 292.834581 
L 72.278631 292.834581 
z
" clip-path="url(#pa33b628d37)" style="fill: #2e75b6; opacity: 0.8"/>
   </g>
   <g id="patch_10">
    <path d="M 73.061871 299.518125 
L 73.845112 299.518125 
L 73.845112 294.505467 
L 73.061871 294.505467 
z
" clip-path="url(#pa33b628d37)" style="fill: #2e75b6; opacity: 0.8"/>
   </g>
   <g id="patch_11">
    <path d="M 73.845112 299.518125 
L 74.628352 299.518125 
L 74.628352 286.151036 
L 73.845112 286.151036 
z
" clip-path="url(#pa33b628d37)" style="fill: #2e75b6; opacity: 0.8"/>
   </g>
   <g id="patch_12">
    <path d="M 74.628352 299.518125 
L 75.411592 299.518125 
L 75.411592 269.442176 
L 74.628352 269.442176 
z
" clip-path="url(#pa33b628d37)" style="fill: #2e75b6; opacity: 0.8"/>
   </g>
   <g id="patch_13">
    <path d="M 75.411592 299.518125 
L 76.194832 299.518125 
L 76.194832 277.796606 
L 75.411592 277.796606 
z
" clip-path="url(#pa33b628d37)" style="fill: #2e75b6; opacity: 0.8"/>
   </g>
   <g id="patch_14">
    <path d="M 76.194832 299.518125 
L 76.978072 299.518125 
L 76.978072 277.796606 
L 76.194832 277.796606 
z
" clip-path="url(#pa33b628d37)" style="fill: #2e75b6; opacity: 0.8"/>
   </g>
   <g id="patch_15">
    <path d="M 76.978072 299.518125 
L 77.761312 299.518125 
L 77.761312 254.404201 
L 76.978072 254.404201 
z
" clip-path="url(#pa33b628d37)" style="fill: #2e75b6; opacity: 0.8"/>
   </g>
   <g id="patch_16">
    <path d="M 77.761312 299.518125 
L 78.544552 299.518125 
L 78.544552 259.416859 
L 77.761312 259.416859 
z
" clip-path="url(#pa33b628d37)" style="fill: #2e75b6; opacity: 0.8"/>
   </g>
   <g id="patch_17">
    <path d="M 78.544552 299.518125 
L 79.327793 299.518125 
L 79.327793 227.670024 
L 78.544552 227.670024 
z
" clip-path="url(#pa33b628d37)" style="fill: #2e75b6; opacity: 0.8"/>
   </g>
   <g id="patch_18">
    <path d="M 79.327793 299.518125 
L 80.111033 299.518125 
L 80.111033 217.644707 
L 79.327793 217.644707 
z
" clip-path="url(#pa33b628d37)" style="fill: #2e75b6; opacity: 0.8"/>
   </g>
   <g id="patch_19">
    <path d="M 80.111033 299.518125 
L 80.894273 299.518125 
L 80.894273 225.999138 
L 80.111033 225.999138 
z
" clip-path="url(#pa33b628d37)" style="fill: #2e75b6; opacity: 0.8"/>
   </g>
   <g id="patch_20">
    <path d="M 80.894273 299.518125 
L 81.677513 299.518125 
L 81.677513 205.948505 
L 80.894273 205.948505 
z
" clip-path="url(#pa33b628d37)" style="fill: #2e75b6; opacity: 0.8"/>
   </g>
   <g id="patch_21">
    <path d="M 81.677513 299.518125 
L 82.460753 299.518125 
L 82.460753 187.568758 
L 81.677513 187.568758 
z
" clip-path="url(#pa33b628d37)" style="fill: #2e75b6; opacity: 0.8"/>
   </g>
   <g id="patch_22">
    <path d="M 82.460753 299.518125 
L 83.243993 299.518125 
L 83.243993 152.48015 
L 82.460753 152.48015 
z
" clip-path="url(#pa33b628d37)" style="fill: #2e75b6; opacity: 0.8"/>
   </g>
   <g id="patch_23">
    <path d="M 83.243993 299.518125 
L 84.027234 299.518125 
L 84.027234 144.12572 
L 83.243993 144.12572 
z
" clip-path="url(#pa33b628d37)" style="fill: #2e75b6; opacity: 0.8"/>
   </g>
   <g id="patch_24">
    <path d="M 84.027234 299.518125 
L 84.810474 299.518125 
L 84.810474 155.821922 
L 84.027234 155.821922 
z
" clip-path="url(#pa33b628d37)" style="fill: #2e75b6; opacity: 0.8"/>
   </g>
   <g id="patch_25">
    <path d="M 84.810474 299.518125 
L 85.593714 299.518125 
L 85.593714 135.77129 
L 84.810474 135.77129 
z
" clip-path="url(#pa33b628d37)" style="fill: #2e75b6; opacity: 0.8"/>
   </g>
   <g id="patch_26">
    <path d="M 85.593714 299.518125 
L 86.376954 299.518125 
L 86.376954 144.12572 
L 85.593714 144.12572 
z
" clip-path="url(#pa33b628d37)" style="fill: #2e75b6; opacity: 0.8"/>
   </g>
   <g id="patch_27">
    <path d="M 86.376954 299.518125 
L 87.160194 299.518125 
L 87.160194 85.644707 
L 86.376954 85.644707 
z
" clip-path="url(#pa33b628d37)" style="fill: #2e75b6; opacity: 0.8"/>
   </g>
   <g id="patch_28">
    <path d="M 87.160194 299.518125 
L 87.943434 299.518125 
L 87.943434 109.037112 
L 87.160194 109.037112 
z
" clip-path="url(#pa33b628d37)" style="fill: #2e75b6; opacity: 0.8"/>
   </g>
   <g id="patch_29">
    <path d="M 87.943434 299.518125 
L 88.726674 299.518125 
L 88.726674 58.91053 
L 87.943434 58.91053 
z
" clip-path="url(#pa33b628d37)" style="fill: #2e75b6; opacity: 0.8"/>
   </g>
   <g id="patch_30">
    <path d="M 88.726674 299.518125 
L 89.509915 299.518125 
L 89.509915 97.34091 
L 88.726674 97.34091 
z
" clip-path="url(#pa33b628d37)" style="fill: #2e75b6; opacity: 0.8"/>
   </g>
   <g id="patch_31">
    <path d="M 89.509915 299.518125 
L 90.293155 299.518125 
L 90.293155 77.290277 
L 89.509915 77.290277 
z
" clip-path="url(#pa33b628d37)" style="fill: #2e75b6; opacity: 0.8"/>
   </g>
   <g id="patch_32">
    <path d="M 90.293155 299.518125 
L 91.076395 299.518125 
L 91.076395 35.518125 
L 90.293155 35.518125 
z
" clip-path="url(#pa33b628d37)" style="fill: #2e75b6; opacity: 0.8"/>
   </g>
   <g id="patch_33">
    <path d="M 91.076395 299.518125 
L 91.859635 299.518125 
L 91.859635 65.594074 
L 91.076395 65.594074 
z
" clip-path="url(#pa33b628d37)" style="fill: #2e75b6; opacity: 0.8"/>
   </g>
   <g id="patch_34">
    <path d="M 91.859635 299.518125 
L 92.642875 299.518125 
L 92.642875 83.973821 
L 91.859635 83.973821 
z
" clip-path="url(#pa33b628d37)" style="fill: #2e75b6; opacity: 0.8"/>
   </g>
   <g id="patch_35">
    <path d="M 92.642875 299.518125 
L 93.426115 299.518125 
L 93.426115 82.302935 
L 92.642875 82.302935 
z
" clip-path="url(#pa33b628d37)" style="fill: #2e75b6; opacity: 0.8"/>
   </g>
   <g id="patch_36">
    <path d="M 93.426115 299.518125 
L 94.209356 299.518125 
L 94.209356 65.594074 
L 93.426115 65.594074 
z
" clip-path="url(#pa33b628d37)" style="fill: #2e75b6; opacity: 0.8"/>
   </g>
   <g id="patch_37">
    <path d="M 94.209356 299.518125 
L 94.992596 299.518125 
L 94.992596 60.581416 
L 94.209356 60.581416 
z
" clip-path="url(#pa33b628d37)" style="fill: #2e75b6; opacity: 0.8"/>
   </g>
   <g id="patch_38">
    <path d="M 94.992596 299.518125 
L 95.775836 299.518125 
L 95.775836 62.252302 
L 94.992596 62.252302 
z
" clip-path="url(#pa33b628d37)" style="fill: #2e75b6; opacity: 0.8"/>
   </g>
   <g id="patch_39">
    <path d="M 95.775836 299.518125 
L 96.559076 299.518125 
L 96.559076 75.619391 
L 95.775836 75.619391 
z
" clip-path="url(#pa33b628d37)" style="fill: #2e75b6; opacity: 0.8"/>
   </g>
   <g id="patch_40">
    <path d="M 96.559076 299.518125 
L 97.342316 299.518125 
L 97.342316 88.986479 
L 96.559076 88.986479 
z
" clip-path="url(#pa33b628d37)" style="fill: #2e75b6; opacity: 0.8"/>
   </g>
   <g id="patch_41">
    <path d="M 97.342316 299.518125 
L 98.125556 299.518125 
L 98.125556 83.973821 
L 97.342316 83.973821 
z
" clip-path="url(#pa33b628d37)" style="fill: #2e75b6; opacity: 0.8"/>
   </g>
   <g id="patch_42">
    <path d="M 98.125556 299.518125 
L 98.908796 299.518125 
L 98.908796 127.416859 
L 98.125556 127.416859 
z
" clip-path="url(#pa33b628d37)" style="fill: #2e75b6; opacity: 0.8"/>
   </g>
   <g id="patch_43">
    <path d="M 98.908796 299.518125 
L 99.692037 299.518125 
L 99.692037 129.087745 
L 98.908796 129.087745 
z
" clip-path="url(#pa33b628d37)" style="fill: #2e75b6; opacity: 0.8"/>
   </g>
   <g id="patch_44">
    <path d="M 99.692037 299.518125 
L 100.475277 299.518125 
L 100.475277 122.404201 
L 99.692037 122.404201 
z
" clip-path="url(#pa33b628d37)" style="fill: #2e75b6; opacity: 0.8"/>
   </g>
   <g id="patch_45">
    <path d="M 100.475277 299.518125 
L 101.258517 299.518125 
L 101.258517 159.163695 
L 100.475277 159.163695 
z
" clip-path="url(#pa33b628d37)" style="fill: #2e75b6; opacity: 0.8"/>
   </g>
   <g id="patch_46">
    <path d="M 101.258517 299.518125 
L 102.041757 299.518125 
L 102.041757 159.163695 
L 101.258517 159.163695 
z
" clip-path="url(#pa33b628d37)" style="fill: #2e75b6; opacity: 0.8"/>
   </g>
   <g id="patch_47">
    <path d="M 102.041757 299.518125 
L 102.824997 299.518125 
L 102.824997 162.505467 
L 102.041757 162.505467 
z
" clip-path="url(#pa33b628d37)" style="fill: #2e75b6; opacity: 0.8"/>
   </g>
   <g id="patch_48">
    <path d="M 102.824997 299.518125 
L 103.608237 299.518125 
L 103.608237 160.834581 
L 102.824997 160.834581 
z
" clip-path="url(#pa33b628d37)" style="fill: #2e75b6; opacity: 0.8"/>
   </g>
   <g id="patch_49">
    <path d="M 103.608237 299.518125 
L 104.391478 299.518125 
L 104.391478 190.91053 
L 103.608237 190.91053 
z
" clip-path="url(#pa33b628d37)" style="fill: #2e75b6; opacity: 0.8"/>
   </g>
   <g id="patch_50">
    <path d="M 104.391478 299.518125 
L 105.174718 299.518125 
L 105.174718 199.26496 
L 104.391478 199.26496 
z
" clip-path="url(#pa33b628d37)" style="fill: #2e75b6; opacity: 0.8"/>
   </g>
   <g id="patch_51">
    <path d="M 105.174718 299.518125 
L 105.957958 299.518125 
L 105.957958 229.34091 
L 105.174718 229.34091 
z
" clip-path="url(#pa33b628d37)" style="fill: #2e75b6; opacity: 0.8"/>
   </g>
   <g id="patch_52">
    <path d="M 105.957958 299.518125 
L 106.741198 299.518125 
L 106.741198 227.670024 
L 105.957958 227.670024 
z
" clip-path="url(#pa33b628d37)" style="fill: #2e75b6; opacity: 0.8"/>
   </g>
   <g id="patch_53">
    <path d="M 106.741198 299.518125 
L 107.524438 299.518125 
L 107.524438 241.037112 
L 106.741198 241.037112 
z
" clip-path="url(#pa33b628d37)" style="fill: #2e75b6; opacity: 0.8"/>
   </g>
   <g id="patch_54">
    <path d="M 107.524438 299.518125 
L 108.307678 299.518125 
L 108.307678 237.69534 
L 107.524438 237.69534 
z
" clip-path="url(#pa33b628d37)" style="fill: #2e75b6; opacity: 0.8"/>
   </g>
   <g id="patch_55">
    <path d="M 108.307678 299.518125 
L 109.090918 299.518125 
L 109.090918 227.670024 
L 108.307678 227.670024 
z
" clip-path="url(#pa33b628d37)" style="fill: #2e75b6; opacity: 0.8"/>
   </g>
   <g id="patch_56">
    <path d="M 109.090918 299.518125 
L 109.874159 299.518125 
L 109.874159 262.758631 
L 109.090918 262.758631 
z
" clip-path="url(#pa33b628d37)" style="fill: #2e75b6; opacity: 0.8"/>
   </g>
   <g id="patch_57">
    <path d="M 109.874159 299.518125 
L 110.657399 299.518125 
L 110.657399 251.062429 
L 109.874159 251.062429 
z
" clip-path="url(#pa33b628d37)" style="fill: #2e75b6; opacity: 0.8"/>
   </g>
   <g id="patch_58">
    <path d="M 110.657399 299.518125 
L 111.440639 299.518125 
L 111.440639 276.12572 
L 110.657399 276.12572 
z
" clip-path="url(#pa33b628d37)" style="fill: #2e75b6; opacity: 0.8"/>
   </g>
   <g id="patch_59">
    <path d="M 111.440639 299.518125 
L 112.223879 299.518125 
L 112.223879 269.442176 
L 111.440639 269.442176 
z
" clip-path="url(#pa33b628d37)" style="fill: #2e75b6; opacity: 0.8"/>
   </g>
   <g id="patch_60">
    <path d="M 112.223879 299.518125 
L 113.007119 299.518125 
L 113.007119 272.783948 
L 112.223879 272.783948 
z
" clip-path="url(#pa33b628d37)" style="fill: #2e75b6; opacity: 0.8"/>
   </g>
   <g id="patch_61">
    <path d="M 113.007119 299.518125 
L 113.790359 299.518125 
L 113.790359 267.77129 
L 113.007119 267.77129 
z
" clip-path="url(#pa33b628d37)" style="fill: #2e75b6; opacity: 0.8"/>
   </g>
   <g id="patch_62">
    <path d="M 113.790359 299.518125 
L 114.5736 299.518125 
L 114.5736 286.151036 
L 113.790359 286.151036 
z
" clip-path="url(#pa33b628d37)" style="fill: #2e75b6; opacity: 0.8"/>
   </g>
   <g id="patch_63">
    <path d="M 114.5736 299.518125 
L 115.35684 299.518125 
L 115.35684 282.809264 
L 114.5736 282.809264 
z
" clip-path="url(#pa33b628d37)" style="fill: #2e75b6; opacity: 0.8"/>
   </g>
   <g id="patch_64">
    <path d="M 115.35684 299.518125 
L 116.14008 299.518125 
L 116.14008 286.151036 
L 115.35684 286.151036 
z
" clip-path="url(#pa33b628d37)" style="fill: #2e75b6; opacity: 0.8"/>
   </g>
   <g id="patch_65">
    <path d="M 116.14008 299.518125 
L 116.92332 299.518125 
L 116.92332 287.821922 
L 116.14008 287.821922 
z
" clip-path="url(#pa33b628d37)" style="fill: #2e75b6; opacity: 0.8"/>
   </g>
   <g id="patch_66">
    <path d="M 116.92332 299.518125 
L 117.70656 299.518125 
L 117.70656 287.821922 
L 116.92332 287.821922 
z
" clip-path="url(#pa33b628d37)" style="fill: #2e75b6; opacity: 0.8"/>
   </g>
   <g id="patch_67">
    <path d="M 117.70656 299.518125 
L 118.4898 299.518125 
L 118.4898 287.821922 
L 117.70656 287.821922 
z
" clip-path="url(#pa33b628d37)" style="fill: #2e75b6; opacity: 0.8"/>
   </g>
   <g id="patch_68">
    <path d="M 118.4898 299.518125 
L 119.27304 299.518125 
L 119.27304 292.834581 
L 118.4898 292.834581 
z
" clip-path="url(#pa33b628d37)" style="fill: #2e75b6; opacity: 0.8"/>
   </g>
   <g id="patch_69">
    <path d="M 119.27304 299.518125 
L 120.056281 299.518125 
L 120.056281 291.163695 
L 119.27304 291.163695 
z
" clip-path="url(#pa33b628d37)" style="fill: #2e75b6; opacity: 0.8"/>
   </g>
   <g id="patch_70">
    <path d="M 120.056281 299.518125 
L 120.839521 299.518125 
L 120.839521 292.834581 
L 120.056281 292.834581 
z
" clip-path="url(#pa33b628d37)" style="fill: #2e75b6; opacity: 0.8"/>
   </g>
   <g id="patch_71">
    <path d="M 120.839521 299.518125 
L 121.622761 299.518125 
L 121.622761 296.176353 
L 120.839521 296.176353 
z
" clip-path="url(#pa33b628d37)" style="fill: #2e75b6; opacity: 0.8"/>
   </g>
   <g id="patch_72">
    <path d="M 121.622761 299.518125 
L 122.406001 299.518125 
L 122.406001 299.518125 
L 121.622761 299.518125 
z
" clip-path="url(#pa33b628d37)" style="fill: #2e75b6; opacity: 0.8"/>
   </g>
   <g id="patch_73">
    <path d="M 122.406001 299.518125 
L 123.189241 299.518125 
L 123.189241 299.518125 
L 122.406001 299.518125 
z
" clip-path="url(#pa33b628d37)" style="fill: #2e75b6; opacity: 0.8"/>
   </g>
   <g id="patch_74">
    <path d="M 123.189241 299.518125 
L 123.972481 299.518125 
L 123.972481 299.518125 
L 123.189241 299.518125 
z
" clip-path="url(#pa33b628d37)" style="fill: #2e75b6; opacity: 0.8"/>
   </g>
   <g id="patch_75">
    <path d="M 123.972481 299.518125 
L 124.755722 299.518125 
L 124.755722 297.847239 
L 123.972481 297.847239 
z
" clip-path="url(#pa33b628d37)" style="fill: #2e75b6; opacity: 0.8"/>
   </g>
   <g id="patch_76">
    <path d="M 124.755722 299.518125 
L 125.538962 299.518125 
L 125.538962 299.518125 
L 124.755722 299.518125 
z
" clip-path="url(#pa33b628d37)" style="fill: #2e75b6; opacity: 0.8"/>
   </g>
   <g id="patch_77">
    <path d="M 125.538962 299.518125 
L 126.322202 299.518125 
L 126.322202 299.518125 
L 125.538962 299.518125 
z
" clip-path="url(#pa33b628d37)" style="fill: #2e75b6; opacity: 0.8"/>
   </g>
   <g id="patch_78">
    <path d="M 126.322202 299.518125 
L 127.105442 299.518125 
L 127.105442 299.518125 
L 126.322202 299.518125 
z
" clip-path="url(#pa33b628d37)" style="fill: #2e75b6; opacity: 0.8"/>
   </g>
   <g id="patch_79">
    <path d="M 127.105442 299.518125 
L 127.888682 299.518125 
L 127.888682 299.518125 
L 127.105442 299.518125 
z
" clip-path="url(#pa33b628d37)" style="fill: #2e75b6; opacity: 0.8"/>
   </g>
   <g id="patch_80">
    <path d="M 127.888682 299.518125 
L 128.671922 299.518125 
L 128.671922 299.518125 
L 127.888682 299.518125 
z
" clip-path="url(#pa33b628d37)" style="fill: #2e75b6; opacity: 0.8"/>
   </g>
   <g id="patch_81">
    <path d="M 128.671922 299.518125 
L 129.455162 299.518125 
L 129.455162 299.518125 
L 128.671922 299.518125 
z
" clip-path="url(#pa33b628d37)" style="fill: #2e75b6; opacity: 0.8"/>
   </g>
   <g id="patch_82">
    <path d="M 129.455162 299.518125 
L 130.238403 299.518125 
L 130.238403 297.847239 
L 129.455162 297.847239 
z
" clip-path="url(#pa33b628d37)" style="fill: #2e75b6; opacity: 0.8"/>
   </g>
   <g id="matplotlib.axis_1">
    <g id="xtick_1">
     <g id="line2d_1">
      <defs>
       <path id="m6a92124b3c" d="M 0 0 
L 0 3.5 
" style="stroke: #000000; stroke-width: 0.8"/>
      </defs>
      <g>
       <use xlink:href="#m6a92124b3c" x="99.372366" y="299.518125" style="stroke: #000000; stroke-width: 0.8"/>
      </g>
     </g>
     <g id="text_1">
      <!-- 0.2 -->
      <g transform="translate(91.420804 314.115781) scale(0.1 -0.1)">
       <defs>
        <path id="DejaVuSans-13" d="M 2034 4250 
Q 1547 4250 1301 3770 
Q 1056 3291 1056 2328 
Q 1056 1369 1301 889 
Q 1547 409 2034 409 
Q 2525 409 2770 889 
Q 3016 1369 3016 2328 
Q 3016 3291 2770 3770 
Q 2525 4250 2034 4250 
z
M 2034 4750 
Q 2819 4750 3233 4129 
Q 3647 3509 3647 2328 
Q 3647 1150 3233 529 
Q 2819 -91 2034 -91 
Q 1250 -91 836 529 
Q 422 1150 422 2328 
Q 422 3509 836 4129 
Q 1250 4750 2034 4750 
z
" transform="scale(0.015625)"/>
        <path id="DejaVuSans-11" d="M 684 794 
L 1344 794 
L 1344 0 
L 684 0 
L 684 794 
z
" transform="scale(0.015625)"/>
        <path id="DejaVuSans-15" d="M 1228 531 
L 3431 531 
L 3431 0 
L 469 0 
L 469 531 
Q 828 903 1448 1529 
Q 2069 2156 2228 2338 
Q 2531 2678 2651 2914 
Q 2772 3150 2772 3378 
Q 2772 3750 2511 3984 
Q 2250 4219 1831 4219 
Q 1534 4219 1204 4116 
Q 875 4013 500 3803 
L 500 4441 
Q 881 4594 1212 4672 
Q 1544 4750 1819 4750 
Q 2544 4750 2975 4387 
Q 3406 4025 3406 3419 
Q 3406 3131 3298 2873 
Q 3191 2616 2906 2266 
Q 2828 2175 2409 1742 
Q 1991 1309 1228 531 
z
" transform="scale(0.015625)"/>
       </defs>
       <use xlink:href="#DejaVuSans-13"/>
       <use xlink:href="#DejaVuSans-11" transform="translate(63.625 0)"/>
       <use xlink:href="#DejaVuSans-15" transform="translate(95.40625 0)"/>
      </g>
     </g>
    </g>
    <g id="xtick_2">
     <g id="line2d_2">
      <g>
       <use xlink:href="#m6a92124b3c" x="152.80451" y="299.518125" style="stroke: #000000; stroke-width: 0.8"/>
      </g>
     </g>
     <g id="text_2">
      <!-- 0.4 -->
      <g transform="translate(144.852947 314.115781) scale(0.1 -0.1)">
       <defs>
        <path id="DejaVuSans-17" d="M 2419 4116 
L 825 1625 
L 2419 1625 
L 2419 4116 
z
M 2253 4666 
L 3047 4666 
L 3047 1625 
L 3713 1625 
L 3713 1100 
L 3047 1100 
L 3047 0 
L 2419 0 
L 2419 1100 
L 313 1100 
L 313 1709 
L 2253 4666 
z
" transform="scale(0.015625)"/>
       </defs>
       <use xlink:href="#DejaVuSans-13"/>
       <use xlink:href="#DejaVuSans-11" transform="translate(63.625 0)"/>
       <use xlink:href="#DejaVuSans-17" transform="translate(95.40625 0)"/>
      </g>
     </g>
    </g>
    <g id="xtick_3">
     <g id="line2d_3">
      <g>
       <use xlink:href="#m6a92124b3c" x="206.236654" y="299.518125" style="stroke: #000000; stroke-width: 0.8"/>
      </g>
     </g>
     <g id="text_3">
      <!-- 0.6 -->
      <g transform="translate(198.285091 314.115781) scale(0.1 -0.1)">
       <defs>
        <path id="DejaVuSans-19" d="M 2113 2584 
Q 1688 2584 1439 2293 
Q 1191 2003 1191 1497 
Q 1191 994 1439 701 
Q 1688 409 2113 409 
Q 2538 409 2786 701 
Q 3034 994 3034 1497 
Q 3034 2003 2786 2293 
Q 2538 2584 2113 2584 
z
M 3366 4563 
L 3366 3988 
Q 3128 4100 2886 4159 
Q 2644 4219 2406 4219 
Q 1781 4219 1451 3797 
Q 1122 3375 1075 2522 
Q 1259 2794 1537 2939 
Q 1816 3084 2150 3084 
Q 2853 3084 3261 2657 
Q 3669 2231 3669 1497 
Q 3669 778 3244 343 
Q 2819 -91 2113 -91 
Q 1303 -91 875 529 
Q 447 1150 447 2328 
Q 447 3434 972 4092 
Q 1497 4750 2381 4750 
Q 2619 4750 2861 4703 
Q 3103 4656 3366 4563 
z
" transform="scale(0.015625)"/>
       </defs>
       <use xlink:href="#DejaVuSans-13"/>
       <use xlink:href="#DejaVuSans-11" transform="translate(63.625 0)"/>
       <use xlink:href="#DejaVuSans-19" transform="translate(95.40625 0)"/>
      </g>
     </g>
    </g>
    <g id="xtick_4">
     <g id="line2d_4">
      <g>
       <use xlink:href="#m6a92124b3c" x="259.668797" y="299.518125" style="stroke: #000000; stroke-width: 0.8"/>
      </g>
     </g>
     <g id="text_4">
      <!-- 0.8 -->
      <g transform="translate(251.717235 314.115781) scale(0.1 -0.1)">
       <defs>
        <path id="DejaVuSans-1b" d="M 2034 2216 
Q 1584 2216 1326 1975 
Q 1069 1734 1069 1313 
Q 1069 891 1326 650 
Q 1584 409 2034 409 
Q 2484 409 2743 651 
Q 3003 894 3003 1313 
Q 3003 1734 2745 1975 
Q 2488 2216 2034 2216 
z
M 1403 2484 
Q 997 2584 770 2862 
Q 544 3141 544 3541 
Q 544 4100 942 4425 
Q 1341 4750 2034 4750 
Q 2731 4750 3128 4425 
Q 3525 4100 3525 3541 
Q 3525 3141 3298 2862 
Q 3072 2584 2669 2484 
Q 3125 2378 3379 2068 
Q 3634 1759 3634 1313 
Q 3634 634 3220 271 
Q 2806 -91 2034 -91 
Q 1263 -91 848 271 
Q 434 634 434 1313 
Q 434 1759 690 2068 
Q 947 2378 1403 2484 
z
M 1172 3481 
Q 1172 3119 1398 2916 
Q 1625 2713 2034 2713 
Q 2441 2713 2670 2916 
Q 2900 3119 2900 3481 
Q 2900 3844 2670 4047 
Q 2441 4250 2034 4250 
Q 1625 4250 1398 4047 
Q 1172 3844 1172 3481 
z
" transform="scale(0.015625)"/>
       </defs>
       <use xlink:href="#DejaVuSans-13"/>
       <use xlink:href="#DejaVuSans-11" transform="translate(63.625 0)"/>
       <use xlink:href="#DejaVuSans-1b" transform="translate(95.40625 0)"/>
      </g>
     </g>
    </g>
    <g id="xtick_5">
     <g id="line2d_5">
      <g>
       <use xlink:href="#m6a92124b3c" x="313.100941" y="299.518125" style="stroke: #000000; stroke-width: 0.8"/>
      </g>
     </g>
     <g id="text_5">
      <!-- 1.0 -->
      <g transform="translate(305.149378 314.115781) scale(0.1 -0.1)">
       <defs>
        <path id="DejaVuSans-14" d="M 794 531 
L 1825 531 
L 1825 4091 
L 703 3866 
L 703 4441 
L 1819 4666 
L 2450 4666 
L 2450 531 
L 3481 531 
L 3481 0 
L 794 0 
L 794 531 
z
" transform="scale(0.015625)"/>
       </defs>
       <use xlink:href="#DejaVuSans-14"/>
       <use xlink:href="#DejaVuSans-11" transform="translate(63.625 0)"/>
       <use xlink:href="#DejaVuSans-13" transform="translate(95.40625 0)"/>
      </g>
     </g>
    </g>
    <g id="xtick_6">
     <g id="line2d_6">
      <g>
       <use xlink:href="#m6a92124b3c" x="366.533085" y="299.518125" style="stroke: #000000; stroke-width: 0.8"/>
      </g>
     </g>
     <g id="text_6">
      <!-- 1.2 -->
      <g transform="translate(358.581522 314.115781) scale(0.1 -0.1)">
       <use xlink:href="#DejaVuSans-14"/>
       <use xlink:href="#DejaVuSans-11" transform="translate(63.625 0)"/>
       <use xlink:href="#DejaVuSans-15" transform="translate(95.40625 0)"/>
      </g>
     </g>
    </g>
    <g id="xtick_7">
     <g id="line2d_7">
      <g>
       <use xlink:href="#m6a92124b3c" x="419.965228" y="299.518125" style="stroke: #000000; stroke-width: 0.8"/>
      </g>
     </g>
     <g id="text_7">
      <!-- 1.4 -->
      <g transform="translate(412.013666 314.115781) scale(0.1 -0.1)">
       <use xlink:href="#DejaVuSans-14"/>
       <use xlink:href="#DejaVuSans-11" transform="translate(63.625 0)"/>
       <use xlink:href="#DejaVuSans-17" transform="translate(95.40625 0)"/>
      </g>
     </g>
    </g>
    <g id="xtick_8">
     <g id="line2d_8">
      <g>
       <use xlink:href="#m6a92124b3c" x="473.397372" y="299.518125" style="stroke: #000000; stroke-width: 0.8"/>
      </g>
     </g>
     <g id="text_8">
      <!-- 1.6 -->
      <g transform="translate(465.44581 314.115781) scale(0.1 -0.1)">
       <use xlink:href="#DejaVuSans-14"/>
       <use xlink:href="#DejaVuSans-11" transform="translate(63.625 0)"/>
       <use xlink:href="#DejaVuSans-19" transform="translate(95.40625 0)"/>
      </g>
     </g>
    </g>
    <g id="text_9">
     <!-- $\chi^{(2)}$ coherent peak (nm/V) -->
     <g transform="translate(205.938281 330.018125) scale(0.1 -0.1)">
      <defs>
       <path id="DejaVuSans-Oblique-35b" d="M 1922 -781 
L 1691 416 
L 394 -1334 
L -284 -1334 
L 1553 1141 
L 1269 2613 
Q 1194 3006 713 3006 
L 559 3006 
L 653 3500 
L 872 3494 
Q 1675 3472 1775 2950 
L 2006 1753 
L 3303 3503 
L 3981 3503 
L 2144 1028 
L 2428 -444 
Q 2503 -838 2984 -838 
L 3138 -838 
L 3044 -1331 
L 2825 -1325 
Q 2022 -1303 1922 -781 
z
" transform="scale(0.015625)"/>
       <path id="DejaVuSans-b" d="M 1984 4856 
Q 1566 4138 1362 3434 
Q 1159 2731 1159 2009 
Q 1159 1288 1364 580 
Q 1569 -128 1984 -844 
L 1484 -844 
Q 1016 -109 783 600 
Q 550 1309 550 2009 
Q 550 2706 781 3412 
Q 1013 4119 1484 4856 
L 1984 4856 
z
" transform="scale(0.015625)"/>
       <path id="DejaVuSans-c" d="M 513 4856 
L 1013 4856 
Q 1481 4119 1714 3412 
Q 1947 2706 1947 2009 
Q 1947 1309 1714 600 
Q 1481 -109 1013 -844 
L 513 -844 
Q 928 -128 1133 580 
Q 1338 1288 1338 2009 
Q 1338 2731 1133 3434 
Q 928 4138 513 4856 
z
" transform="scale(0.015625)"/>
       <path id="DejaVuSans-3" transform="scale(0.015625)"/>
       <path id="DejaVuSans-46" d="M 3122 3366 
L 3122 2828 
Q 2878 2963 2633 3030 
Q 2388 3097 2138 3097 
Q 1578 3097 1268 2742 
Q 959 2388 959 1747 
Q 959 1106 1268 751 
Q 1578 397 2138 397 
Q 2388 397 2633 464 
Q 2878 531 3122 666 
L 3122 134 
Q 2881 22 2623 -34 
Q 2366 -91 2075 -91 
Q 1284 -91 818 406 
Q 353 903 353 1747 
Q 353 2603 823 3093 
Q 1294 3584 2113 3584 
Q 2378 3584 2631 3529 
Q 2884 3475 3122 3366 
z
" transform="scale(0.015625)"/>
       <path id="DejaVuSans-52" d="M 1959 3097 
Q 1497 3097 1228 2736 
Q 959 2375 959 1747 
Q 959 1119 1226 758 
Q 1494 397 1959 397 
Q 2419 397 2687 759 
Q 2956 1122 2956 1747 
Q 2956 2369 2687 2733 
Q 2419 3097 1959 3097 
z
M 1959 3584 
Q 2709 3584 3137 3096 
Q 3566 2609 3566 1747 
Q 3566 888 3137 398 
Q 2709 -91 1959 -91 
Q 1206 -91 779 398 
Q 353 888 353 1747 
Q 353 2609 779 3096 
Q 1206 3584 1959 3584 
z
" transform="scale(0.015625)"/>
       <path id="DejaVuSans-4b" d="M 3513 2113 
L 3513 0 
L 2938 0 
L 2938 2094 
Q 2938 2591 2744 2837 
Q 2550 3084 2163 3084 
Q 1697 3084 1428 2787 
Q 1159 2491 1159 1978 
L 1159 0 
L 581 0 
L 581 4863 
L 1159 4863 
L 1159 2956 
Q 1366 3272 1645 3428 
Q 1925 3584 2291 3584 
Q 2894 3584 3203 3211 
Q 3513 2838 3513 2113 
z
" transform="scale(0.015625)"/>
       <path id="DejaVuSans-48" d="M 3597 1894 
L 3597 1613 
L 953 1613 
Q 991 1019 1311 708 
Q 1631 397 2203 397 
Q 2534 397 2845 478 
Q 3156 559 3463 722 
L 3463 178 
Q 3153 47 2828 -22 
Q 2503 -91 2169 -91 
Q 1331 -91 842 396 
Q 353 884 353 1716 
Q 353 2575 817 3079 
Q 1281 3584 2069 3584 
Q 2775 3584 3186 3129 
Q 3597 2675 3597 1894 
z
M 3022 2063 
Q 3016 2534 2758 2815 
Q 2500 3097 2075 3097 
Q 1594 3097 1305 2825 
Q 1016 2553 972 2059 
L 3022 2063 
z
" transform="scale(0.015625)"/>
       <path id="DejaVuSans-55" d="M 2631 2963 
Q 2534 3019 2420 3045 
Q 2306 3072 2169 3072 
Q 1681 3072 1420 2755 
Q 1159 2438 1159 1844 
L 1159 0 
L 581 0 
L 581 3500 
L 1159 3500 
L 1159 2956 
Q 1341 3275 1631 3429 
Q 1922 3584 2338 3584 
Q 2397 3584 2469 3576 
Q 2541 3569 2628 3553 
L 2631 2963 
z
" transform="scale(0.015625)"/>
       <path id="DejaVuSans-51" d="M 3513 2113 
L 3513 0 
L 2938 0 
L 2938 2094 
Q 2938 2591 2744 2837 
Q 2550 3084 2163 3084 
Q 1697 3084 1428 2787 
Q 1159 2491 1159 1978 
L 1159 0 
L 581 0 
L 581 3500 
L 1159 3500 
L 1159 2956 
Q 1366 3272 1645 3428 
Q 1925 3584 2291 3584 
Q 2894 3584 3203 3211 
Q 3513 2838 3513 2113 
z
" transform="scale(0.015625)"/>
       <path id="DejaVuSans-57" d="M 1172 4494 
L 1172 3500 
L 2356 3500 
L 2356 3053 
L 1172 3053 
L 1172 1153 
Q 1172 725 1289 603 
Q 1406 481 1766 481 
L 2356 481 
L 2356 0 
L 1766 0 
Q 1100 0 847 248 
Q 594 497 594 1153 
L 594 3053 
L 172 3053 
L 172 3500 
L 594 3500 
L 594 4494 
L 1172 4494 
z
" transform="scale(0.015625)"/>
       <path id="DejaVuSans-53" d="M 1159 525 
L 1159 -1331 
L 581 -1331 
L 581 3500 
L 1159 3500 
L 1159 2969 
Q 1341 3281 1617 3432 
Q 1894 3584 2278 3584 
Q 2916 3584 3314 3078 
Q 3713 2572 3713 1747 
Q 3713 922 3314 415 
Q 2916 -91 2278 -91 
Q 1894 -91 1617 61 
Q 1341 213 1159 525 
z
M 3116 1747 
Q 3116 2381 2855 2742 
Q 2594 3103 2138 3103 
Q 1681 3103 1420 2742 
Q 1159 2381 1159 1747 
Q 1159 1113 1420 752 
Q 1681 391 2138 391 
Q 2594 391 2855 752 
Q 3116 1113 3116 1747 
z
" transform="scale(0.015625)"/>
       <path id="DejaVuSans-44" d="M 2194 1759 
Q 1497 1759 1228 1600 
Q 959 1441 959 1056 
Q 959 750 1161 570 
Q 1363 391 1709 391 
Q 2188 391 2477 730 
Q 2766 1069 2766 1631 
L 2766 1759 
L 2194 1759 
z
M 3341 1997 
L 3341 0 
L 2766 0 
L 2766 531 
Q 2569 213 2275 61 
Q 1981 -91 1556 -91 
Q 1019 -91 701 211 
Q 384 513 384 1019 
Q 384 1609 779 1909 
Q 1175 2209 1959 2209 
L 2766 2209 
L 2766 2266 
Q 2766 2663 2505 2880 
Q 2244 3097 1772 3097 
Q 1472 3097 1187 3025 
Q 903 2953 641 2809 
L 641 3341 
Q 956 3463 1253 3523 
Q 1550 3584 1831 3584 
Q 2591 3584 2966 3190 
Q 3341 2797 3341 1997 
z
" transform="scale(0.015625)"/>
       <path id="DejaVuSans-4e" d="M 581 4863 
L 1159 4863 
L 1159 1991 
L 2875 3500 
L 3609 3500 
L 1753 1863 
L 3688 0 
L 2938 0 
L 1159 1709 
L 1159 0 
L 581 0 
L 581 4863 
z
" transform="scale(0.015625)"/>
       <path id="DejaVuSans-50" d="M 3328 2828 
Q 3544 3216 3844 3400 
Q 4144 3584 4550 3584 
Q 5097 3584 5394 3201 
Q 5691 2819 5691 2113 
L 5691 0 
L 5113 0 
L 5113 2094 
Q 5113 2597 4934 2840 
Q 4756 3084 4391 3084 
Q 3944 3084 3684 2787 
Q 3425 2491 3425 1978 
L 3425 0 
L 2847 0 
L 2847 2094 
Q 2847 2600 2669 2842 
Q 2491 3084 2119 3084 
Q 1678 3084 1418 2786 
Q 1159 2488 1159 1978 
L 1159 0 
L 581 0 
L 581 3500 
L 1159 3500 
L 1159 2956 
Q 1356 3278 1631 3431 
Q 1906 3584 2284 3584 
Q 2666 3584 2933 3390 
Q 3200 3197 3328 2828 
z
" transform="scale(0.015625)"/>
       <path id="DejaVuSans-12" d="M 1625 4666 
L 2156 4666 
L 531 -594 
L 0 -594 
L 1625 4666 
z
" transform="scale(0.015625)"/>
       <path id="DejaVuSans-39" d="M 1831 0 
L 50 4666 
L 709 4666 
L 2188 738 
L 3669 4666 
L 4325 4666 
L 2547 0 
L 1831 0 
z
" transform="scale(0.015625)"/>
      </defs>
      <use xlink:href="#DejaVuSans-Oblique-35b" transform="translate(0 0.5875)"/>
      <use xlink:href="#DejaVuSans-b" transform="translate(63.652396 41.8875) scale(0.7)"/>
      <use xlink:href="#DejaVuSans-15" transform="translate(90.961966 41.8875) scale(0.7)"/>
      <use xlink:href="#DejaVuSans-c" transform="translate(135.498099 41.8875) scale(0.7)"/>
      <use xlink:href="#DejaVuSans-3" transform="translate(165.542044 0.5875)"/>
      <use xlink:href="#DejaVuSans-46" transform="translate(197.329154 0.5875)"/>
      <use xlink:href="#DejaVuSans-52" transform="translate(252.309622 0.5875)"/>
      <use xlink:href="#DejaVuSans-4b" transform="translate(313.491263 0.5875)"/>
      <use xlink:href="#DejaVuSans-48" transform="translate(376.870169 0.5875)"/>
      <use xlink:href="#DejaVuSans-55" transform="translate(438.393607 0.5875)"/>
      <use xlink:href="#DejaVuSans-48" transform="translate(477.506888 0.5875)"/>
      <use xlink:href="#DejaVuSans-51" transform="translate(539.030326 0.5875)"/>
      <use xlink:href="#DejaVuSans-57" transform="translate(602.409232 0.5875)"/>
      <use xlink:href="#DejaVuSans-3" transform="translate(641.618216 0.5875)"/>
      <use xlink:href="#DejaVuSans-53" transform="translate(673.405326 0.5875)"/>
      <use xlink:href="#DejaVuSans-48" transform="translate(736.881888 0.5875)"/>
      <use xlink:href="#DejaVuSans-44" transform="translate(798.405326 0.5875)"/>
      <use xlink:href="#DejaVuSans-4e" transform="translate(859.684622 0.5875)"/>
      <use xlink:href="#DejaVuSans-3" transform="translate(917.594779 0.5875)"/>
      <use xlink:href="#DejaVuSans-b" transform="translate(949.381888 0.5875)"/>
      <use xlink:href="#DejaVuSans-51" transform="translate(988.39556 0.5875)"/>
      <use xlink:href="#DejaVuSans-50" transform="translate(1051.774466 0.5875)"/>
      <use xlink:href="#DejaVuSans-12" transform="translate(1149.186576 0.5875)"/>
      <use xlink:href="#DejaVuSans-39" transform="translate(1182.877982 0.5875)"/>
      <use xlink:href="#DejaVuSans-c" transform="translate(1251.286185 0.5875)"/>
     </g>
    </g>
   </g>
   <g id="matplotlib.axis_2">
    <g id="ytick_1">
     <g id="line2d_9">
      <defs>
       <path id="m4fd8de2b78" d="M 0 0 
L -3.5 0 
" style="stroke: #000000; stroke-width: 0.8"/>
      </defs>
      <g>
       <use xlink:href="#m4fd8de2b78" x="47.288281" y="299.518125" style="stroke: #000000; stroke-width: 0.8"/>
      </g>
     </g>
     <g id="text_10">
      <!-- 0 -->
      <g transform="translate(33.925781 303.316953) scale(0.1 -0.1)">
       <use xlink:href="#DejaVuSans-13"/>
      </g>
     </g>
    </g>
    <g id="ytick_2">
     <g id="line2d_10">
      <g>
       <use xlink:href="#m4fd8de2b78" x="47.288281" y="266.100403" style="stroke: #000000; stroke-width: 0.8"/>
      </g>
     </g>
     <g id="text_11">
      <!-- 20 -->
      <g transform="translate(27.563281 269.899232) scale(0.1 -0.1)">
       <use xlink:href="#DejaVuSans-15"/>
       <use xlink:href="#DejaVuSans-13" transform="translate(63.625 0)"/>
      </g>
     </g>
    </g>
    <g id="ytick_3">
     <g id="line2d_11">
      <g>
       <use xlink:href="#m4fd8de2b78" x="47.288281" y="232.682682" style="stroke: #000000; stroke-width: 0.8"/>
      </g>
     </g>
     <g id="text_12">
      <!-- 40 -->
      <g transform="translate(27.563281 236.48151) scale(0.1 -0.1)">
       <use xlink:href="#DejaVuSans-17"/>
       <use xlink:href="#DejaVuSans-13" transform="translate(63.625 0)"/>
      </g>
     </g>
    </g>
    <g id="ytick_4">
     <g id="line2d_12">
      <g>
       <use xlink:href="#m4fd8de2b78" x="47.288281" y="199.26496" style="stroke: #000000; stroke-width: 0.8"/>
      </g>
     </g>
     <g id="text_13">
      <!-- 60 -->
      <g transform="translate(27.563281 203.063789) scale(0.1 -0.1)">
       <use xlink:href="#DejaVuSans-19"/>
       <use xlink:href="#DejaVuSans-13" transform="translate(63.625 0)"/>
      </g>
     </g>
    </g>
    <g id="ytick_5">
     <g id="line2d_13">
      <g>
       <use xlink:href="#m4fd8de2b78" x="47.288281" y="165.847239" style="stroke: #000000; stroke-width: 0.8"/>
      </g>
     </g>
     <g id="text_14">
      <!-- 80 -->
      <g transform="translate(27.563281 169.646067) scale(0.1 -0.1)">
       <use xlink:href="#DejaVuSans-1b"/>
       <use xlink:href="#DejaVuSans-13" transform="translate(63.625 0)"/>
      </g>
     </g>
    </g>
    <g id="ytick_6">
     <g id="line2d_14">
      <g>
       <use xlink:href="#m4fd8de2b78" x="47.288281" y="132.429517" style="stroke: #000000; stroke-width: 0.8"/>
      </g>
     </g>
     <g id="text_15">
      <!-- 100 -->
      <g transform="translate(21.200781 136.228346) scale(0.1 -0.1)">
       <use xlink:href="#DejaVuSans-14"/>
       <use xlink:href="#DejaVuSans-13" transform="translate(63.625 0)"/>
       <use xlink:href="#DejaVuSans-13" transform="translate(127.25 0)"/>
      </g>
     </g>
    </g>
    <g id="ytick_7">
     <g id="line2d_15">
      <g>
       <use xlink:href="#m4fd8de2b78" x="47.288281" y="99.011796" style="stroke: #000000; stroke-width: 0.8"/>
      </g>
     </g>
     <g id="text_16">
      <!-- 120 -->
      <g transform="translate(21.200781 102.810624) scale(0.1 -0.1)">
       <use xlink:href="#DejaVuSans-14"/>
       <use xlink:href="#DejaVuSans-15" transform="translate(63.625 0)"/>
       <use xlink:href="#DejaVuSans-13" transform="translate(127.25 0)"/>
      </g>
     </g>
    </g>
    <g id="ytick_8">
     <g id="line2d_16">
      <g>
       <use xlink:href="#m4fd8de2b78" x="47.288281" y="65.594074" style="stroke: #000000; stroke-width: 0.8"/>
      </g>
     </g>
     <g id="text_17">
      <!-- 140 -->
      <g transform="translate(21.200781 69.392902) scale(0.1 -0.1)">
       <use xlink:href="#DejaVuSans-14"/>
       <use xlink:href="#DejaVuSans-17" transform="translate(63.625 0)"/>
       <use xlink:href="#DejaVuSans-13" transform="translate(127.25 0)"/>
      </g>
     </g>
    </g>
    <g id="ytick_9">
     <g id="line2d_17">
      <g>
       <use xlink:href="#m4fd8de2b78" x="47.288281" y="32.176353" style="stroke: #000000; stroke-width: 0.8"/>
      </g>
     </g>
     <g id="text_18">
      <!-- 160 -->
      <g transform="translate(21.200781 35.975181) scale(0.1 -0.1)">
       <use xlink:href="#DejaVuSans-14"/>
       <use xlink:href="#DejaVuSans-19" transform="translate(63.625 0)"/>
       <use xlink:href="#DejaVuSans-13" transform="translate(127.25 0)"/>
      </g>
     </g>
    </g>
    <g id="text_19">
     <!-- MC draws -->
     <g transform="translate(14.798438 185.300156) rotate(-90) scale(0.1 -0.1)">
      <defs>
       <path id="DejaVuSans-30" d="M 628 4666 
L 1569 4666 
L 2759 1491 
L 3956 4666 
L 4897 4666 
L 4897 0 
L 4281 0 
L 4281 4097 
L 3078 897 
L 2444 897 
L 1241 4097 
L 1241 0 
L 628 0 
L 628 4666 
z
" transform="scale(0.015625)"/>
       <path id="DejaVuSans-26" d="M 4122 4306 
L 4122 3641 
Q 3803 3938 3442 4084 
Q 3081 4231 2675 4231 
Q 1875 4231 1450 3742 
Q 1025 3253 1025 2328 
Q 1025 1406 1450 917 
Q 1875 428 2675 428 
Q 3081 428 3442 575 
Q 3803 722 4122 1019 
L 4122 359 
Q 3791 134 3420 21 
Q 3050 -91 2638 -91 
Q 1578 -91 968 557 
Q 359 1206 359 2328 
Q 359 3453 968 4101 
Q 1578 4750 2638 4750 
Q 3056 4750 3426 4639 
Q 3797 4528 4122 4306 
z
" transform="scale(0.015625)"/>
       <path id="DejaVuSans-47" d="M 2906 2969 
L 2906 4863 
L 3481 4863 
L 3481 0 
L 2906 0 
L 2906 525 
Q 2725 213 2448 61 
Q 2172 -91 1784 -91 
Q 1150 -91 751 415 
Q 353 922 353 1747 
Q 353 2572 751 3078 
Q 1150 3584 1784 3584 
Q 2172 3584 2448 3432 
Q 2725 3281 2906 2969 
z
M 947 1747 
Q 947 1113 1208 752 
Q 1469 391 1925 391 
Q 2381 391 2643 752 
Q 2906 1113 2906 1747 
Q 2906 2381 2643 2742 
Q 2381 3103 1925 3103 
Q 1469 3103 1208 2742 
Q 947 2381 947 1747 
z
" transform="scale(0.015625)"/>
       <path id="DejaVuSans-5a" d="M 269 3500 
L 844 3500 
L 1563 769 
L 2278 3500 
L 2956 3500 
L 3675 769 
L 4391 3500 
L 4966 3500 
L 4050 0 
L 3372 0 
L 2619 2869 
L 1863 0 
L 1184 0 
L 269 3500 
z
" transform="scale(0.015625)"/>
       <path id="DejaVuSans-56" d="M 2834 3397 
L 2834 2853 
Q 2591 2978 2328 3040 
Q 2066 3103 1784 3103 
Q 1356 3103 1142 2972 
Q 928 2841 928 2578 
Q 928 2378 1081 2264 
Q 1234 2150 1697 2047 
L 1894 2003 
Q 2506 1872 2764 1633 
Q 3022 1394 3022 966 
Q 3022 478 2636 193 
Q 2250 -91 1575 -91 
Q 1294 -91 989 -36 
Q 684 19 347 128 
L 347 722 
Q 666 556 975 473 
Q 1284 391 1588 391 
Q 1994 391 2212 530 
Q 2431 669 2431 922 
Q 2431 1156 2273 1281 
Q 2116 1406 1581 1522 
L 1381 1569 
Q 847 1681 609 1914 
Q 372 2147 372 2553 
Q 372 3047 722 3315 
Q 1072 3584 1716 3584 
Q 2034 3584 2315 3537 
Q 2597 3491 2834 3397 
z
" transform="scale(0.015625)"/>
      </defs>
      <use xlink:href="#DejaVuSans-30"/>
      <use xlink:href="#DejaVuSans-26" transform="translate(86.28125 0)"/>
      <use xlink:href="#DejaVuSans-3" transform="translate(156.109375 0)"/>
      <use xlink:href="#DejaVuSans-47" transform="translate(187.890625 0)"/>
      <use xlink:href="#DejaVuSans-55" transform="translate(251.375 0)"/>
      <use xlink:href="#DejaVuSans-44" transform="translate(292.484375 0)"/>
      <use xlink:href="#DejaVuSans-5a" transform="translate(353.765625 0)"/>
      <use xlink:href="#DejaVuSans-56" transform="translate(435.546875 0)"/>
     </g>
    </g>
   </g>
   <g id="line2d_18">
    <path d="M 93.286682 299.518125 
L 93.286682 22.318125 
" clip-path="url(#pa33b628d37)" style="fill: none; stroke: #000000; stroke-width: 2; stroke-linecap: square"/>
   </g>
   <g id="line2d_19">
    <path d="M 366.533085 299.518125 
L 366.533085 22.318125 
" clip-path="url(#pa33b628d37)" style="fill: none; stroke-dasharray: 5.55,2.4; stroke-dashoffset: 0; stroke: #c00000; stroke-width: 1.5"/>
   </g>
   <g id="line2d_20">
    <path d="M 473.397372 299.518125 
L 473.397372 22.318125 
" clip-path="url(#pa33b628d37)" style="fill: none; stroke-dasharray: 5.55,2.4; stroke-dashoffset: 0; stroke: #e08000; stroke-width: 1.5"/>
   </g>
   <g id="line2d_21">
    <path d="M 93.185064 299.518125 
L 93.185064 22.318125 
" clip-path="url(#pa33b628d37)" style="fill: none; stroke-dasharray: 1.5,2.475; stroke-dashoffset: 0; stroke: #008000; stroke-width: 1.5"/>
   </g>
   <g id="patch_83">
    <path d="M 47.288281 299.518125 
L 47.288281 22.318125 
" style="fill: none; stroke: #000000; stroke-width: 0.8; stroke-linejoin: miter; stroke-linecap: square"/>
   </g>
   <g id="patch_84">
    <path d="M 493.688281 299.518125 
L 493.688281 22.318125 
" style="fill: none; stroke: #000000; stroke-width: 0.8; stroke-linejoin: miter; stroke-linecap: square"/>
   </g>
   <g id="patch_85">
    <path d="M 47.288281 299.518125 
L 493.688281 299.518125 
" style="fill: none; stroke: #000000; stroke-width: 0.8; stroke-linejoin: miter; stroke-linecap: square"/>
   </g>
   <g id="patch_86">
    <path d="M 47.288281 22.318125 
L 493.688281 22.318125 
" style="fill: none; stroke: #000000; stroke-width: 0.8; stroke-linejoin: miter; stroke-linecap: square"/>
   </g>
   <g id="text_20">
    <!-- chi2 sensitivity: graded, 4000 draws (envelope-vs-DFT perturbations) -->
    <g transform="translate(62.472031 16.318125) scale(0.12 -0.12)">
     <defs>
      <path id="DejaVuSans-4c" d="M 603 3500 
L 1178 3500 
L 1178 0 
L 603 0 
L 603 3500 
z
M 603 4863 
L 1178 4863 
L 1178 4134 
L 603 4134 
L 603 4863 
z
" transform="scale(0.015625)"/>
      <path id="DejaVuSans-59" d="M 191 3500 
L 800 3500 
L 1894 563 
L 2988 3500 
L 3597 3500 
L 2284 0 
L 1503 0 
L 191 3500 
z
" transform="scale(0.015625)"/>
      <path id="DejaVuSans-5c" d="M 2059 -325 
Q 1816 -950 1584 -1140 
Q 1353 -1331 966 -1331 
L 506 -1331 
L 506 -850 
L 844 -850 
Q 1081 -850 1212 -737 
Q 1344 -625 1503 -206 
L 1606 56 
L 191 3500 
L 800 3500 
L 1894 763 
L 2988 3500 
L 3597 3500 
L 2059 -325 
z
" transform="scale(0.015625)"/>
      <path id="DejaVuSans-1d" d="M 750 794 
L 1409 794 
L 1409 0 
L 750 0 
L 750 794 
z
M 750 3309 
L 1409 3309 
L 1409 2516 
L 750 2516 
L 750 3309 
z
" transform="scale(0.015625)"/>
      <path id="DejaVuSans-4a" d="M 2906 1791 
Q 2906 2416 2648 2759 
Q 2391 3103 1925 3103 
Q 1463 3103 1205 2759 
Q 947 2416 947 1791 
Q 947 1169 1205 825 
Q 1463 481 1925 481 
Q 2391 481 2648 825 
Q 2906 1169 2906 1791 
z
M 3481 434 
Q 3481 -459 3084 -895 
Q 2688 -1331 1869 -1331 
Q 1566 -1331 1297 -1286 
Q 1028 -1241 775 -1147 
L 775 -588 
Q 1028 -725 1275 -790 
Q 1522 -856 1778 -856 
Q 2344 -856 2625 -561 
Q 2906 -266 2906 331 
L 2906 616 
Q 2728 306 2450 153 
Q 2172 0 1784 0 
Q 1141 0 747 490 
Q 353 981 353 1791 
Q 353 2603 747 3093 
Q 1141 3584 1784 3584 
Q 2172 3584 2450 3431 
Q 2728 3278 2906 2969 
L 2906 3500 
L 3481 3500 
L 3481 434 
z
" transform="scale(0.015625)"/>
      <path id="DejaVuSans-f" d="M 750 794 
L 1409 794 
L 1409 256 
L 897 -744 
L 494 -744 
L 750 256 
L 750 794 
z
" transform="scale(0.015625)"/>
      <path id="DejaVuSans-4f" d="M 603 4863 
L 1178 4863 
L 1178 0 
L 603 0 
L 603 4863 
z
" transform="scale(0.015625)"/>
      <path id="DejaVuSans-10" d="M 313 2009 
L 1997 2009 
L 1997 1497 
L 313 1497 
L 313 2009 
z
" transform="scale(0.015625)"/>
      <path id="DejaVuSans-27" d="M 1259 4147 
L 1259 519 
L 2022 519 
Q 2988 519 3436 956 
Q 3884 1394 3884 2338 
Q 3884 3275 3436 3711 
Q 2988 4147 2022 4147 
L 1259 4147 
z
M 628 4666 
L 1925 4666 
Q 3281 4666 3915 4102 
Q 4550 3538 4550 2338 
Q 4550 1131 3912 565 
Q 3275 0 1925 0 
L 628 0 
L 628 4666 
z
" transform="scale(0.015625)"/>
      <path id="DejaVuSans-29" d="M 628 4666 
L 3309 4666 
L 3309 4134 
L 1259 4134 
L 1259 2759 
L 3109 2759 
L 3109 2228 
L 1259 2228 
L 1259 0 
L 628 0 
L 628 4666 
z
" transform="scale(0.015625)"/>
      <path id="DejaVuSans-37" d="M -19 4666 
L 3928 4666 
L 3928 4134 
L 2272 4134 
L 2272 0 
L 1638 0 
L 1638 4134 
L -19 4134 
L -19 4666 
z
" transform="scale(0.015625)"/>
      <path id="DejaVuSans-58" d="M 544 1381 
L 544 3500 
L 1119 3500 
L 1119 1403 
Q 1119 906 1312 657 
Q 1506 409 1894 409 
Q 2359 409 2629 706 
Q 2900 1003 2900 1516 
L 2900 3500 
L 3475 3500 
L 3475 0 
L 2900 0 
L 2900 538 
Q 2691 219 2414 64 
Q 2138 -91 1772 -91 
Q 1169 -91 856 284 
Q 544 659 544 1381 
z
M 1991 3584 
L 1991 3584 
z
" transform="scale(0.015625)"/>
      <path id="DejaVuSans-45" d="M 3116 1747 
Q 3116 2381 2855 2742 
Q 2594 3103 2138 3103 
Q 1681 3103 1420 2742 
Q 1159 2381 1159 1747 
Q 1159 1113 1420 752 
Q 1681 391 2138 391 
Q 2594 391 2855 752 
Q 3116 1113 3116 1747 
z
M 1159 2969 
Q 1341 3281 1617 3432 
Q 1894 3584 2278 3584 
Q 2916 3584 3314 3078 
Q 3713 2572 3713 1747 
Q 3713 922 3314 415 
Q 2916 -91 2278 -91 
Q 1894 -91 1617 61 
Q 1341 213 1159 525 
L 1159 0 
L 581 0 
L 581 4863 
L 1159 4863 
L 1159 2969 
z
" transform="scale(0.015625)"/>
     </defs>
     <use xlink:href="#DejaVuSans-46"/>
     <use xlink:href="#DejaVuSans-4b" transform="translate(54.984375 0)"/>
     <use xlink:href="#DejaVuSans-4c" transform="translate(118.359375 0)"/>
     <use xlink:href="#DejaVuSans-15" transform="translate(146.140625 0)"/>
     <use xlink:href="#DejaVuSans-3" transform="translate(209.765625 0)"/>
     <use xlink:href="#DejaVuSans-56" transform="translate(241.546875 0)"/>
     <use xlink:href="#DejaVuSans-48" transform="translate(293.640625 0)"/>
     <use xlink:href="#DejaVuSans-51" transform="translate(355.171875 0)"/>
     <use xlink:href="#DejaVuSans-56" transform="translate(418.546875 0)"/>
     <use xlink:href="#DejaVuSans-4c" transform="translate(470.640625 0)"/>
     <use xlink:href="#DejaVuSans-57" transform="translate(498.421875 0)"/>
     <use xlink:href="#DejaVuSans-4c" transform="translate(537.625 0)"/>
     <use xlink:href="#DejaVuSans-59" transform="translate(565.40625 0)"/>
     <use xlink:href="#DejaVuSans-4c" transform="translate(624.59375 0)"/>
     <use xlink:href="#DejaVuSans-57" transform="translate(652.375 0)"/>
     <use xlink:href="#DejaVuSans-5c" transform="translate(691.578125 0)"/>
     <use xlink:href="#DejaVuSans-1d" transform="translate(743.484375 0)"/>
     <use xlink:href="#DejaVuSans-3" transform="translate(777.171875 0)"/>
     <use xlink:href="#DejaVuSans-4a" transform="translate(808.953125 0)"/>
     <use xlink:href="#DejaVuSans-55" transform="translate(872.4375 0)"/>
     <use xlink:href="#DejaVuSans-44" transform="translate(913.546875 0)"/>
     <use xlink:href="#DejaVuSans-47" transform="translate(974.828125 0)"/>
     <use xlink:href="#DejaVuSans-48" transform="translate(1038.3125 0)"/>
     <use xlink:href="#DejaVuSans-47" transform="translate(1099.84375 0)"/>
     <use xlink:href="#DejaVuSans-f" transform="translate(1163.328125 0)"/>
     <use xlink:href="#DejaVuSans-3" transform="translate(1195.109375 0)"/>
     <use xlink:href="#DejaVuSans-17" transform="translate(1226.890625 0)"/>
     <use xlink:href="#DejaVuSans-13" transform="translate(1290.515625 0)"/>
     <use xlink:href="#DejaVuSans-13" transform="translate(1354.140625 0)"/>
     <use xlink:href="#DejaVuSans-13" transform="translate(1417.765625 0)"/>
     <use xlink:href="#DejaVuSans-3" transform="translate(1481.390625 0)"/>
     <use xlink:href="#DejaVuSans-47" transform="translate(1513.171875 0)"/>
     <use xlink:href="#DejaVuSans-55" transform="translate(1576.65625 0)"/>
     <use xlink:href="#DejaVuSans-44" transform="translate(1617.765625 0)"/>
     <use xlink:href="#DejaVuSans-5a" transform="translate(1679.046875 0)"/>
     <use xlink:href="#DejaVuSans-56" transform="translate(1760.828125 0)"/>
     <use xlink:href="#DejaVuSans-3" transform="translate(1812.921875 0)"/>
     <use xlink:href="#DejaVuSans-b" transform="translate(1844.703125 0)"/>
     <use xlink:href="#DejaVuSans-48" transform="translate(1883.71875 0)"/>
     <use xlink:href="#DejaVuSans-51" transform="translate(1945.25 0)"/>
     <use xlink:href="#DejaVuSans-59" transform="translate(2008.625 0)"/>
     <use xlink:href="#DejaVuSans-48" transform="translate(2067.8125 0)"/>
     <use xlink:href="#DejaVuSans-4f" transform="translate(2129.34375 0)"/>
     <use xlink:href="#DejaVuSans-52" transform="translate(2157.125 0)"/>
     <use xlink:href="#DejaVuSans-53" transform="translate(2218.3125 0)"/>
     <use xlink:href="#DejaVuSans-48" transform="translate(2281.796875 0)"/>
     <use xlink:href="#DejaVuSans-10" transform="translate(2343.328125 0)"/>
     <use xlink:href="#DejaVuSans-59" transform="translate(2376.71875 0)"/>
     <use xlink:href="#DejaVuSans-56" transform="translate(2435.90625 0)"/>
     <use xlink:href="#DejaVuSans-10" transform="translate(2488 0)"/>
     <use xlink:href="#DejaVuSans-27" transform="translate(2524.078125 0)"/>
     <use xlink:href="#DejaVuSans-29" transform="translate(2601.078125 0)"/>
     <use xlink:href="#DejaVuSans-37" transform="translate(2656.84375 0)"/>
     <use xlink:href="#DejaVuSans-3" transform="translate(2717.921875 0)"/>
     <use xlink:href="#DejaVuSans-53" transform="translate(2749.703125 0)"/>
     <use xlink:href="#DejaVuSans-48" transform="translate(2813.1875 0)"/>
     <use xlink:href="#DejaVuSans-55" transform="translate(2874.71875 0)"/>
     <use xlink:href="#DejaVuSans-57" transform="translate(2915.828125 0)"/>
     <use xlink:href="#DejaVuSans-58" transform="translate(2955.03125 0)"/>
     <use xlink:href="#DejaVuSans-55" transform="translate(3018.40625 0)"/>
     <use xlink:href="#DejaVuSans-45" transform="translate(3059.515625 0)"/>
     <use xlink:href="#DejaVuSans-44" transform="translate(3123 0)"/>
     <use xlink:href="#DejaVuSans-57" transform="translate(3184.28125 0)"/>
     <use xlink:href="#DejaVuSans-4c" transform="translate(3223.484375 0)"/>
     <use xlink:href="#DejaVuSans-52" transform="translate(3251.265625 0)"/>
     <use xlink:href="#DejaVuSans-51" transform="translate(3312.453125 0)"/>
     <use xlink:href="#DejaVuSans-56" transform="translate(3375.828125 0)"/>
     <use xlink:href="#DejaVuSans-c" transform="translate(3427.921875 0)"/>
    </g>
   </g>
   <g id="legend_1">
    <g id="patch_87">
     <path d="M 209.034531 295.518125 
L 331.942031 295.518125 
Q 333.542031 295.518125 333.542031 293.918125 
L 333.542031 246.715625 
Q 333.542031 245.115625 331.942031 245.115625 
L 209.034531 245.115625 
Q 207.434531 245.115625 207.434531 246.715625 
L 207.434531 293.918125 
Q 207.434531 295.518125 209.034531 295.518125 
z
" style="fill: #ffffff; opacity: 0.8; stroke: #cccccc; stroke-linejoin: miter"/>
    </g>
    <g id="line2d_22">
     <path d="M 210.634531 251.594375 
L 218.634531 251.594375 
L 226.634531 251.594375 
" style="fill: none; stroke: #000000; stroke-width: 2; stroke-linecap: square"/>
    </g>
    <g id="text_21">
     <!-- baseline 0.177 nm/V -->
     <g transform="translate(233.034531 254.394375) scale(0.08 -0.08)">
      <defs>
       <path id="DejaVuSans-1a" d="M 525 4666 
L 3525 4666 
L 3525 4397 
L 1831 0 
L 1172 0 
L 2766 4134 
L 525 4134 
L 525 4666 
z
" transform="scale(0.015625)"/>
      </defs>
      <use xlink:href="#DejaVuSans-45"/>
      <use xlink:href="#DejaVuSans-44" transform="translate(63.484375 0)"/>
      <use xlink:href="#DejaVuSans-56" transform="translate(124.765625 0)"/>
      <use xlink:href="#DejaVuSans-48" transform="translate(176.859375 0)"/>
      <use xlink:href="#DejaVuSans-4f" transform="translate(238.390625 0)"/>
      <use xlink:href="#DejaVuSans-4c" transform="translate(266.171875 0)"/>
      <use xlink:href="#DejaVuSans-51" transform="translate(293.953125 0)"/>
      <use xlink:href="#DejaVuSans-48" transform="translate(357.328125 0)"/>
      <use xlink:href="#DejaVuSans-3" transform="translate(418.859375 0)"/>
      <use xlink:href="#DejaVuSans-13" transform="translate(450.640625 0)"/>
      <use xlink:href="#DejaVuSans-11" transform="translate(514.265625 0)"/>
      <use xlink:href="#DejaVuSans-14" transform="translate(546.046875 0)"/>
      <use xlink:href="#DejaVuSans-1a" transform="translate(609.671875 0)"/>
      <use xlink:href="#DejaVuSans-1a" transform="translate(673.296875 0)"/>
      <use xlink:href="#DejaVuSans-3" transform="translate(736.921875 0)"/>
      <use xlink:href="#DejaVuSans-51" transform="translate(768.703125 0)"/>
      <use xlink:href="#DejaVuSans-50" transform="translate(832.078125 0)"/>
      <use xlink:href="#DejaVuSans-12" transform="translate(929.484375 0)"/>
      <use xlink:href="#DejaVuSans-39" transform="translate(963.171875 0)"/>
     </g>
    </g>
    <g id="line2d_23">
     <path d="M 210.634531 263.595 
L 218.634531 263.595 
L 226.634531 263.595 
" style="fill: none; stroke-dasharray: 5.55,2.4; stroke-dashoffset: 0; stroke: #c00000; stroke-width: 1.5"/>
    </g>
    <g id="text_22">
     <!-- paper film-avg 1.2 nm/V -->
     <g transform="translate(233.034531 266.395) scale(0.08 -0.08)">
      <defs>
       <path id="DejaVuSans-13af" d="M 3431 3500 
L 3431 0 
L 2853 0 
L 2853 3053 
L 1275 3053 
L 1275 0 
L 697 0 
L 697 3053 
L 147 3053 
L 147 3500 
L 697 3500 
L 697 3744 
Q 697 4316 967 4589 
Q 1238 4863 1797 4863 
L 2375 4863 
L 2375 4384 
L 1825 4384 
Q 1516 4384 1395 4259 
Q 1275 4134 1275 3809 
L 1275 3500 
L 3431 3500 
z
M 2853 4856 
L 3431 4856 
L 3431 4128 
L 2853 4128 
L 2853 4856 
z
" transform="scale(0.015625)"/>
      </defs>
      <use xlink:href="#DejaVuSans-53"/>
      <use xlink:href="#DejaVuSans-44" transform="translate(63.484375 0)"/>
      <use xlink:href="#DejaVuSans-53" transform="translate(124.765625 0)"/>
      <use xlink:href="#DejaVuSans-48" transform="translate(188.25 0)"/>
      <use xlink:href="#DejaVuSans-55" transform="translate(249.78125 0)"/>
      <use xlink:href="#DejaVuSans-3" transform="translate(290.890625 0)"/>
      <use xlink:href="#DejaVuSans-13af" transform="translate(322.671875 0)"/>
      <use xlink:href="#DejaVuSans-4f" transform="translate(385.65625 0)"/>
      <use xlink:href="#DejaVuSans-50" transform="translate(413.4375 0)"/>
      <use xlink:href="#DejaVuSans-10" transform="translate(510.84375 0)"/>
      <use xlink:href="#DejaVuSans-44" transform="translate(546.921875 0)"/>
      <use xlink:href="#DejaVuSans-59" transform="translate(608.203125 0)"/>
      <use xlink:href="#DejaVuSans-4a" transform="translate(667.390625 0)"/>
      <use xlink:href="#DejaVuSans-3" transform="translate(730.875 0)"/>
      <use xlink:href="#DejaVuSans-14" transform="translate(762.65625 0)"/>
      <use xlink:href="#DejaVuSans-11" transform="translate(826.28125 0)"/>
      <use xlink:href="#DejaVuSans-15" transform="translate(858.0625 0)"/>
      <use xlink:href="#DejaVuSans-3" transform="translate(921.6875 0)"/>
      <use xlink:href="#DejaVuSans-51" transform="translate(953.46875 0)"/>
      <use xlink:href="#DejaVuSans-50" transform="translate(1016.84375 0)"/>
      <use xlink:href="#DejaVuSans-12" transform="translate(1114.25 0)"/>
      <use xlink:href="#DejaVuSans-39" transform="translate(1147.9375 0)"/>
     </g>
    </g>
    <g id="line2d_24">
     <path d="M 210.634531 275.595625 
L 218.634531 275.595625 
L 226.634531 275.595625 
" style="fill: none; stroke-dasharray: 5.55,2.4; stroke-dashoffset: 0; stroke: #e08000; stroke-width: 1.5"/>
    </g>
    <g id="text_23">
     <!-- measured 1.6 nm/V -->
     <g transform="translate(233.034531 278.395625) scale(0.08 -0.08)">
      <use xlink:href="#DejaVuSans-50"/>
      <use xlink:href="#DejaVuSans-48" transform="translate(97.40625 0)"/>
      <use xlink:href="#DejaVuSans-44" transform="translate(158.9375 0)"/>
      <use xlink:href="#DejaVuSans-56" transform="translate(220.21875 0)"/>
      <use xlink:href="#DejaVuSans-58" transform="translate(272.3125 0)"/>
      <use xlink:href="#DejaVuSans-55" transform="translate(335.6875 0)"/>
      <use xlink:href="#DejaVuSans-48" transform="translate(374.59375 0)"/>
      <use xlink:href="#DejaVuSans-47" transform="translate(436.125 0)"/>
      <use xlink:href="#DejaVuSans-3" transform="translate(499.609375 0)"/>
      <use xlink:href="#DejaVuSans-14" transform="translate(531.390625 0)"/>
      <use xlink:href="#DejaVuSans-11" transform="translate(595.015625 0)"/>
      <use xlink:href="#DejaVuSans-19" transform="translate(626.796875 0)"/>
      <use xlink:href="#DejaVuSans-3" transform="translate(690.421875 0)"/>
      <use xlink:href="#DejaVuSans-51" transform="translate(722.203125 0)"/>
      <use xlink:href="#DejaVuSans-50" transform="translate(785.578125 0)"/>
      <use xlink:href="#DejaVuSans-12" transform="translate(882.984375 0)"/>
      <use xlink:href="#DejaVuSans-39" transform="translate(916.671875 0)"/>
     </g>
    </g>
    <g id="line2d_25">
     <path d="M 210.634531 287.59625 
L 218.634531 287.59625 
L 226.634531 287.59625 
" style="fill: none; stroke-dasharray: 1.5,2.475; stroke-dashoffset: 0; stroke: #008000; stroke-width: 1.5"/>
    </g>
    <g id="text_24">
     <!-- MC median 0.177 -->
     <g transform="translate(233.034531 290.39625) scale(0.08 -0.08)">
      <use xlink:href="#DejaVuSans-30"/>
      <use xlink:href="#DejaVuSans-26" transform="translate(86.28125 0)"/>
      <use xlink:href="#DejaVuSans-3" transform="translate(156.109375 0)"/>
      <use xlink:href="#DejaVuSans-50" transform="translate(187.890625 0)"/>
      <use xlink:href="#DejaVuSans-48" transform="translate(285.296875 0)"/>
      <use xlink:href="#DejaVuSans-47" transform="translate(346.828125 0)"/>
      <use xlink:href="#DejaVuSans-4c" transform="translate(410.3125 0)"/>
      <use xlink:href="#DejaVuSans-44" transform="translate(438.09375 0)"/>
      <use xlink:href="#DejaVuSans-51" transform="translate(499.375 0)"/>
      <use xlink:href="#DejaVuSans-3" transform="translate(562.75 0)"/>
      <use xlink:href="#DejaVuSans-13" transform="translate(594.53125 0)"/>
      <use xlink:href="#DejaVuSans-11" transform="translate(658.15625 0)"/>
      <use xlink:href="#DejaVuSans-14" transform="translate(689.9375 0)"/>
      <use xlink:href="#DejaVuSans-1a" transform="translate(753.5625 0)"/>
      <use xlink:href="#DejaVuSans-1a" transform="translate(817.1875 0)"/>
     </g>
    </g>
   </g>
  </g>
 </g>
 <defs>
  <clipPath id="pa33b628d37">
   <rect x="47.288281" y="22.318125" width="446.4" height="277.2"/>
  </clipPath>
 </defs>
</svg>
