<?xml version="1.0" encoding="utf-8" standalone="no"?>
<!DOCTYPE svg PUBLIC "-//W3C//DTD SVG 1.1//EN"
  "http://www.w3.org/Graphics/SVG/1.1/DTD/svg11.dtd">
<svg xmlns:xlink="http://www.w3.org/1999/xlink" width="497.703906pt" height="337.718906pt" viewBox="0 0 497.703906 337.718906" xmlns="http://www.w3.org/2000/svg" version="1.1">
 <metadata>
  <rdf:RDF xmlns:dc="http://purl.org/dc/elements/1.1/" xmlns:cc="http://creativecommons.org/ns#" xmlns:rdf="http://www.w3.org/1999/02/22-rdf-syntax-ns#">
   <cc:Work>
    <dc:type rdf:resource="http://purl.org/dc/dcmitype/StillImage"/>
    <dc:date>2026-07-17T20:34:43.431815</dc:date>
    <dc:format>image/svg+xml</dc:format>
    <dc:creator>
     <cc:Agent>
      <dc:title>Matplotlib v3.11.0, https://matplotlib.org/</dc:title>
     </cc:Agent>
    </dc:creator>
   </cc:Work>
  </rdf:RDF>
 </metadata>
 <defs>
  <style type="text/css">*{stroke-linejoin: round; stroke-linecap: butt}</style>
 </defs>
 <g id="figure_1">
  <g id="patch_1">
   <path d="M 0 337.718906 
L 497.703906 337.718906 
L 497.703906 0 
L 0 0 
z
" style="fill: #ffffff"/>
  </g>
  <g id="axes_1">
   <g id="patch_2">
    <path d="M 44.103906 299.518125 
L 490.503906 299.518125 
L 490.503906 22.318125 
L 44.103906 22.318125 
z
" style="fill: #ffffff"/>
   </g>
   <g id="matplotlib.axis_1">
    <g id="xtick_1">
     <g id="line2d_1">
      <path d="M 64.394815 299.518125 
L 64.394815 22.318125 
" clip-path="url(#pf41d4b182f)" style="fill: none; stroke: #b0b0b0; stroke-opacity: 0.25; stroke-width: 0.8; stroke-linecap: square"/>
     </g>
     <g id="line2d_2">
      <defs>
       <path id="mda9a0bbc0e" d="M 0 0 
L 0 3.5 
" style="stroke: #000000; stroke-width: 0.8"/>
      </defs>
      <g>
       <use xlink:href="#mda9a0bbc0e" x="64.394815" y="299.518125" style="stroke: #000000; stroke-width: 0.8"/>
      </g>
     </g>
     <g id="text_1">
      <!-- 1500 -->
      <g transform="translate(51.669815 314.115781) scale(0.1 -0.1)">
       <defs>
        <path id="DejaVuSans-14" d="M 794 531 
L 1825 531 
L 1825 4091 
L 703 3866 
L 703 4441 
L 1819 4666 
L 2450 4666 
L 2450 531 
L 3481 531 
L 3481 0 
L 794 0 
L 794 531 
z
" transform="scale(0.015625)"/>
        <path id="DejaVuSans-18" d="M 691 4666 
L 3169 4666 
L 3169 4134 
L 1269 4134 
L 1269 2991 
Q 1406 3038 1543 3061 
Q 1681 3084 1819 3084 
Q 2600 3084 3056 2656 
Q 3513 2228 3513 1497 
Q 3513 744 3044 326 
Q 2575 -91 1722 -91 
Q 1428 -91 1123 -41 
Q 819 9 494 109 
L 494 744 
Q 775 591 1075 516 
Q 1375 441 1709 441 
Q 2250 441 2565 725 
Q 2881 1009 2881 1497 
Q 2881 1984 2565 2268 
Q 2250 2553 1709 2553 
Q 1456 2553 1204 2497 
Q 953 2441 691 2322 
L 691 4666 
z
" transform="scale(0.015625)"/>
        <path id="DejaVuSans-13" d="M 2034 4250 
Q 1547 4250 1301 3770 
Q 1056 3291 1056 2328 
Q 1056 1369 1301 889 
Q 1547 409 2034 409 
Q 2525 409 2770 889 
Q 3016 1369 3016 2328 
Q 3016 3291 2770 3770 
Q 2525 4250 2034 4250 
z
M 2034 4750 
Q 2819 4750 3233 4129 
Q 3647 3509 3647 2328 
Q 3647 1150 3233 529 
Q 2819 -91 2034 -91 
Q 1250 -91 836 529 
Q 422 1150 422 2328 
Q 422 3509 836 4129 
Q 1250 4750 2034 4750 
z
" transform="scale(0.015625)"/>
       </defs>
       <use xlink:href="#DejaVuSans-14"/>
       <use xlink:href="#DejaVuSans-18" transform="translate(63.625 0)"/>
       <use xlink:href="#DejaVuSans-13" transform="translate(127.25 0)"/>
       <use xlink:href="#DejaVuSans-13" transform="translate(190.875 0)"/>
      </g>
     </g>
    </g>
    <g id="xtick_2">
     <g id="line2d_3">
      <path d="M 132.031179 299.518125 
L 132.031179 22.318125 
" clip-path="url(#pf41d4b182f)" style="fill: none; stroke: #b0b0b0; stroke-opacity: 0.25; stroke-width: 0.8; stroke-linecap: square"/>
     </g>
     <g id="line2d_4">
      <g>
       <use xlink:href="#mda9a0bbc0e" x="132.031179" y="299.518125" style="stroke: #000000; stroke-width: 0.8"/>
      </g>
     </g>
     <g id="text_2">
      <!-- 1520 -->
      <g transform="translate(119.306179 314.115781) scale(0.1 -0.1)">
       <defs>
        <path id="DejaVuSans-15" d="M 1228 531 
L 3431 531 
L 3431 0 
L 469 0 
L 469 531 
Q 828 903 1448 1529 
Q 2069 2156 2228 2338 
Q 2531 2678 2651 2914 
Q 2772 3150 2772 3378 
Q 2772 3750 2511 3984 
Q 2250 4219 1831 4219 
Q 1534 4219 1204 4116 
Q 875 4013 500 3803 
L 500 4441 
Q 881 4594 1212 4672 
Q 1544 4750 1819 4750 
Q 2544 4750 2975 4387 
Q 3406 4025 3406 3419 
Q 3406 3131 3298 2873 
Q 3191 2616 2906 2266 
Q 2828 2175 2409 1742 
Q 1991 1309 1228 531 
z
" transform="scale(0.015625)"/>
       </defs>
       <use xlink:href="#DejaVuSans-14"/>
       <use xlink:href="#DejaVuSans-18" transform="translate(63.625 0)"/>
       <use xlink:href="#DejaVuSans-15" transform="translate(127.25 0)"/>
       <use xlink:href="#DejaVuSans-13" transform="translate(190.875 0)"/>
      </g>
     </g>
    </g>
    <g id="xtick_3">
     <g id="line2d_5">
      <path d="M 199.667543 299.518125 
L 199.667543 22.318125 
" clip-path="url(#pf41d4b182f)" style="fill: none; stroke: #b0b0b0; stroke-opacity: 0.25; stroke-width: 0.8; stroke-linecap: square"/>
     </g>
     <g id="line2d_6">
      <g>
       <use xlink:href="#mda9a0bbc0e" x="199.667543" y="299.518125" style="stroke: #000000; stroke-width: 0.8"/>
      </g>
     </g>
     <g id="text_3">
      <!-- 1540 -->
      <g transform="translate(186.942543 314.115781) scale(0.1 -0.1)">
       <defs>
        <path id="DejaVuSans-17" d="M 2419 4116 
L 825 1625 
L 2419 1625 
L 2419 4116 
z
M 2253 4666 
L 3047 4666 
L 3047 1625 
L 3713 1625 
L 3713 1100 
L 3047 1100 
L 3047 0 
L 2419 0 
L 2419 1100 
L 313 1100 
L 313 1709 
L 2253 4666 
z
" transform="scale(0.015625)"/>
       </defs>
       <use xlink:href="#DejaVuSans-14"/>
       <use xlink:href="#DejaVuSans-18" transform="translate(63.625 0)"/>
       <use xlink:href="#DejaVuSans-17" transform="translate(127.25 0)"/>
       <use xlink:href="#DejaVuSans-13" transform="translate(190.875 0)"/>
      </g>
     </g>
    </g>
    <g id="xtick_4">
     <g id="line2d_7">
      <path d="M 267.303906 299.518125 
L 267.303906 22.318125 
" clip-path="url(#pf41d4b182f)" style="fill: none; stroke: #b0b0b0; stroke-opacity: 0.25; stroke-width: 0.8; stroke-linecap: square"/>
     </g>
     <g id="line2d_8">
      <g>
       <use xlink:href="#mda9a0bbc0e" x="267.303906" y="299.518125" style="stroke: #000000; stroke-width: 0.8"/>
      </g>
     </g>
     <g id="text_4">
      <!-- 1560 -->
      <g transform="translate(254.578906 314.115781) scale(0.1 -0.1)">
       <defs>
        <path id="DejaVuSans-19" d="M 2113 2584 
Q 1688 2584 1439 2293 
Q 1191 2003 1191 1497 
Q 1191 994 1439 701 
Q 1688 409 2113 409 
Q 2538 409 2786 701 
Q 3034 994 3034 1497 
Q 3034 2003 2786 2293 
Q 2538 2584 2113 2584 
z
M 3366 4563 
L 3366 3988 
Q 3128 4100 2886 4159 
Q 2644 4219 2406 4219 
Q 1781 4219 1451 3797 
Q 1122 3375 1075 2522 
Q 1259 2794 1537 2939 
Q 1816 3084 2150 3084 
Q 2853 3084 3261 2657 
Q 3669 2231 3669 1497 
Q 3669 778 3244 343 
Q 2819 -91 2113 -91 
Q 1303 -91 875 529 
Q 447 1150 447 2328 
Q 447 3434 972 4092 
Q 1497 4750 2381 4750 
Q 2619 4750 2861 4703 
Q 3103 4656 3366 4563 
z
" transform="scale(0.015625)"/>
       </defs>
       <use xlink:href="#DejaVuSans-14"/>
       <use xlink:href="#DejaVuSans-18" transform="translate(63.625 0)"/>
       <use xlink:href="#DejaVuSans-19" transform="translate(127.25 0)"/>
       <use xlink:href="#DejaVuSans-13" transform="translate(190.875 0)"/>
      </g>
     </g>
    </g>
    <g id="xtick_5">
     <g id="line2d_9">
      <path d="M 334.94027 299.518125 
L 334.94027 22.318125 
" clip-path="url(#pf41d4b182f)" style="fill: none; stroke: #b0b0b0; stroke-opacity: 0.25; stroke-width: 0.8; stroke-linecap: square"/>
     </g>
     <g id="line2d_10">
      <g>
       <use xlink:href="#mda9a0bbc0e" x="334.94027" y="299.518125" style="stroke: #000000; stroke-width: 0.8"/>
      </g>
     </g>
     <g id="text_5">
      <!-- 1580 -->
      <g transform="translate(322.21527 314.115781) scale(0.1 -0.1)">
       <defs>
        <path id="DejaVuSans-1b" d="M 2034 2216 
Q 1584 2216 1326 1975 
Q 1069 1734 1069 1313 
Q 1069 891 1326 650 
Q 1584 409 2034 409 
Q 2484 409 2743 651 
Q 3003 894 3003 1313 
Q 3003 1734 2745 1975 
Q 2488 2216 2034 2216 
z
M 1403 2484 
Q 997 2584 770 2862 
Q 544 3141 544 3541 
Q 544 4100 942 4425 
Q 1341 4750 2034 4750 
Q 2731 4750 3128 4425 
Q 3525 4100 3525 3541 
Q 3525 3141 3298 2862 
Q 3072 2584 2669 2484 
Q 3125 2378 3379 2068 
Q 3634 1759 3634 1313 
Q 3634 634 3220 271 
Q 2806 -91 2034 -91 
Q 1263 -91 848 271 
Q 434 634 434 1313 
Q 434 1759 690 2068 
Q 947 2378 1403 2484 
z
M 1172 3481 
Q 1172 3119 1398 2916 
Q 1625 2713 2034 2713 
Q 2441 2713 2670 2916 
Q 2900 3119 2900 3481 
Q 2900 3844 2670 4047 
Q 2441 4250 2034 4250 
Q 1625 4250 1398 4047 
Q 1172 3844 1172 3481 
z
" transform="scale(0.015625)"/>
       </defs>
       <use xlink:href="#DejaVuSans-14"/>
       <use xlink:href="#DejaVuSans-18" transform="translate(63.625 0)"/>
       <use xlink:href="#DejaVuSans-1b" transform="translate(127.25 0)"/>
       <use xlink:href="#DejaVuSans-13" transform="translate(190.875 0)"/>
      </g>
     </g>
    </g>
    <g id="xtick_6">
     <g id="line2d_11">
      <path d="M 402.576634 299.518125 
L 402.576634 22.318125 
" clip-path="url(#pf41d4b182f)" style="fill: none; stroke: #b0b0b0; stroke-opacity: 0.25; stroke-width: 0.8; stroke-linecap: square"/>
     </g>
     <g id="line2d_12">
      <g>
       <use xlink:href="#mda9a0bbc0e" x="402.576634" y="299.518125" style="stroke: #000000; stroke-width: 0.8"/>
      </g>
     </g>
     <g id="text_6">
      <!-- 1600 -->
      <g transform="translate(389.851634 314.115781) scale(0.1 -0.1)">
       <use xlink:href="#DejaVuSans-14"/>
       <use xlink:href="#DejaVuSans-19" transform="translate(63.625 0)"/>
       <use xlink:href="#DejaVuSans-13" transform="translate(127.25 0)"/>
       <use xlink:href="#DejaVuSans-13" transform="translate(190.875 0)"/>
      </g>
     </g>
    </g>
    <g id="xtick_7">
     <g id="line2d_13">
      <path d="M 470.212997 299.518125 
L 470.212997 22.318125 
" clip-path="url(#pf41d4b182f)" style="fill: none; stroke: #b0b0b0; stroke-opacity: 0.25; stroke-width: 0.8; stroke-linecap: square"/>
     </g>
     <g id="line2d_14">
      <g>
       <use xlink:href="#mda9a0bbc0e" x="470.212997" y="299.518125" style="stroke: #000000; stroke-width: 0.8"/>
      </g>
     </g>
     <g id="text_7">
      <!-- 1620 -->
      <g transform="translate(457.487997 314.115781) scale(0.1 -0.1)">
       <use xlink:href="#DejaVuSans-14"/>
       <use xlink:href="#DejaVuSans-19" transform="translate(63.625 0)"/>
       <use xlink:href="#DejaVuSans-15" transform="translate(127.25 0)"/>
       <use xlink:href="#DejaVuSans-13" transform="translate(190.875 0)"/>
      </g>
     </g>
    </g>
    <g id="text_8">
     <!-- Wavelength (nm) -->
     <g transform="translate(224.1125 328.116563) scale(0.1 -0.1)">
      <defs>
       <path id="DejaVuSans-3a" d="M 213 4666 
L 850 4666 
L 1831 722 
L 2809 4666 
L 3519 4666 
L 4500 722 
L 5478 4666 
L 6119 4666 
L 4947 0 
L 4153 0 
L 3169 4050 
L 2175 0 
L 1381 0 
L 213 4666 
z
" transform="scale(0.015625)"/>
       <path id="DejaVuSans-44" d="M 2194 1759 
Q 1497 1759 1228 1600 
Q 959 1441 959 1056 
Q 959 750 1161 570 
Q 1363 391 1709 391 
Q 2188 391 2477 730 
Q 2766 1069 2766 1631 
L 2766 1759 
L 2194 1759 
z
M 3341 1997 
L 3341 0 
L 2766 0 
L 2766 531 
Q 2569 213 2275 61 
Q 1981 -91 1556 -91 
Q 1019 -91 701 211 
Q 384 513 384 1019 
Q 384 1609 779 1909 
Q 1175 2209 1959 2209 
L 2766 2209 
L 2766 2266 
Q 2766 2663 2505 2880 
Q 2244 3097 1772 3097 
Q 1472 3097 1187 3025 
Q 903 2953 641 2809 
L 641 3341 
Q 956 3463 1253 3523 
Q 1550 3584 1831 3584 
Q 2591 3584 2966 3190 
Q 3341 2797 3341 1997 
z
" transform="scale(0.015625)"/>
       <path id="DejaVuSans-59" d="M 191 3500 
L 800 3500 
L 1894 563 
L 2988 3500 
L 3597 3500 
L 2284 0 
L 1503 0 
L 191 3500 
z
" transform="scale(0.015625)"/>
       <path id="DejaVuSans-48" d="M 3597 1894 
L 3597 1613 
L 953 1613 
Q 991 1019 1311 708 
Q 1631 397 2203 397 
Q 2534 397 2845 478 
Q 3156 559 3463 722 
L 3463 178 
Q 3153 47 2828 -22 
Q 2503 -91 2169 -91 
Q 1331 -91 842 396 
Q 353 884 353 1716 
Q 353 2575 817 3079 
Q 1281 3584 2069 3584 
Q 2775 3584 3186 3129 
Q 3597 2675 3597 1894 
z
M 3022 2063 
Q 3016 2534 2758 2815 
Q 2500 3097 2075 3097 
Q 1594 3097 1305 2825 
Q 1016 2553 972 2059 
L 3022 2063 
z
" transform="scale(0.015625)"/>
       <path id="DejaVuSans-4f" d="M 603 4863 
L 1178 4863 
L 1178 0 
L 603 0 
L 603 4863 
z
" transform="scale(0.015625)"/>
       <path id="DejaVuSans-51" d="M 3513 2113 
L 3513 0 
L 2938 0 
L 2938 2094 
Q 2938 2591 2744 2837 
Q 2550 3084 2163 3084 
Q 1697 3084 1428 2787 
Q 1159 2491 1159 1978 
L 1159 0 
L 581 0 
L 581 3500 
L 1159 3500 
L 1159 2956 
Q 1366 3272 1645 3428 
Q 1925 3584 2291 3584 
Q 2894 3584 3203 3211 
Q 3513 2838 3513 2113 
z
" transform="scale(0.015625)"/>
       <path id="DejaVuSans-4a" d="M 2906 1791 
Q 2906 2416 2648 2759 
Q 2391 3103 1925 3103 
Q 1463 3103 1205 2759 
Q 947 2416 947 1791 
Q 947 1169 1205 825 
Q 1463 481 1925 481 
Q 2391 481 2648 825 
Q 2906 1169 2906 1791 
z
M 3481 434 
Q 3481 -459 3084 -895 
Q 2688 -1331 1869 -1331 
Q 1566 -1331 1297 -1286 
Q 1028 -1241 775 -1147 
L 775 -588 
Q 1028 -725 1275 -790 
Q 1522 -856 1778 -856 
Q 2344 -856 2625 -561 
Q 2906 -266 2906 331 
L 2906 616 
Q 2728 306 2450 153 
Q 2172 0 1784 0 
Q 1141 0 747 490 
Q 353 981 353 1791 
Q 353 2603 747 3093 
Q 1141 3584 1784 3584 
Q 2172 3584 2450 3431 
Q 2728 3278 2906 2969 
L 2906 3500 
L 3481 3500 
L 3481 434 
z
" transform="scale(0.015625)"/>
       <path id="DejaVuSans-57" d="M 1172 4494 
L 1172 3500 
L 2356 3500 
L 2356 3053 
L 1172 3053 
L 1172 1153 
Q 1172 725 1289 603 
Q 1406 481 1766 481 
L 2356 481 
L 2356 0 
L 1766 0 
Q 1100 0 847 248 
Q 594 497 594 1153 
L 594 3053 
L 172 3053 
L 172 3500 
L 594 3500 
L 594 4494 
L 1172 4494 
z
" transform="scale(0.015625)"/>
       <path id="DejaVuSans-4b" d="M 3513 2113 
L 3513 0 
L 2938 0 
L 2938 2094 
Q 2938 2591 2744 2837 
Q 2550 3084 2163 3084 
Q 1697 3084 1428 2787 
Q 1159 2491 1159 1978 
L 1159 0 
L 581 0 
L 581 4863 
L 1159 4863 
L 1159 2956 
Q 1366 3272 1645 3428 
Q 1925 3584 2291 3584 
Q 2894 3584 3203 3211 
Q 3513 2838 3513 2113 
z
" transform="scale(0.015625)"/>
       <path id="DejaVuSans-3" transform="scale(0.015625)"/>
       <path id="DejaVuSans-b" d="M 1984 4856 
Q 1566 4138 1362 3434 
Q 1159 2731 1159 2009 
Q 1159 1288 1364 580 
Q 1569 -128 1984 -844 
L 1484 -844 
Q 1016 -109 783 600 
Q 550 1309 550 2009 
Q 550 2706 781 3412 
Q 1013 4119 1484 4856 
L 1984 4856 
z
" transform="scale(0.015625)"/>
       <path id="DejaVuSans-50" d="M 3328 2828 
Q 3544 3216 3844 3400 
Q 4144 3584 4550 3584 
Q 5097 3584 5394 3201 
Q 5691 2819 5691 2113 
L 5691 0 
L 5113 0 
L 5113 2094 
Q 5113 2597 4934 2840 
Q 4756 3084 4391 3084 
Q 3944 3084 3684 2787 
Q 3425 2491 3425 1978 
L 3425 0 
L 2847 0 
L 2847 2094 
Q 2847 2600 2669 2842 
Q 2491 3084 2119 3084 
Q 1678 3084 1418 2786 
Q 1159 2488 1159 1978 
L 1159 0 
L 581 0 
L 581 3500 
L 1159 3500 
L 1159 2956 
Q 1356 3278 1631 3431 
Q 1906 3584 2284 3584 
Q 2666 3584 2933 3390 
Q 3200 3197 3328 2828 
z
" transform="scale(0.015625)"/>
       <path id="DejaVuSans-c" d="M 513 4856 
L 1013 4856 
Q 1481 4119 1714 3412 
Q 1947 2706 1947 2009 
Q 1947 1309 1714 600 
Q 1481 -109 1013 -844 
L 513 -844 
Q 928 -128 1133 580 
Q 1338 1288 1338 2009 
Q 1338 2731 1133 3434 
Q 928 4138 513 4856 
z
" transform="scale(0.015625)"/>
      </defs>
      <use xlink:href="#DejaVuSans-3a"/>
      <use xlink:href="#DejaVuSans-44" transform="translate(92.484375 0)"/>
      <use xlink:href="#DejaVuSans-59" transform="translate(153.765625 0)"/>
      <use xlink:href="#DejaVuSans-48" transform="translate(212.953125 0)"/>
      <use xlink:href="#DejaVuSans-4f" transform="translate(274.484375 0)"/>
      <use xlink:href="#DejaVuSans-48" transform="translate(302.265625 0)"/>
      <use xlink:href="#DejaVuSans-51" transform="translate(363.796875 0)"/>
      <use xlink:href="#DejaVuSans-4a" transform="translate(427.171875 0)"/>
      <use xlink:href="#DejaVuSans-57" transform="translate(490.65625 0)"/>
      <use xlink:href="#DejaVuSans-4b" transform="translate(529.859375 0)"/>
      <use xlink:href="#DejaVuSans-3" transform="translate(593.234375 0)"/>
      <use xlink:href="#DejaVuSans-b" transform="translate(625.015625 0)"/>
      <use xlink:href="#DejaVuSans-51" transform="translate(664.03125 0)"/>
      <use xlink:href="#DejaVuSans-50" transform="translate(727.40625 0)"/>
      <use xlink:href="#DejaVuSans-c" transform="translate(824.8125 0)"/>
     </g>
    </g>
   </g>
   <g id="matplotlib.axis_2">
    <g id="ytick_1">
     <g id="line2d_15">
      <path d="M 44.103906 295.573435 
L 490.503906 295.573435 
" clip-path="url(#pf41d4b182f)" style="fill: none; stroke: #b0b0b0; stroke-opacity: 0.25; stroke-width: 0.8; stroke-linecap: square"/>
     </g>
     <g id="line2d_16">
      <defs>
       <path id="md88d2b49a1" d="M 0 0 
L -3.5 0 
" style="stroke: #000000; stroke-width: 0.8"/>
      </defs>
      <g>
       <use xlink:href="#md88d2b49a1" x="44.103906" y="295.573435" style="stroke: #000000; stroke-width: 0.8"/>
      </g>
     </g>
     <g id="text_9">
      <!-- 0.0 -->
      <g transform="translate(21.200781 299.372263) scale(0.1 -0.1)">
       <defs>
        <path id="DejaVuSans-11" d="M 684 794 
L 1344 794 
L 1344 0 
L 684 0 
L 684 794 
z
" transform="scale(0.015625)"/>
       </defs>
       <use xlink:href="#DejaVuSans-13"/>
       <use xlink:href="#DejaVuSans-11" transform="translate(63.625 0)"/>
       <use xlink:href="#DejaVuSans-13" transform="translate(95.40625 0)"/>
      </g>
     </g>
    </g>
    <g id="ytick_2">
     <g id="line2d_17">
      <path d="M 44.103906 242.555388 
L 490.503906 242.555388 
" clip-path="url(#pf41d4b182f)" style="fill: none; stroke: #b0b0b0; stroke-opacity: 0.25; stroke-width: 0.8; stroke-linecap: square"/>
     </g>
     <g id="line2d_18">
      <g>
       <use xlink:href="#md88d2b49a1" x="44.103906" y="242.555388" style="stroke: #000000; stroke-width: 0.8"/>
      </g>
     </g>
     <g id="text_10">
      <!-- 0.2 -->
      <g transform="translate(21.200781 246.354216) scale(0.1 -0.1)">
       <use xlink:href="#DejaVuSans-13"/>
       <use xlink:href="#DejaVuSans-11" transform="translate(63.625 0)"/>
       <use xlink:href="#DejaVuSans-15" transform="translate(95.40625 0)"/>
      </g>
     </g>
    </g>
    <g id="ytick_3">
     <g id="line2d_19">
      <path d="M 44.103906 189.537341 
L 490.503906 189.537341 
" clip-path="url(#pf41d4b182f)" style="fill: none; stroke: #b0b0b0; stroke-opacity: 0.25; stroke-width: 0.8; stroke-linecap: square"/>
     </g>
     <g id="line2d_20">
      <g>
       <use xlink:href="#md88d2b49a1" x="44.103906" y="189.537341" style="stroke: #000000; stroke-width: 0.8"/>
      </g>
     </g>
     <g id="text_11">
      <!-- 0.4 -->
      <g transform="translate(21.200781 193.336169) scale(0.1 -0.1)">
       <use xlink:href="#DejaVuSans-13"/>
       <use xlink:href="#DejaVuSans-11" transform="translate(63.625 0)"/>
       <use xlink:href="#DejaVuSans-17" transform="translate(95.40625 0)"/>
      </g>
     </g>
    </g>
    <g id="ytick_4">
     <g id="line2d_21">
      <path d="M 44.103906 136.519295 
L 490.503906 136.519295 
" clip-path="url(#pf41d4b182f)" style="fill: none; stroke: #b0b0b0; stroke-opacity: 0.25; stroke-width: 0.8; stroke-linecap: square"/>
     </g>
     <g id="line2d_22">
      <g>
       <use xlink:href="#md88d2b49a1" x="44.103906" y="136.519295" style="stroke: #000000; stroke-width: 0.8"/>
      </g>
     </g>
     <g id="text_12">
      <!-- 0.6 -->
      <g transform="translate(21.200781 140.318123) scale(0.1 -0.1)">
       <use xlink:href="#DejaVuSans-13"/>
       <use xlink:href="#DejaVuSans-11" transform="translate(63.625 0)"/>
       <use xlink:href="#DejaVuSans-19" transform="translate(95.40625 0)"/>
      </g>
     </g>
    </g>
    <g id="ytick_5">
     <g id="line2d_23">
      <path d="M 44.103906 83.501248 
L 490.503906 83.501248 
" clip-path="url(#pf41d4b182f)" style="fill: none; stroke: #b0b0b0; stroke-opacity: 0.25; stroke-width: 0.8; stroke-linecap: square"/>
     </g>
     <g id="line2d_24">
      <g>
       <use xlink:href="#md88d2b49a1" x="44.103906" y="83.501248" style="stroke: #000000; stroke-width: 0.8"/>
      </g>
     </g>
     <g id="text_13">
      <!-- 0.8 -->
      <g transform="translate(21.200781 87.300076) scale(0.1 -0.1)">
       <use xlink:href="#DejaVuSans-13"/>
       <use xlink:href="#DejaVuSans-11" transform="translate(63.625 0)"/>
       <use xlink:href="#DejaVuSans-1b" transform="translate(95.40625 0)"/>
      </g>
     </g>
    </g>
    <g id="ytick_6">
     <g id="line2d_25">
      <path d="M 44.103906 30.483202 
L 490.503906 30.483202 
" clip-path="url(#pf41d4b182f)" style="fill: none; stroke: #b0b0b0; stroke-opacity: 0.25; stroke-width: 0.8; stroke-linecap: square"/>
     </g>
     <g id="line2d_26">
      <g>
       <use xlink:href="#md88d2b49a1" x="44.103906" y="30.483202" style="stroke: #000000; stroke-width: 0.8"/>
      </g>
     </g>
     <g id="text_14">
      <!-- 1.0 -->
      <g transform="translate(21.200781 34.28203) scale(0.1 -0.1)">
       <use xlink:href="#DejaVuSans-14"/>
       <use xlink:href="#DejaVuSans-11" transform="translate(63.625 0)"/>
       <use xlink:href="#DejaVuSans-13" transform="translate(95.40625 0)"/>
      </g>
     </g>
    </g>
    <g id="text_15">
     <!-- Transmission -->
     <g transform="translate(14.798438 193.215781) rotate(-90) scale(0.1 -0.1)">
      <defs>
       <path id="DejaVuSans-37" d="M -19 4666 
L 3928 4666 
L 3928 4134 
L 2272 4134 
L 2272 0 
L 1638 0 
L 1638 4134 
L -19 4134 
L -19 4666 
z
" transform="scale(0.015625)"/>
       <path id="DejaVuSans-55" d="M 2631 2963 
Q 2534 3019 2420 3045 
Q 2306 3072 2169 3072 
Q 1681 3072 1420 2755 
Q 1159 2438 1159 1844 
L 1159 0 
L 581 0 
L 581 3500 
L 1159 3500 
L 1159 2956 
Q 1341 3275 1631 3429 
Q 1922 3584 2338 3584 
Q 2397 3584 2469 3576 
Q 2541 3569 2628 3553 
L 2631 2963 
z
" transform="scale(0.015625)"/>
       <path id="DejaVuSans-56" d="M 2834 3397 
L 2834 2853 
Q 2591 2978 2328 3040 
Q 2066 3103 1784 3103 
Q 1356 3103 1142 2972 
Q 928 2841 928 2578 
Q 928 2378 1081 2264 
Q 1234 2150 1697 2047 
L 1894 2003 
Q 2506 1872 2764 1633 
Q 3022 1394 3022 966 
Q 3022 478 2636 193 
Q 2250 -91 1575 -91 
Q 1294 -91 989 -36 
Q 684 19 347 128 
L 347 722 
Q 666 556 975 473 
Q 1284 391 1588 391 
Q 1994 391 2212 530 
Q 2431 669 2431 922 
Q 2431 1156 2273 1281 
Q 2116 1406 1581 1522 
L 1381 1569 
Q 847 1681 609 1914 
Q 372 2147 372 2553 
Q 372 3047 722 3315 
Q 1072 3584 1716 3584 
Q 2034 3584 2315 3537 
Q 2597 3491 2834 3397 
z
" transform="scale(0.015625)"/>
       <path id="DejaVuSans-4c" d="M 603 3500 
L 1178 3500 
L 1178 0 
L 603 0 
L 603 3500 
z
M 603 4863 
L 1178 4863 
L 1178 4134 
L 603 4134 
L 603 4863 
z
" transform="scale(0.015625)"/>
       <path id="DejaVuSans-52" d="M 1959 3097 
Q 1497 3097 1228 2736 
Q 959 2375 959 1747 
Q 959 1119 1226 758 
Q 1494 397 1959 397 
Q 2419 397 2687 759 
Q 2956 1122 2956 1747 
Q 2956 2369 2687 2733 
Q 2419 3097 1959 3097 
z
M 1959 3584 
Q 2709 3584 3137 3096 
Q 3566 2609 3566 1747 
Q 3566 888 3137 398 
Q 2709 -91 1959 -91 
Q 1206 -91 779 398 
Q 353 888 353 1747 
Q 353 2609 779 3096 
Q 1206 3584 1959 3584 
z
" transform="scale(0.015625)"/>
      </defs>
      <use xlink:href="#DejaVuSans-37"/>
      <use xlink:href="#DejaVuSans-55" transform="translate(46.375 0)"/>
      <use xlink:href="#DejaVuSans-44" transform="translate(87.484375 0)"/>
      <use xlink:href="#DejaVuSans-51" transform="translate(148.765625 0)"/>
      <use xlink:href="#DejaVuSans-56" transform="translate(212.140625 0)"/>
      <use xlink:href="#DejaVuSans-50" transform="translate(264.234375 0)"/>
      <use xlink:href="#DejaVuSans-4c" transform="translate(361.640625 0)"/>
      <use xlink:href="#DejaVuSans-56" transform="translate(389.421875 0)"/>
      <use xlink:href="#DejaVuSans-56" transform="translate(441.515625 0)"/>
      <use xlink:href="#DejaVuSans-4c" transform="translate(493.609375 0)"/>
      <use xlink:href="#DejaVuSans-52" transform="translate(521.390625 0)"/>
      <use xlink:href="#DejaVuSans-51" transform="translate(582.578125 0)"/>
     </g>
    </g>
   </g>
   <g id="line2d_27">
    <path d="M 64.394815 81.701914 
L 79.612997 83.372237 
L 94.831179 85.285914 
L 110.049361 87.44908 
L 125.267543 89.861024 
L 140.485724 92.515224 
L 155.703906 95.401781 
L 170.922088 98.511813 
L 186.14027 101.844997 
L 199.667543 105.012145 
L 211.503906 107.978759 
L 221.649361 110.72478 
L 230.103906 113.234241 
L 236.867543 115.482226 
L 241.94027 117.414964 
L 245.322088 118.916542 
L 248.703906 120.763501 
L 250.394815 121.970901 
L 252.085724 123.783801 
L 253.776634 126.269757 
L 257.158452 126.78235 
L 263.922088 127.369438 
L 282.522088 128.819626 
L 287.594815 129.420696 
L 292.667543 130.258121 
L 296.049361 131.034876 
L 299.431179 132.099613 
L 301.122088 132.793311 
L 302.812997 133.640955 
L 304.503906 134.697774 
L 306.194815 136.048317 
L 307.885724 137.828683 
L 309.576634 140.272239 
L 311.267543 143.813377 
L 312.958452 149.35524 
L 314.649361 159.09251 
L 316.34027 179.728159 
L 318.031179 237.914547 
L 319.722088 238.783431 
L 321.412997 102.253566 
L 323.103906 99.376429 
L 324.794815 103.688016 
L 326.485724 107.186716 
L 328.176634 109.73591 
L 329.867543 111.617946 
L 331.558452 113.045186 
L 333.249361 114.155351 
L 334.94027 115.037717 
L 336.631179 115.751659 
L 340.012997 116.825016 
L 343.394815 117.579743 
L 346.776634 118.126318 
L 351.849361 118.690443 
L 358.612997 119.141689 
L 367.067543 119.419467 
L 377.212997 119.511332 
L 392.431179 119.385646 
L 431.322088 118.877284 
L 436.394815 119.102663 
L 438.085724 119.287852 
L 439.776634 119.607483 
L 441.467543 120.226992 
L 443.158452 121.777224 
L 444.849361 130.858477 
L 446.54027 108.498307 
L 448.231179 114.374585 
L 449.922088 115.67952 
L 451.612997 116.240949 
L 453.303906 116.547436 
L 456.685724 116.866419 
L 463.449361 117.140392 
L 470.212997 117.32878 
L 470.212997 117.32878 
" clip-path="url(#pf41d4b182f)" style="fill: none; stroke: #1f77b4; stroke-linecap: square"/>
   </g>
   <g id="line2d_28">
    <path d="M 64.394815 81.734593 
L 76.231179 83.051509 
L 88.067543 84.466011 
L 101.594815 86.285137 
L 116.812997 88.570054 
L 132.031179 91.103079 
L 147.249361 93.876656 
L 162.467543 96.882794 
L 177.685724 100.119686 
L 191.212997 103.203903 
L 203.049361 106.09564 
L 213.194815 108.773929 
L 221.649361 111.23217 
L 226.722088 112.880998 
L 230.103906 114.113717 
L 233.485724 115.564316 
L 235.176634 116.48106 
L 236.867543 118.070496 
L 238.558452 119.057833 
L 243.631179 120.193087 
L 258.849361 123.347149 
L 263.922088 124.668978 
L 265.612997 125.224878 
L 267.303906 125.948024 
L 268.994815 127.33635 
L 272.376634 127.766873 
L 285.903906 129.206011 
L 290.976634 130.026805 
L 294.358452 130.781199 
L 297.74027 131.817364 
L 299.431179 132.497493 
L 301.122088 133.336704 
L 302.812997 134.398834 
L 304.503906 135.787474 
L 306.194815 137.683326 
L 307.885724 140.433725 
L 309.576634 144.804876 
L 311.267543 152.883878 
L 312.958452 172.856322 
L 314.649361 264.610435 
L 316.34027 101.66518 
L 318.031179 108.346005 
L 321.412997 129.696169 
L 323.103906 153.970339 
L 324.794815 286.918125 
L 326.485724 97.64432 
L 328.176634 104.196155 
L 329.867543 108.44322 
L 331.558452 111.056299 
L 333.249361 112.820122 
L 334.94027 114.093126 
L 336.631179 115.055595 
L 338.322088 115.807877 
L 341.703906 116.902244 
L 345.085724 117.650067 
L 348.467543 118.18225 
L 353.54027 118.723769 
L 360.303906 119.150131 
L 368.758452 119.405882 
L 378.903906 119.481001 
L 394.122088 119.343431 
L 427.94027 118.889258 
L 433.012997 119.06456 
L 434.703906 119.228305 
L 436.394815 119.540549 
L 438.085724 120.271308 
L 439.776634 123.497567 
L 441.467543 110.966781 
L 443.158452 116.296823 
L 444.849361 117.304668 
L 446.54027 117.906046 
L 448.231179 118.68616 
L 449.922088 121.626755 
L 451.612997 111.974788 
L 453.303906 115.665135 
L 454.994815 116.366445 
L 456.685724 116.669441 
L 460.067543 116.953631 
L 468.522088 117.260939 
L 470.212997 117.313703 
L 470.212997 117.313703 
" clip-path="url(#pf41d4b182f)" style="fill: none; stroke: #ff7f0e; stroke-linecap: square"/>
   </g>
   <g id="line2d_29">
    <path d="M 64.394815 82.077685 
L 69.467543 82.533057 
L 71.158452 82.580691 
L 72.849361 82.019027 
L 74.54027 83.77755 
L 77.922088 83.912396 
L 84.685724 84.67473 
L 96.522088 86.268283 
L 110.049361 88.308974 
L 123.576634 90.564593 
L 137.103906 93.035907 
L 150.631179 95.733289 
L 162.467543 98.301932 
L 172.612997 100.697558 
L 181.067543 102.889079 
L 187.831179 104.852305 
L 192.903906 106.557945 
L 196.285724 107.940398 
L 197.976634 108.809546 
L 199.667543 110.090502 
L 201.358452 111.686201 
L 204.74027 112.450934 
L 211.503906 113.606282 
L 223.34027 115.323109 
L 262.231179 120.742013 
L 270.685724 122.22393 
L 275.758452 123.288164 
L 280.831179 124.586878 
L 284.212997 125.668065 
L 287.594815 127.040108 
L 289.285724 127.895476 
L 290.976634 128.920634 
L 292.667543 130.189951 
L 294.358452 131.830044 
L 296.049361 134.075833 
L 297.74027 137.418001 
L 299.431179 143.076773 
L 301.122088 155.084747 
L 302.812997 196.200153 
L 304.503906 177.80567 
L 306.194815 102.752482 
L 307.885724 109.734585 
L 309.576634 114.163927 
L 311.267543 116.933718 
L 312.958452 118.846128 
L 314.649361 120.285841 
L 316.34027 121.454395 
L 319.722088 123.418702 
L 323.103906 125.375827 
L 324.794815 126.541311 
L 326.485724 127.993139 
L 328.176634 129.969506 
L 329.867543 132.97394 
L 331.558452 138.319617 
L 333.249361 150.809819 
L 334.94027 205.801176 
L 336.631179 110.293369 
L 338.322088 99.674025 
L 340.012997 106.56534 
L 341.703906 110.303192 
L 343.394815 112.559779 
L 345.085724 114.057371 
L 346.776634 115.119205 
L 348.467543 115.908293 
L 350.158452 116.515203 
L 353.54027 117.379668 
L 356.922088 117.954955 
L 361.994815 118.507649 
L 368.758452 118.917765 
L 377.212997 119.147643 
L 389.049361 119.199097 
L 419.485724 119.093128 
L 422.867543 119.337361 
L 424.558452 119.644902 
L 426.249361 120.380711 
L 427.94027 123.605781 
L 429.631179 109.569883 
L 431.322088 115.841888 
L 433.012997 116.811705 
L 434.703906 117.187435 
L 438.085724 117.486336 
L 444.849361 117.65303 
L 454.994815 117.886051 
L 458.376634 118.250929 
L 460.067543 118.823962 
L 461.758452 121.981317 
L 463.449361 113.804113 
L 465.14027 116.147415 
L 466.831179 116.672286 
L 470.212997 117.071765 
L 470.212997 117.071765 
" clip-path="url(#pf41d4b182f)" style="fill: none; stroke: #2ca02c; stroke-linecap: square"/>
   </g>
   <g id="line2d_30">
    <path d="M 64.394815 83.401622 
L 67.776634 83.614324 
L 69.467543 83.555942 
L 71.158452 83.033529 
L 72.849361 78.623427 
L 74.54027 87.413177 
L 76.231179 86.623548 
L 77.922088 86.493673 
L 81.303906 86.713658 
L 86.376634 87.360243 
L 94.831179 88.690989 
L 104.976634 90.508577 
L 115.122088 92.543271 
L 123.576634 94.439245 
L 130.34027 96.140803 
L 135.412997 97.583819 
L 140.485724 99.280911 
L 143.867543 100.70875 
L 145.558452 101.642228 
L 147.249361 103.144143 
L 148.94027 104.802748 
L 152.322088 105.5794 
L 157.394815 106.434059 
L 165.849361 107.608286 
L 179.376634 109.237666 
L 203.049361 111.817019 
L 236.867543 115.508266 
L 248.703906 117.039492 
L 255.467543 118.092861 
L 260.54027 119.047953 
L 265.612997 120.255723 
L 268.994815 121.303426 
L 272.376634 122.694365 
L 274.067543 123.597588 
L 275.758452 124.716683 
L 277.449361 126.156556 
L 279.14027 128.102776 
L 280.831179 130.916791 
L 282.522088 135.405063 
L 284.212997 143.779312 
L 285.903906 164.604113 
L 287.594815 236.755228 
L 289.285724 76.260366 
L 290.976634 90.697386 
L 292.667543 99.377468 
L 294.358452 104.112238 
L 296.049361 107.074216 
L 297.74027 109.118347 
L 299.431179 110.631492 
L 301.122088 111.811953 
L 302.812997 112.771493 
L 306.194815 114.274712 
L 309.576634 115.448663 
L 314.649361 116.898892 
L 328.176634 120.486345 
L 331.558452 121.609543 
L 334.94027 123.000511 
L 336.631179 123.856996 
L 338.322088 124.875741 
L 340.012997 126.125931 
L 341.703906 127.720847 
L 343.394815 129.86013 
L 345.085724 132.931402 
L 346.776634 137.795022 
L 348.467543 146.766513 
L 350.158452 167.696385 
L 351.849361 139.389115 
L 353.54027 71.894487 
L 355.231179 92.736028 
L 356.922088 102.521089 
L 358.612997 109.249219 
L 360.303906 111.582429 
L 361.994815 113.106585 
L 363.685724 114.190538 
L 365.376634 114.999703 
L 367.067543 115.624547 
L 370.449361 116.518942 
L 373.831179 117.118485 
L 378.903906 117.703273 
L 385.667543 118.1617 
L 395.812997 118.554464 
L 402.576634 118.861595 
L 405.958452 119.224724 
L 407.649361 119.617977 
L 409.34027 120.512628 
L 411.031179 124.406151 
L 412.722088 108.523124 
L 414.412997 115.3652 
L 416.103906 116.478775 
L 417.794815 116.921486 
L 421.176634 117.283566 
L 426.249361 117.449269 
L 436.394815 117.459063 
L 461.758452 117.374188 
L 470.212997 117.583522 
L 470.212997 117.583522 
" clip-path="url(#pf41d4b182f)" style="fill: none; stroke: #d62728; stroke-linecap: square"/>
   </g>
   <g id="line2d_31">
    <path d="M 64.394815 98.435878 
L 66.085724 97.995085 
L 67.776634 97.089566 
L 69.467543 94.925825 
L 71.158452 86.69502 
L 72.849361 130.434571 
L 74.54027 109.967165 
L 76.231179 106.620397 
L 77.922088 105.365748 
L 79.612997 104.758765 
L 81.303906 104.43398 
L 84.685724 104.165386 
L 89.758452 104.153283 
L 98.212997 104.475848 
L 115.122088 105.441051 
L 160.776634 108.34996 
L 187.831179 110.244702 
L 204.74027 111.643355 
L 214.885724 112.679439 
L 221.649361 113.538052 
L 226.722088 114.33907 
L 231.794815 115.371958 
L 235.176634 116.275635 
L 238.558452 117.471779 
L 240.249361 118.240213 
L 241.94027 119.178604 
L 243.631179 120.359031 
L 245.322088 121.900749 
L 247.012997 124.016021 
L 248.703906 127.121629 
L 250.394815 132.157671 
L 252.085724 141.740417 
L 253.776634 166.06971 
L 255.467543 207.641167 
L 257.158452 64.349831 
L 258.849361 83.088264 
L 260.54027 92.220754 
L 262.231179 97.156654 
L 263.922088 100.225983 
L 265.612997 102.323631 
L 267.303906 103.854832 
L 268.994815 105.027925 
L 270.685724 105.960553 
L 272.376634 106.724043 
L 275.758452 107.911405 
L 279.14027 108.806817 
L 284.212997 109.827523 
L 289.285724 110.61675 
L 296.049361 111.461744 
L 306.194815 112.489297 
L 345.085724 116.145237 
L 351.849361 117.130132 
L 356.922088 118.113975 
L 360.303906 118.967398 
L 363.685724 120.074928 
L 365.376634 120.768258 
L 367.067543 121.592113 
L 368.758452 122.589565 
L 370.449361 123.823504 
L 372.14027 125.387118 
L 373.831179 127.41299 
L 375.522088 130.001279 
L 377.212997 129.906184 
L 378.903906 145.369305 
L 380.594815 155.546513 
L 382.285724 126.529117 
L 383.976634 34.918125 
L 385.667543 66.206716 
L 387.358452 82.422821 
L 389.049361 90.719556 
L 390.74027 95.630833 
L 392.431179 98.854577 
L 394.122088 101.12844 
L 395.812997 102.818187 
L 397.503906 104.124307 
L 399.194815 105.16543 
L 400.885724 106.01608 
L 404.267543 107.326946 
L 407.649361 108.295833 
L 411.031179 109.047277 
L 416.103906 109.915074 
L 422.867543 110.780597 
L 431.322088 111.612414 
L 456.685724 113.894572 
L 460.067543 114.387342 
L 461.758452 114.747406 
L 463.449361 115.523333 
L 466.831179 115.849012 
L 470.212997 116.075979 
L 470.212997 116.075979 
" clip-path="url(#pf41d4b182f)" style="fill: none; stroke: #9467bd; stroke-linecap: square"/>
   </g>
   <g id="line2d_32">
    <path d="M 64.394815 97.402031 
L 66.085724 89.943448 
L 67.776634 102.897877 
L 69.467543 125.057459 
L 71.158452 115.804885 
L 72.849361 112.749439 
L 74.54027 111.276414 
L 76.231179 110.433736 
L 77.922088 109.904481 
L 81.303906 109.313159 
L 84.685724 109.031087 
L 89.758452 108.873165 
L 98.212997 108.921553 
L 110.049361 109.254358 
L 126.958452 109.974856 
L 140.485724 110.744355 
L 150.631179 111.518499 
L 157.394815 112.214721 
L 162.467543 112.907726 
L 167.54027 113.857954 
L 170.922088 114.73543 
L 174.303906 115.953934 
L 175.994815 116.767152 
L 177.685724 117.789576 
L 179.376634 119.118567 
L 181.067543 120.922455 
L 182.758452 123.518927 
L 184.449361 127.584847 
L 186.14027 134.844024 
L 187.831179 151.112463 
L 189.522088 200.9136 
L 191.212997 56.687515 
L 192.903906 75.339371 
L 194.594815 87.279687 
L 196.285724 93.261296 
L 197.976634 96.788644 
L 199.667543 99.108292 
L 201.358452 100.750471 
L 203.049361 101.975949 
L 204.74027 102.927266 
L 206.431179 103.688733 
L 209.812997 104.836076 
L 213.194815 105.664836 
L 218.267543 106.560278 
L 223.34027 107.20728 
L 230.103906 107.845698 
L 240.249361 108.531723 
L 253.776634 109.180719 
L 274.067543 109.896883 
L 296.049361 110.701571 
L 301.122088 111.114845 
L 302.812997 111.376406 
L 304.503906 111.835091 
L 306.194815 112.94412 
L 307.885724 121.024913 
L 309.576634 105.842448 
L 311.267543 108.638965 
L 312.958452 109.382472 
L 314.649361 109.740099 
L 318.031179 110.110556 
L 324.794815 110.466921 
L 338.322088 110.858037 
L 383.976634 112.039247 
L 395.812997 112.57215 
L 404.267543 113.133949 
L 411.031179 113.786217 
L 416.103906 114.482335 
L 419.485724 115.107522 
L 422.867543 115.935479 
L 426.249361 117.08512 
L 427.94027 117.84574 
L 429.631179 118.789965 
L 431.322088 119.992738 
L 433.012997 121.574717 
L 434.703906 123.740574 
L 436.394815 126.855272 
L 438.085724 131.565817 
L 439.776634 138.423001 
L 441.467543 135.313513 
L 443.158452 64.603314 
L 444.849361 69.697027 
L 446.54027 83.384477 
L 448.231179 90.883847 
L 449.922088 95.316365 
L 451.612997 98.203678 
L 453.303906 100.229672 
L 454.994815 101.733391 
L 456.685724 102.899373 
L 458.376634 103.836009 
L 461.758452 105.268851 
L 465.14027 106.346424 
L 470.212997 107.618696 
L 470.212997 107.618696 
" clip-path="url(#pf41d4b182f)" style="fill: none; stroke: #8c564b; stroke-linecap: square"/>
   </g>
   <g id="patch_3">
    <path d="M 44.103906 299.518125 
L 44.103906 22.318125 
" style="fill: none; stroke: #000000; stroke-width: 0.8; stroke-linejoin: miter; stroke-linecap: square"/>
   </g>
   <g id="patch_4">
    <path d="M 490.503906 299.518125 
L 490.503906 22.318125 
" style="fill: none; stroke: #000000; stroke-width: 0.8; stroke-linejoin: miter; stroke-linecap: square"/>
   </g>
   <g id="patch_5">
    <path d="M 44.103906 299.518125 
L 490.503906 299.518125 
" style="fill: none; stroke: #000000; stroke-width: 0.8; stroke-linejoin: miter; stroke-linecap: square"/>
   </g>
   <g id="patch_6">
    <path d="M 44.103906 22.318125 
L 490.503906 22.318125 
" style="fill: none; stroke: #000000; stroke-width: 0.8; stroke-linejoin: miter; stroke-linecap: square"/>
   </g>
   <g id="text_16">
    <!-- Transmission vs angle (n_MQW=3.24) -->
    <g transform="translate(153.797969 16.318125) scale(0.12 -0.12)">
     <defs>
      <path id="DejaVuSans-42" d="M 3263 -1063 
L 3263 -1509 
L -63 -1509 
L -63 -1063 
L 3263 -1063 
z
" transform="scale(0.015625)"/>
      <path id="DejaVuSans-30" d="M 628 4666 
L 1569 4666 
L 2759 1491 
L 3956 4666 
L 4897 4666 
L 4897 0 
L 4281 0 
L 4281 4097 
L 3078 897 
L 2444 897 
L 1241 4097 
L 1241 0 
L 628 0 
L 628 4666 
z
" transform="scale(0.015625)"/>
      <path id="DejaVuSans-34" d="M 2522 4238 
Q 1834 4238 1429 3725 
Q 1025 3213 1025 2328 
Q 1025 1447 1429 934 
Q 1834 422 2522 422 
Q 3209 422 3611 934 
Q 4013 1447 4013 2328 
Q 4013 3213 3611 3725 
Q 3209 4238 2522 4238 
z
M 3406 84 
L 4238 -825 
L 3475 -825 
L 2784 -78 
Q 2681 -84 2626 -87 
Q 2572 -91 2522 -91 
Q 1538 -91 948 567 
Q 359 1225 359 2328 
Q 359 3434 948 4092 
Q 1538 4750 2522 4750 
Q 3503 4750 4090 4092 
Q 4678 3434 4678 2328 
Q 4678 1516 4351 937 
Q 4025 359 3406 84 
z
" transform="scale(0.015625)"/>
      <path id="DejaVuSans-20" d="M 678 2906 
L 4684 2906 
L 4684 2381 
L 678 2381 
L 678 2906 
z
M 678 1631 
L 4684 1631 
L 4684 1100 
L 678 1100 
L 678 1631 
z
" transform="scale(0.015625)"/>
      <path id="DejaVuSans-16" d="M 2597 2516 
Q 3050 2419 3304 2112 
Q 3559 1806 3559 1356 
Q 3559 666 3084 287 
Q 2609 -91 1734 -91 
Q 1441 -91 1130 -33 
Q 819 25 488 141 
L 488 750 
Q 750 597 1062 519 
Q 1375 441 1716 441 
Q 2309 441 2620 675 
Q 2931 909 2931 1356 
Q 2931 1769 2642 2001 
Q 2353 2234 1838 2234 
L 1294 2234 
L 1294 2753 
L 1863 2753 
Q 2328 2753 2575 2939 
Q 2822 3125 2822 3475 
Q 2822 3834 2567 4026 
Q 2313 4219 1838 4219 
Q 1578 4219 1281 4162 
Q 984 4106 628 3988 
L 628 4550 
Q 988 4650 1302 4700 
Q 1616 4750 1894 4750 
Q 2613 4750 3031 4423 
Q 3450 4097 3450 3541 
Q 3450 3153 3228 2886 
Q 3006 2619 2597 2516 
z
" transform="scale(0.015625)"/>
     </defs>
     <use xlink:href="#DejaVuSans-37"/>
     <use xlink:href="#DejaVuSans-55" transform="translate(46.375 0)"/>
     <use xlink:href="#DejaVuSans-44" transform="translate(87.484375 0)"/>
     <use xlink:href="#DejaVuSans-51" transform="translate(148.765625 0)"/>
     <use xlink:href="#DejaVuSans-56" transform="translate(212.140625 0)"/>
     <use xlink:href="#DejaVuSans-50" transform="translate(264.234375 0)"/>
     <use xlink:href="#DejaVuSans-4c" transform="translate(361.640625 0)"/>
     <use xlink:href="#DejaVuSans-56" transform="translate(389.421875 0)"/>
     <use xlink:href="#DejaVuSans-56" transform="translate(441.515625 0)"/>
     <use xlink:href="#DejaVuSans-4c" transform="translate(493.609375 0)"/>
     <use xlink:href="#DejaVuSans-52" transform="translate(521.390625 0)"/>
     <use xlink:href="#DejaVuSans-51" transform="translate(582.578125 0)"/>
     <use xlink:href="#DejaVuSans-3" transform="translate(645.953125 0)"/>
     <use xlink:href="#DejaVuSans-59" transform="translate(677.734375 0)"/>
     <use xlink:href="#DejaVuSans-56" transform="translate(736.921875 0)"/>
     <use xlink:href="#DejaVuSans-3" transform="translate(789.015625 0)"/>
     <use xlink:href="#DejaVuSans-44" transform="translate(820.796875 0)"/>
     <use xlink:href="#DejaVuSans-51" transform="translate(882.078125 0)"/>
     <use xlink:href="#DejaVuSans-4a" transform="translate(945.453125 0)"/>
     <use xlink:href="#DejaVuSans-4f" transform="translate(1008.9375 0)"/>
     <use xlink:href="#DejaVuSans-48" transform="translate(1036.71875 0)"/>
     <use xlink:href="#DejaVuSans-3" transform="translate(1098.25 0)"/>
     <use xlink:href="#DejaVuSans-b" transform="translate(1130.03125 0)"/>
     <use xlink:href="#DejaVuSans-51" transform="translate(1169.046875 0)"/>
     <use xlink:href="#DejaVuSans-42" transform="translate(1232.421875 0)"/>
     <use xlink:href="#DejaVuSans-30" transform="translate(1282.421875 0)"/>
     <use xlink:href="#DejaVuSans-34" transform="translate(1368.703125 0)"/>
     <use xlink:href="#DejaVuSans-3a" transform="translate(1447.421875 0)"/>
     <use xlink:href="#DejaVuSans-20" transform="translate(1546.296875 0)"/>
     <use xlink:href="#DejaVuSans-16" transform="translate(1630.09375 0)"/>
     <use xlink:href="#DejaVuSans-11" transform="translate(1693.71875 0)"/>
     <use xlink:href="#DejaVuSans-15" transform="translate(1725.5 0)"/>
     <use xlink:href="#DejaVuSans-17" transform="translate(1789.125 0)"/>
     <use xlink:href="#DejaVuSans-c" transform="translate(1852.75 0)"/>
    </g>
   </g>
   <g id="legend_1">
    <g id="patch_7">
     <path d="M 49.703906 295.518125 
L 105.648906 295.518125 
Q 107.248906 295.518125 107.248906 293.918125 
L 107.248906 222.714375 
Q 107.248906 221.114375 105.648906 221.114375 
L 49.703906 221.114375 
Q 48.103906 221.114375 48.103906 222.714375 
L 48.103906 293.918125 
Q 48.103906 295.518125 49.703906 295.518125 
z
" style="fill: #ffffff; opacity: 0.8; stroke: #cccccc; stroke-linejoin: miter"/>
    </g>
    <g id="line2d_33">
     <path d="M 51.303906 227.593125 
L 59.303906 227.593125 
L 67.303906 227.593125 
" style="fill: none; stroke: #1f77b4; stroke-linecap: square"/>
    </g>
    <g id="text_17">
     <!-- 0.0 deg -->
     <g transform="translate(73.703906 230.393125) scale(0.08 -0.08)">
      <defs>
       <path id="DejaVuSans-47" d="M 2906 2969 
L 2906 4863 
L 3481 4863 
L 3481 0 
L 2906 0 
L 2906 525 
Q 2725 213 2448 61 
Q 2172 -91 1784 -91 
Q 1150 -91 751 415 
Q 353 922 353 1747 
Q 353 2572 751 3078 
Q 1150 3584 1784 3584 
Q 2172 3584 2448 3432 
Q 2725 3281 2906 2969 
z
M 947 1747 
Q 947 1113 1208 752 
Q 1469 391 1925 391 
Q 2381 391 2643 752 
Q 2906 1113 2906 1747 
Q 2906 2381 2643 2742 
Q 2381 3103 1925 3103 
Q 1469 3103 1208 2742 
Q 947 2381 947 1747 
z
" transform="scale(0.015625)"/>
      </defs>
      <use xlink:href="#DejaVuSans-13"/>
      <use xlink:href="#DejaVuSans-11" transform="translate(63.625 0)"/>
      <use xlink:href="#DejaVuSans-13" transform="translate(95.40625 0)"/>
      <use xlink:href="#DejaVuSans-3" transform="translate(159.03125 0)"/>
      <use xlink:href="#DejaVuSans-47" transform="translate(190.8125 0)"/>
      <use xlink:href="#DejaVuSans-48" transform="translate(254.296875 0)"/>
      <use xlink:href="#DejaVuSans-4a" transform="translate(315.828125 0)"/>
     </g>
    </g>
    <g id="line2d_34">
     <path d="M 51.303906 239.59375 
L 59.303906 239.59375 
L 67.303906 239.59375 
" style="fill: none; stroke: #ff7f0e; stroke-linecap: square"/>
    </g>
    <g id="text_18">
     <!-- 0.3 deg -->
     <g transform="translate(73.703906 242.39375) scale(0.08 -0.08)">
      <use xlink:href="#DejaVuSans-13"/>
      <use xlink:href="#DejaVuSans-11" transform="translate(63.625 0)"/>
      <use xlink:href="#DejaVuSans-16" transform="translate(95.40625 0)"/>
      <use xlink:href="#DejaVuSans-3" transform="translate(159.03125 0)"/>
      <use xlink:href="#DejaVuSans-47" transform="translate(190.8125 0)"/>
      <use xlink:href="#DejaVuSans-48" transform="translate(254.296875 0)"/>
      <use xlink:href="#DejaVuSans-4a" transform="translate(315.828125 0)"/>
     </g>
    </g>
    <g id="line2d_35">
     <path d="M 51.303906 251.594375 
L 59.303906 251.594375 
L 67.303906 251.594375 
" style="fill: none; stroke: #2ca02c; stroke-linecap: square"/>
    </g>
    <g id="text_19">
     <!-- 1.0 deg -->
     <g transform="translate(73.703906 254.394375) scale(0.08 -0.08)">
      <use xlink:href="#DejaVuSans-14"/>
      <use xlink:href="#DejaVuSans-11" transform="translate(63.625 0)"/>
      <use xlink:href="#DejaVuSans-13" transform="translate(95.40625 0)"/>
      <use xlink:href="#DejaVuSans-3" transform="translate(159.03125 0)"/>
      <use xlink:href="#DejaVuSans-47" transform="translate(190.8125 0)"/>
      <use xlink:href="#DejaVuSans-48" transform="translate(254.296875 0)"/>
      <use xlink:href="#DejaVuSans-4a" transform="translate(315.828125 0)"/>
     </g>
    </g>
    <g id="line2d_36">
     <path d="M 51.303906 263.595 
L 59.303906 263.595 
L 67.303906 263.595 
" style="fill: none; stroke: #d62728; stroke-linecap: square"/>
    </g>
    <g id="text_20">
     <!-- 2.0 deg -->
     <g transform="translate(73.703906 266.395) scale(0.08 -0.08)">
      <use xlink:href="#DejaVuSans-15"/>
      <use xlink:href="#DejaVuSans-11" transform="translate(63.625 0)"/>
      <use xlink:href="#DejaVuSans-13" transform="translate(95.40625 0)"/>
      <use xlink:href="#DejaVuSans-3" transform="translate(159.03125 0)"/>
      <use xlink:href="#DejaVuSans-47" transform="translate(190.8125 0)"/>
      <use xlink:href="#DejaVuSans-48" transform="translate(254.296875 0)"/>
      <use xlink:href="#DejaVuSans-4a" transform="translate(315.828125 0)"/>
     </g>
    </g>
    <g id="line2d_37">
     <path d="M 51.303906 275.595625 
L 59.303906 275.595625 
L 67.303906 275.595625 
" style="fill: none; stroke: #9467bd; stroke-linecap: square"/>
    </g>
    <g id="text_21">
     <!-- 4.0 deg -->
     <g transform="translate(73.703906 278.395625) scale(0.08 -0.08)">
      <use xlink:href="#DejaVuSans-17"/>
      <use xlink:href="#DejaVuSans-11" transform="translate(63.625 0)"/>
      <use xlink:href="#DejaVuSans-13" transform="translate(95.40625 0)"/>
      <use xlink:href="#DejaVuSans-3" transform="translate(159.03125 0)"/>
      <use xlink:href="#DejaVuSans-47" transform="translate(190.8125 0)"/>
      <use xlink:href="#DejaVuSans-48" transform="translate(254.296875 0)"/>
      <use xlink:href="#DejaVuSans-4a" transform="translate(315.828125 0)"/>
     </g>
    </g>
    <g id="line2d_38">
     <path d="M 51.303906 287.59625 
L 59.303906 287.59625 
L 67.303906 287.59625 
" style="fill: none; stroke: #8c564b; stroke-linecap: square"/>
    </g>
    <g id="text_22">
     <!-- 8.0 deg -->
     <g transform="translate(73.703906 290.39625) scale(0.08 -0.08)">
      <use xlink:href="#DejaVuSans-1b"/>
      <use xlink:href="#DejaVuSans-11" transform="translate(63.625 0)"/>
      <use xlink:href="#DejaVuSans-13" transform="translate(95.40625 0)"/>
      <use xlink:href="#DejaVuSans-3" transform="translate(159.03125 0)"/>
      <use xlink:href="#DejaVuSans-47" transform="translate(190.8125 0)"/>
      <use xlink:href="#DejaVuSans-48" transform="translate(254.296875 0)"/>
      <use xlink:href="#DejaVuSans-4a" transform="translate(315.828125 0)"/>
     </g>
    </g>
   </g>
  </g>
 </g>
 <defs>
  <clipPath id="pf41d4b182f">
   <rect x="44.103906" y="22.318125" width="446.4" height="277.2"/>
  </clipPath>
 </defs>
</svg>
