<?xml version="1.0" encoding="utf-8" standalone="no"?>
<!DOCTYPE svg PUBLIC "-//W3C//DTD SVG 1.1//EN"
  "http://www.w3.org/Graphics/SVG/1.1/DTD/svg11.dtd">
<svg xmlns:xlink="http://www.w3.org/1999/xlink" width="443.600781pt" height="309.998906pt" viewBox="0 0 443.600781 309.998906" xmlns="http://www.w3.org/2000/svg" version="1.1">
 <metadata>
  <rdf:RDF xmlns:dc="http://purl.org/dc/elements/1.1/" xmlns:cc="http://creativecommons.org/ns#" xmlns:rdf="http://www.w3.org/1999/02/22-rdf-syntax-ns#">
   <cc:Work>
    <dc:type rdf:resource="http://purl.org/dc/dcmitype/StillImage"/>
    <dc:date>2026-07-17T21:32:06.821324</dc:date>
    <dc:format>image/svg+xml</dc:format>
    <dc:creator>
     <cc:Agent>
      <dc:title>Matplotlib v3.11.0, https://matplotlib.org/</dc:title>
     </cc:Agent>
    </dc:creator>
   </cc:Work>
  </rdf:RDF>
 </metadata>
 <defs>
  <style type="text/css">*{stroke-linejoin: round; stroke-linecap: butt}</style>
 </defs>
 <g id="figure_1">
  <g id="patch_1">
   <path d="M 0 309.998906 
L 443.600781 309.998906 
L 443.600781 0 
L 0 0 
z
" style="fill: #ffffff"/>
  </g>
  <g id="axes_1">
   <g id="patch_2">
    <path d="M 45.800781 271.798125 
L 436.400781 271.798125 
L 436.400781 22.318125 
L 45.800781 22.318125 
z
" style="fill: #ffffff"/>
   </g>
   <g id="matplotlib.axis_1">
    <g id="xtick_1">
     <g id="line2d_1">
      <defs>
       <path id="mca6d149bf8" d="M 0 0 
L 0 3.5 
" style="stroke: #000000; stroke-width: 0.8"/>
      </defs>
      <g>
       <use xlink:href="#mca6d149bf8" x="63.555327" y="271.798125" style="stroke: #000000; stroke-width: 0.8"/>
      </g>
     </g>
     <g id="text_1">
      <!-- 0 -->
      <g transform="translate(60.374077 286.395781) scale(0.1 -0.1)">
       <defs>
        <path id="DejaVuSans-13" d="M 2034 4250 
Q 1547 4250 1301 3770 
Q 1056 3291 1056 2328 
Q 1056 1369 1301 889 
Q 1547 409 2034 409 
Q 2525 409 2770 889 
Q 3016 1369 3016 2328 
Q 3016 3291 2770 3770 
Q 2525 4250 2034 4250 
z
M 2034 4750 
Q 2819 4750 3233 4129 
Q 3647 3509 3647 2328 
Q 3647 1150 3233 529 
Q 2819 -91 2034 -91 
Q 1250 -91 836 529 
Q 422 1150 422 2328 
Q 422 3509 836 4129 
Q 1250 4750 2034 4750 
z
" transform="scale(0.015625)"/>
       </defs>
       <use xlink:href="#DejaVuSans-13"/>
      </g>
     </g>
    </g>
    <g id="xtick_2">
     <g id="line2d_2">
      <g>
       <use xlink:href="#mca6d149bf8" x="134.71583" y="271.798125" style="stroke: #000000; stroke-width: 0.8"/>
      </g>
     </g>
     <g id="text_2">
      <!-- 100 -->
      <g transform="translate(125.17208 286.395781) scale(0.1 -0.1)">
       <defs>
        <path id="DejaVuSans-14" d="M 794 531 
L 1825 531 
L 1825 4091 
L 703 3866 
L 703 4441 
L 1819 4666 
L 2450 4666 
L 2450 531 
L 3481 531 
L 3481 0 
L 794 0 
L 794 531 
z
" transform="scale(0.015625)"/>
       </defs>
       <use xlink:href="#DejaVuSans-14"/>
       <use xlink:href="#DejaVuSans-13" transform="translate(63.625 0)"/>
       <use xlink:href="#DejaVuSans-13" transform="translate(127.25 0)"/>
      </g>
     </g>
    </g>
    <g id="xtick_3">
     <g id="line2d_3">
      <g>
       <use xlink:href="#mca6d149bf8" x="205.876332" y="271.798125" style="stroke: #000000; stroke-width: 0.8"/>
      </g>
     </g>
     <g id="text_3">
      <!-- 200 -->
      <g transform="translate(196.332582 286.395781) scale(0.1 -0.1)">
       <defs>
        <path id="DejaVuSans-15" d="M 1228 531 
L 3431 531 
L 3431 0 
L 469 0 
L 469 531 
Q 828 903 1448 1529 
Q 2069 2156 2228 2338 
Q 2531 2678 2651 2914 
Q 2772 3150 2772 3378 
Q 2772 3750 2511 3984 
Q 2250 4219 1831 4219 
Q 1534 4219 1204 4116 
Q 875 4013 500 3803 
L 500 4441 
Q 881 4594 1212 4672 
Q 1544 4750 1819 4750 
Q 2544 4750 2975 4387 
Q 3406 4025 3406 3419 
Q 3406 3131 3298 2873 
Q 3191 2616 2906 2266 
Q 2828 2175 2409 1742 
Q 1991 1309 1228 531 
z
" transform="scale(0.015625)"/>
       </defs>
       <use xlink:href="#DejaVuSans-15"/>
       <use xlink:href="#DejaVuSans-13" transform="translate(63.625 0)"/>
       <use xlink:href="#DejaVuSans-13" transform="translate(127.25 0)"/>
      </g>
     </g>
    </g>
    <g id="xtick_4">
     <g id="line2d_4">
      <g>
       <use xlink:href="#mca6d149bf8" x="277.036835" y="271.798125" style="stroke: #000000; stroke-width: 0.8"/>
      </g>
     </g>
     <g id="text_4">
      <!-- 300 -->
      <g transform="translate(267.493085 286.395781) scale(0.1 -0.1)">
       <defs>
        <path id="DejaVuSans-16" d="M 2597 2516 
Q 3050 2419 3304 2112 
Q 3559 1806 3559 1356 
Q 3559 666 3084 287 
Q 2609 -91 1734 -91 
Q 1441 -91 1130 -33 
Q 819 25 488 141 
L 488 750 
Q 750 597 1062 519 
Q 1375 441 1716 441 
Q 2309 441 2620 675 
Q 2931 909 2931 1356 
Q 2931 1769 2642 2001 
Q 2353 2234 1838 2234 
L 1294 2234 
L 1294 2753 
L 1863 2753 
Q 2328 2753 2575 2939 
Q 2822 3125 2822 3475 
Q 2822 3834 2567 4026 
Q 2313 4219 1838 4219 
Q 1578 4219 1281 4162 
Q 984 4106 628 3988 
L 628 4550 
Q 988 4650 1302 4700 
Q 1616 4750 1894 4750 
Q 2613 4750 3031 4423 
Q 3450 4097 3450 3541 
Q 3450 3153 3228 2886 
Q 3006 2619 2597 2516 
z
" transform="scale(0.015625)"/>
       </defs>
       <use xlink:href="#DejaVuSans-16"/>
       <use xlink:href="#DejaVuSans-13" transform="translate(63.625 0)"/>
       <use xlink:href="#DejaVuSans-13" transform="translate(127.25 0)"/>
      </g>
     </g>
    </g>
    <g id="xtick_5">
     <g id="line2d_5">
      <g>
       <use xlink:href="#mca6d149bf8" x="348.197338" y="271.798125" style="stroke: #000000; stroke-width: 0.8"/>
      </g>
     </g>
     <g id="text_5">
      <!-- 400 -->
      <g transform="translate(338.653588 286.395781) scale(0.1 -0.1)">
       <defs>
        <path id="DejaVuSans-17" d="M 2419 4116 
L 825 1625 
L 2419 1625 
L 2419 4116 
z
M 2253 4666 
L 3047 4666 
L 3047 1625 
L 3713 1625 
L 3713 1100 
L 3047 1100 
L 3047 0 
L 2419 0 
L 2419 1100 
L 313 1100 
L 313 1709 
L 2253 4666 
z
" transform="scale(0.015625)"/>
       </defs>
       <use xlink:href="#DejaVuSans-17"/>
       <use xlink:href="#DejaVuSans-13" transform="translate(63.625 0)"/>
       <use xlink:href="#DejaVuSans-13" transform="translate(127.25 0)"/>
      </g>
     </g>
    </g>
    <g id="xtick_6">
     <g id="line2d_6">
      <g>
       <use xlink:href="#mca6d149bf8" x="419.357841" y="271.798125" style="stroke: #000000; stroke-width: 0.8"/>
      </g>
     </g>
     <g id="text_6">
      <!-- 500 -->
      <g transform="translate(409.814091 286.395781) scale(0.1 -0.1)">
       <defs>
        <path id="DejaVuSans-18" d="M 691 4666 
L 3169 4666 
L 3169 4134 
L 1269 4134 
L 1269 2991 
Q 1406 3038 1543 3061 
Q 1681 3084 1819 3084 
Q 2600 3084 3056 2656 
Q 3513 2228 3513 1497 
Q 3513 744 3044 326 
Q 2575 -91 1722 -91 
Q 1428 -91 1123 -41 
Q 819 9 494 109 
L 494 744 
Q 775 591 1075 516 
Q 1375 441 1709 441 
Q 2250 441 2565 725 
Q 2881 1009 2881 1497 
Q 2881 1984 2565 2268 
Q 2250 2553 1709 2553 
Q 1456 2553 1204 2497 
Q 953 2441 691 2322 
L 691 4666 
z
" transform="scale(0.015625)"/>
       </defs>
       <use xlink:href="#DejaVuSans-18"/>
       <use xlink:href="#DejaVuSans-13" transform="translate(63.625 0)"/>
       <use xlink:href="#DejaVuSans-13" transform="translate(127.25 0)"/>
      </g>
     </g>
    </g>
    <g id="text_7">
     <!-- epoch -->
     <g transform="translate(225.872656 300.396563) scale(0.1 -0.1)">
      <defs>
       <path id="DejaVuSans-48" d="M 3597 1894 
L 3597 1613 
L 953 1613 
Q 991 1019 1311 708 
Q 1631 397 2203 397 
Q 2534 397 2845 478 
Q 3156 559 3463 722 
L 3463 178 
Q 3153 47 2828 -22 
Q 2503 -91 2169 -91 
Q 1331 -91 842 396 
Q 353 884 353 1716 
Q 353 2575 817 3079 
Q 1281 3584 2069 3584 
Q 2775 3584 3186 3129 
Q 3597 2675 3597 1894 
z
M 3022 2063 
Q 3016 2534 2758 2815 
Q 2500 3097 2075 3097 
Q 1594 3097 1305 2825 
Q 1016 2553 972 2059 
L 3022 2063 
z
" transform="scale(0.015625)"/>
       <path id="DejaVuSans-53" d="M 1159 525 
L 1159 -1331 
L 581 -1331 
L 581 3500 
L 1159 3500 
L 1159 2969 
Q 1341 3281 1617 3432 
Q 1894 3584 2278 3584 
Q 2916 3584 3314 3078 
Q 3713 2572 3713 1747 
Q 3713 922 3314 415 
Q 2916 -91 2278 -91 
Q 1894 -91 1617 61 
Q 1341 213 1159 525 
z
M 3116 1747 
Q 3116 2381 2855 2742 
Q 2594 3103 2138 3103 
Q 1681 3103 1420 2742 
Q 1159 2381 1159 1747 
Q 1159 1113 1420 752 
Q 1681 391 2138 391 
Q 2594 391 2855 752 
Q 3116 1113 3116 1747 
z
" transform="scale(0.015625)"/>
       <path id="DejaVuSans-52" d="M 1959 3097 
Q 1497 3097 1228 2736 
Q 959 2375 959 1747 
Q 959 1119 1226 758 
Q 1494 397 1959 397 
Q 2419 397 2687 759 
Q 2956 1122 2956 1747 
Q 2956 2369 2687 2733 
Q 2419 3097 1959 3097 
z
M 1959 3584 
Q 2709 3584 3137 3096 
Q 3566 2609 3566 1747 
Q 3566 888 3137 398 
Q 2709 -91 1959 -91 
Q 1206 -91 779 398 
Q 353 888 353 1747 
Q 353 2609 779 3096 
Q 1206 3584 1959 3584 
z
" transform="scale(0.015625)"/>
       <path id="DejaVuSans-46" d="M 3122 3366 
L 3122 2828 
Q 2878 2963 2633 3030 
Q 2388 3097 2138 3097 
Q 1578 3097 1268 2742 
Q 959 2388 959 1747 
Q 959 1106 1268 751 
Q 1578 397 2138 397 
Q 2388 397 2633 464 
Q 2878 531 3122 666 
L 3122 134 
Q 2881 22 2623 -34 
Q 2366 -91 2075 -91 
Q 1284 -91 818 406 
Q 353 903 353 1747 
Q 353 2603 823 3093 
Q 1294 3584 2113 3584 
Q 2378 3584 2631 3529 
Q 2884 3475 3122 3366 
z
" transform="scale(0.015625)"/>
       <path id="DejaVuSans-4b" d="M 3513 2113 
L 3513 0 
L 2938 0 
L 2938 2094 
Q 2938 2591 2744 2837 
Q 2550 3084 2163 3084 
Q 1697 3084 1428 2787 
Q 1159 2491 1159 1978 
L 1159 0 
L 581 0 
L 581 4863 
L 1159 4863 
L 1159 2956 
Q 1366 3272 1645 3428 
Q 1925 3584 2291 3584 
Q 2894 3584 3203 3211 
Q 3513 2838 3513 2113 
z
" transform="scale(0.015625)"/>
      </defs>
      <use xlink:href="#DejaVuSans-48"/>
      <use xlink:href="#DejaVuSans-53" transform="translate(61.53125 0)"/>
      <use xlink:href="#DejaVuSans-52" transform="translate(125.015625 0)"/>
      <use xlink:href="#DejaVuSans-46" transform="translate(186.203125 0)"/>
      <use xlink:href="#DejaVuSans-4b" transform="translate(241.1875 0)"/>
     </g>
    </g>
   </g>
   <g id="matplotlib.axis_2">
    <g id="ytick_1">
     <g id="line2d_7">
      <defs>
       <path id="m19d0cbf444" d="M 0 0 
L -3.5 0 
" style="stroke: #000000; stroke-width: 0.8"/>
      </defs>
      <g>
       <use xlink:href="#m19d0cbf444" x="45.800781" y="209.98406" style="stroke: #000000; stroke-width: 0.8"/>
      </g>
     </g>
     <g id="text_8">
      <!-- $\mathdefault{0}$ -->
      <g transform="translate(32.400781 213.782888) scale(0.1 -0.1)">
       <use xlink:href="#DejaVuSans-13" transform="translate(0 0.78125)"/>
      </g>
     </g>
    </g>
    <g id="ytick_2">
     <g id="line2d_8">
      <g>
       <use xlink:href="#m19d0cbf444" x="45.800781" y="127.784738" style="stroke: #000000; stroke-width: 0.8"/>
      </g>
     </g>
     <g id="text_9">
      <!-- $\mathdefault{10^{0}}$ -->
      <g transform="translate(21.200781 132.484738) scale(0.1 -0.1)">
       <use xlink:href="#DejaVuSans-14" transform="translate(0 0.746875)"/>
       <use xlink:href="#DejaVuSans-13" transform="translate(63.623047 0.746875)"/>
       <use xlink:href="#DejaVuSans-13" transform="translate(128.203125 42.046875) scale(0.7)"/>
      </g>
     </g>
    </g>
    <g id="text_10">
     <!-- Gaussian NLL (val) -->
     <g transform="translate(14.798438 193.801094) rotate(-90) scale(0.1 -0.1)">
      <defs>
       <path id="DejaVuSans-2a" d="M 3809 666 
L 3809 1919 
L 2778 1919 
L 2778 2438 
L 4434 2438 
L 4434 434 
Q 4069 175 3628 42 
Q 3188 -91 2688 -91 
Q 1594 -91 976 548 
Q 359 1188 359 2328 
Q 359 3472 976 4111 
Q 1594 4750 2688 4750 
Q 3144 4750 3555 4637 
Q 3966 4525 4313 4306 
L 4313 3634 
Q 3963 3931 3569 4081 
Q 3175 4231 2741 4231 
Q 1884 4231 1454 3753 
Q 1025 3275 1025 2328 
Q 1025 1384 1454 906 
Q 1884 428 2741 428 
Q 3075 428 3337 486 
Q 3600 544 3809 666 
z
" transform="scale(0.015625)"/>
       <path id="DejaVuSans-44" d="M 2194 1759 
Q 1497 1759 1228 1600 
Q 959 1441 959 1056 
Q 959 750 1161 570 
Q 1363 391 1709 391 
Q 2188 391 2477 730 
Q 2766 1069 2766 1631 
L 2766 1759 
L 2194 1759 
z
M 3341 1997 
L 3341 0 
L 2766 0 
L 2766 531 
Q 2569 213 2275 61 
Q 1981 -91 1556 -91 
Q 1019 -91 701 211 
Q 384 513 384 1019 
Q 384 1609 779 1909 
Q 1175 2209 1959 2209 
L 2766 2209 
L 2766 2266 
Q 2766 2663 2505 2880 
Q 2244 3097 1772 3097 
Q 1472 3097 1187 3025 
Q 903 2953 641 2809 
L 641 3341 
Q 956 3463 1253 3523 
Q 1550 3584 1831 3584 
Q 2591 3584 2966 3190 
Q 3341 2797 3341 1997 
z
" transform="scale(0.015625)"/>
       <path id="DejaVuSans-58" d="M 544 1381 
L 544 3500 
L 1119 3500 
L 1119 1403 
Q 1119 906 1312 657 
Q 1506 409 1894 409 
Q 2359 409 2629 706 
Q 2900 1003 2900 1516 
L 2900 3500 
L 3475 3500 
L 3475 0 
L 2900 0 
L 2900 538 
Q 2691 219 2414 64 
Q 2138 -91 1772 -91 
Q 1169 -91 856 284 
Q 544 659 544 1381 
z
M 1991 3584 
L 1991 3584 
z
" transform="scale(0.015625)"/>
       <path id="DejaVuSans-56" d="M 2834 3397 
L 2834 2853 
Q 2591 2978 2328 3040 
Q 2066 3103 1784 3103 
Q 1356 3103 1142 2972 
Q 928 2841 928 2578 
Q 928 2378 1081 2264 
Q 1234 2150 1697 2047 
L 1894 2003 
Q 2506 1872 2764 1633 
Q 3022 1394 3022 966 
Q 3022 478 2636 193 
Q 2250 -91 1575 -91 
Q 1294 -91 989 -36 
Q 684 19 347 128 
L 347 722 
Q 666 556 975 473 
Q 1284 391 1588 391 
Q 1994 391 2212 530 
Q 2431 669 2431 922 
Q 2431 1156 2273 1281 
Q 2116 1406 1581 1522 
L 1381 1569 
Q 847 1681 609 1914 
Q 372 2147 372 2553 
Q 372 3047 722 3315 
Q 1072 3584 1716 3584 
Q 2034 3584 2315 3537 
Q 2597 3491 2834 3397 
z
" transform="scale(0.015625)"/>
       <path id="DejaVuSans-4c" d="M 603 3500 
L 1178 3500 
L 1178 0 
L 603 0 
L 603 3500 
z
M 603 4863 
L 1178 4863 
L 1178 4134 
L 603 4134 
L 603 4863 
z
" transform="scale(0.015625)"/>
       <path id="DejaVuSans-51" d="M 3513 2113 
L 3513 0 
L 2938 0 
L 2938 2094 
Q 2938 2591 2744 2837 
Q 2550 3084 2163 3084 
Q 1697 3084 1428 2787 
Q 1159 2491 1159 1978 
L 1159 0 
L 581 0 
L 581 3500 
L 1159 3500 
L 1159 2956 
Q 1366 3272 1645 3428 
Q 1925 3584 2291 3584 
Q 2894 3584 3203 3211 
Q 3513 2838 3513 2113 
z
" transform="scale(0.015625)"/>
       <path id="DejaVuSans-3" transform="scale(0.015625)"/>
       <path id="DejaVuSans-31" d="M 628 4666 
L 1478 4666 
L 3547 763 
L 3547 4666 
L 4159 4666 
L 4159 0 
L 3309 0 
L 1241 3903 
L 1241 0 
L 628 0 
L 628 4666 
z
" transform="scale(0.015625)"/>
       <path id="DejaVuSans-2f" d="M 628 4666 
L 1259 4666 
L 1259 531 
L 3531 531 
L 3531 0 
L 628 0 
L 628 4666 
z
" transform="scale(0.015625)"/>
       <path id="DejaVuSans-b" d="M 1984 4856 
Q 1566 4138 1362 3434 
Q 1159 2731 1159 2009 
Q 1159 1288 1364 580 
Q 1569 -128 1984 -844 
L 1484 -844 
Q 1016 -109 783 600 
Q 550 1309 550 2009 
Q 550 2706 781 3412 
Q 1013 4119 1484 4856 
L 1984 4856 
z
" transform="scale(0.015625)"/>
       <path id="DejaVuSans-59" d="M 191 3500 
L 800 3500 
L 1894 563 
L 2988 3500 
L 3597 3500 
L 2284 0 
L 1503 0 
L 191 3500 
z
" transform="scale(0.015625)"/>
       <path id="DejaVuSans-4f" d="M 603 4863 
L 1178 4863 
L 1178 0 
L 603 0 
L 603 4863 
z
" transform="scale(0.015625)"/>
       <path id="DejaVuSans-c" d="M 513 4856 
L 1013 4856 
Q 1481 4119 1714 3412 
Q 1947 2706 1947 2009 
Q 1947 1309 1714 600 
Q 1481 -109 1013 -844 
L 513 -844 
Q 928 -128 1133 580 
Q 1338 1288 1338 2009 
Q 1338 2731 1133 3434 
Q 928 4138 513 4856 
z
" transform="scale(0.015625)"/>
      </defs>
      <use xlink:href="#DejaVuSans-2a"/>
      <use xlink:href="#DejaVuSans-44" transform="translate(77.484375 0)"/>
      <use xlink:href="#DejaVuSans-58" transform="translate(138.765625 0)"/>
      <use xlink:href="#DejaVuSans-56" transform="translate(202.140625 0)"/>
      <use xlink:href="#DejaVuSans-56" transform="translate(254.234375 0)"/>
      <use xlink:href="#DejaVuSans-4c" transform="translate(306.328125 0)"/>
      <use xlink:href="#DejaVuSans-44" transform="translate(334.109375 0)"/>
      <use xlink:href="#DejaVuSans-51" transform="translate(395.390625 0)"/>
      <use xlink:href="#DejaVuSans-3" transform="translate(458.765625 0)"/>
      <use xlink:href="#DejaVuSans-31" transform="translate(490.546875 0)"/>
      <use xlink:href="#DejaVuSans-2f" transform="translate(565.359375 0)"/>
      <use xlink:href="#DejaVuSans-2f" transform="translate(621.078125 0)"/>
      <use xlink:href="#DejaVuSans-3" transform="translate(676.796875 0)"/>
      <use xlink:href="#DejaVuSans-b" transform="translate(708.578125 0)"/>
      <use xlink:href="#DejaVuSans-59" transform="translate(747.59375 0)"/>
      <use xlink:href="#DejaVuSans-44" transform="translate(806.78125 0)"/>
      <use xlink:href="#DejaVuSans-4f" transform="translate(868.0625 0)"/>
      <use xlink:href="#DejaVuSans-c" transform="translate(895.84375 0)"/>
     </g>
    </g>
   </g>
   <g id="line2d_9">
    <path d="M 63.555327 168.659871 
L 66.401747 175.875418 
L 67.824957 179.974832 
L 69.959772 186.964242 
L 72.094587 194.028901 
L 73.517797 197.820831 
L 74.941007 200.861812 
L 77.075822 205.1559 
L 78.499032 208.592092 
L 79.922242 212.875379 
L 81.345452 217.278107 
L 82.768662 220.491113 
L 83.480267 222.677276 
L 84.903478 228.755218 
L 85.615083 230.938868 
L 87.749898 236.185385 
L 88.461503 236.998414 
L 89.173108 236.759163 
L 89.884713 239.099535 
L 90.596318 239.118506 
L 91.307923 237.414322 
L 92.019528 239.243398 
L 92.731133 236.640055 
L 93.442738 239.317042 
L 94.154343 237.795723 
L 94.865948 239.689232 
L 95.577553 242.220742 
L 96.289158 246.703235 
L 97.000763 249.120066 
L 97.712368 248.890467 
L 98.423973 251.349086 
L 99.135578 256.361411 
L 99.847183 253.040639 
L 100.558788 257.891082 
L 101.270393 255.839329 
L 101.981998 257.490046 
L 103.405208 252.07278 
L 104.116813 252.535466 
L 104.828418 249.981349 
L 105.540023 248.349991 
L 106.251628 241.978552 
L 106.963233 240.69796 
L 107.674838 233.086238 
L 108.386443 237.583821 
L 109.098049 218.410243 
L 109.809654 234.317561 
L 110.521259 231.658469 
L 111.232864 220.108812 
L 111.944469 234.473136 
L 112.656074 238.683282 
L 113.367679 232.504873 
L 114.079284 233.1289 
L 114.790889 235.414518 
L 115.502494 241.358998 
L 116.214099 240.759833 
L 116.925704 236.273328 
L 117.637309 242.261491 
L 118.348914 245.113668 
L 119.060519 239.428591 
L 119.772124 240.797924 
L 120.483729 241.563168 
L 121.195334 241.54493 
L 121.906939 240.093977 
L 122.618544 237.642659 
L 123.330149 238.44887 
L 124.041754 235.860391 
L 124.753359 233.708215 
L 125.464964 230.812126 
L 126.176569 233.203869 
L 126.888174 231.841804 
L 127.599779 235.736175 
L 128.311384 233.790437 
L 129.022989 234.112136 
L 129.734594 239.71638 
L 130.446199 237.498293 
L 131.157804 236.681891 
L 131.869409 241.815251 
L 132.581014 239.398385 
L 133.292619 239.712443 
L 134.004225 242.582019 
L 134.71583 239.847759 
L 135.427435 241.104363 
L 136.13904 242.855183 
L 136.850645 241.295773 
L 137.56225 241.574008 
L 138.273855 241.560001 
L 138.98546 239.856684 
L 139.697065 237.672278 
L 141.120275 234.780428 
L 141.83188 237.505966 
L 142.543485 239.507879 
L 143.25509 238.401365 
L 143.966695 236.76529 
L 144.6783 237.510552 
L 145.389905 238.720126 
L 146.10151 239.19129 
L 146.813115 235.477991 
L 147.52472 238.263131 
L 148.236325 238.90826 
L 148.94793 235.825615 
L 149.659535 237.64562 
L 150.37114 236.787962 
L 151.082745 237.594382 
L 151.79435 235.391052 
L 152.505955 236.834 
L 153.21756 235.012601 
L 153.929165 239.135733 
L 154.64077 230.7576 
L 155.352375 239.429904 
L 156.06398 231.494824 
L 156.775585 240.614753 
L 157.48719 238.882617 
L 158.198795 235.669006 
L 158.9104 240.890112 
L 159.622006 238.367529 
L 160.333611 238.193481 
L 161.045216 240.988851 
L 161.756821 236.516811 
L 162.468426 237.331396 
L 163.180031 237.95604 
L 163.891636 233.581791 
L 164.603241 236.570889 
L 165.314846 235.439104 
L 166.026451 232.743129 
L 166.738056 234.708839 
L 167.449661 225.821258 
L 168.161266 225.618315 
L 168.872871 223.36699 
L 169.584476 234.875739 
L 170.296081 233.679673 
L 171.007686 226.87247 
L 171.719291 236.420446 
L 172.430896 232.896247 
L 173.142501 232.207326 
L 173.854106 235.561465 
L 175.277316 233.263429 
L 175.988921 234.343768 
L 176.700526 234.278862 
L 177.412131 231.12685 
L 178.123736 234.15506 
L 178.835341 230.030216 
L 179.546946 229.915015 
L 180.258551 229.100293 
L 180.970156 225.978197 
L 181.681761 229.477385 
L 182.393366 227.9175 
L 183.104971 232.686964 
L 183.816576 230.069136 
L 184.528182 231.27454 
L 185.239787 229.581865 
L 185.951392 230.231256 
L 186.662997 231.82346 
L 187.374602 230.046923 
L 188.086207 232.093058 
L 188.797812 228.761298 
L 190.221022 230.389192 
L 190.932627 227.478803 
L 191.644232 230.786122 
L 192.355837 226.604971 
L 193.067442 229.033122 
L 193.779047 226.870786 
L 194.490652 228.474123 
L 195.913862 226.844967 
L 196.625467 228.131414 
L 197.337072 224.249561 
L 198.048677 227.666754 
L 198.760282 223.138548 
L 199.471887 227.518996 
L 200.183492 223.432164 
L 200.895097 228.069924 
L 201.606702 225.736457 
L 202.318307 226.88775 
L 203.029912 227.51211 
L 203.741517 224.380756 
L 204.453122 226.830549 
L 205.164727 223.657561 
L 205.876332 224.689681 
L 206.587937 223.080406 
L 207.299542 221.093932 
L 208.011147 220.895431 
L 208.722752 217.282135 
L 209.434357 218.69052 
L 210.145963 215.450053 
L 210.857568 220.557502 
L 211.569173 220.422982 
L 212.280778 223.925265 
L 212.992383 224.160985 
L 213.703988 221.100109 
L 214.415593 221.848551 
L 215.127198 221.476061 
L 215.838803 219.690243 
L 216.550408 222.171148 
L 217.262013 219.030356 
L 217.973618 219.490451 
L 218.685223 218.28779 
L 219.396828 214.76224 
L 220.108433 216.564521 
L 220.820038 212.219964 
L 221.531643 216.114498 
L 222.243248 211.903275 
L 222.954853 215.831593 
L 223.666458 213.015549 
L 224.378063 214.975634 
L 225.089668 214.907402 
L 225.801273 213.120888 
L 226.512878 215.168665 
L 227.224483 212.582584 
L 227.936088 214.141268 
L 228.647693 213.226679 
L 229.359298 211.878924 
L 230.070903 212.380165 
L 230.782508 209.757603 
L 231.494113 210.863417 
L 232.205718 208.53096 
L 232.917323 209.315363 
L 233.628928 207.549857 
L 234.340533 207.793717 
L 235.052139 206.421491 
L 235.763744 205.899304 
L 237.898559 201.444887 
L 238.610164 199.525972 
L 239.321769 202.911859 
L 240.033374 202.221162 
L 240.744979 209.770108 
L 241.456584 206.578763 
L 242.168189 209.225934 
L 242.879794 207.79255 
L 243.591399 208.118094 
L 244.303004 211.489312 
L 245.014609 210.5478 
L 245.726214 206.266013 
L 246.437819 205.060567 
L 247.149424 204.872208 
L 247.861029 202.906096 
L 248.572634 203.442606 
L 249.284239 199.115778 
L 249.995844 200.051777 
L 250.707449 198.913585 
L 251.419054 200.177962 
L 252.130659 198.743795 
L 252.842264 198.349856 
L 253.553869 196.963794 
L 254.265474 197.40452 
L 254.977079 197.288089 
L 255.688684 197.05306 
L 256.400289 196.289904 
L 257.111894 196.095113 
L 257.823499 195.267646 
L 258.535104 196.605404 
L 259.246709 194.656639 
L 259.958314 196.789391 
L 260.66992 194.161947 
L 261.381525 196.62211 
L 262.09313 195.568379 
L 262.804735 196.305748 
L 263.51634 196.731508 
L 264.227945 194.791804 
L 264.93955 195.654328 
L 265.651155 192.976811 
L 266.36276 193.640065 
L 267.074365 191.459997 
L 267.78597 191.568959 
L 268.497575 189.322948 
L 269.20918 188.882518 
L 269.920785 186.920183 
L 270.63239 186.143538 
L 271.343995 185.132828 
L 272.0556 183.318981 
L 272.767205 184.732361 
L 273.47881 178.122899 
L 274.190415 184.188611 
L 274.90202 183.762468 
L 275.613625 194.968595 
L 276.32523 196.682127 
L 277.036835 198.880473 
L 277.74844 195.223781 
L 278.460045 198.86454 
L 279.17165 198.147707 
L 279.883255 197.804244 
L 280.59486 193.792555 
L 281.306465 192.447694 
L 282.01807 190.583792 
L 282.729675 187.455119 
L 283.44128 181.006127 
L 284.152885 179.387832 
L 284.86449 176.500602 
L 285.576096 169.652157 
L 286.287701 172.179558 
L 287.710911 168.642052 
L 288.422516 171.141637 
L 289.134121 168.5944 
L 289.845726 175.457641 
L 290.557331 176.314121 
L 291.268936 180.396551 
L 291.980541 183.023407 
L 292.692146 182.230936 
L 293.403751 183.350441 
L 294.115356 182.984343 
L 294.826961 179.220339 
L 295.538566 174.180714 
L 296.961776 160.17345 
L 297.673381 162.608693 
L 298.384986 176.959968 
L 299.096591 177.92879 
L 299.808196 169.801798 
L 300.519801 170.392921 
L 301.231406 179.299475 
L 301.943011 178.212091 
L 302.654616 172.579384 
L 303.366221 175.321039 
L 304.077826 179.034998 
L 304.789431 175.907404 
L 305.501036 175.506783 
L 306.212641 180.136335 
L 307.635851 176.416346 
L 308.347456 179.066266 
L 309.059061 178.93532 
L 309.770666 176.934758 
L 310.482272 177.321587 
L 311.193877 178.13016 
L 311.905482 175.843966 
L 312.617087 175.318129 
L 313.328692 176.759217 
L 314.040297 175.114054 
L 314.751902 175.398865 
L 315.463507 176.547837 
L 316.175112 176.207227 
L 316.886717 176.290336 
L 317.598322 176.878039 
L 318.309927 177.248426 
L 319.021532 176.617023 
L 319.733137 177.191889 
L 320.444742 177.023129 
L 321.867952 176.3557 
L 322.579557 176.270736 
L 324.002767 175.20026 
L 324.714372 175.075682 
L 326.137582 174.260872 
L 326.849187 173.81272 
L 327.560792 173.921373 
L 328.272397 173.304774 
L 328.984002 173.240324 
L 329.695607 172.729268 
L 330.407212 172.946199 
L 331.118817 171.934407 
L 331.830422 172.172231 
L 332.542027 170.846028 
L 333.253632 171.419248 
L 333.965237 168.718562 
L 334.676842 169.807636 
L 335.388447 164.607963 
L 336.100053 167.215226 
L 336.811658 159.312297 
L 337.523263 168.496435 
L 338.234868 170.20851 
L 338.946473 180.280134 
L 339.658078 181.668622 
L 340.369683 179.126147 
L 341.081288 178.712326 
L 341.792893 179.157295 
L 342.504498 180.640696 
L 343.216103 177.165086 
L 343.927708 175.941843 
L 344.639313 173.233163 
L 345.350918 168.179729 
L 346.062523 168.551814 
L 346.774128 166.353112 
L 347.485733 160.235752 
L 348.197338 161.854333 
L 348.908943 157.113962 
L 349.620548 161.834593 
L 350.332153 160.872466 
L 351.043758 163.490004 
L 351.755363 164.262987 
L 352.466968 163.172474 
L 353.178573 165.893047 
L 353.890178 165.297194 
L 354.601783 166.724354 
L 355.313388 167.06177 
L 356.024993 164.992321 
L 356.736598 166.573563 
L 357.448203 165.302599 
L 358.159808 165.073069 
L 358.871413 165.485206 
L 359.583018 163.754227 
L 360.294623 165.281418 
L 361.006229 164.013099 
L 361.717834 165.989371 
L 362.429439 165.687343 
L 363.141044 167.234446 
L 363.852649 167.204481 
L 364.564254 167.895643 
L 365.275859 167.799624 
L 365.987464 168.102474 
L 366.699069 168.045998 
L 367.410674 168.186196 
L 368.122279 167.850377 
L 368.833884 168.285734 
L 369.545489 167.543597 
L 370.257094 168.829231 
L 370.968699 166.955745 
L 371.680304 169.51678 
L 372.391909 165.196329 
L 373.103514 170.257145 
L 373.815119 169.689586 
L 374.526724 176.759604 
L 375.238329 179.923103 
L 375.949934 179.740241 
L 376.661539 181.314955 
L 377.373144 180.851791 
L 378.084749 179.885211 
L 378.796354 175.921806 
L 379.507959 175.120365 
L 382.354379 159.149757 
L 383.065984 157.479643 
L 383.777589 155.188155 
L 384.489194 154.663599 
L 385.200799 152.681841 
L 385.912404 158.691216 
L 386.62401 160.279509 
L 387.335615 175.583805 
L 388.04722 178.528763 
L 388.758825 179.903483 
L 389.47043 179.870187 
L 390.182035 182.957646 
L 390.89364 181.701084 
L 391.605245 182.097629 
L 392.31685 178.262994 
L 393.028455 178.66109 
L 395.16327 166.854278 
L 395.874875 166.534289 
L 396.58648 164.862676 
L 397.298085 159.900247 
L 398.00969 160.339361 
L 398.721295 157.931844 
L 399.4329 158.569484 
L 400.144505 159.593511 
L 400.85611 157.812537 
L 401.567715 160.427713 
L 402.27932 159.941044 
L 402.990925 166.269512 
L 404.414135 170.02624 
L 405.12574 172.463191 
L 405.837345 171.584467 
L 406.54895 173.122663 
L 407.97216 171.681322 
L 408.683765 170.704828 
L 409.39537 172.408728 
L 410.106975 171.704129 
L 411.530186 175.268862 
L 412.241791 174.459758 
L 412.953396 174.737712 
L 413.665001 172.634052 
L 414.376606 169.977476 
L 415.088211 170.271231 
L 415.799816 169.292272 
L 416.511421 171.656482 
L 417.223026 171.424373 
L 417.934631 173.723435 
L 418.646236 173.106762 
L 418.646236 173.106762 
" clip-path="url(#p8dd814c5c3)" style="fill: none; stroke: #1f77b4; stroke-opacity: 0.6; stroke-width: 1.5; stroke-linecap: square"/>
   </g>
   <g id="line2d_10">
    <path d="M 63.555327 167.617746 
L 69.959772 182.818815 
L 72.806192 190.956712 
L 74.229402 194.915227 
L 75.652612 198.12808 
L 77.075822 200.300439 
L 77.787427 201.314682 
L 78.499032 202.591621 
L 79.210637 204.246955 
L 80.633847 208.475944 
L 84.903478 222.381849 
L 86.326688 225.794812 
L 87.038293 227.342945 
L 87.749898 228.578198 
L 88.461503 228.647094 
L 89.173108 229.084562 
L 89.884713 230.22823 
L 90.596318 229.911911 
L 91.307923 228.487809 
L 92.019528 230.998945 
L 92.731133 230.610986 
L 93.442738 234.481796 
L 94.154343 233.479741 
L 94.865948 236.097944 
L 96.289158 240.092196 
L 97.000763 241.067409 
L 97.712368 242.661596 
L 98.423973 242.06942 
L 99.135578 245.19459 
L 99.847183 250.148894 
L 100.558788 251.115082 
L 101.270393 253.709778 
L 101.981998 254.33811 
L 102.693603 258.510055 
L 103.405208 256.396496 
L 104.116813 260.458125 
L 104.828418 257.609985 
L 105.540023 258.807408 
L 106.251628 256.492702 
L 106.963233 253.786974 
L 107.674838 254.604307 
L 108.386443 256.413806 
L 109.098049 250.785214 
L 109.809654 254.161053 
L 110.521259 253.616791 
L 111.232864 251.802452 
L 111.944469 250.301566 
L 112.656074 251.281081 
L 113.367679 250.359965 
L 114.079284 246.156409 
L 114.790889 245.642068 
L 115.502494 246.437998 
L 116.214099 242.798146 
L 117.637309 240.851884 
L 118.348914 242.885205 
L 119.060519 238.507271 
L 119.772124 236.644805 
L 120.483729 236.946036 
L 121.195334 240.095571 
L 121.906939 240.421778 
L 122.618544 236.676551 
L 123.330149 239.022795 
L 124.041754 232.786957 
L 124.753359 241.477158 
L 125.464964 236.675407 
L 126.176569 237.001481 
L 126.888174 242.04639 
L 127.599779 240.916557 
L 128.311384 231.378998 
L 129.022989 240.315268 
L 129.734594 236.705176 
L 130.446199 234.247658 
L 131.157804 239.723724 
L 131.869409 238.588977 
L 132.581014 235.213743 
L 133.292619 237.982189 
L 134.004225 235.902769 
L 134.71583 236.342525 
L 135.427435 241.338019 
L 136.13904 233.693426 
L 136.850645 239.352541 
L 137.56225 239.817569 
L 138.273855 240.865233 
L 138.98546 243.791096 
L 139.697065 239.858038 
L 140.40867 245.356579 
L 141.120275 244.802805 
L 141.83188 242.157836 
L 142.543485 248.701343 
L 143.25509 243.557139 
L 143.966695 246.832039 
L 144.6783 245.470888 
L 145.389905 245.141789 
L 146.10151 244.449853 
L 146.813115 245.030505 
L 147.52472 240.865786 
L 148.236325 247.938828 
L 148.94793 239.72603 
L 149.659535 248.1854 
L 150.37114 243.556343 
L 151.082745 248.141006 
L 151.79435 247.757102 
L 152.505955 243.420799 
L 153.21756 248.993158 
L 153.929165 241.41288 
L 154.64077 248.243964 
L 155.352375 240.638263 
L 156.06398 245.124014 
L 156.775585 242.954118 
L 157.48719 245.811259 
L 158.198795 246.985633 
L 158.9104 247.225473 
L 159.622006 247.976193 
L 160.333611 244.232383 
L 161.045216 244.738524 
L 161.756821 245.017651 
L 162.468426 245.865327 
L 163.180031 246.95701 
L 163.891636 241.840858 
L 164.603241 246.435323 
L 165.314846 240.154894 
L 166.026451 246.779667 
L 166.738056 235.563288 
L 167.449661 247.101867 
L 168.161266 245.217731 
L 168.872871 247.864721 
L 169.584476 251.273281 
L 170.296081 249.88704 
L 171.007686 248.250659 
L 171.719291 251.509411 
L 172.430896 252.30475 
L 173.142501 247.253072 
L 173.854106 248.829768 
L 174.565711 247.961961 
L 175.277316 248.122712 
L 175.988921 243.289743 
L 176.700526 245.656935 
L 177.412131 242.320664 
L 178.123736 239.596419 
L 179.546946 236.976621 
L 180.258551 232.155916 
L 180.970156 234.634485 
L 181.681761 226.345662 
L 182.393366 238.578865 
L 183.104971 232.386658 
L 183.816576 240.830763 
L 184.528182 236.18272 
L 185.239787 238.67682 
L 185.951392 245.268558 
L 186.662997 241.870717 
L 187.374602 243.686176 
L 188.086207 246.670813 
L 188.797812 242.555133 
L 189.509417 242.609867 
L 190.221022 243.921149 
L 190.932627 242.155087 
L 191.644232 241.068876 
L 193.067442 239.359753 
L 193.779047 237.133551 
L 194.490652 237.104857 
L 195.202257 237.429316 
L 195.913862 234.495776 
L 196.625467 234.753488 
L 197.337072 233.996871 
L 198.048677 233.850226 
L 198.760282 234.840723 
L 199.471887 232.952899 
L 200.183492 234.928286 
L 200.895097 233.994647 
L 201.606702 235.92395 
L 202.318307 235.505707 
L 203.029912 235.898046 
L 203.741517 235.772145 
L 204.453122 236.710605 
L 205.164727 236.160704 
L 205.876332 237.066678 
L 206.587937 235.894058 
L 207.299542 235.947175 
L 208.011147 236.59133 
L 208.722752 234.725634 
L 209.434357 236.265163 
L 210.145963 235.02568 
L 210.857568 235.065236 
L 211.569173 234.937786 
L 212.992383 233.487656 
L 213.703988 233.63448 
L 214.415593 229.298824 
L 215.127198 229.382036 
L 215.838803 215.827981 
L 216.550408 217.14367 
L 217.262013 208.28572 
L 217.973618 232.552331 
L 218.685223 234.295885 
L 219.396828 222.844894 
L 220.820038 234.629551 
L 221.531643 231.358262 
L 222.243248 229.19859 
L 222.954853 232.655543 
L 223.666458 232.497974 
L 224.378063 230.921634 
L 225.089668 230.353574 
L 225.801273 231.977169 
L 226.512878 231.389804 
L 227.224483 228.602741 
L 227.936088 232.095804 
L 228.647693 231.041791 
L 229.359298 229.133714 
L 230.070903 231.864832 
L 230.782508 231.288216 
L 231.494113 229.794603 
L 232.205718 231.240116 
L 232.917323 231.952799 
L 233.628928 229.147147 
L 234.340533 231.754557 
L 235.052139 230.780804 
L 235.763744 229.585242 
L 236.475349 230.774231 
L 237.186954 230.489545 
L 237.898559 228.728505 
L 238.610164 229.934196 
L 239.321769 229.734336 
L 240.033374 227.575525 
L 240.744979 229.260451 
L 241.456584 228.359609 
L 242.168189 227.658933 
L 242.879794 227.617793 
L 243.591399 228.626773 
L 244.303004 226.281954 
L 245.014609 228.87617 
L 245.726214 225.820305 
L 246.437819 228.616192 
L 247.149424 226.221462 
L 247.861029 229.348224 
L 248.572634 228.523622 
L 249.284239 229.783954 
L 249.995844 229.506161 
L 250.707449 227.595393 
L 251.419054 228.96837 
L 252.130659 227.104022 
L 252.842264 226.337531 
L 253.553869 226.08343 
L 254.265474 223.328349 
L 254.977079 224.43696 
L 255.688684 221.695877 
L 256.400289 223.132898 
L 257.111894 221.010473 
L 257.823499 222.185007 
L 258.535104 220.07796 
L 259.246709 222.185347 
L 259.958314 218.5447 
L 260.66992 222.86986 
L 261.381525 220.08736 
L 262.09313 225.83212 
L 262.804735 226.18744 
L 263.51634 224.226846 
L 264.227945 226.619841 
L 264.93955 225.427808 
L 265.651155 223.900663 
L 266.36276 224.166874 
L 267.074365 222.669015 
L 267.78597 220.688246 
L 268.497575 220.033804 
L 269.20918 218.538786 
L 269.920785 217.501844 
L 270.63239 216.792377 
L 271.343995 215.576583 
L 272.0556 215.449037 
L 272.767205 213.223223 
L 273.47881 214.902247 
L 274.190415 207.401359 
L 274.90202 212.861481 
L 275.613625 214.363071 
L 276.32523 224.665907 
L 277.036835 226.063387 
L 277.74844 230.420649 
L 278.460045 227.282855 
L 279.17165 229.933638 
L 279.883255 231.010108 
L 280.59486 228.716296 
L 281.306465 227.468669 
L 282.01807 222.790214 
L 282.729675 223.435707 
L 284.152885 215.533411 
L 284.86449 206.480341 
L 285.576096 201.177378 
L 286.287701 192.504751 
L 286.999306 191.525844 
L 287.710911 203.950225 
L 288.422516 207.769967 
L 289.134121 198.93623 
L 289.845726 204.002985 
L 290.557331 208.000701 
L 291.268936 208.194943 
L 291.980541 210.098035 
L 292.692146 212.456555 
L 293.403751 213.707889 
L 294.115356 210.779569 
L 294.826961 212.536408 
L 295.538566 212.870042 
L 296.250171 208.514629 
L 296.961776 210.088521 
L 297.673381 209.705074 
L 298.384986 207.867505 
L 299.096591 209.6537 
L 300.519801 209.009034 
L 301.231406 209.76277 
L 301.943011 210.838789 
L 302.654616 209.314503 
L 303.366221 210.682834 
L 304.077826 210.12423 
L 304.789431 208.784038 
L 305.501036 209.211309 
L 306.212641 207.625658 
L 306.924246 208.431308 
L 307.635851 207.517472 
L 308.347456 207.617085 
L 309.770666 208.355538 
L 310.482272 209.061305 
L 311.193877 209.212331 
L 311.905482 210.562914 
L 312.617087 210.503864 
L 313.328692 211.595686 
L 314.040297 211.597492 
L 314.751902 212.165491 
L 315.463507 211.839465 
L 316.175112 212.414494 
L 316.886717 210.986673 
L 317.598322 211.877412 
L 318.309927 210.209852 
L 319.021532 210.460698 
L 319.733137 208.704587 
L 320.444742 208.886129 
L 321.156347 207.099577 
L 321.867952 207.798245 
L 322.579557 204.877733 
L 323.291162 206.665414 
L 324.002767 203.309053 
L 324.714372 206.56264 
L 325.425977 203.828254 
L 326.137582 209.245745 
L 326.849187 208.175088 
L 327.560792 212.132824 
L 328.272397 211.461512 
L 328.984002 211.455428 
L 329.695607 211.66506 
L 330.407212 208.345442 
L 331.118817 210.119777 
L 331.830422 207.917387 
L 332.542027 209.912924 
L 333.253632 209.034144 
L 333.965237 209.08148 
L 334.676842 209.266867 
L 335.388447 207.792557 
L 336.100053 208.619648 
L 336.811658 206.598587 
L 337.523263 208.456293 
L 338.234868 206.517599 
L 338.946473 208.881933 
L 339.658078 206.568892 
L 340.369683 209.49792 
L 341.081288 207.211099 
L 341.792893 210.521781 
L 342.504498 209.610026 
L 343.216103 212.027291 
L 343.927708 212.575993 
L 344.639313 211.092044 
L 345.350918 212.568467 
L 346.062523 211.05007 
L 346.774128 211.149276 
L 347.485733 210.166555 
L 348.197338 209.75638 
L 348.908943 208.858278 
L 349.620548 208.934907 
L 350.332153 205.881149 
L 351.043758 206.382321 
L 351.755363 202.416814 
L 352.466968 204.142384 
L 353.178573 198.042946 
L 353.890178 201.808874 
L 354.601783 192.700165 
L 355.313388 208.797829 
L 356.024993 218.409616 
L 356.736598 217.561923 
L 357.448203 225.987058 
L 358.159808 225.258671 
L 358.871413 227.317454 
L 359.583018 222.837386 
L 360.294623 224.426543 
L 361.717834 221.312298 
L 363.141044 213.254837 
L 363.852649 212.607198 
L 364.564254 209.173919 
L 365.275859 204.165017 
L 365.987464 201.451723 
L 366.699069 200.074743 
L 367.410674 199.209522 
L 368.122279 198.019145 
L 368.833884 197.628593 
L 369.545489 195.39553 
L 370.257094 197.532266 
L 370.968699 194.544175 
L 371.680304 202.094475 
L 373.103514 207.766938 
L 373.815119 209.057756 
L 374.526724 209.093114 
L 375.238329 210.662164 
L 375.949934 211.270789 
L 376.661539 211.351293 
L 377.373144 209.4828 
L 378.084749 211.651162 
L 378.796354 210.000102 
L 379.507959 207.227499 
L 380.219564 203.488738 
L 380.931169 200.97763 
L 381.642774 195.218052 
L 382.354379 201.287163 
L 383.065984 205.099925 
L 383.777589 211.159636 
L 384.489194 214.833777 
L 385.200799 209.1167 
L 385.912404 205.938237 
L 386.62401 205.36216 
L 387.335615 206.355712 
L 388.04722 209.742639 
L 388.758825 204.634601 
L 389.47043 206.160059 
L 390.182035 208.786867 
L 390.89364 212.572512 
L 391.605245 214.439732 
L 392.31685 213.348643 
L 393.74006 216.712844 
L 394.451665 217.389242 
L 395.16327 216.603064 
L 395.874875 215.376634 
L 396.58648 214.974681 
L 397.298085 213.810469 
L 398.721295 212.832621 
L 399.4329 211.04948 
L 400.144505 210.865304 
L 400.85611 211.479705 
L 401.567715 211.625826 
L 402.27932 212.170603 
L 402.990925 211.403 
L 403.70253 213.476195 
L 404.414135 213.734542 
L 405.12574 214.647312 
L 405.837345 214.682664 
L 406.54895 216.038559 
L 407.260555 215.555066 
L 407.97216 217.257313 
L 408.683765 216.373027 
L 409.39537 217.57508 
L 410.81858 217.117795 
L 411.530186 217.468411 
L 412.241791 216.797763 
L 412.953396 217.593374 
L 413.665001 216.497292 
L 414.376606 217.148587 
L 415.088211 216.685319 
L 415.799816 216.722552 
L 417.223026 216.109632 
L 418.646236 215.884184 
L 418.646236 215.884184 
" clip-path="url(#p8dd814c5c3)" style="fill: none; stroke: #ff7f0e; stroke-opacity: 0.6; stroke-width: 1.5; stroke-linecap: square"/>
   </g>
   <g id="line2d_11">
    <path d="M 63.555327 165.817429 
L 66.401747 174.306148 
L 69.248167 183.023652 
L 72.094587 191.971959 
L 73.517797 195.906447 
L 74.941007 199.236245 
L 76.364217 201.988863 
L 78.499032 205.730173 
L 79.922242 208.853549 
L 81.345452 212.815816 
L 88.461503 234.714785 
L 89.884713 237.895343 
L 91.307923 239.37647 
L 92.019528 239.297283 
L 92.731133 238.419351 
L 94.154343 235.519124 
L 95.577553 234.392961 
L 96.289158 234.138346 
L 97.000763 234.904492 
L 97.712368 237.051676 
L 98.423973 238.503222 
L 99.135578 239.625534 
L 99.847183 242.355054 
L 100.558788 244.349174 
L 101.270393 245.644983 
L 101.981998 244.670534 
L 102.693603 248.182902 
L 103.405208 248.374574 
L 104.116813 244.636676 
L 104.828418 243.341033 
L 105.540023 242.888536 
L 106.251628 237.489648 
L 106.963233 235.429082 
L 108.386443 224.559068 
L 109.098049 224.612045 
L 109.809654 211.852798 
L 110.521259 216.869329 
L 111.232864 217.369275 
L 111.944469 209.825201 
L 112.656074 211.81305 
L 113.367679 214.790424 
L 114.079284 211.084807 
L 114.790889 215.081174 
L 115.502494 212.403776 
L 116.214099 211.549887 
L 116.925704 213.447705 
L 117.637309 205.201 
L 118.348914 203.020494 
L 119.060519 210.185143 
L 119.772124 208.051154 
L 120.483729 212.712481 
L 121.195334 215.077976 
L 121.906939 208.760489 
L 122.618544 217.450789 
L 123.330149 210.829834 
L 124.041754 218.200518 
L 124.753359 212.415974 
L 126.176569 216.105298 
L 126.888174 213.978853 
L 127.599779 214.637837 
L 128.311384 215.727508 
L 129.022989 213.572297 
L 129.734594 214.059289 
L 130.446199 215.212101 
L 131.157804 214.643261 
L 131.869409 214.971401 
L 132.581014 213.626362 
L 133.292619 216.607592 
L 134.004225 214.572884 
L 134.71583 215.25652 
L 135.427435 215.494918 
L 136.13904 215.563105 
L 136.850645 215.798888 
L 137.56225 217.677189 
L 138.273855 217.424807 
L 138.98546 220.914936 
L 139.697065 217.399608 
L 140.40867 222.308546 
L 141.120275 219.443536 
L 141.83188 220.095068 
L 142.543485 213.315361 
L 143.25509 208.751039 
L 143.966695 200.926707 
L 144.6783 219.078056 
L 145.389905 220.564539 
L 146.10151 211.591384 
L 146.813115 223.34244 
L 147.52472 215.264234 
L 148.236325 223.939501 
L 148.94793 213.02271 
L 149.659535 225.056747 
L 150.37114 226.830512 
L 151.082745 220.452288 
L 151.79435 233.133888 
L 152.505955 231.104016 
L 153.21756 222.659978 
L 153.929165 231.462076 
L 154.64077 230.945377 
L 155.352375 228.223194 
L 156.06398 223.647991 
L 156.775585 228.439291 
L 157.48719 228.035738 
L 158.198795 222.723475 
L 158.9104 222.834954 
L 159.622006 225.221463 
L 160.333611 220.664327 
L 161.045216 222.176215 
L 161.756821 220.875256 
L 162.468426 218.852979 
L 163.180031 221.918257 
L 163.891636 219.869721 
L 164.603241 217.289522 
L 165.314846 222.169423 
L 166.026451 219.797871 
L 166.738056 220.453655 
L 167.449661 220.554623 
L 168.161266 222.136041 
L 168.872871 222.766553 
L 169.584476 220.938948 
L 170.296081 222.983552 
L 171.007686 222.56816 
L 171.719291 223.466807 
L 172.430896 222.254506 
L 173.142501 222.968069 
L 173.854106 223.256254 
L 174.565711 221.689079 
L 175.277316 223.260619 
L 175.988921 222.220641 
L 176.700526 222.15441 
L 177.412131 221.810184 
L 178.123736 221.604447 
L 178.835341 222.10989 
L 179.546946 220.456033 
L 180.258551 222.26646 
L 180.970156 220.730095 
L 181.681761 221.729095 
L 182.393366 220.364872 
L 183.104971 221.323317 
L 183.816576 218.863659 
L 184.528182 219.02549 
L 185.239787 214.955378 
L 185.951392 214.069254 
L 186.662997 210.880964 
L 187.374602 216.433269 
L 188.086207 220.538587 
L 188.797812 222.824142 
L 189.509417 220.9213 
L 190.221022 216.429173 
L 190.932627 217.676982 
L 191.644232 220.608042 
L 192.355837 218.973469 
L 193.067442 217.762398 
L 193.779047 214.160997 
L 194.490652 215.217368 
L 195.202257 216.57596 
L 195.913862 214.040952 
L 196.625467 213.962046 
L 197.337072 210.149811 
L 198.048677 213.016427 
L 198.760282 212.813625 
L 199.471887 213.06005 
L 200.183492 212.483171 
L 200.895097 210.580267 
L 201.606702 211.82743 
L 202.318307 211.422485 
L 203.029912 212.502242 
L 203.741517 211.727516 
L 204.453122 210.470086 
L 205.164727 210.340785 
L 205.876332 209.02396 
L 206.587937 209.612924 
L 208.011147 208.709203 
L 208.722752 208.659565 
L 209.434357 206.975518 
L 210.145963 207.320133 
L 210.857568 204.999026 
L 211.569173 206.359688 
L 212.280778 203.445767 
L 212.992383 206.158567 
L 213.703988 204.075507 
L 214.415593 206.63804 
L 215.127198 206.849013 
L 215.838803 204.921569 
L 216.550408 206.253376 
L 217.262013 201.129898 
L 217.973618 202.592699 
L 218.685223 197.012525 
L 219.396828 196.205621 
L 220.108433 194.252019 
L 220.820038 200.432716 
L 221.531643 203.779345 
L 222.243248 204.432827 
L 222.954853 199.933218 
L 223.666458 196.93614 
L 224.378063 198.633916 
L 225.089668 200.03376 
L 225.801273 199.761711 
L 226.512878 194.396253 
L 227.224483 194.640502 
L 227.936088 192.321478 
L 228.647693 198.064431 
L 229.359298 196.74264 
L 230.782508 196.945766 
L 231.494113 198.186119 
L 232.205718 199.017294 
L 232.917323 198.566331 
L 233.628928 196.767812 
L 234.340533 195.758846 
L 235.052139 197.079729 
L 235.763744 195.45512 
L 236.475349 195.367886 
L 237.186954 194.498664 
L 237.898559 191.759499 
L 238.610164 192.50166 
L 239.321769 190.311497 
L 240.033374 191.374792 
L 240.744979 189.849955 
L 241.456584 190.572259 
L 242.168189 189.444195 
L 242.879794 188.837602 
L 243.591399 189.129845 
L 244.303004 186.889025 
L 245.014609 188.510573 
L 245.726214 187.714033 
L 246.437819 187.788067 
L 247.149424 188.069323 
L 247.861029 187.024498 
L 248.572634 187.683713 
L 249.284239 187.153466 
L 250.707449 187.119903 
L 251.419054 186.482235 
L 252.842264 185.829894 
L 254.265474 184.744499 
L 254.977079 183.451933 
L 255.688684 182.701394 
L 256.400289 179.757227 
L 257.111894 178.580509 
L 257.823499 172.013303 
L 258.535104 172.341268 
L 259.246709 170.7141 
L 260.66992 187.893155 
L 261.381525 192.666551 
L 262.09313 192.059876 
L 262.804735 186.752259 
L 263.51634 186.53136 
L 264.227945 188.84053 
L 264.93955 189.699707 
L 265.651155 185.376189 
L 266.36276 180.280242 
L 267.074365 180.774128 
L 267.78597 180.670656 
L 268.497575 179.301002 
L 269.920785 174.217629 
L 270.63239 175.658668 
L 271.343995 175.432362 
L 272.0556 175.720272 
L 272.767205 174.623753 
L 274.190415 176.202825 
L 274.90202 175.011746 
L 275.613625 175.533857 
L 276.32523 174.934521 
L 277.036835 174.754635 
L 277.74844 175.469576 
L 278.460045 174.681956 
L 280.59486 174.236286 
L 281.306465 175.070589 
L 282.01807 174.855608 
L 282.729675 174.457732 
L 283.44128 174.692509 
L 284.152885 174.302679 
L 284.86449 174.123013 
L 285.576096 173.803639 
L 286.287701 173.340172 
L 286.999306 172.502237 
L 287.710911 172.021259 
L 289.134121 170.69768 
L 289.845726 170.598867 
L 290.557331 169.808026 
L 291.268936 170.283014 
L 291.980541 170.025689 
L 292.692146 170.544138 
L 293.403751 170.778315 
L 294.115356 171.362213 
L 295.538566 171.868891 
L 297.673381 172.009212 
L 298.384986 171.667457 
L 299.096591 171.750162 
L 299.808196 171.214999 
L 300.519801 171.302753 
L 301.231406 170.74213 
L 301.943011 170.851327 
L 302.654616 170.250227 
L 303.366221 170.37334 
L 304.077826 169.60447 
L 304.789431 170.031542 
L 305.501036 169.013431 
L 306.212641 170.471065 
L 306.924246 171.484347 
L 307.635851 174.460571 
L 308.347456 175.574175 
L 309.059061 174.675026 
L 309.770666 175.521834 
L 310.482272 174.682576 
L 311.905482 170.647183 
L 312.617087 167.809325 
L 313.328692 160.396342 
L 314.040297 150.494726 
L 314.751902 137.198043 
L 315.463507 138.182708 
L 316.175112 158.257144 
L 316.886717 172.434889 
L 317.598322 165.656129 
L 318.309927 155.932962 
L 319.733137 180.675511 
L 320.444742 177.12334 
L 321.156347 177.191703 
L 321.867952 187.601801 
L 322.579557 184.692371 
L 323.291162 178.020211 
L 324.002767 182.853743 
L 324.714372 178.23885 
L 325.425977 171.13307 
L 326.137582 171.010449 
L 326.849187 168.891836 
L 327.560792 163.830771 
L 328.272397 161.66684 
L 328.984002 163.41171 
L 329.695607 162.202043 
L 330.407212 161.989063 
L 331.118817 163.573926 
L 332.542027 163.771561 
L 333.253632 166.766063 
L 333.965237 166.549815 
L 334.676842 164.370618 
L 335.388447 164.200543 
L 336.100053 163.882553 
L 336.811658 162.186928 
L 337.523263 161.592202 
L 338.234868 160.179486 
L 338.946473 159.504218 
L 339.658078 159.437007 
L 340.369683 159.809371 
L 342.504498 162.243007 
L 343.216103 163.796235 
L 343.927708 164.576415 
L 344.639313 165.172381 
L 345.350918 166.302985 
L 346.062523 166.276636 
L 346.774128 165.796018 
L 347.485733 166.094743 
L 348.197338 165.630333 
L 348.908943 164.727171 
L 349.620548 164.571075 
L 350.332153 164.160652 
L 351.755363 163.906257 
L 352.466968 163.960518 
L 353.178573 164.710508 
L 354.601783 165.713805 
L 355.313388 166.752579 
L 356.736598 168.083254 
L 357.448203 168.66967 
L 358.159808 168.656397 
L 358.871413 168.810951 
L 359.583018 168.776493 
L 361.006229 168.103758 
L 362.429439 167.24914 
L 363.141044 166.916422 
L 363.852649 166.404326 
L 364.564254 166.354973 
L 365.275859 165.918745 
L 365.987464 165.859461 
L 366.699069 164.491664 
L 367.410674 163.474771 
L 368.122279 161.959221 
L 369.545489 178.222042 
L 370.257094 177.843694 
L 370.968699 182.659163 
L 371.680304 181.072767 
L 372.391909 182.500291 
L 373.103514 179.890838 
L 373.815119 179.421925 
L 374.526724 175.213731 
L 375.238329 173.621389 
L 375.949934 168.50106 
L 376.661539 166.23842 
L 378.084749 157.868734 
L 378.796354 156.609029 
L 379.507959 154.587241 
L 380.219564 152.132347 
L 380.931169 151.04935 
L 381.642774 150.757509 
L 382.354379 154.356496 
L 383.777589 166.643968 
L 384.489194 168.473834 
L 385.200799 170.870756 
L 385.912404 172.729991 
L 386.62401 173.012513 
L 387.335615 172.923605 
L 388.04722 171.593693 
L 388.758825 171.75733 
L 390.89364 167.367844 
L 391.605245 165.406457 
L 392.31685 164.624596 
L 393.74006 162.553824 
L 394.451665 161.278225 
L 395.16327 161.467124 
L 395.874875 162.384861 
L 397.298085 165.119506 
L 399.4329 168.015166 
L 400.85611 170.082966 
L 401.567715 170.889719 
L 402.27932 171.151032 
L 402.990925 171.625037 
L 403.70253 171.814291 
L 404.414135 172.392959 
L 405.12574 172.255184 
L 405.837345 172.666325 
L 406.54895 172.338191 
L 407.260555 172.593301 
L 407.97216 171.86785 
L 408.683765 171.713757 
L 409.39537 170.048016 
L 410.106975 169.693305 
L 410.81858 166.675824 
L 411.530186 165.170191 
L 412.241791 159.386136 
L 413.665001 153.653605 
L 414.376606 160.962832 
L 415.088211 172.97747 
L 415.799816 182.259279 
L 416.511421 184.311365 
L 417.934631 178.594237 
L 418.646236 180.810756 
L 418.646236 180.810756 
" clip-path="url(#p8dd814c5c3)" style="fill: none; stroke: #2ca02c; stroke-opacity: 0.6; stroke-width: 1.5; stroke-linecap: square"/>
   </g>
   <g id="line2d_12">
    <path d="M 63.555327 167.709699 
L 67.113352 176.331786 
L 69.248167 182.434249 
L 74.229402 198.020979 
L 75.652612 201.339392 
L 77.075822 203.683717 
L 78.499032 205.736424 
L 79.210637 207.004509 
L 80.633847 210.275217 
L 82.768662 216.177531 
L 84.903478 222.495865 
L 87.749898 231.140941 
L 88.461503 232.756379 
L 89.173108 233.750208 
L 90.596318 234.57914 
L 91.307923 235.819405 
L 92.019528 236.672499 
L 92.731133 236.655052 
L 94.154343 242.293257 
L 94.865948 240.870257 
L 95.577553 245.713921 
L 96.289158 243.549371 
L 97.000763 245.414027 
L 97.712368 248.540097 
L 98.423973 248.074313 
L 99.135578 248.297089 
L 99.847183 247.522643 
L 100.558788 247.795587 
L 101.270393 244.624543 
L 101.981998 249.309121 
L 102.693603 246.149263 
L 104.116813 252.344284 
L 104.828418 246.498006 
L 105.540023 250.90479 
L 106.251628 250.446311 
L 106.963233 250.346849 
L 107.674838 247.951628 
L 108.386443 250.648482 
L 109.098049 246.854996 
L 109.809654 247.936643 
L 110.521259 245.916389 
L 111.232864 242.330941 
L 111.944469 246.848668 
L 112.656074 243.414153 
L 113.367679 239.35077 
L 114.079284 241.303519 
L 114.790889 232.634564 
L 115.502494 241.705902 
L 116.214099 240.14155 
L 116.925704 234.195096 
L 117.637309 240.484042 
L 118.348914 231.980099 
L 119.060519 241.137873 
L 119.772124 238.294672 
L 120.483729 235.963954 
L 121.195334 241.823638 
L 121.906939 233.146959 
L 122.618544 239.09445 
L 123.330149 237.185399 
L 124.041754 238.034804 
L 124.753359 240.164353 
L 125.464964 230.5026 
L 126.176569 240.917299 
L 126.888174 238.864976 
L 127.599779 240.803419 
L 128.311384 244.722224 
L 129.022989 241.908536 
L 129.734594 243.061424 
L 130.446199 246.118989 
L 131.157804 243.18526 
L 131.869409 243.356606 
L 132.581014 240.938979 
L 133.292619 244.470144 
L 134.004225 239.422444 
L 134.71583 244.466846 
L 135.427435 246.970493 
L 136.13904 240.736316 
L 136.850645 245.969749 
L 137.56225 241.979988 
L 138.273855 244.203625 
L 138.98546 244.89332 
L 139.697065 242.314197 
L 140.40867 243.492219 
L 141.120275 240.235037 
L 141.83188 245.08129 
L 142.543485 234.25898 
L 143.25509 243.775826 
L 143.966695 236.769455 
L 144.6783 245.149408 
L 145.389905 248.94272 
L 146.10151 243.768004 
L 146.813115 246.321369 
L 147.52472 249.442583 
L 148.236325 247.46905 
L 148.94793 243.669466 
L 149.659535 246.033378 
L 150.37114 246.250108 
L 151.082745 238.626968 
L 151.79435 240.412123 
L 152.505955 235.220429 
L 153.21756 233.300908 
L 153.929165 234.170555 
L 154.64077 237.006395 
L 155.352375 234.07501 
L 156.06398 234.203342 
L 156.775585 229.019501 
L 157.48719 235.742025 
L 158.198795 235.133093 
L 158.9104 235.963647 
L 159.622006 235.351354 
L 160.333611 236.22827 
L 161.045216 237.60821 
L 161.756821 237.351501 
L 162.468426 238.040559 
L 163.180031 236.154521 
L 163.891636 237.079681 
L 164.603241 237.288104 
L 165.314846 235.646775 
L 166.026451 235.403531 
L 166.738056 233.995081 
L 168.161266 233.559146 
L 168.872871 232.359775 
L 169.584476 232.085959 
L 170.296081 231.989863 
L 171.007686 230.384699 
L 171.719291 230.921573 
L 172.430896 230.558851 
L 173.142501 230.685193 
L 173.854106 230.346895 
L 174.565711 229.701656 
L 175.277316 230.064652 
L 176.700526 229.21593 
L 177.412131 229.155475 
L 178.123736 227.924097 
L 178.835341 228.298071 
L 179.546946 226.963458 
L 180.258551 227.054856 
L 180.970156 224.410332 
L 181.681761 224.869975 
L 182.393366 219.546328 
L 183.104971 224.10295 
L 183.816576 214.201215 
L 184.528182 225.141655 
L 185.239787 218.564749 
L 185.951392 231.306136 
L 186.662997 231.649951 
L 187.374602 228.219664 
L 188.086207 229.234421 
L 188.797812 232.788272 
L 189.509417 233.298585 
L 190.221022 230.476896 
L 190.932627 225.789117 
L 191.644232 228.283171 
L 193.067442 222.664917 
L 193.779047 220.729675 
L 194.490652 219.33338 
L 195.202257 216.798485 
L 195.913862 211.727058 
L 196.625467 213.758203 
L 197.337072 208.83821 
L 198.048677 210.584513 
L 198.760282 210.732334 
L 199.471887 206.145046 
L 200.183492 210.472488 
L 200.895097 205.319986 
L 201.606702 211.017747 
L 202.318307 210.236756 
L 203.029912 209.049841 
L 203.741517 211.935604 
L 204.453122 210.098931 
L 205.164727 209.789555 
L 205.876332 210.942191 
L 206.587937 208.089058 
L 207.299542 207.666798 
L 208.011147 206.59246 
L 208.722752 205.003423 
L 209.434357 202.658658 
L 210.145963 203.550153 
L 210.857568 199.639921 
L 211.569173 200.63743 
L 212.280778 197.561804 
L 212.992383 196.668656 
L 213.703988 193.912654 
L 214.415593 193.958598 
L 215.127198 193.581707 
L 215.838803 197.360131 
L 216.550408 198.750167 
L 217.262013 197.827156 
L 218.685223 194.28036 
L 219.396828 195.238315 
L 220.108433 195.394612 
L 220.820038 194.746731 
L 221.531643 192.867897 
L 222.243248 192.244971 
L 222.954853 192.622883 
L 223.666458 192.535443 
L 224.378063 191.716447 
L 225.089668 189.766979 
L 225.801273 189.373699 
L 226.512878 188.765382 
L 227.224483 188.331726 
L 228.647693 185.377688 
L 229.359298 184.351489 
L 230.782508 183.032934 
L 231.494113 181.386198 
L 232.205718 180.839925 
L 232.917323 178.402009 
L 233.628928 179.52697 
L 234.340533 176.139653 
L 235.052139 179.141843 
L 235.763744 177.32827 
L 236.475349 181.204038 
L 237.186954 182.973606 
L 237.898559 179.364486 
L 238.610164 181.818129 
L 239.321769 180.063017 
L 240.033374 175.695885 
L 240.744979 176.411821 
L 242.168189 170.480616 
L 242.879794 169.179305 
L 244.303004 164.660485 
L 245.014609 164.517626 
L 245.726214 158.771616 
L 246.437819 161.515589 
L 247.149424 153.467494 
L 247.861029 160.665386 
L 248.572634 159.150938 
L 249.284239 165.99186 
L 249.995844 166.410759 
L 250.707449 165.935516 
L 251.419054 163.956295 
L 252.130659 164.683679 
L 252.842264 162.818714 
L 253.553869 158.270402 
L 254.265474 156.758041 
L 254.977079 154.383767 
L 256.400289 147.374504 
L 257.111894 146.062521 
L 257.823499 141.616652 
L 258.535104 141.018634 
L 259.958314 135.60955 
L 260.66992 134.450264 
L 261.381525 132.000984 
L 262.09313 131.206615 
L 263.51634 135.827958 
L 264.227945 142.527065 
L 264.93955 143.531033 
L 265.651155 145.328778 
L 267.074365 139.997218 
L 267.78597 141.40965 
L 268.497575 138.20501 
L 269.20918 139.254205 
L 269.920785 136.185315 
L 270.63239 131.715218 
L 271.343995 132.39104 
L 272.0556 130.028862 
L 272.767205 129.820072 
L 273.47881 128.155142 
L 274.190415 124.834762 
L 274.90202 125.185642 
L 275.613625 123.953016 
L 276.32523 124.10681 
L 277.036835 123.181782 
L 277.74844 121.409412 
L 278.460045 121.257744 
L 279.17165 120.010919 
L 279.883255 120.065528 
L 280.59486 118.464816 
L 281.306465 118.520385 
L 282.01807 116.08893 
L 282.729675 117.446982 
L 283.44128 114.853423 
L 284.152885 118.432587 
L 284.86449 117.339155 
L 285.576096 118.677403 
L 286.287701 117.859507 
L 286.999306 115.653162 
L 287.710911 115.637366 
L 288.422516 114.651349 
L 289.134121 110.706244 
L 289.845726 110.659043 
L 290.557331 106.788948 
L 291.268936 105.36637 
L 291.980541 101.296564 
L 292.692146 99.261886 
L 293.403751 95.08632 
L 294.115356 95.505508 
L 294.826961 93.932654 
L 295.538566 99.44057 
L 296.250171 103.89467 
L 296.961776 104.071305 
L 297.673381 106.650333 
L 298.384986 101.74073 
L 299.096591 106.909211 
L 299.808196 106.867898 
L 300.519801 105.101172 
L 301.231406 104.491464 
L 301.943011 99.179997 
L 302.654616 100.129385 
L 303.366221 98.775105 
L 304.077826 94.7062 
L 304.789431 94.927186 
L 305.501036 90.988705 
L 306.212641 92.331265 
L 306.924246 93.301535 
L 307.635851 86.636876 
L 308.347456 89.166399 
L 309.059061 84.370992 
L 309.770666 95.596041 
L 310.482272 99.485674 
L 311.193877 97.091719 
L 311.905482 101.989936 
L 312.617087 100.996492 
L 313.328692 98.483666 
L 314.040297 97.398131 
L 314.751902 93.950135 
L 315.463507 93.542098 
L 316.175112 88.570046 
L 317.598322 81.19133 
L 318.309927 82.047746 
L 319.021532 82.556839 
L 319.733137 79.021858 
L 320.444742 80.212114 
L 321.156347 80.51934 
L 321.867952 78.806684 
L 322.579557 73.815691 
L 323.291162 75.667442 
L 324.002767 70.611169 
L 324.714372 73.94342 
L 325.425977 69.72612 
L 326.137582 81.207743 
L 326.849187 83.383859 
L 327.560792 80.229291 
L 328.272397 82.511206 
L 328.984002 79.493539 
L 329.695607 78.686049 
L 330.407212 75.94725 
L 331.118817 75.205345 
L 332.542027 68.097059 
L 333.965237 66.514533 
L 334.676842 66.374438 
L 335.388447 61.184595 
L 336.811658 60.19657 
L 337.523263 60.576258 
L 338.234868 61.163704 
L 339.658078 55.934195 
L 340.369683 55.571615 
L 341.081288 54.770612 
L 341.792893 55.745919 
L 342.504498 54.67764 
L 343.216103 57.728505 
L 343.927708 60.169045 
L 344.639313 60.687662 
L 345.350918 61.02644 
L 346.062523 59.125577 
L 346.774128 58.665949 
L 347.485733 57.932852 
L 348.197338 55.660305 
L 348.908943 54.575418 
L 349.620548 52.128842 
L 350.332153 51.230408 
L 351.043758 49.601396 
L 351.755363 50.143688 
L 352.466968 47.0306 
L 353.178573 47.93653 
L 353.890178 45.904988 
L 354.601783 47.880725 
L 355.313388 45.440351 
L 356.024993 46.938823 
L 356.736598 45.145693 
L 357.448203 47.395149 
L 358.159808 44.812724 
L 358.871413 47.342333 
L 359.583018 44.487962 
L 360.294623 49.655094 
L 361.006229 50.996802 
L 361.717834 55.443191 
L 362.429439 52.738394 
L 363.141044 56.378341 
L 363.852649 51.701776 
L 364.564254 54.809984 
L 365.275859 52.319804 
L 365.987464 50.438332 
L 366.699069 48.990188 
L 367.410674 45.995461 
L 368.122279 44.372166 
L 368.833884 43.096121 
L 369.545489 42.617322 
L 370.257094 40.953406 
L 370.968699 40.753751 
L 371.680304 38.893941 
L 372.391909 39.876757 
L 373.103514 38.850753 
L 373.815119 41.787791 
L 374.526724 43.244831 
L 375.238329 45.726216 
L 375.949934 45.004031 
L 376.661539 47.005613 
L 377.373144 45.004008 
L 378.084749 45.40321 
L 378.796354 44.254088 
L 380.219564 42.397399 
L 380.931169 42.057559 
L 381.642774 39.986218 
L 382.354379 40.467741 
L 383.065984 38.056714 
L 383.777589 38.385713 
L 384.489194 36.000599 
L 385.200799 37.799669 
L 385.912404 36.400896 
L 386.62401 38.500584 
L 387.335615 37.587117 
L 388.04722 37.99051 
L 388.758825 37.352828 
L 390.182035 36.871002 
L 390.89364 37.18532 
L 392.31685 39.681456 
L 393.028455 39.941735 
L 393.74006 38.950084 
L 394.451665 38.793064 
L 395.16327 38.250617 
L 395.874875 36.405073 
L 396.58648 36.429434 
L 398.00969 35.048807 
L 398.721295 34.815265 
L 399.4329 34.340203 
L 400.144505 35.324051 
L 400.85611 33.836067 
L 401.567715 35.682541 
L 402.27932 33.658125 
L 402.990925 36.419976 
L 403.70253 34.944749 
L 404.414135 37.235878 
L 405.12574 36.438303 
L 405.837345 37.441317 
L 406.54895 37.306352 
L 407.260555 36.887719 
L 407.97216 37.537458 
L 408.683765 37.067587 
L 409.39537 37.878143 
L 410.106975 36.99779 
L 410.81858 37.264136 
L 411.530186 35.715583 
L 412.241791 35.980786 
L 412.953396 34.87148 
L 413.665001 35.271216 
L 414.376606 34.479821 
L 415.088211 34.533518 
L 415.799816 34.115996 
L 416.511421 33.875757 
L 417.223026 34.146986 
L 417.934631 34.638496 
L 418.646236 34.964764 
L 418.646236 34.964764 
" clip-path="url(#p8dd814c5c3)" style="fill: none; stroke: #d62728; stroke-opacity: 0.6; stroke-width: 1.5; stroke-linecap: square"/>
   </g>
   <g id="line2d_13">
    <path d="M 63.555327 167.279693 
L 67.824957 178.663596 
L 69.959772 185.144153 
L 73.517797 196.198469 
L 74.941007 199.664455 
L 76.364217 202.103435 
L 77.787427 204.348787 
L 78.499032 205.927501 
L 79.210637 207.940763 
L 80.633847 212.90463 
L 82.768662 220.78117 
L 84.191873 225.242579 
L 86.326688 231.677706 
L 87.038293 232.959134 
L 87.749898 234.662696 
L 88.461503 237.028391 
L 89.173108 238.51478 
L 89.884713 239.640181 
L 91.307923 243.674831 
L 92.019528 246.488526 
L 92.731133 247.366299 
L 93.442738 248.496435 
L 94.865948 250.004943 
L 95.577553 250.392899 
L 96.289158 250.645814 
L 97.000763 250.159611 
L 97.712368 249.991026 
L 98.423973 252.207427 
L 99.135578 251.369423 
L 99.847183 254.350652 
L 100.558788 254.935736 
L 101.270393 255.157476 
L 101.981998 254.967519 
L 102.693603 251.899667 
L 103.405208 255.282991 
L 104.116813 250.533156 
L 104.828418 255.356492 
L 105.540023 255.268821 
L 106.251628 253.30547 
L 106.963233 252.979455 
L 107.674838 256.223187 
L 108.386443 251.754305 
L 109.098049 254.546503 
L 109.809654 251.454385 
L 110.521259 250.171302 
L 111.232864 253.908603 
L 111.944469 253.368531 
L 112.656074 245.946182 
L 113.367679 250.352907 
L 114.079284 251.402622 
L 114.790889 245.993624 
L 115.502494 250.942082 
L 116.214099 247.833595 
L 116.925704 246.286759 
L 117.637309 250.305182 
L 118.348914 242.767522 
L 119.060519 249.08281 
L 119.772124 247.453083 
L 120.483729 242.636645 
L 121.195334 247.65447 
L 121.906939 240.477661 
L 122.618544 246.112566 
L 123.330149 245.641911 
L 124.041754 242.294009 
L 124.753359 246.346909 
L 125.464964 237.740077 
L 126.176569 247.192578 
L 126.888174 234.53455 
L 127.599779 248.394703 
L 128.311384 247.082997 
L 129.022989 244.05037 
L 129.734594 249.273186 
L 130.446199 244.060931 
L 131.157804 245.749489 
L 131.869409 248.482685 
L 132.581014 242.322854 
L 133.292619 231.015093 
L 134.004225 225.666143 
L 134.71583 235.071012 
L 135.427435 236.018441 
L 136.13904 244.337192 
L 136.850645 232.078237 
L 137.56225 246.155443 
L 138.273855 237.1587 
L 138.98546 247.865333 
L 139.697065 232.982744 
L 140.40867 249.693246 
L 141.120275 228.768213 
L 141.83188 250.906711 
L 142.543485 247.292743 
L 143.25509 244.947768 
L 143.966695 252.555255 
L 144.6783 252.836704 
L 145.389905 247.743552 
L 146.10151 249.76118 
L 146.813115 253.417036 
L 147.52472 248.240189 
L 148.236325 245.099203 
L 148.94793 248.082583 
L 149.659535 248.021673 
L 150.37114 240.138258 
L 151.79435 244.899981 
L 152.505955 239.495956 
L 153.21756 238.847174 
L 153.929165 243.414986 
L 154.64077 240.798727 
L 155.352375 240.781817 
L 156.06398 244.624866 
L 156.775585 240.745331 
L 157.48719 244.86288 
L 158.198795 245.064238 
L 158.9104 242.56086 
L 159.622006 247.121193 
L 160.333611 245.459634 
L 161.045216 242.780525 
L 161.756821 246.980069 
L 162.468426 244.84556 
L 163.180031 243.442239 
L 163.891636 245.544282 
L 164.603241 242.335262 
L 166.026451 243.525314 
L 166.738056 240.380252 
L 167.449661 243.197202 
L 168.161266 240.688264 
L 168.872871 242.015425 
L 169.584476 242.40979 
L 170.296081 241.622812 
L 171.007686 243.919003 
L 171.719291 241.30932 
L 172.430896 245.209774 
L 173.142501 241.175227 
L 173.854106 245.283949 
L 175.277316 232.68252 
L 175.988921 220.148124 
L 176.700526 217.434575 
L 177.412131 243.776654 
L 178.123736 239.637511 
L 178.835341 231.425267 
L 179.546946 242.463601 
L 180.258551 242.624039 
L 180.970156 236.168342 
L 181.681761 241.49475 
L 182.393366 241.712509 
L 183.104971 235.479086 
L 183.816576 243.305463 
L 184.528182 235.324883 
L 185.239787 240.815868 
L 185.951392 237.479688 
L 186.662997 237.394768 
L 187.374602 239.80936 
L 188.086207 237.141765 
L 188.797812 238.65453 
L 189.509417 240.528654 
L 190.221022 232.596204 
L 190.932627 242.455292 
L 191.644232 235.864955 
L 192.355837 245.298388 
L 193.067442 246.332277 
L 193.779047 243.83524 
L 194.490652 244.489144 
L 195.202257 246.590628 
L 195.913862 244.832998 
L 196.625467 239.44201 
L 197.337072 242.797793 
L 198.048677 240.15716 
L 198.760282 234.00365 
L 199.471887 236.770094 
L 200.183492 234.65569 
L 200.895097 229.453074 
L 201.606702 232.856132 
L 202.318307 227.566644 
L 203.029912 233.595745 
L 203.741517 230.995804 
L 204.453122 234.599995 
L 205.164727 235.180525 
L 205.876332 233.401584 
L 206.587937 236.341469 
L 207.299542 233.98207 
L 208.011147 235.827271 
L 208.722752 235.372331 
L 209.434357 233.274698 
L 210.145963 234.361234 
L 210.857568 231.359641 
L 211.569173 232.494853 
L 212.280778 230.565335 
L 212.992383 230.562707 
L 213.703988 230.116002 
L 214.415593 228.667944 
L 215.127198 229.58839 
L 215.838803 227.00858 
L 216.550408 229.524153 
L 217.262013 223.012275 
L 217.973618 228.635997 
L 218.685223 220.933047 
L 219.396828 235.790045 
L 220.108433 238.344739 
L 220.820038 235.459427 
L 221.531643 240.131215 
L 222.243248 240.315474 
L 222.954853 239.882151 
L 223.666458 236.52187 
L 224.378063 236.653372 
L 225.089668 234.661003 
L 225.801273 232.135546 
L 226.512878 227.902223 
L 227.224483 227.292005 
L 227.936088 224.768299 
L 228.647693 219.96623 
L 229.359298 221.179121 
L 230.070903 218.463812 
L 231.494113 218.424146 
L 232.205718 215.908956 
L 232.917323 218.289959 
L 233.628928 206.722765 
L 234.340533 212.191994 
L 235.052139 213.52069 
L 235.763744 232.535034 
L 236.475349 234.973777 
L 237.186954 239.504598 
L 237.898559 239.876286 
L 238.610164 238.018435 
L 239.321769 239.209198 
L 240.033374 238.113012 
L 241.456584 230.194361 
L 242.879794 217.580297 
L 243.591399 218.39548 
L 244.303004 222.35464 
L 245.014609 224.947325 
L 245.726214 221.156231 
L 246.437819 214.815847 
L 247.149424 213.936672 
L 248.572634 210.464097 
L 249.995844 203.465383 
L 250.707449 199.305849 
L 251.419054 201.385767 
L 252.130659 201.439205 
L 252.842264 198.740221 
L 253.553869 199.283686 
L 254.265474 199.122902 
L 254.977079 204.58786 
L 255.688684 204.154199 
L 256.400289 204.906575 
L 257.111894 207.418423 
L 257.823499 209.128791 
L 258.535104 210.10408 
L 259.246709 210.260066 
L 259.958314 211.121933 
L 260.66992 210.846647 
L 261.381525 211.930951 
L 262.09313 212.076407 
L 262.804735 210.666974 
L 263.51634 211.686696 
L 264.227945 210.874304 
L 264.93955 209.433119 
L 265.651155 210.306543 
L 266.36276 209.487127 
L 267.074365 208.336549 
L 267.78597 208.455886 
L 268.497575 206.823765 
L 269.20918 206.930672 
L 269.920785 206.71978 
L 270.63239 205.507134 
L 271.343995 205.988928 
L 272.0556 204.309276 
L 272.767205 205.660336 
L 273.47881 204.482076 
L 274.190415 205.750367 
L 274.90202 205.382191 
L 275.613625 206.142462 
L 276.32523 206.485728 
L 277.036835 206.648632 
L 277.74844 207.064175 
L 278.460045 206.639727 
L 279.17165 206.932058 
L 279.883255 206.747631 
L 280.59486 206.404709 
L 281.306465 206.613362 
L 282.01807 205.60005 
L 282.729675 205.928911 
L 283.44128 204.68225 
L 284.152885 204.987738 
L 284.86449 203.447617 
L 285.576096 203.563956 
L 286.287701 201.129333 
L 286.999306 200.869482 
L 287.710911 196.304105 
L 288.422516 195.55612 
L 289.134121 189.228643 
L 289.845726 193.027922 
L 290.557331 193.450991 
L 291.268936 204.545222 
L 291.980541 204.584267 
L 292.692146 204.919205 
L 293.403751 202.621824 
L 294.115356 203.48522 
L 294.826961 208.725144 
L 295.538566 208.262767 
L 296.250171 206.41347 
L 296.961776 204.11151 
L 297.673381 200.495768 
L 298.384986 204.208509 
L 299.096591 203.288721 
L 299.808196 200.032042 
L 300.519801 199.409878 
L 301.231406 196.471442 
L 301.943011 199.328538 
L 302.654616 198.210997 
L 303.366221 196.731338 
L 304.077826 195.938801 
L 306.212641 195.388983 
L 306.924246 192.70475 
L 307.635851 193.794326 
L 308.347456 190.241874 
L 309.059061 192.600514 
L 309.770666 189.34026 
L 311.193877 202.738877 
L 311.905482 202.790547 
L 312.617087 206.474534 
L 313.328692 207.896428 
L 314.040297 207.184835 
L 314.751902 208.06396 
L 315.463507 205.648126 
L 316.175112 205.526839 
L 316.886717 202.258652 
L 317.598322 201.510572 
L 318.309927 198.620214 
L 319.021532 194.970975 
L 319.733137 193.866522 
L 321.156347 187.227536 
L 321.867952 186.234969 
L 322.579557 183.070819 
L 323.291162 184.871336 
L 324.002767 183.933626 
L 324.714372 189.784689 
L 325.425977 193.616735 
L 326.849187 195.805328 
L 327.560792 197.454671 
L 328.272397 196.530826 
L 328.984002 196.681237 
L 329.695607 195.610542 
L 330.407212 194.015798 
L 331.118817 193.683424 
L 331.830422 191.443569 
L 332.542027 190.083849 
L 333.253632 189.36924 
L 333.965237 188.337835 
L 334.676842 186.02793 
L 335.388447 186.23958 
L 336.100053 184.550277 
L 336.811658 186.160875 
L 337.523263 184.653621 
L 338.234868 186.072457 
L 338.946473 184.22121 
L 339.658078 184.855465 
L 340.369683 181.24085 
L 341.081288 181.241771 
L 341.792893 175.243971 
L 342.504498 175.835821 
L 343.216103 173.110615 
L 344.639313 185.033976 
L 346.062523 192.003447 
L 346.774128 189.023169 
L 347.485733 192.879173 
L 348.197338 192.366769 
L 348.908943 191.438829 
L 349.620548 191.753611 
L 350.332153 188.259123 
L 351.043758 190.636729 
L 351.755363 188.814536 
L 352.466968 187.504785 
L 353.178573 188.563803 
L 353.890178 186.524434 
L 354.601783 189.203783 
L 355.313388 188.074815 
L 356.024993 184.88847 
L 356.736598 185.785473 
L 357.448203 183.713006 
L 358.159808 183.58415 
L 359.583018 174.751347 
L 360.294623 173.456819 
L 361.006229 191.495177 
L 361.717834 199.321791 
L 362.429439 204.837546 
L 363.141044 206.484236 
L 363.852649 212.437466 
L 364.564254 210.795687 
L 365.275859 211.586474 
L 365.987464 210.987106 
L 366.699069 207.099934 
L 367.410674 206.457313 
L 369.545489 195.938224 
L 370.257094 189.154617 
L 370.968699 186.144834 
L 371.680304 178.460577 
L 372.391909 173.534282 
L 373.103514 170.183513 
L 374.526724 160.243062 
L 375.238329 158.015919 
L 375.949934 157.835295 
L 376.661539 163.088767 
L 377.373144 172.718514 
L 378.084749 179.100991 
L 378.796354 180.392048 
L 379.507959 186.314015 
L 380.219564 187.634552 
L 380.931169 189.628157 
L 381.642774 189.087369 
L 382.354379 190.016458 
L 383.065984 188.33382 
L 383.777589 188.234608 
L 385.200799 184.4651 
L 385.912404 183.850323 
L 386.62401 181.231669 
L 387.335615 179.795908 
L 388.04722 177.313329 
L 388.758825 175.389027 
L 389.47043 172.804972 
L 390.182035 172.232225 
L 390.89364 170.310997 
L 391.605245 170.602787 
L 392.31685 169.544981 
L 393.028455 169.885589 
L 393.74006 168.743294 
L 394.451665 169.06816 
L 395.16327 166.006244 
L 395.874875 167.337653 
L 396.58648 165.637496 
L 397.298085 171.765101 
L 398.00969 174.82661 
L 398.721295 184.740435 
L 399.4329 185.856905 
L 400.144505 186.273263 
L 400.85611 183.884413 
L 401.567715 180.275056 
L 402.27932 181.778125 
L 402.990925 179.153006 
L 403.70253 180.948443 
L 405.12574 177.395358 
L 405.837345 179.550149 
L 406.54895 176.645979 
L 407.260555 182.807718 
L 407.97216 184.264117 
L 408.683765 184.308908 
L 409.39537 185.301681 
L 410.106975 184.11535 
L 411.530186 189.497451 
L 412.241791 189.689271 
L 413.665001 185.945411 
L 414.376606 186.801996 
L 415.088211 184.327778 
L 415.799816 184.568577 
L 416.511421 184.121489 
L 417.223026 182.460169 
L 417.934631 184.035165 
L 418.646236 182.520386 
L 418.646236 182.520386 
" clip-path="url(#p8dd814c5c3)" style="fill: none; stroke: #9467bd; stroke-opacity: 0.6; stroke-width: 1.5; stroke-linecap: square"/>
   </g>
   <g id="patch_3">
    <path d="M 45.800781 271.798125 
L 45.800781 22.318125 
" style="fill: none; stroke: #000000; stroke-width: 0.8; stroke-linejoin: miter; stroke-linecap: square"/>
   </g>
   <g id="patch_4">
    <path d="M 436.400781 271.798125 
L 436.400781 22.318125 
" style="fill: none; stroke: #000000; stroke-width: 0.8; stroke-linejoin: miter; stroke-linecap: square"/>
   </g>
   <g id="patch_5">
    <path d="M 45.800781 271.798125 
L 436.400781 271.798125 
" style="fill: none; stroke: #000000; stroke-width: 0.8; stroke-linejoin: miter; stroke-linecap: square"/>
   </g>
   <g id="patch_6">
    <path d="M 45.800781 22.318125 
L 436.400781 22.318125 
" style="fill: none; stroke: #000000; stroke-width: 0.8; stroke-linejoin: miter; stroke-linecap: square"/>
   </g>
   <g id="text_11">
    <!-- BNN ensemble training curves -->
    <g transform="translate(149.781719 16.318125) scale(0.12 -0.12)">
     <defs>
      <path id="DejaVuSans-25" d="M 1259 2228 
L 1259 519 
L 2272 519 
Q 2781 519 3026 730 
Q 3272 941 3272 1375 
Q 3272 1813 3026 2020 
Q 2781 2228 2272 2228 
L 1259 2228 
z
M 1259 4147 
L 1259 2741 
L 2194 2741 
Q 2656 2741 2882 2914 
Q 3109 3088 3109 3444 
Q 3109 3797 2882 3972 
Q 2656 4147 2194 4147 
L 1259 4147 
z
M 628 4666 
L 2241 4666 
Q 2963 4666 3353 4366 
Q 3744 4066 3744 3513 
Q 3744 3084 3544 2831 
Q 3344 2578 2956 2516 
Q 3422 2416 3680 2098 
Q 3938 1781 3938 1306 
Q 3938 681 3513 340 
Q 3088 0 2303 0 
L 628 0 
L 628 4666 
z
" transform="scale(0.015625)"/>
      <path id="DejaVuSans-50" d="M 3328 2828 
Q 3544 3216 3844 3400 
Q 4144 3584 4550 3584 
Q 5097 3584 5394 3201 
Q 5691 2819 5691 2113 
L 5691 0 
L 5113 0 
L 5113 2094 
Q 5113 2597 4934 2840 
Q 4756 3084 4391 3084 
Q 3944 3084 3684 2787 
Q 3425 2491 3425 1978 
L 3425 0 
L 2847 0 
L 2847 2094 
Q 2847 2600 2669 2842 
Q 2491 3084 2119 3084 
Q 1678 3084 1418 2786 
Q 1159 2488 1159 1978 
L 1159 0 
L 581 0 
L 581 3500 
L 1159 3500 
L 1159 2956 
Q 1356 3278 1631 3431 
Q 1906 3584 2284 3584 
Q 2666 3584 2933 3390 
Q 3200 3197 3328 2828 
z
" transform="scale(0.015625)"/>
      <path id="DejaVuSans-45" d="M 3116 1747 
Q 3116 2381 2855 2742 
Q 2594 3103 2138 3103 
Q 1681 3103 1420 2742 
Q 1159 2381 1159 1747 
Q 1159 1113 1420 752 
Q 1681 391 2138 391 
Q 2594 391 2855 752 
Q 3116 1113 3116 1747 
z
M 1159 2969 
Q 1341 3281 1617 3432 
Q 1894 3584 2278 3584 
Q 2916 3584 3314 3078 
Q 3713 2572 3713 1747 
Q 3713 922 3314 415 
Q 2916 -91 2278 -91 
Q 1894 -91 1617 61 
Q 1341 213 1159 525 
L 1159 0 
L 581 0 
L 581 4863 
L 1159 4863 
L 1159 2969 
z
" transform="scale(0.015625)"/>
      <path id="DejaVuSans-57" d="M 1172 4494 
L 1172 3500 
L 2356 3500 
L 2356 3053 
L 1172 3053 
L 1172 1153 
Q 1172 725 1289 603 
Q 1406 481 1766 481 
L 2356 481 
L 2356 0 
L 1766 0 
Q 1100 0 847 248 
Q 594 497 594 1153 
L 594 3053 
L 172 3053 
L 172 3500 
L 594 3500 
L 594 4494 
L 1172 4494 
z
" transform="scale(0.015625)"/>
      <path id="DejaVuSans-55" d="M 2631 2963 
Q 2534 3019 2420 3045 
Q 2306 3072 2169 3072 
Q 1681 3072 1420 2755 
Q 1159 2438 1159 1844 
L 1159 0 
L 581 0 
L 581 3500 
L 1159 3500 
L 1159 2956 
Q 1341 3275 1631 3429 
Q 1922 3584 2338 3584 
Q 2397 3584 2469 3576 
Q 2541 3569 2628 3553 
L 2631 2963 
z
" transform="scale(0.015625)"/>
      <path id="DejaVuSans-4a" d="M 2906 1791 
Q 2906 2416 2648 2759 
Q 2391 3103 1925 3103 
Q 1463 3103 1205 2759 
Q 947 2416 947 1791 
Q 947 1169 1205 825 
Q 1463 481 1925 481 
Q 2391 481 2648 825 
Q 2906 1169 2906 1791 
z
M 3481 434 
Q 3481 -459 3084 -895 
Q 2688 -1331 1869 -1331 
Q 1566 -1331 1297 -1286 
Q 1028 -1241 775 -1147 
L 775 -588 
Q 1028 -725 1275 -790 
Q 1522 -856 1778 -856 
Q 2344 -856 2625 -561 
Q 2906 -266 2906 331 
L 2906 616 
Q 2728 306 2450 153 
Q 2172 0 1784 0 
Q 1141 0 747 490 
Q 353 981 353 1791 
Q 353 2603 747 3093 
Q 1141 3584 1784 3584 
Q 2172 3584 2450 3431 
Q 2728 3278 2906 2969 
L 2906 3500 
L 3481 3500 
L 3481 434 
z
" transform="scale(0.015625)"/>
     </defs>
     <use xlink:href="#DejaVuSans-25"/>
     <use xlink:href="#DejaVuSans-31" transform="translate(68.609375 0)"/>
     <use xlink:href="#DejaVuSans-31" transform="translate(143.421875 0)"/>
     <use xlink:href="#DejaVuSans-3" transform="translate(218.234375 0)"/>
     <use xlink:href="#DejaVuSans-48" transform="translate(250.015625 0)"/>
     <use xlink:href="#DejaVuSans-51" transform="translate(311.546875 0)"/>
     <use xlink:href="#DejaVuSans-56" transform="translate(374.921875 0)"/>
     <use xlink:href="#DejaVuSans-48" transform="translate(427.015625 0)"/>
     <use xlink:href="#DejaVuSans-50" transform="translate(488.546875 0)"/>
     <use xlink:href="#DejaVuSans-45" transform="translate(585.953125 0)"/>
     <use xlink:href="#DejaVuSans-4f" transform="translate(649.4375 0)"/>
     <use xlink:href="#DejaVuSans-48" transform="translate(677.21875 0)"/>
     <use xlink:href="#DejaVuSans-3" transform="translate(738.75 0)"/>
     <use xlink:href="#DejaVuSans-57" transform="translate(770.53125 0)"/>
     <use xlink:href="#DejaVuSans-55" transform="translate(809.734375 0)"/>
     <use xlink:href="#DejaVuSans-44" transform="translate(850.84375 0)"/>
     <use xlink:href="#DejaVuSans-4c" transform="translate(912.125 0)"/>
     <use xlink:href="#DejaVuSans-51" transform="translate(939.90625 0)"/>
     <use xlink:href="#DejaVuSans-4c" transform="translate(1003.28125 0)"/>
     <use xlink:href="#DejaVuSans-51" transform="translate(1031.0625 0)"/>
     <use xlink:href="#DejaVuSans-4a" transform="translate(1094.4375 0)"/>
     <use xlink:href="#DejaVuSans-3" transform="translate(1157.921875 0)"/>
     <use xlink:href="#DejaVuSans-46" transform="translate(1189.703125 0)"/>
     <use xlink:href="#DejaVuSans-58" transform="translate(1244.6875 0)"/>
     <use xlink:href="#DejaVuSans-55" transform="translate(1308.0625 0)"/>
     <use xlink:href="#DejaVuSans-59" transform="translate(1349.171875 0)"/>
     <use xlink:href="#DejaVuSans-48" transform="translate(1408.359375 0)"/>
     <use xlink:href="#DejaVuSans-56" transform="translate(1469.890625 0)"/>
    </g>
   </g>
   <g id="legend_1">
    <g id="patch_7">
     <path d="M 50.700781 80.420859 
L 121.954219 80.420859 
Q 123.354219 80.420859 123.354219 79.020859 
L 123.354219 27.218125 
Q 123.354219 25.818125 121.954219 25.818125 
L 50.700781 25.818125 
Q 49.300781 25.818125 49.300781 27.218125 
L 49.300781 79.020859 
Q 49.300781 80.420859 50.700781 80.420859 
z
" style="fill: #ffffff; opacity: 0.8; stroke: #cccccc; stroke-linejoin: miter"/>
    </g>
    <g id="line2d_14">
     <path d="M 52.100781 31.487031 
L 59.100781 31.487031 
L 66.100781 31.487031 
" style="fill: none; stroke: #1f77b4; stroke-opacity: 0.6; stroke-width: 1.5; stroke-linecap: square"/>
    </g>
    <g id="text_12">
     <!-- member 0 val -->
     <g transform="translate(71.700781 33.937031) scale(0.07 -0.07)">
      <use xlink:href="#DejaVuSans-50"/>
      <use xlink:href="#DejaVuSans-48" transform="translate(97.40625 0)"/>
      <use xlink:href="#DejaVuSans-50" transform="translate(158.9375 0)"/>
      <use xlink:href="#DejaVuSans-45" transform="translate(256.34375 0)"/>
      <use xlink:href="#DejaVuSans-48" transform="translate(319.828125 0)"/>
      <use xlink:href="#DejaVuSans-55" transform="translate(381.359375 0)"/>
      <use xlink:href="#DejaVuSans-3" transform="translate(422.46875 0)"/>
      <use xlink:href="#DejaVuSans-13" transform="translate(454.25 0)"/>
      <use xlink:href="#DejaVuSans-3" transform="translate(517.875 0)"/>
      <use xlink:href="#DejaVuSans-59" transform="translate(549.65625 0)"/>
      <use xlink:href="#DejaVuSans-44" transform="translate(608.84375 0)"/>
      <use xlink:href="#DejaVuSans-4f" transform="translate(670.125 0)"/>
     </g>
    </g>
    <g id="line2d_15">
     <path d="M 52.100781 41.987578 
L 59.100781 41.987578 
L 66.100781 41.987578 
" style="fill: none; stroke: #ff7f0e; stroke-opacity: 0.6; stroke-width: 1.5; stroke-linecap: square"/>
    </g>
    <g id="text_13">
     <!-- member 1 val -->
     <g transform="translate(71.700781 44.437578) scale(0.07 -0.07)">
      <use xlink:href="#DejaVuSans-50"/>
      <use xlink:href="#DejaVuSans-48" transform="translate(97.40625 0)"/>
      <use xlink:href="#DejaVuSans-50" transform="translate(158.9375 0)"/>
      <use xlink:href="#DejaVuSans-45" transform="translate(256.34375 0)"/>
      <use xlink:href="#DejaVuSans-48" transform="translate(319.828125 0)"/>
      <use xlink:href="#DejaVuSans-55" transform="translate(381.359375 0)"/>
      <use xlink:href="#DejaVuSans-3" transform="translate(422.46875 0)"/>
      <use xlink:href="#DejaVuSans-14" transform="translate(454.25 0)"/>
      <use xlink:href="#DejaVuSans-3" transform="translate(517.875 0)"/>
      <use xlink:href="#DejaVuSans-59" transform="translate(549.65625 0)"/>
      <use xlink:href="#DejaVuSans-44" transform="translate(608.84375 0)"/>
      <use xlink:href="#DejaVuSans-4f" transform="translate(670.125 0)"/>
     </g>
    </g>
    <g id="line2d_16">
     <path d="M 52.100781 52.488125 
L 59.100781 52.488125 
L 66.100781 52.488125 
" style="fill: none; stroke: #2ca02c; stroke-opacity: 0.6; stroke-width: 1.5; stroke-linecap: square"/>
    </g>
    <g id="text_14">
     <!-- member 2 val -->
     <g transform="translate(71.700781 54.938125) scale(0.07 -0.07)">
      <use xlink:href="#DejaVuSans-50"/>
      <use xlink:href="#DejaVuSans-48" transform="translate(97.40625 0)"/>
      <use xlink:href="#DejaVuSans-50" transform="translate(158.9375 0)"/>
      <use xlink:href="#DejaVuSans-45" transform="translate(256.34375 0)"/>
      <use xlink:href="#DejaVuSans-48" transform="translate(319.828125 0)"/>
      <use xlink:href="#DejaVuSans-55" transform="translate(381.359375 0)"/>
      <use xlink:href="#DejaVuSans-3" transform="translate(422.46875 0)"/>
      <use xlink:href="#DejaVuSans-15" transform="translate(454.25 0)"/>
      <use xlink:href="#DejaVuSans-3" transform="translate(517.875 0)"/>
      <use xlink:href="#DejaVuSans-59" transform="translate(549.65625 0)"/>
      <use xlink:href="#DejaVuSans-44" transform="translate(608.84375 0)"/>
      <use xlink:href="#DejaVuSans-4f" transform="translate(670.125 0)"/>
     </g>
    </g>
    <g id="line2d_17">
     <path d="M 52.100781 62.988672 
L 59.100781 62.988672 
L 66.100781 62.988672 
" style="fill: none; stroke: #d62728; stroke-opacity: 0.6; stroke-width: 1.5; stroke-linecap: square"/>
    </g>
    <g id="text_15">
     <!-- member 3 val -->
     <g transform="translate(71.700781 65.438672) scale(0.07 -0.07)">
      <use xlink:href="#DejaVuSans-50"/>
      <use xlink:href="#DejaVuSans-48" transform="translate(97.40625 0)"/>
      <use xlink:href="#DejaVuSans-50" transform="translate(158.9375 0)"/>
      <use xlink:href="#DejaVuSans-45" transform="translate(256.34375 0)"/>
      <use xlink:href="#DejaVuSans-48" transform="translate(319.828125 0)"/>
      <use xlink:href="#DejaVuSans-55" transform="translate(381.359375 0)"/>
      <use xlink:href="#DejaVuSans-3" transform="translate(422.46875 0)"/>
      <use xlink:href="#DejaVuSans-16" transform="translate(454.25 0)"/>
      <use xlink:href="#DejaVuSans-3" transform="translate(517.875 0)"/>
      <use xlink:href="#DejaVuSans-59" transform="translate(549.65625 0)"/>
      <use xlink:href="#DejaVuSans-44" transform="translate(608.84375 0)"/>
      <use xlink:href="#DejaVuSans-4f" transform="translate(670.125 0)"/>
     </g>
    </g>
    <g id="line2d_18">
     <path d="M 52.100781 73.489219 
L 59.100781 73.489219 
L 66.100781 73.489219 
" style="fill: none; stroke: #9467bd; stroke-opacity: 0.6; stroke-width: 1.5; stroke-linecap: square"/>
    </g>
    <g id="text_16">
     <!-- member 4 val -->
     <g transform="translate(71.700781 75.939219) scale(0.07 -0.07)">
      <use xlink:href="#DejaVuSans-50"/>
      <use xlink:href="#DejaVuSans-48" transform="translate(97.40625 0)"/>
      <use xlink:href="#DejaVuSans-50" transform="translate(158.9375 0)"/>
      <use xlink:href="#DejaVuSans-45" transform="translate(256.34375 0)"/>
      <use xlink:href="#DejaVuSans-48" transform="translate(319.828125 0)"/>
      <use xlink:href="#DejaVuSans-55" transform="translate(381.359375 0)"/>
      <use xlink:href="#DejaVuSans-3" transform="translate(422.46875 0)"/>
      <use xlink:href="#DejaVuSans-17" transform="translate(454.25 0)"/>
      <use xlink:href="#DejaVuSans-3" transform="translate(517.875 0)"/>
      <use xlink:href="#DejaVuSans-59" transform="translate(549.65625 0)"/>
      <use xlink:href="#DejaVuSans-44" transform="translate(608.84375 0)"/>
      <use xlink:href="#DejaVuSans-4f" transform="translate(670.125 0)"/>
     </g>
    </g>
   </g>
  </g>
 </g>
 <defs>
  <clipPath id="p8dd814c5c3">
   <rect x="45.800781" y="22.318125" width="390.6" height="249.48"/>
  </clipPath>
 </defs>
</svg>
