<?xml version="1.0" encoding="utf-8" standalone="no"?>
<!DOCTYPE svg PUBLIC "-//W3C//DTD SVG 1.1//EN"
  "http://www.w3.org/Graphics/SVG/1.1/DTD/svg11.dtd">
<svg xmlns:xlink="http://www.w3.org/1999/xlink" width="448.266406pt" height="309.998906pt" viewBox="0 0 448.266406 309.998906" xmlns="http://www.w3.org/2000/svg" version="1.1">
 <metadata>
  <rdf:RDF xmlns:dc="http://purl.org/dc/elements/1.1/" xmlns:cc="http://creativecommons.org/ns#" xmlns:rdf="http://www.w3.org/1999/02/22-rdf-syntax-ns#">
   <cc:Work>
    <dc:type rdf:resource="http://purl.org/dc/dcmitype/StillImage"/>
    <dc:date>2026-07-17T21:32:07.911306</dc:date>
    <dc:format>image/svg+xml</dc:format>
    <dc:creator>
     <cc:Agent>
      <dc:title>Matplotlib v3.11.0, https://matplotlib.org/</dc:title>
     </cc:Agent>
    </dc:creator>
   </cc:Work>
  </rdf:RDF>
 </metadata>
 <defs>
  <style type="text/css">*{stroke-linejoin: round; stroke-linecap: butt}</style>
 </defs>
 <g id="figure_1">
  <g id="patch_1">
   <path d="M 0 309.998906 
L 448.266406 309.998906 
L 448.266406 0 
L 0 0 
z
" style="fill: #ffffff"/>
  </g>
  <g id="axes_1">
   <g id="patch_2">
    <path d="M 50.466406 271.798125 
L 441.066406 271.798125 
L 441.066406 22.318125 
L 50.466406 22.318125 
z
" style="fill: #ffffff"/>
   </g>
   <g id="FillBetweenPolyCollection_1">
    <path d="M 68.220952 90.66821 
L 68.220952 260.458125 
L 85.975497 259.141214 
L 103.730043 257.736926 
L 121.484588 256.235948 
L 139.239134 254.629239 
L 156.993679 252.908216 
L 174.748224 251.065042 
L 192.50277 249.092758 
L 210.257315 246.985485 
L 228.011861 244.738623 
L 245.766406 242.34906 
L 263.520952 239.815267 
L 281.275497 237.137455 
L 299.030043 234.317595 
L 316.784588 231.35957 
L 334.539134 228.269123 
L 352.293679 225.053787 
L 370.048224 221.722885 
L 387.80277 218.287359 
L 405.557315 214.759623 
L 423.311861 211.153382 
L 423.311861 33.658125 
L 423.311861 33.658125 
L 405.557315 35.5405 
L 387.80277 37.472085 
L 370.048224 39.470426 
L 352.293679 41.551821 
L 334.539134 43.730823 
L 316.784588 46.02016 
L 299.030043 48.430228 
L 281.275497 50.969023 
L 263.520952 53.641879 
L 245.766406 56.451329 
L 228.011861 59.39704 
L 210.257315 62.475862 
L 192.50277 65.68178 
L 174.748224 69.006104 
L 156.993679 72.437621 
L 139.239134 75.962838 
L 121.484588 79.566288 
L 103.730043 83.230798 
L 85.975497 86.9379 
L 68.220952 90.66821 
z
" clip-path="url(#pae74158493)" style="fill: #1f77b4; fill-opacity: 0.3"/>
   </g>
   <g id="matplotlib.axis_1">
    <g id="xtick_1">
     <g id="line2d_1">
      <defs>
       <path id="m3ab6f4a60a" d="M 0 0 
L 0 3.5 
" style="stroke: #000000; stroke-width: 0.8"/>
      </defs>
      <g>
       <use xlink:href="#m3ab6f4a60a" x="68.220952" y="271.798125" style="stroke: #000000; stroke-width: 0.8"/>
      </g>
     </g>
     <g id="text_1">
      <!-- 0.0 -->
      <g transform="translate(60.269389 286.395781) scale(0.1 -0.1)">
       <defs>
        <path id="DejaVuSans-13" d="M 2034 4250 
Q 1547 4250 1301 3770 
Q 1056 3291 1056 2328 
Q 1056 1369 1301 889 
Q 1547 409 2034 409 
Q 2525 409 2770 889 
Q 3016 1369 3016 2328 
Q 3016 3291 2770 3770 
Q 2525 4250 2034 4250 
z
M 2034 4750 
Q 2819 4750 3233 4129 
Q 3647 3509 3647 2328 
Q 3647 1150 3233 529 
Q 2819 -91 2034 -91 
Q 1250 -91 836 529 
Q 422 1150 422 2328 
Q 422 3509 836 4129 
Q 1250 4750 2034 4750 
z
" transform="scale(0.015625)"/>
        <path id="DejaVuSans-11" d="M 684 794 
L 1344 794 
L 1344 0 
L 684 0 
L 684 794 
z
" transform="scale(0.015625)"/>
       </defs>
       <use xlink:href="#DejaVuSans-13"/>
       <use xlink:href="#DejaVuSans-11" transform="translate(63.625 0)"/>
       <use xlink:href="#DejaVuSans-13" transform="translate(95.40625 0)"/>
      </g>
     </g>
    </g>
    <g id="xtick_2">
     <g id="line2d_2">
      <g>
       <use xlink:href="#m3ab6f4a60a" x="139.239134" y="271.798125" style="stroke: #000000; stroke-width: 0.8"/>
      </g>
     </g>
     <g id="text_2">
      <!-- 0.2 -->
      <g transform="translate(131.287571 286.395781) scale(0.1 -0.1)">
       <defs>
        <path id="DejaVuSans-15" d="M 1228 531 
L 3431 531 
L 3431 0 
L 469 0 
L 469 531 
Q 828 903 1448 1529 
Q 2069 2156 2228 2338 
Q 2531 2678 2651 2914 
Q 2772 3150 2772 3378 
Q 2772 3750 2511 3984 
Q 2250 4219 1831 4219 
Q 1534 4219 1204 4116 
Q 875 4013 500 3803 
L 500 4441 
Q 881 4594 1212 4672 
Q 1544 4750 1819 4750 
Q 2544 4750 2975 4387 
Q 3406 4025 3406 3419 
Q 3406 3131 3298 2873 
Q 3191 2616 2906 2266 
Q 2828 2175 2409 1742 
Q 1991 1309 1228 531 
z
" transform="scale(0.015625)"/>
       </defs>
       <use xlink:href="#DejaVuSans-13"/>
       <use xlink:href="#DejaVuSans-11" transform="translate(63.625 0)"/>
       <use xlink:href="#DejaVuSans-15" transform="translate(95.40625 0)"/>
      </g>
     </g>
    </g>
    <g id="xtick_3">
     <g id="line2d_3">
      <g>
       <use xlink:href="#m3ab6f4a60a" x="210.257315" y="271.798125" style="stroke: #000000; stroke-width: 0.8"/>
      </g>
     </g>
     <g id="text_3">
      <!-- 0.4 -->
      <g transform="translate(202.305753 286.395781) scale(0.1 -0.1)">
       <defs>
        <path id="DejaVuSans-17" d="M 2419 4116 
L 825 1625 
L 2419 1625 
L 2419 4116 
z
M 2253 4666 
L 3047 4666 
L 3047 1625 
L 3713 1625 
L 3713 1100 
L 3047 1100 
L 3047 0 
L 2419 0 
L 2419 1100 
L 313 1100 
L 313 1709 
L 2253 4666 
z
" transform="scale(0.015625)"/>
       </defs>
       <use xlink:href="#DejaVuSans-13"/>
       <use xlink:href="#DejaVuSans-11" transform="translate(63.625 0)"/>
       <use xlink:href="#DejaVuSans-17" transform="translate(95.40625 0)"/>
      </g>
     </g>
    </g>
    <g id="xtick_4">
     <g id="line2d_4">
      <g>
       <use xlink:href="#m3ab6f4a60a" x="281.275497" y="271.798125" style="stroke: #000000; stroke-width: 0.8"/>
      </g>
     </g>
     <g id="text_4">
      <!-- 0.6 -->
      <g transform="translate(273.323935 286.395781) scale(0.1 -0.1)">
       <defs>
        <path id="DejaVuSans-19" d="M 2113 2584 
Q 1688 2584 1439 2293 
Q 1191 2003 1191 1497 
Q 1191 994 1439 701 
Q 1688 409 2113 409 
Q 2538 409 2786 701 
Q 3034 994 3034 1497 
Q 3034 2003 2786 2293 
Q 2538 2584 2113 2584 
z
M 3366 4563 
L 3366 3988 
Q 3128 4100 2886 4159 
Q 2644 4219 2406 4219 
Q 1781 4219 1451 3797 
Q 1122 3375 1075 2522 
Q 1259 2794 1537 2939 
Q 1816 3084 2150 3084 
Q 2853 3084 3261 2657 
Q 3669 2231 3669 1497 
Q 3669 778 3244 343 
Q 2819 -91 2113 -91 
Q 1303 -91 875 529 
Q 447 1150 447 2328 
Q 447 3434 972 4092 
Q 1497 4750 2381 4750 
Q 2619 4750 2861 4703 
Q 3103 4656 3366 4563 
z
" transform="scale(0.015625)"/>
       </defs>
       <use xlink:href="#DejaVuSans-13"/>
       <use xlink:href="#DejaVuSans-11" transform="translate(63.625 0)"/>
       <use xlink:href="#DejaVuSans-19" transform="translate(95.40625 0)"/>
      </g>
     </g>
    </g>
    <g id="xtick_5">
     <g id="line2d_5">
      <g>
       <use xlink:href="#m3ab6f4a60a" x="352.293679" y="271.798125" style="stroke: #000000; stroke-width: 0.8"/>
      </g>
     </g>
     <g id="text_5">
      <!-- 0.8 -->
      <g transform="translate(344.342116 286.395781) scale(0.1 -0.1)">
       <defs>
        <path id="DejaVuSans-1b" d="M 2034 2216 
Q 1584 2216 1326 1975 
Q 1069 1734 1069 1313 
Q 1069 891 1326 650 
Q 1584 409 2034 409 
Q 2484 409 2743 651 
Q 3003 894 3003 1313 
Q 3003 1734 2745 1975 
Q 2488 2216 2034 2216 
z
M 1403 2484 
Q 997 2584 770 2862 
Q 544 3141 544 3541 
Q 544 4100 942 4425 
Q 1341 4750 2034 4750 
Q 2731 4750 3128 4425 
Q 3525 4100 3525 3541 
Q 3525 3141 3298 2862 
Q 3072 2584 2669 2484 
Q 3125 2378 3379 2068 
Q 3634 1759 3634 1313 
Q 3634 634 3220 271 
Q 2806 -91 2034 -91 
Q 1263 -91 848 271 
Q 434 634 434 1313 
Q 434 1759 690 2068 
Q 947 2378 1403 2484 
z
M 1172 3481 
Q 1172 3119 1398 2916 
Q 1625 2713 2034 2713 
Q 2441 2713 2670 2916 
Q 2900 3119 2900 3481 
Q 2900 3844 2670 4047 
Q 2441 4250 2034 4250 
Q 1625 4250 1398 4047 
Q 1172 3844 1172 3481 
z
" transform="scale(0.015625)"/>
       </defs>
       <use xlink:href="#DejaVuSans-13"/>
       <use xlink:href="#DejaVuSans-11" transform="translate(63.625 0)"/>
       <use xlink:href="#DejaVuSans-1b" transform="translate(95.40625 0)"/>
      </g>
     </g>
    </g>
    <g id="xtick_6">
     <g id="line2d_6">
      <g>
       <use xlink:href="#m3ab6f4a60a" x="423.311861" y="271.798125" style="stroke: #000000; stroke-width: 0.8"/>
      </g>
     </g>
     <g id="text_6">
      <!-- 1.0 -->
      <g transform="translate(415.360298 286.395781) scale(0.1 -0.1)">
       <defs>
        <path id="DejaVuSans-14" d="M 794 531 
L 1825 531 
L 1825 4091 
L 703 3866 
L 703 4441 
L 1819 4666 
L 2450 4666 
L 2450 531 
L 3481 531 
L 3481 0 
L 794 0 
L 794 531 
z
" transform="scale(0.015625)"/>
       </defs>
       <use xlink:href="#DejaVuSans-14"/>
       <use xlink:href="#DejaVuSans-11" transform="translate(63.625 0)"/>
       <use xlink:href="#DejaVuSans-13" transform="translate(95.40625 0)"/>
      </g>
     </g>
    </g>
    <g id="text_7">
     <!-- interface grading (nm) -->
     <g transform="translate(189.147656 300.396563) scale(0.1 -0.1)">
      <defs>
       <path id="DejaVuSans-4c" d="M 603 3500 
L 1178 3500 
L 1178 0 
L 603 0 
L 603 3500 
z
M 603 4863 
L 1178 4863 
L 1178 4134 
L 603 4134 
L 603 4863 
z
" transform="scale(0.015625)"/>
       <path id="DejaVuSans-51" d="M 3513 2113 
L 3513 0 
L 2938 0 
L 2938 2094 
Q 2938 2591 2744 2837 
Q 2550 3084 2163 3084 
Q 1697 3084 1428 2787 
Q 1159 2491 1159 1978 
L 1159 0 
L 581 0 
L 581 3500 
L 1159 3500 
L 1159 2956 
Q 1366 3272 1645 3428 
Q 1925 3584 2291 3584 
Q 2894 3584 3203 3211 
Q 3513 2838 3513 2113 
z
" transform="scale(0.015625)"/>
       <path id="DejaVuSans-57" d="M 1172 4494 
L 1172 3500 
L 2356 3500 
L 2356 3053 
L 1172 3053 
L 1172 1153 
Q 1172 725 1289 603 
Q 1406 481 1766 481 
L 2356 481 
L 2356 0 
L 1766 0 
Q 1100 0 847 248 
Q 594 497 594 1153 
L 594 3053 
L 172 3053 
L 172 3500 
L 594 3500 
L 594 4494 
L 1172 4494 
z
" transform="scale(0.015625)"/>
       <path id="DejaVuSans-48" d="M 3597 1894 
L 3597 1613 
L 953 1613 
Q 991 1019 1311 708 
Q 1631 397 2203 397 
Q 2534 397 2845 478 
Q 3156 559 3463 722 
L 3463 178 
Q 3153 47 2828 -22 
Q 2503 -91 2169 -91 
Q 1331 -91 842 396 
Q 353 884 353 1716 
Q 353 2575 817 3079 
Q 1281 3584 2069 3584 
Q 2775 3584 3186 3129 
Q 3597 2675 3597 1894 
z
M 3022 2063 
Q 3016 2534 2758 2815 
Q 2500 3097 2075 3097 
Q 1594 3097 1305 2825 
Q 1016 2553 972 2059 
L 3022 2063 
z
" transform="scale(0.015625)"/>
       <path id="DejaVuSans-55" d="M 2631 2963 
Q 2534 3019 2420 3045 
Q 2306 3072 2169 3072 
Q 1681 3072 1420 2755 
Q 1159 2438 1159 1844 
L 1159 0 
L 581 0 
L 581 3500 
L 1159 3500 
L 1159 2956 
Q 1341 3275 1631 3429 
Q 1922 3584 2338 3584 
Q 2397 3584 2469 3576 
Q 2541 3569 2628 3553 
L 2631 2963 
z
" transform="scale(0.015625)"/>
       <path id="DejaVuSans-49" d="M 2375 4863 
L 2375 4384 
L 1825 4384 
Q 1516 4384 1395 4259 
Q 1275 4134 1275 3809 
L 1275 3500 
L 2222 3500 
L 2222 3053 
L 1275 3053 
L 1275 0 
L 697 0 
L 697 3053 
L 147 3053 
L 147 3500 
L 697 3500 
L 697 3744 
Q 697 4328 969 4595 
Q 1241 4863 1831 4863 
L 2375 4863 
z
" transform="scale(0.015625)"/>
       <path id="DejaVuSans-44" d="M 2194 1759 
Q 1497 1759 1228 1600 
Q 959 1441 959 1056 
Q 959 750 1161 570 
Q 1363 391 1709 391 
Q 2188 391 2477 730 
Q 2766 1069 2766 1631 
L 2766 1759 
L 2194 1759 
z
M 3341 1997 
L 3341 0 
L 2766 0 
L 2766 531 
Q 2569 213 2275 61 
Q 1981 -91 1556 -91 
Q 1019 -91 701 211 
Q 384 513 384 1019 
Q 384 1609 779 1909 
Q 1175 2209 1959 2209 
L 2766 2209 
L 2766 2266 
Q 2766 2663 2505 2880 
Q 2244 3097 1772 3097 
Q 1472 3097 1187 3025 
Q 903 2953 641 2809 
L 641 3341 
Q 956 3463 1253 3523 
Q 1550 3584 1831 3584 
Q 2591 3584 2966 3190 
Q 3341 2797 3341 1997 
z
" transform="scale(0.015625)"/>
       <path id="DejaVuSans-46" d="M 3122 3366 
L 3122 2828 
Q 2878 2963 2633 3030 
Q 2388 3097 2138 3097 
Q 1578 3097 1268 2742 
Q 959 2388 959 1747 
Q 959 1106 1268 751 
Q 1578 397 2138 397 
Q 2388 397 2633 464 
Q 2878 531 3122 666 
L 3122 134 
Q 2881 22 2623 -34 
Q 2366 -91 2075 -91 
Q 1284 -91 818 406 
Q 353 903 353 1747 
Q 353 2603 823 3093 
Q 1294 3584 2113 3584 
Q 2378 3584 2631 3529 
Q 2884 3475 3122 3366 
z
" transform="scale(0.015625)"/>
       <path id="DejaVuSans-3" transform="scale(0.015625)"/>
       <path id="DejaVuSans-4a" d="M 2906 1791 
Q 2906 2416 2648 2759 
Q 2391 3103 1925 3103 
Q 1463 3103 1205 2759 
Q 947 2416 947 1791 
Q 947 1169 1205 825 
Q 1463 481 1925 481 
Q 2391 481 2648 825 
Q 2906 1169 2906 1791 
z
M 3481 434 
Q 3481 -459 3084 -895 
Q 2688 -1331 1869 -1331 
Q 1566 -1331 1297 -1286 
Q 1028 -1241 775 -1147 
L 775 -588 
Q 1028 -725 1275 -790 
Q 1522 -856 1778 -856 
Q 2344 -856 2625 -561 
Q 2906 -266 2906 331 
L 2906 616 
Q 2728 306 2450 153 
Q 2172 0 1784 0 
Q 1141 0 747 490 
Q 353 981 353 1791 
Q 353 2603 747 3093 
Q 1141 3584 1784 3584 
Q 2172 3584 2450 3431 
Q 2728 3278 2906 2969 
L 2906 3500 
L 3481 3500 
L 3481 434 
z
" transform="scale(0.015625)"/>
       <path id="DejaVuSans-47" d="M 2906 2969 
L 2906 4863 
L 3481 4863 
L 3481 0 
L 2906 0 
L 2906 525 
Q 2725 213 2448 61 
Q 2172 -91 1784 -91 
Q 1150 -91 751 415 
Q 353 922 353 1747 
Q 353 2572 751 3078 
Q 1150 3584 1784 3584 
Q 2172 3584 2448 3432 
Q 2725 3281 2906 2969 
z
M 947 1747 
Q 947 1113 1208 752 
Q 1469 391 1925 391 
Q 2381 391 2643 752 
Q 2906 1113 2906 1747 
Q 2906 2381 2643 2742 
Q 2381 3103 1925 3103 
Q 1469 3103 1208 2742 
Q 947 2381 947 1747 
z
" transform="scale(0.015625)"/>
       <path id="DejaVuSans-b" d="M 1984 4856 
Q 1566 4138 1362 3434 
Q 1159 2731 1159 2009 
Q 1159 1288 1364 580 
Q 1569 -128 1984 -844 
L 1484 -844 
Q 1016 -109 783 600 
Q 550 1309 550 2009 
Q 550 2706 781 3412 
Q 1013 4119 1484 4856 
L 1984 4856 
z
" transform="scale(0.015625)"/>
       <path id="DejaVuSans-50" d="M 3328 2828 
Q 3544 3216 3844 3400 
Q 4144 3584 4550 3584 
Q 5097 3584 5394 3201 
Q 5691 2819 5691 2113 
L 5691 0 
L 5113 0 
L 5113 2094 
Q 5113 2597 4934 2840 
Q 4756 3084 4391 3084 
Q 3944 3084 3684 2787 
Q 3425 2491 3425 1978 
L 3425 0 
L 2847 0 
L 2847 2094 
Q 2847 2600 2669 2842 
Q 2491 3084 2119 3084 
Q 1678 3084 1418 2786 
Q 1159 2488 1159 1978 
L 1159 0 
L 581 0 
L 581 3500 
L 1159 3500 
L 1159 2956 
Q 1356 3278 1631 3431 
Q 1906 3584 2284 3584 
Q 2666 3584 2933 3390 
Q 3200 3197 3328 2828 
z
" transform="scale(0.015625)"/>
       <path id="DejaVuSans-c" d="M 513 4856 
L 1013 4856 
Q 1481 4119 1714 3412 
Q 1947 2706 1947 2009 
Q 1947 1309 1714 600 
Q 1481 -109 1013 -844 
L 513 -844 
Q 928 -128 1133 580 
Q 1338 1288 1338 2009 
Q 1338 2731 1133 3434 
Q 928 4138 513 4856 
z
" transform="scale(0.015625)"/>
      </defs>
      <use xlink:href="#DejaVuSans-4c"/>
      <use xlink:href="#DejaVuSans-51" transform="translate(27.78125 0)"/>
      <use xlink:href="#DejaVuSans-57" transform="translate(91.15625 0)"/>
      <use xlink:href="#DejaVuSans-48" transform="translate(130.359375 0)"/>
      <use xlink:href="#DejaVuSans-55" transform="translate(191.890625 0)"/>
      <use xlink:href="#DejaVuSans-49" transform="translate(233 0)"/>
      <use xlink:href="#DejaVuSans-44" transform="translate(268.203125 0)"/>
      <use xlink:href="#DejaVuSans-46" transform="translate(329.484375 0)"/>
      <use xlink:href="#DejaVuSans-48" transform="translate(384.46875 0)"/>
      <use xlink:href="#DejaVuSans-3" transform="translate(446 0)"/>
      <use xlink:href="#DejaVuSans-4a" transform="translate(477.78125 0)"/>
      <use xlink:href="#DejaVuSans-55" transform="translate(541.265625 0)"/>
      <use xlink:href="#DejaVuSans-44" transform="translate(582.375 0)"/>
      <use xlink:href="#DejaVuSans-47" transform="translate(643.65625 0)"/>
      <use xlink:href="#DejaVuSans-4c" transform="translate(707.140625 0)"/>
      <use xlink:href="#DejaVuSans-51" transform="translate(734.921875 0)"/>
      <use xlink:href="#DejaVuSans-4a" transform="translate(798.296875 0)"/>
      <use xlink:href="#DejaVuSans-3" transform="translate(861.78125 0)"/>
      <use xlink:href="#DejaVuSans-b" transform="translate(893.5625 0)"/>
      <use xlink:href="#DejaVuSans-51" transform="translate(932.578125 0)"/>
      <use xlink:href="#DejaVuSans-50" transform="translate(995.953125 0)"/>
      <use xlink:href="#DejaVuSans-c" transform="translate(1093.359375 0)"/>
     </g>
    </g>
   </g>
   <g id="matplotlib.axis_2">
    <g id="ytick_1">
     <g id="line2d_7">
      <defs>
       <path id="m320e82ac10" d="M 0 0 
L -3.5 0 
" style="stroke: #000000; stroke-width: 0.8"/>
      </defs>
      <g>
       <use xlink:href="#m320e82ac10" x="50.466406" y="232.178816" style="stroke: #000000; stroke-width: 0.8"/>
      </g>
     </g>
     <g id="text_8">
      <!-- 0.02 -->
      <g transform="translate(21.200781 235.977645) scale(0.1 -0.1)">
       <use xlink:href="#DejaVuSans-13"/>
       <use xlink:href="#DejaVuSans-11" transform="translate(63.625 0)"/>
       <use xlink:href="#DejaVuSans-13" transform="translate(95.40625 0)"/>
       <use xlink:href="#DejaVuSans-15" transform="translate(159.03125 0)"/>
      </g>
     </g>
    </g>
    <g id="ytick_2">
     <g id="line2d_8">
      <g>
       <use xlink:href="#m320e82ac10" x="50.466406" y="182.770092" style="stroke: #000000; stroke-width: 0.8"/>
      </g>
     </g>
     <g id="text_9">
      <!-- 0.04 -->
      <g transform="translate(21.200781 186.56892) scale(0.1 -0.1)">
       <use xlink:href="#DejaVuSans-13"/>
       <use xlink:href="#DejaVuSans-11" transform="translate(63.625 0)"/>
       <use xlink:href="#DejaVuSans-13" transform="translate(95.40625 0)"/>
       <use xlink:href="#DejaVuSans-17" transform="translate(159.03125 0)"/>
      </g>
     </g>
    </g>
    <g id="ytick_3">
     <g id="line2d_9">
      <g>
       <use xlink:href="#m320e82ac10" x="50.466406" y="133.361367" style="stroke: #000000; stroke-width: 0.8"/>
      </g>
     </g>
     <g id="text_10">
      <!-- 0.06 -->
      <g transform="translate(21.200781 137.160195) scale(0.1 -0.1)">
       <use xlink:href="#DejaVuSans-13"/>
       <use xlink:href="#DejaVuSans-11" transform="translate(63.625 0)"/>
       <use xlink:href="#DejaVuSans-13" transform="translate(95.40625 0)"/>
       <use xlink:href="#DejaVuSans-19" transform="translate(159.03125 0)"/>
      </g>
     </g>
    </g>
    <g id="ytick_4">
     <g id="line2d_10">
      <g>
       <use xlink:href="#m320e82ac10" x="50.466406" y="83.952643" style="stroke: #000000; stroke-width: 0.8"/>
      </g>
     </g>
     <g id="text_11">
      <!-- 0.08 -->
      <g transform="translate(21.200781 87.751471) scale(0.1 -0.1)">
       <use xlink:href="#DejaVuSans-13"/>
       <use xlink:href="#DejaVuSans-11" transform="translate(63.625 0)"/>
       <use xlink:href="#DejaVuSans-13" transform="translate(95.40625 0)"/>
       <use xlink:href="#DejaVuSans-1b" transform="translate(159.03125 0)"/>
      </g>
     </g>
    </g>
    <g id="ytick_5">
     <g id="line2d_11">
      <g>
       <use xlink:href="#m320e82ac10" x="50.466406" y="34.543918" style="stroke: #000000; stroke-width: 0.8"/>
      </g>
     </g>
     <g id="text_12">
      <!-- 0.10 -->
      <g transform="translate(21.200781 38.342746) scale(0.1 -0.1)">
       <use xlink:href="#DejaVuSans-13"/>
       <use xlink:href="#DejaVuSans-11" transform="translate(63.625 0)"/>
       <use xlink:href="#DejaVuSans-14" transform="translate(95.40625 0)"/>
       <use xlink:href="#DejaVuSans-13" transform="translate(159.03125 0)"/>
      </g>
     </g>
    </g>
    <g id="text_13">
     <!-- chi2 peak (nm/V) -->
     <g transform="translate(14.798438 189.98) rotate(-90) scale(0.1 -0.1)">
      <defs>
       <path id="DejaVuSans-4b" d="M 3513 2113 
L 3513 0 
L 2938 0 
L 2938 2094 
Q 2938 2591 2744 2837 
Q 2550 3084 2163 3084 
Q 1697 3084 1428 2787 
Q 1159 2491 1159 1978 
L 1159 0 
L 581 0 
L 581 4863 
L 1159 4863 
L 1159 2956 
Q 1366 3272 1645 3428 
Q 1925 3584 2291 3584 
Q 2894 3584 3203 3211 
Q 3513 2838 3513 2113 
z
" transform="scale(0.015625)"/>
       <path id="DejaVuSans-53" d="M 1159 525 
L 1159 -1331 
L 581 -1331 
L 581 3500 
L 1159 3500 
L 1159 2969 
Q 1341 3281 1617 3432 
Q 1894 3584 2278 3584 
Q 2916 3584 3314 3078 
Q 3713 2572 3713 1747 
Q 3713 922 3314 415 
Q 2916 -91 2278 -91 
Q 1894 -91 1617 61 
Q 1341 213 1159 525 
z
M 3116 1747 
Q 3116 2381 2855 2742 
Q 2594 3103 2138 3103 
Q 1681 3103 1420 2742 
Q 1159 2381 1159 1747 
Q 1159 1113 1420 752 
Q 1681 391 2138 391 
Q 2594 391 2855 752 
Q 3116 1113 3116 1747 
z
" transform="scale(0.015625)"/>
       <path id="DejaVuSans-4e" d="M 581 4863 
L 1159 4863 
L 1159 1991 
L 2875 3500 
L 3609 3500 
L 1753 1863 
L 3688 0 
L 2938 0 
L 1159 1709 
L 1159 0 
L 581 0 
L 581 4863 
z
" transform="scale(0.015625)"/>
       <path id="DejaVuSans-12" d="M 1625 4666 
L 2156 4666 
L 531 -594 
L 0 -594 
L 1625 4666 
z
" transform="scale(0.015625)"/>
       <path id="DejaVuSans-39" d="M 1831 0 
L 50 4666 
L 709 4666 
L 2188 738 
L 3669 4666 
L 4325 4666 
L 2547 0 
L 1831 0 
z
" transform="scale(0.015625)"/>
      </defs>
      <use xlink:href="#DejaVuSans-46"/>
      <use xlink:href="#DejaVuSans-4b" transform="translate(54.984375 0)"/>
      <use xlink:href="#DejaVuSans-4c" transform="translate(118.359375 0)"/>
      <use xlink:href="#DejaVuSans-15" transform="translate(146.140625 0)"/>
      <use xlink:href="#DejaVuSans-3" transform="translate(209.765625 0)"/>
      <use xlink:href="#DejaVuSans-53" transform="translate(241.546875 0)"/>
      <use xlink:href="#DejaVuSans-48" transform="translate(305.03125 0)"/>
      <use xlink:href="#DejaVuSans-44" transform="translate(366.5625 0)"/>
      <use xlink:href="#DejaVuSans-4e" transform="translate(427.84375 0)"/>
      <use xlink:href="#DejaVuSans-3" transform="translate(485.75 0)"/>
      <use xlink:href="#DejaVuSans-b" transform="translate(517.53125 0)"/>
      <use xlink:href="#DejaVuSans-51" transform="translate(556.546875 0)"/>
      <use xlink:href="#DejaVuSans-50" transform="translate(619.921875 0)"/>
      <use xlink:href="#DejaVuSans-12" transform="translate(717.328125 0)"/>
      <use xlink:href="#DejaVuSans-39" transform="translate(751.015625 0)"/>
      <use xlink:href="#DejaVuSans-c" transform="translate(819.421875 0)"/>
     </g>
    </g>
   </g>
   <g id="line2d_12">
    <path d="M 68.220952 175.563168 
L 85.975497 173.039557 
L 103.730043 170.483862 
L 121.484588 167.901118 
L 139.239134 165.296038 
L 156.993679 162.672918 
L 174.748224 160.035573 
L 192.50277 157.387269 
L 210.257315 154.730673 
L 228.011861 152.067832 
L 245.766406 149.400194 
L 263.520952 146.728573 
L 281.275497 144.053239 
L 299.030043 141.373912 
L 316.784588 138.689865 
L 334.539134 135.999973 
L 352.293679 133.302804 
L 370.048224 130.596655 
L 387.80277 127.879722 
L 405.557315 125.150061 
L 423.311861 122.405753 
" clip-path="url(#pae74158493)" style="fill: none; stroke: #1f77b4; stroke-width: 1.5; stroke-linecap: square"/>
    <defs>
     <path id="m4c179e30f9" d="M 0 1.5 
C 0.397805 1.5 0.77937 1.341951 1.06066 1.06066 
C 1.341951 0.77937 1.5 0.397805 1.5 0 
C 1.5 -0.397805 1.341951 -0.77937 1.06066 -1.06066 
C 0.77937 -1.341951 0.397805 -1.5 0 -1.5 
C -0.397805 -1.5 -0.77937 -1.341951 -1.06066 -1.06066 
C -1.341951 -0.77937 -1.5 -0.397805 -1.5 0 
C -1.5 0.397805 -1.341951 0.77937 -1.06066 1.06066 
C -0.77937 1.341951 -0.397805 1.5 0 1.5 
z
" style="stroke: #1f77b4"/>
    </defs>
    <g clip-path="url(#pae74158493)">
     <use xlink:href="#m4c179e30f9" x="68.220952" y="175.563168" style="fill: #1f77b4; stroke: #1f77b4"/>
     <use xlink:href="#m4c179e30f9" x="85.975497" y="173.039557" style="fill: #1f77b4; stroke: #1f77b4"/>
     <use xlink:href="#m4c179e30f9" x="103.730043" y="170.483862" style="fill: #1f77b4; stroke: #1f77b4"/>
     <use xlink:href="#m4c179e30f9" x="121.484588" y="167.901118" style="fill: #1f77b4; stroke: #1f77b4"/>
     <use xlink:href="#m4c179e30f9" x="139.239134" y="165.296038" style="fill: #1f77b4; stroke: #1f77b4"/>
     <use xlink:href="#m4c179e30f9" x="156.993679" y="162.672918" style="fill: #1f77b4; stroke: #1f77b4"/>
     <use xlink:href="#m4c179e30f9" x="174.748224" y="160.035573" style="fill: #1f77b4; stroke: #1f77b4"/>
     <use xlink:href="#m4c179e30f9" x="192.50277" y="157.387269" style="fill: #1f77b4; stroke: #1f77b4"/>
     <use xlink:href="#m4c179e30f9" x="210.257315" y="154.730673" style="fill: #1f77b4; stroke: #1f77b4"/>
     <use xlink:href="#m4c179e30f9" x="228.011861" y="152.067832" style="fill: #1f77b4; stroke: #1f77b4"/>
     <use xlink:href="#m4c179e30f9" x="245.766406" y="149.400194" style="fill: #1f77b4; stroke: #1f77b4"/>
     <use xlink:href="#m4c179e30f9" x="263.520952" y="146.728573" style="fill: #1f77b4; stroke: #1f77b4"/>
     <use xlink:href="#m4c179e30f9" x="281.275497" y="144.053239" style="fill: #1f77b4; stroke: #1f77b4"/>
     <use xlink:href="#m4c179e30f9" x="299.030043" y="141.373912" style="fill: #1f77b4; stroke: #1f77b4"/>
     <use xlink:href="#m4c179e30f9" x="316.784588" y="138.689865" style="fill: #1f77b4; stroke: #1f77b4"/>
     <use xlink:href="#m4c179e30f9" x="334.539134" y="135.999973" style="fill: #1f77b4; stroke: #1f77b4"/>
     <use xlink:href="#m4c179e30f9" x="352.293679" y="133.302804" style="fill: #1f77b4; stroke: #1f77b4"/>
     <use xlink:href="#m4c179e30f9" x="370.048224" y="130.596655" style="fill: #1f77b4; stroke: #1f77b4"/>
     <use xlink:href="#m4c179e30f9" x="387.80277" y="127.879722" style="fill: #1f77b4; stroke: #1f77b4"/>
     <use xlink:href="#m4c179e30f9" x="405.557315" y="125.150061" style="fill: #1f77b4; stroke: #1f77b4"/>
     <use xlink:href="#m4c179e30f9" x="423.311861" y="122.405753" style="fill: #1f77b4; stroke: #1f77b4"/>
    </g>
   </g>
   <g id="patch_3">
    <path d="M 50.466406 271.798125 
L 50.466406 22.318125 
" style="fill: none; stroke: #000000; stroke-width: 0.8; stroke-linejoin: miter; stroke-linecap: square"/>
   </g>
   <g id="patch_4">
    <path d="M 441.066406 271.798125 
L 441.066406 22.318125 
" style="fill: none; stroke: #000000; stroke-width: 0.8; stroke-linejoin: miter; stroke-linecap: square"/>
   </g>
   <g id="patch_5">
    <path d="M 50.466406 271.798125 
L 441.066406 271.798125 
" style="fill: none; stroke: #000000; stroke-width: 0.8; stroke-linejoin: miter; stroke-linecap: square"/>
   </g>
   <g id="patch_6">
    <path d="M 50.466406 22.318125 
L 441.066406 22.318125 
" style="fill: none; stroke: #000000; stroke-width: 0.8; stroke-linejoin: miter; stroke-linecap: square"/>
   </g>
   <g id="text_14">
    <!-- Interface-grading degradation of chi2 (nominal structure) -->
    <g transform="translate(73.322656 16.318125) scale(0.12 -0.12)">
     <defs>
      <path id="DejaVuSans-2c" d="M 628 4666 
L 1259 4666 
L 1259 0 
L 628 0 
L 628 4666 
z
" transform="scale(0.015625)"/>
      <path id="DejaVuSans-10" d="M 313 2009 
L 1997 2009 
L 1997 1497 
L 313 1497 
L 313 2009 
z
" transform="scale(0.015625)"/>
      <path id="DejaVuSans-52" d="M 1959 3097 
Q 1497 3097 1228 2736 
Q 959 2375 959 1747 
Q 959 1119 1226 758 
Q 1494 397 1959 397 
Q 2419 397 2687 759 
Q 2956 1122 2956 1747 
Q 2956 2369 2687 2733 
Q 2419 3097 1959 3097 
z
M 1959 3584 
Q 2709 3584 3137 3096 
Q 3566 2609 3566 1747 
Q 3566 888 3137 398 
Q 2709 -91 1959 -91 
Q 1206 -91 779 398 
Q 353 888 353 1747 
Q 353 2609 779 3096 
Q 1206 3584 1959 3584 
z
" transform="scale(0.015625)"/>
      <path id="DejaVuSans-4f" d="M 603 4863 
L 1178 4863 
L 1178 0 
L 603 0 
L 603 4863 
z
" transform="scale(0.015625)"/>
      <path id="DejaVuSans-56" d="M 2834 3397 
L 2834 2853 
Q 2591 2978 2328 3040 
Q 2066 3103 1784 3103 
Q 1356 3103 1142 2972 
Q 928 2841 928 2578 
Q 928 2378 1081 2264 
Q 1234 2150 1697 2047 
L 1894 2003 
Q 2506 1872 2764 1633 
Q 3022 1394 3022 966 
Q 3022 478 2636 193 
Q 2250 -91 1575 -91 
Q 1294 -91 989 -36 
Q 684 19 347 128 
L 347 722 
Q 666 556 975 473 
Q 1284 391 1588 391 
Q 1994 391 2212 530 
Q 2431 669 2431 922 
Q 2431 1156 2273 1281 
Q 2116 1406 1581 1522 
L 1381 1569 
Q 847 1681 609 1914 
Q 372 2147 372 2553 
Q 372 3047 722 3315 
Q 1072 3584 1716 3584 
Q 2034 3584 2315 3537 
Q 2597 3491 2834 3397 
z
" transform="scale(0.015625)"/>
      <path id="DejaVuSans-58" d="M 544 1381 
L 544 3500 
L 1119 3500 
L 1119 1403 
Q 1119 906 1312 657 
Q 1506 409 1894 409 
Q 2359 409 2629 706 
Q 2900 1003 2900 1516 
L 2900 3500 
L 3475 3500 
L 3475 0 
L 2900 0 
L 2900 538 
Q 2691 219 2414 64 
Q 2138 -91 1772 -91 
Q 1169 -91 856 284 
Q 544 659 544 1381 
z
M 1991 3584 
L 1991 3584 
z
" transform="scale(0.015625)"/>
     </defs>
     <use xlink:href="#DejaVuSans-2c"/>
     <use xlink:href="#DejaVuSans-51" transform="translate(29.5 0)"/>
     <use xlink:href="#DejaVuSans-57" transform="translate(92.875 0)"/>
     <use xlink:href="#DejaVuSans-48" transform="translate(132.078125 0)"/>
     <use xlink:href="#DejaVuSans-55" transform="translate(193.609375 0)"/>
     <use xlink:href="#DejaVuSans-49" transform="translate(234.71875 0)"/>
     <use xlink:href="#DejaVuSans-44" transform="translate(269.921875 0)"/>
     <use xlink:href="#DejaVuSans-46" transform="translate(331.203125 0)"/>
     <use xlink:href="#DejaVuSans-48" transform="translate(386.1875 0)"/>
     <use xlink:href="#DejaVuSans-10" transform="translate(447.71875 0)"/>
     <use xlink:href="#DejaVuSans-4a" transform="translate(483.796875 0)"/>
     <use xlink:href="#DejaVuSans-55" transform="translate(547.28125 0)"/>
     <use xlink:href="#DejaVuSans-44" transform="translate(588.390625 0)"/>
     <use xlink:href="#DejaVuSans-47" transform="translate(649.671875 0)"/>
     <use xlink:href="#DejaVuSans-4c" transform="translate(713.15625 0)"/>
     <use xlink:href="#DejaVuSans-51" transform="translate(740.9375 0)"/>
     <use xlink:href="#DejaVuSans-4a" transform="translate(804.3125 0)"/>
     <use xlink:href="#DejaVuSans-3" transform="translate(867.796875 0)"/>
     <use xlink:href="#DejaVuSans-47" transform="translate(899.578125 0)"/>
     <use xlink:href="#DejaVuSans-48" transform="translate(963.0625 0)"/>
     <use xlink:href="#DejaVuSans-4a" transform="translate(1024.59375 0)"/>
     <use xlink:href="#DejaVuSans-55" transform="translate(1088.078125 0)"/>
     <use xlink:href="#DejaVuSans-44" transform="translate(1129.1875 0)"/>
     <use xlink:href="#DejaVuSans-47" transform="translate(1190.46875 0)"/>
     <use xlink:href="#DejaVuSans-44" transform="translate(1253.953125 0)"/>
     <use xlink:href="#DejaVuSans-57" transform="translate(1315.234375 0)"/>
     <use xlink:href="#DejaVuSans-4c" transform="translate(1354.4375 0)"/>
     <use xlink:href="#DejaVuSans-52" transform="translate(1382.21875 0)"/>
     <use xlink:href="#DejaVuSans-51" transform="translate(1443.40625 0)"/>
     <use xlink:href="#DejaVuSans-3" transform="translate(1506.78125 0)"/>
     <use xlink:href="#DejaVuSans-52" transform="translate(1538.5625 0)"/>
     <use xlink:href="#DejaVuSans-49" transform="translate(1599.75 0)"/>
     <use xlink:href="#DejaVuSans-3" transform="translate(1634.953125 0)"/>
     <use xlink:href="#DejaVuSans-46" transform="translate(1666.734375 0)"/>
     <use xlink:href="#DejaVuSans-4b" transform="translate(1721.71875 0)"/>
     <use xlink:href="#DejaVuSans-4c" transform="translate(1785.09375 0)"/>
     <use xlink:href="#DejaVuSans-15" transform="translate(1812.875 0)"/>
     <use xlink:href="#DejaVuSans-3" transform="translate(1876.5 0)"/>
     <use xlink:href="#DejaVuSans-b" transform="translate(1908.28125 0)"/>
     <use xlink:href="#DejaVuSans-51" transform="translate(1947.296875 0)"/>
     <use xlink:href="#DejaVuSans-52" transform="translate(2010.671875 0)"/>
     <use xlink:href="#DejaVuSans-50" transform="translate(2071.859375 0)"/>
     <use xlink:href="#DejaVuSans-4c" transform="translate(2169.265625 0)"/>
     <use xlink:href="#DejaVuSans-51" transform="translate(2197.046875 0)"/>
     <use xlink:href="#DejaVuSans-44" transform="translate(2260.421875 0)"/>
     <use xlink:href="#DejaVuSans-4f" transform="translate(2321.703125 0)"/>
     <use xlink:href="#DejaVuSans-3" transform="translate(2349.484375 0)"/>
     <use xlink:href="#DejaVuSans-56" transform="translate(2381.265625 0)"/>
     <use xlink:href="#DejaVuSans-57" transform="translate(2433.359375 0)"/>
     <use xlink:href="#DejaVuSans-55" transform="translate(2472.5625 0)"/>
     <use xlink:href="#DejaVuSans-58" transform="translate(2513.671875 0)"/>
     <use xlink:href="#DejaVuSans-46" transform="translate(2577.046875 0)"/>
     <use xlink:href="#DejaVuSans-57" transform="translate(2632.03125 0)"/>
     <use xlink:href="#DejaVuSans-58" transform="translate(2671.234375 0)"/>
     <use xlink:href="#DejaVuSans-55" transform="translate(2734.609375 0)"/>
     <use xlink:href="#DejaVuSans-48" transform="translate(2773.515625 0)"/>
     <use xlink:href="#DejaVuSans-c" transform="translate(2835.046875 0)"/>
    </g>
   </g>
  </g>
 </g>
 <defs>
  <clipPath id="pae74158493">
   <rect x="50.466406" y="22.318125" width="390.6" height="249.48"/>
  </clipPath>
 </defs>
</svg>
