<?xml version="1.0" encoding="utf-8" standalone="no"?>
<!DOCTYPE svg PUBLIC "-//W3C//DTD SVG 1.1//EN"
  "http://www.w3.org/Graphics/SVG/1.1/DTD/svg11.dtd">
<svg xmlns:xlink="http://www.w3.org/1999/xlink" width="519.892969pt" height="337.718906pt" viewBox="0 0 519.892969 337.718906" xmlns="http://www.w3.org/2000/svg" version="1.1">
 <metadata>
  <rdf:RDF xmlns:dc="http://purl.org/dc/elements/1.1/" xmlns:cc="http://creativecommons.org/ns#" xmlns:rdf="http://www.w3.org/1999/02/22-rdf-syntax-ns#">
   <cc:Work>
    <dc:type rdf:resource="http://purl.org/dc/dcmitype/StillImage"/>
    <dc:date>2026-07-17T18:24:58.594509</dc:date>
    <dc:format>image/svg+xml</dc:format>
    <dc:creator>
     <cc:Agent>
      <dc:title>Matplotlib v3.11.0, https://matplotlib.org/</dc:title>
     </cc:Agent>
    </dc:creator>
   </cc:Work>
  </rdf:RDF>
 </metadata>
 <defs>
  <style type="text/css">*{stroke-linejoin: round; stroke-linecap: butt}</style>
 </defs>
 <g id="figure_1">
  <g id="patch_1">
   <path d="M 0 337.718906 
L 519.892969 337.718906 
L 519.892969 0 
L 0 0 
z
" style="fill: #ffffff"/>
  </g>
  <g id="axes_1">
   <g id="patch_2">
    <path d="M 66.292969 299.518125 
L 512.692969 299.518125 
L 512.692969 22.318125 
L 66.292969 22.318125 
z
" style="fill: #ffffff"/>
   </g>
   <g id="matplotlib.axis_1">
    <g id="xtick_1">
     <g id="line2d_1">
      <path d="M 127.165696 299.518125 
L 127.165696 22.318125 
" clip-path="url(#pd873ae1330)" style="fill: none; stroke: #b0b0b0; stroke-opacity: 0.25; stroke-width: 0.8; stroke-linecap: square"/>
     </g>
     <g id="line2d_2">
      <defs>
       <path id="m45f34b2977" d="M 0 0 
L 0 3.5 
" style="stroke: #000000; stroke-width: 0.8"/>
      </defs>
      <g>
       <use xlink:href="#m45f34b2977" x="127.165696" y="299.518125" style="stroke: #000000; stroke-width: 0.8"/>
      </g>
     </g>
     <g id="text_1">
      <!-- 800 -->
      <g transform="translate(117.621946 314.115781) scale(0.1 -0.1)">
       <defs>
        <path id="DejaVuSans-1b" d="M 2034 2216 
Q 1584 2216 1326 1975 
Q 1069 1734 1069 1313 
Q 1069 891 1326 650 
Q 1584 409 2034 409 
Q 2484 409 2743 651 
Q 3003 894 3003 1313 
Q 3003 1734 2745 1975 
Q 2488 2216 2034 2216 
z
M 1403 2484 
Q 997 2584 770 2862 
Q 544 3141 544 3541 
Q 544 4100 942 4425 
Q 1341 4750 2034 4750 
Q 2731 4750 3128 4425 
Q 3525 4100 3525 3541 
Q 3525 3141 3298 2862 
Q 3072 2584 2669 2484 
Q 3125 2378 3379 2068 
Q 3634 1759 3634 1313 
Q 3634 634 3220 271 
Q 2806 -91 2034 -91 
Q 1263 -91 848 271 
Q 434 634 434 1313 
Q 434 1759 690 2068 
Q 947 2378 1403 2484 
z
M 1172 3481 
Q 1172 3119 1398 2916 
Q 1625 2713 2034 2713 
Q 2441 2713 2670 2916 
Q 2900 3119 2900 3481 
Q 2900 3844 2670 4047 
Q 2441 4250 2034 4250 
Q 1625 4250 1398 4047 
Q 1172 3844 1172 3481 
z
" transform="scale(0.015625)"/>
        <path id="DejaVuSans-13" d="M 2034 4250 
Q 1547 4250 1301 3770 
Q 1056 3291 1056 2328 
Q 1056 1369 1301 889 
Q 1547 409 2034 409 
Q 2525 409 2770 889 
Q 3016 1369 3016 2328 
Q 3016 3291 2770 3770 
Q 2525 4250 2034 4250 
z
M 2034 4750 
Q 2819 4750 3233 4129 
Q 3647 3509 3647 2328 
Q 3647 1150 3233 529 
Q 2819 -91 2034 -91 
Q 1250 -91 836 529 
Q 422 1150 422 2328 
Q 422 3509 836 4129 
Q 1250 4750 2034 4750 
z
" transform="scale(0.015625)"/>
       </defs>
       <use xlink:href="#DejaVuSans-1b"/>
       <use xlink:href="#DejaVuSans-13" transform="translate(63.625 0)"/>
       <use xlink:href="#DejaVuSans-13" transform="translate(127.25 0)"/>
      </g>
     </g>
    </g>
    <g id="xtick_2">
     <g id="line2d_3">
      <path d="M 208.329332 299.518125 
L 208.329332 22.318125 
" clip-path="url(#pd873ae1330)" style="fill: none; stroke: #b0b0b0; stroke-opacity: 0.25; stroke-width: 0.8; stroke-linecap: square"/>
     </g>
     <g id="line2d_4">
      <g>
       <use xlink:href="#m45f34b2977" x="208.329332" y="299.518125" style="stroke: #000000; stroke-width: 0.8"/>
      </g>
     </g>
     <g id="text_2">
      <!-- 1000 -->
      <g transform="translate(195.604332 314.115781) scale(0.1 -0.1)">
       <defs>
        <path id="DejaVuSans-14" d="M 794 531 
L 1825 531 
L 1825 4091 
L 703 3866 
L 703 4441 
L 1819 4666 
L 2450 4666 
L 2450 531 
L 3481 531 
L 3481 0 
L 794 0 
L 794 531 
z
" transform="scale(0.015625)"/>
       </defs>
       <use xlink:href="#DejaVuSans-14"/>
       <use xlink:href="#DejaVuSans-13" transform="translate(63.625 0)"/>
       <use xlink:href="#DejaVuSans-13" transform="translate(127.25 0)"/>
       <use xlink:href="#DejaVuSans-13" transform="translate(190.875 0)"/>
      </g>
     </g>
    </g>
    <g id="xtick_3">
     <g id="line2d_5">
      <path d="M 289.492969 299.518125 
L 289.492969 22.318125 
" clip-path="url(#pd873ae1330)" style="fill: none; stroke: #b0b0b0; stroke-opacity: 0.25; stroke-width: 0.8; stroke-linecap: square"/>
     </g>
     <g id="line2d_6">
      <g>
       <use xlink:href="#m45f34b2977" x="289.492969" y="299.518125" style="stroke: #000000; stroke-width: 0.8"/>
      </g>
     </g>
     <g id="text_3">
      <!-- 1200 -->
      <g transform="translate(276.767969 314.115781) scale(0.1 -0.1)">
       <defs>
        <path id="DejaVuSans-15" d="M 1228 531 
L 3431 531 
L 3431 0 
L 469 0 
L 469 531 
Q 828 903 1448 1529 
Q 2069 2156 2228 2338 
Q 2531 2678 2651 2914 
Q 2772 3150 2772 3378 
Q 2772 3750 2511 3984 
Q 2250 4219 1831 4219 
Q 1534 4219 1204 4116 
Q 875 4013 500 3803 
L 500 4441 
Q 881 4594 1212 4672 
Q 1544 4750 1819 4750 
Q 2544 4750 2975 4387 
Q 3406 4025 3406 3419 
Q 3406 3131 3298 2873 
Q 3191 2616 2906 2266 
Q 2828 2175 2409 1742 
Q 1991 1309 1228 531 
z
" transform="scale(0.015625)"/>
       </defs>
       <use xlink:href="#DejaVuSans-14"/>
       <use xlink:href="#DejaVuSans-15" transform="translate(63.625 0)"/>
       <use xlink:href="#DejaVuSans-13" transform="translate(127.25 0)"/>
       <use xlink:href="#DejaVuSans-13" transform="translate(190.875 0)"/>
      </g>
     </g>
    </g>
    <g id="xtick_4">
     <g id="line2d_7">
      <path d="M 370.656605 299.518125 
L 370.656605 22.318125 
" clip-path="url(#pd873ae1330)" style="fill: none; stroke: #b0b0b0; stroke-opacity: 0.25; stroke-width: 0.8; stroke-linecap: square"/>
     </g>
     <g id="line2d_8">
      <g>
       <use xlink:href="#m45f34b2977" x="370.656605" y="299.518125" style="stroke: #000000; stroke-width: 0.8"/>
      </g>
     </g>
     <g id="text_4">
      <!-- 1400 -->
      <g transform="translate(357.931605 314.115781) scale(0.1 -0.1)">
       <defs>
        <path id="DejaVuSans-17" d="M 2419 4116 
L 825 1625 
L 2419 1625 
L 2419 4116 
z
M 2253 4666 
L 3047 4666 
L 3047 1625 
L 3713 1625 
L 3713 1100 
L 3047 1100 
L 3047 0 
L 2419 0 
L 2419 1100 
L 313 1100 
L 313 1709 
L 2253 4666 
z
" transform="scale(0.015625)"/>
       </defs>
       <use xlink:href="#DejaVuSans-14"/>
       <use xlink:href="#DejaVuSans-17" transform="translate(63.625 0)"/>
       <use xlink:href="#DejaVuSans-13" transform="translate(127.25 0)"/>
       <use xlink:href="#DejaVuSans-13" transform="translate(190.875 0)"/>
      </g>
     </g>
    </g>
    <g id="xtick_5">
     <g id="line2d_9">
      <path d="M 451.820241 299.518125 
L 451.820241 22.318125 
" clip-path="url(#pd873ae1330)" style="fill: none; stroke: #b0b0b0; stroke-opacity: 0.25; stroke-width: 0.8; stroke-linecap: square"/>
     </g>
     <g id="line2d_10">
      <g>
       <use xlink:href="#m45f34b2977" x="451.820241" y="299.518125" style="stroke: #000000; stroke-width: 0.8"/>
      </g>
     </g>
     <g id="text_5">
      <!-- 1600 -->
      <g transform="translate(439.095241 314.115781) scale(0.1 -0.1)">
       <defs>
        <path id="DejaVuSans-19" d="M 2113 2584 
Q 1688 2584 1439 2293 
Q 1191 2003 1191 1497 
Q 1191 994 1439 701 
Q 1688 409 2113 409 
Q 2538 409 2786 701 
Q 3034 994 3034 1497 
Q 3034 2003 2786 2293 
Q 2538 2584 2113 2584 
z
M 3366 4563 
L 3366 3988 
Q 3128 4100 2886 4159 
Q 2644 4219 2406 4219 
Q 1781 4219 1451 3797 
Q 1122 3375 1075 2522 
Q 1259 2794 1537 2939 
Q 1816 3084 2150 3084 
Q 2853 3084 3261 2657 
Q 3669 2231 3669 1497 
Q 3669 778 3244 343 
Q 2819 -91 2113 -91 
Q 1303 -91 875 529 
Q 447 1150 447 2328 
Q 447 3434 972 4092 
Q 1497 4750 2381 4750 
Q 2619 4750 2861 4703 
Q 3103 4656 3366 4563 
z
" transform="scale(0.015625)"/>
       </defs>
       <use xlink:href="#DejaVuSans-14"/>
       <use xlink:href="#DejaVuSans-19" transform="translate(63.625 0)"/>
       <use xlink:href="#DejaVuSans-13" transform="translate(127.25 0)"/>
       <use xlink:href="#DejaVuSans-13" transform="translate(190.875 0)"/>
      </g>
     </g>
    </g>
    <g id="text_6">
     <!-- Pump wavelength (nm) -->
     <g transform="translate(231.107031 328.116563) scale(0.1 -0.1)">
      <defs>
       <path id="DejaVuSans-33" d="M 1259 4147 
L 1259 2394 
L 2053 2394 
Q 2494 2394 2734 2622 
Q 2975 2850 2975 3272 
Q 2975 3691 2734 3919 
Q 2494 4147 2053 4147 
L 1259 4147 
z
M 628 4666 
L 2053 4666 
Q 2838 4666 3239 4311 
Q 3641 3956 3641 3272 
Q 3641 2581 3239 2228 
Q 2838 1875 2053 1875 
L 1259 1875 
L 1259 0 
L 628 0 
L 628 4666 
z
" transform="scale(0.015625)"/>
       <path id="DejaVuSans-58" d="M 544 1381 
L 544 3500 
L 1119 3500 
L 1119 1403 
Q 1119 906 1312 657 
Q 1506 409 1894 409 
Q 2359 409 2629 706 
Q 2900 1003 2900 1516 
L 2900 3500 
L 3475 3500 
L 3475 0 
L 2900 0 
L 2900 538 
Q 2691 219 2414 64 
Q 2138 -91 1772 -91 
Q 1169 -91 856 284 
Q 544 659 544 1381 
z
M 1991 3584 
L 1991 3584 
z
" transform="scale(0.015625)"/>
       <path id="DejaVuSans-50" d="M 3328 2828 
Q 3544 3216 3844 3400 
Q 4144 3584 4550 3584 
Q 5097 3584 5394 3201 
Q 5691 2819 5691 2113 
L 5691 0 
L 5113 0 
L 5113 2094 
Q 5113 2597 4934 2840 
Q 4756 3084 4391 3084 
Q 3944 3084 3684 2787 
Q 3425 2491 3425 1978 
L 3425 0 
L 2847 0 
L 2847 2094 
Q 2847 2600 2669 2842 
Q 2491 3084 2119 3084 
Q 1678 3084 1418 2786 
Q 1159 2488 1159 1978 
L 1159 0 
L 581 0 
L 581 3500 
L 1159 3500 
L 1159 2956 
Q 1356 3278 1631 3431 
Q 1906 3584 2284 3584 
Q 2666 3584 2933 3390 
Q 3200 3197 3328 2828 
z
" transform="scale(0.015625)"/>
       <path id="DejaVuSans-53" d="M 1159 525 
L 1159 -1331 
L 581 -1331 
L 581 3500 
L 1159 3500 
L 1159 2969 
Q 1341 3281 1617 3432 
Q 1894 3584 2278 3584 
Q 2916 3584 3314 3078 
Q 3713 2572 3713 1747 
Q 3713 922 3314 415 
Q 2916 -91 2278 -91 
Q 1894 -91 1617 61 
Q 1341 213 1159 525 
z
M 3116 1747 
Q 3116 2381 2855 2742 
Q 2594 3103 2138 3103 
Q 1681 3103 1420 2742 
Q 1159 2381 1159 1747 
Q 1159 1113 1420 752 
Q 1681 391 2138 391 
Q 2594 391 2855 752 
Q 3116 1113 3116 1747 
z
" transform="scale(0.015625)"/>
       <path id="DejaVuSans-3" transform="scale(0.015625)"/>
       <path id="DejaVuSans-5a" d="M 269 3500 
L 844 3500 
L 1563 769 
L 2278 3500 
L 2956 3500 
L 3675 769 
L 4391 3500 
L 4966 3500 
L 4050 0 
L 3372 0 
L 2619 2869 
L 1863 0 
L 1184 0 
L 269 3500 
z
" transform="scale(0.015625)"/>
       <path id="DejaVuSans-44" d="M 2194 1759 
Q 1497 1759 1228 1600 
Q 959 1441 959 1056 
Q 959 750 1161 570 
Q 1363 391 1709 391 
Q 2188 391 2477 730 
Q 2766 1069 2766 1631 
L 2766 1759 
L 2194 1759 
z
M 3341 1997 
L 3341 0 
L 2766 0 
L 2766 531 
Q 2569 213 2275 61 
Q 1981 -91 1556 -91 
Q 1019 -91 701 211 
Q 384 513 384 1019 
Q 384 1609 779 1909 
Q 1175 2209 1959 2209 
L 2766 2209 
L 2766 2266 
Q 2766 2663 2505 2880 
Q 2244 3097 1772 3097 
Q 1472 3097 1187 3025 
Q 903 2953 641 2809 
L 641 3341 
Q 956 3463 1253 3523 
Q 1550 3584 1831 3584 
Q 2591 3584 2966 3190 
Q 3341 2797 3341 1997 
z
" transform="scale(0.015625)"/>
       <path id="DejaVuSans-59" d="M 191 3500 
L 800 3500 
L 1894 563 
L 2988 3500 
L 3597 3500 
L 2284 0 
L 1503 0 
L 191 3500 
z
" transform="scale(0.015625)"/>
       <path id="DejaVuSans-48" d="M 3597 1894 
L 3597 1613 
L 953 1613 
Q 991 1019 1311 708 
Q 1631 397 2203 397 
Q 2534 397 2845 478 
Q 3156 559 3463 722 
L 3463 178 
Q 3153 47 2828 -22 
Q 2503 -91 2169 -91 
Q 1331 -91 842 396 
Q 353 884 353 1716 
Q 353 2575 817 3079 
Q 1281 3584 2069 3584 
Q 2775 3584 3186 3129 
Q 3597 2675 3597 1894 
z
M 3022 2063 
Q 3016 2534 2758 2815 
Q 2500 3097 2075 3097 
Q 1594 3097 1305 2825 
Q 1016 2553 972 2059 
L 3022 2063 
z
" transform="scale(0.015625)"/>
       <path id="DejaVuSans-4f" d="M 603 4863 
L 1178 4863 
L 1178 0 
L 603 0 
L 603 4863 
z
" transform="scale(0.015625)"/>
       <path id="DejaVuSans-51" d="M 3513 2113 
L 3513 0 
L 2938 0 
L 2938 2094 
Q 2938 2591 2744 2837 
Q 2550 3084 2163 3084 
Q 1697 3084 1428 2787 
Q 1159 2491 1159 1978 
L 1159 0 
L 581 0 
L 581 3500 
L 1159 3500 
L 1159 2956 
Q 1366 3272 1645 3428 
Q 1925 3584 2291 3584 
Q 2894 3584 3203 3211 
Q 3513 2838 3513 2113 
z
" transform="scale(0.015625)"/>
       <path id="DejaVuSans-4a" d="M 2906 1791 
Q 2906 2416 2648 2759 
Q 2391 3103 1925 3103 
Q 1463 3103 1205 2759 
Q 947 2416 947 1791 
Q 947 1169 1205 825 
Q 1463 481 1925 481 
Q 2391 481 2648 825 
Q 2906 1169 2906 1791 
z
M 3481 434 
Q 3481 -459 3084 -895 
Q 2688 -1331 1869 -1331 
Q 1566 -1331 1297 -1286 
Q 1028 -1241 775 -1147 
L 775 -588 
Q 1028 -725 1275 -790 
Q 1522 -856 1778 -856 
Q 2344 -856 2625 -561 
Q 2906 -266 2906 331 
L 2906 616 
Q 2728 306 2450 153 
Q 2172 0 1784 0 
Q 1141 0 747 490 
Q 353 981 353 1791 
Q 353 2603 747 3093 
Q 1141 3584 1784 3584 
Q 2172 3584 2450 3431 
Q 2728 3278 2906 2969 
L 2906 3500 
L 3481 3500 
L 3481 434 
z
" transform="scale(0.015625)"/>
       <path id="DejaVuSans-57" d="M 1172 4494 
L 1172 3500 
L 2356 3500 
L 2356 3053 
L 1172 3053 
L 1172 1153 
Q 1172 725 1289 603 
Q 1406 481 1766 481 
L 2356 481 
L 2356 0 
L 1766 0 
Q 1100 0 847 248 
Q 594 497 594 1153 
L 594 3053 
L 172 3053 
L 172 3500 
L 594 3500 
L 594 4494 
L 1172 4494 
z
" transform="scale(0.015625)"/>
       <path id="DejaVuSans-4b" d="M 3513 2113 
L 3513 0 
L 2938 0 
L 2938 2094 
Q 2938 2591 2744 2837 
Q 2550 3084 2163 3084 
Q 1697 3084 1428 2787 
Q 1159 2491 1159 1978 
L 1159 0 
L 581 0 
L 581 4863 
L 1159 4863 
L 1159 2956 
Q 1366 3272 1645 3428 
Q 1925 3584 2291 3584 
Q 2894 3584 3203 3211 
Q 3513 2838 3513 2113 
z
" transform="scale(0.015625)"/>
       <path id="DejaVuSans-b" d="M 1984 4856 
Q 1566 4138 1362 3434 
Q 1159 2731 1159 2009 
Q 1159 1288 1364 580 
Q 1569 -128 1984 -844 
L 1484 -844 
Q 1016 -109 783 600 
Q 550 1309 550 2009 
Q 550 2706 781 3412 
Q 1013 4119 1484 4856 
L 1984 4856 
z
" transform="scale(0.015625)"/>
       <path id="DejaVuSans-c" d="M 513 4856 
L 1013 4856 
Q 1481 4119 1714 3412 
Q 1947 2706 1947 2009 
Q 1947 1309 1714 600 
Q 1481 -109 1013 -844 
L 513 -844 
Q 928 -128 1133 580 
Q 1338 1288 1338 2009 
Q 1338 2731 1133 3434 
Q 928 4138 513 4856 
z
" transform="scale(0.015625)"/>
      </defs>
      <use xlink:href="#DejaVuSans-33"/>
      <use xlink:href="#DejaVuSans-58" transform="translate(58.546875 0)"/>
      <use xlink:href="#DejaVuSans-50" transform="translate(121.921875 0)"/>
      <use xlink:href="#DejaVuSans-53" transform="translate(219.328125 0)"/>
      <use xlink:href="#DejaVuSans-3" transform="translate(282.8125 0)"/>
      <use xlink:href="#DejaVuSans-5a" transform="translate(314.59375 0)"/>
      <use xlink:href="#DejaVuSans-44" transform="translate(396.375 0)"/>
      <use xlink:href="#DejaVuSans-59" transform="translate(457.65625 0)"/>
      <use xlink:href="#DejaVuSans-48" transform="translate(516.84375 0)"/>
      <use xlink:href="#DejaVuSans-4f" transform="translate(578.375 0)"/>
      <use xlink:href="#DejaVuSans-48" transform="translate(606.15625 0)"/>
      <use xlink:href="#DejaVuSans-51" transform="translate(667.6875 0)"/>
      <use xlink:href="#DejaVuSans-4a" transform="translate(731.0625 0)"/>
      <use xlink:href="#DejaVuSans-57" transform="translate(794.546875 0)"/>
      <use xlink:href="#DejaVuSans-4b" transform="translate(833.75 0)"/>
      <use xlink:href="#DejaVuSans-3" transform="translate(897.125 0)"/>
      <use xlink:href="#DejaVuSans-b" transform="translate(928.90625 0)"/>
      <use xlink:href="#DejaVuSans-51" transform="translate(967.921875 0)"/>
      <use xlink:href="#DejaVuSans-50" transform="translate(1031.296875 0)"/>
      <use xlink:href="#DejaVuSans-c" transform="translate(1128.703125 0)"/>
     </g>
    </g>
   </g>
   <g id="matplotlib.axis_2">
    <g id="ytick_1">
     <g id="line2d_11">
      <path d="M 66.292969 291.848553 
L 512.692969 291.848553 
" clip-path="url(#pd873ae1330)" style="fill: none; stroke: #b0b0b0; stroke-opacity: 0.25; stroke-width: 0.8; stroke-linecap: square"/>
     </g>
     <g id="line2d_12">
      <defs>
       <path id="mc55499763c" d="M 0 0 
L -3.5 0 
" style="stroke: #000000; stroke-width: 0.8"/>
      </defs>
      <g>
       <use xlink:href="#mc55499763c" x="66.292969" y="291.848553" style="stroke: #000000; stroke-width: 0.8"/>
      </g>
     </g>
     <g id="text_7">
      <!-- 0.0000 -->
      <g transform="translate(24.302344 295.647381) scale(0.1 -0.1)">
       <defs>
        <path id="DejaVuSans-11" d="M 684 794 
L 1344 794 
L 1344 0 
L 684 0 
L 684 794 
z
" transform="scale(0.015625)"/>
       </defs>
       <use xlink:href="#DejaVuSans-13"/>
       <use xlink:href="#DejaVuSans-11" transform="translate(63.625 0)"/>
       <use xlink:href="#DejaVuSans-13" transform="translate(95.40625 0)"/>
       <use xlink:href="#DejaVuSans-13" transform="translate(159.03125 0)"/>
       <use xlink:href="#DejaVuSans-13" transform="translate(222.65625 0)"/>
       <use xlink:href="#DejaVuSans-13" transform="translate(286.28125 0)"/>
      </g>
     </g>
    </g>
    <g id="ytick_2">
     <g id="line2d_13">
      <path d="M 66.292969 257.979175 
L 512.692969 257.979175 
" clip-path="url(#pd873ae1330)" style="fill: none; stroke: #b0b0b0; stroke-opacity: 0.25; stroke-width: 0.8; stroke-linecap: square"/>
     </g>
     <g id="line2d_14">
      <g>
       <use xlink:href="#mc55499763c" x="66.292969" y="257.979175" style="stroke: #000000; stroke-width: 0.8"/>
      </g>
     </g>
     <g id="text_8">
      <!-- 0.0025 -->
      <g transform="translate(24.302344 261.778003) scale(0.1 -0.1)">
       <defs>
        <path id="DejaVuSans-18" d="M 691 4666 
L 3169 4666 
L 3169 4134 
L 1269 4134 
L 1269 2991 
Q 1406 3038 1543 3061 
Q 1681 3084 1819 3084 
Q 2600 3084 3056 2656 
Q 3513 2228 3513 1497 
Q 3513 744 3044 326 
Q 2575 -91 1722 -91 
Q 1428 -91 1123 -41 
Q 819 9 494 109 
L 494 744 
Q 775 591 1075 516 
Q 1375 441 1709 441 
Q 2250 441 2565 725 
Q 2881 1009 2881 1497 
Q 2881 1984 2565 2268 
Q 2250 2553 1709 2553 
Q 1456 2553 1204 2497 
Q 953 2441 691 2322 
L 691 4666 
z
" transform="scale(0.015625)"/>
       </defs>
       <use xlink:href="#DejaVuSans-13"/>
       <use xlink:href="#DejaVuSans-11" transform="translate(63.625 0)"/>
       <use xlink:href="#DejaVuSans-13" transform="translate(95.40625 0)"/>
       <use xlink:href="#DejaVuSans-13" transform="translate(159.03125 0)"/>
       <use xlink:href="#DejaVuSans-15" transform="translate(222.65625 0)"/>
       <use xlink:href="#DejaVuSans-18" transform="translate(286.28125 0)"/>
      </g>
     </g>
    </g>
    <g id="ytick_3">
     <g id="line2d_15">
      <path d="M 66.292969 224.109796 
L 512.692969 224.109796 
" clip-path="url(#pd873ae1330)" style="fill: none; stroke: #b0b0b0; stroke-opacity: 0.25; stroke-width: 0.8; stroke-linecap: square"/>
     </g>
     <g id="line2d_16">
      <g>
       <use xlink:href="#mc55499763c" x="66.292969" y="224.109796" style="stroke: #000000; stroke-width: 0.8"/>
      </g>
     </g>
     <g id="text_9">
      <!-- 0.0050 -->
      <g transform="translate(24.302344 227.908624) scale(0.1 -0.1)">
       <use xlink:href="#DejaVuSans-13"/>
       <use xlink:href="#DejaVuSans-11" transform="translate(63.625 0)"/>
       <use xlink:href="#DejaVuSans-13" transform="translate(95.40625 0)"/>
       <use xlink:href="#DejaVuSans-13" transform="translate(159.03125 0)"/>
       <use xlink:href="#DejaVuSans-18" transform="translate(222.65625 0)"/>
       <use xlink:href="#DejaVuSans-13" transform="translate(286.28125 0)"/>
      </g>
     </g>
    </g>
    <g id="ytick_4">
     <g id="line2d_17">
      <path d="M 66.292969 190.240418 
L 512.692969 190.240418 
" clip-path="url(#pd873ae1330)" style="fill: none; stroke: #b0b0b0; stroke-opacity: 0.25; stroke-width: 0.8; stroke-linecap: square"/>
     </g>
     <g id="line2d_18">
      <g>
       <use xlink:href="#mc55499763c" x="66.292969" y="190.240418" style="stroke: #000000; stroke-width: 0.8"/>
      </g>
     </g>
     <g id="text_10">
      <!-- 0.0075 -->
      <g transform="translate(24.302344 194.039246) scale(0.1 -0.1)">
       <defs>
        <path id="DejaVuSans-1a" d="M 525 4666 
L 3525 4666 
L 3525 4397 
L 1831 0 
L 1172 0 
L 2766 4134 
L 525 4134 
L 525 4666 
z
" transform="scale(0.015625)"/>
       </defs>
       <use xlink:href="#DejaVuSans-13"/>
       <use xlink:href="#DejaVuSans-11" transform="translate(63.625 0)"/>
       <use xlink:href="#DejaVuSans-13" transform="translate(95.40625 0)"/>
       <use xlink:href="#DejaVuSans-13" transform="translate(159.03125 0)"/>
       <use xlink:href="#DejaVuSans-1a" transform="translate(222.65625 0)"/>
       <use xlink:href="#DejaVuSans-18" transform="translate(286.28125 0)"/>
      </g>
     </g>
    </g>
    <g id="ytick_5">
     <g id="line2d_19">
      <path d="M 66.292969 156.371039 
L 512.692969 156.371039 
" clip-path="url(#pd873ae1330)" style="fill: none; stroke: #b0b0b0; stroke-opacity: 0.25; stroke-width: 0.8; stroke-linecap: square"/>
     </g>
     <g id="line2d_20">
      <g>
       <use xlink:href="#mc55499763c" x="66.292969" y="156.371039" style="stroke: #000000; stroke-width: 0.8"/>
      </g>
     </g>
     <g id="text_11">
      <!-- 0.0100 -->
      <g transform="translate(24.302344 160.169867) scale(0.1 -0.1)">
       <use xlink:href="#DejaVuSans-13"/>
       <use xlink:href="#DejaVuSans-11" transform="translate(63.625 0)"/>
       <use xlink:href="#DejaVuSans-13" transform="translate(95.40625 0)"/>
       <use xlink:href="#DejaVuSans-14" transform="translate(159.03125 0)"/>
       <use xlink:href="#DejaVuSans-13" transform="translate(222.65625 0)"/>
       <use xlink:href="#DejaVuSans-13" transform="translate(286.28125 0)"/>
      </g>
     </g>
    </g>
    <g id="ytick_6">
     <g id="line2d_21">
      <path d="M 66.292969 122.501661 
L 512.692969 122.501661 
" clip-path="url(#pd873ae1330)" style="fill: none; stroke: #b0b0b0; stroke-opacity: 0.25; stroke-width: 0.8; stroke-linecap: square"/>
     </g>
     <g id="line2d_22">
      <g>
       <use xlink:href="#mc55499763c" x="66.292969" y="122.501661" style="stroke: #000000; stroke-width: 0.8"/>
      </g>
     </g>
     <g id="text_12">
      <!-- 0.0125 -->
      <g transform="translate(24.302344 126.300489) scale(0.1 -0.1)">
       <use xlink:href="#DejaVuSans-13"/>
       <use xlink:href="#DejaVuSans-11" transform="translate(63.625 0)"/>
       <use xlink:href="#DejaVuSans-13" transform="translate(95.40625 0)"/>
       <use xlink:href="#DejaVuSans-14" transform="translate(159.03125 0)"/>
       <use xlink:href="#DejaVuSans-15" transform="translate(222.65625 0)"/>
       <use xlink:href="#DejaVuSans-18" transform="translate(286.28125 0)"/>
      </g>
     </g>
    </g>
    <g id="ytick_7">
     <g id="line2d_23">
      <path d="M 66.292969 88.632282 
L 512.692969 88.632282 
" clip-path="url(#pd873ae1330)" style="fill: none; stroke: #b0b0b0; stroke-opacity: 0.25; stroke-width: 0.8; stroke-linecap: square"/>
     </g>
     <g id="line2d_24">
      <g>
       <use xlink:href="#mc55499763c" x="66.292969" y="88.632282" style="stroke: #000000; stroke-width: 0.8"/>
      </g>
     </g>
     <g id="text_13">
      <!-- 0.0150 -->
      <g transform="translate(24.302344 92.43111) scale(0.1 -0.1)">
       <use xlink:href="#DejaVuSans-13"/>
       <use xlink:href="#DejaVuSans-11" transform="translate(63.625 0)"/>
       <use xlink:href="#DejaVuSans-13" transform="translate(95.40625 0)"/>
       <use xlink:href="#DejaVuSans-14" transform="translate(159.03125 0)"/>
       <use xlink:href="#DejaVuSans-18" transform="translate(222.65625 0)"/>
       <use xlink:href="#DejaVuSans-13" transform="translate(286.28125 0)"/>
      </g>
     </g>
    </g>
    <g id="ytick_8">
     <g id="line2d_25">
      <path d="M 66.292969 54.762904 
L 512.692969 54.762904 
" clip-path="url(#pd873ae1330)" style="fill: none; stroke: #b0b0b0; stroke-opacity: 0.25; stroke-width: 0.8; stroke-linecap: square"/>
     </g>
     <g id="line2d_26">
      <g>
       <use xlink:href="#mc55499763c" x="66.292969" y="54.762904" style="stroke: #000000; stroke-width: 0.8"/>
      </g>
     </g>
     <g id="text_14">
      <!-- 0.0175 -->
      <g transform="translate(24.302344 58.561732) scale(0.1 -0.1)">
       <use xlink:href="#DejaVuSans-13"/>
       <use xlink:href="#DejaVuSans-11" transform="translate(63.625 0)"/>
       <use xlink:href="#DejaVuSans-13" transform="translate(95.40625 0)"/>
       <use xlink:href="#DejaVuSans-14" transform="translate(159.03125 0)"/>
       <use xlink:href="#DejaVuSans-1a" transform="translate(222.65625 0)"/>
       <use xlink:href="#DejaVuSans-18" transform="translate(286.28125 0)"/>
      </g>
     </g>
    </g>
    <g id="text_15">
     <!-- $|\chi^{(2)}_{xzx}|$ (nm/V) -->
     <g transform="translate(17.9 192.018125) rotate(-90) scale(0.1 -0.1)">
      <defs>
       <path id="DejaVuSans-5f" d="M 1344 4891 
L 1344 -1509 
L 813 -1509 
L 813 4891 
L 1344 4891 
z
" transform="scale(0.015625)"/>
       <path id="DejaVuSans-Oblique-35b" d="M 1922 -781 
L 1691 416 
L 394 -1334 
L -284 -1334 
L 1553 1141 
L 1269 2613 
Q 1194 3006 713 3006 
L 559 3006 
L 653 3500 
L 872 3494 
Q 1675 3472 1775 2950 
L 2006 1753 
L 3303 3503 
L 3981 3503 
L 2144 1028 
L 2428 -444 
Q 2503 -838 2984 -838 
L 3138 -838 
L 3044 -1331 
L 2825 -1325 
Q 2022 -1303 1922 -781 
z
" transform="scale(0.015625)"/>
       <path id="DejaVuSans-Oblique-5b" d="M 3841 3500 
L 2234 1784 
L 3219 0 
L 2559 0 
L 1819 1388 
L 531 0 
L -166 0 
L 1556 1844 
L 641 3500 
L 1300 3500 
L 1972 2234 
L 3144 3500 
L 3841 3500 
z
" transform="scale(0.015625)"/>
       <path id="DejaVuSans-Oblique-5d" d="M 744 3500 
L 3475 3500 
L 3372 2975 
L 738 459 
L 2913 459 
L 2822 0 
L -19 0 
L 84 525 
L 2719 3041 
L 653 3041 
L 744 3500 
z
" transform="scale(0.015625)"/>
       <path id="DejaVuSans-12" d="M 1625 4666 
L 2156 4666 
L 531 -594 
L 0 -594 
L 1625 4666 
z
" transform="scale(0.015625)"/>
       <path id="DejaVuSans-39" d="M 1831 0 
L 50 4666 
L 709 4666 
L 2188 738 
L 3669 4666 
L 4325 4666 
L 2547 0 
L 1831 0 
z
" transform="scale(0.015625)"/>
      </defs>
      <use xlink:href="#DejaVuSans-5f" transform="translate(0 0.90625)"/>
      <use xlink:href="#DejaVuSans-Oblique-35b" transform="translate(33.691406 0.90625)"/>
      <use xlink:href="#DejaVuSans-b" transform="translate(97.343802 53.8875) scale(0.7)"/>
      <use xlink:href="#DejaVuSans-15" transform="translate(124.653372 53.8875) scale(0.7)"/>
      <use xlink:href="#DejaVuSans-c" transform="translate(169.189505 53.8875) scale(0.7)"/>
      <use xlink:href="#DejaVuSans-Oblique-5b" transform="translate(92.871094 -18.625) scale(0.7)"/>
      <use xlink:href="#DejaVuSans-Oblique-5d" transform="translate(134.296875 -18.625) scale(0.7)"/>
      <use xlink:href="#DejaVuSans-Oblique-5b" transform="translate(171.040039 -18.625) scale(0.7)"/>
      <use xlink:href="#DejaVuSans-5f" transform="translate(215.200195 0.90625)"/>
      <use xlink:href="#DejaVuSans-3" transform="translate(248.891602 0.90625)"/>
      <use xlink:href="#DejaVuSans-b" transform="translate(280.678711 0.90625)"/>
      <use xlink:href="#DejaVuSans-51" transform="translate(319.692383 0.90625)"/>
      <use xlink:href="#DejaVuSans-50" transform="translate(383.071289 0.90625)"/>
      <use xlink:href="#DejaVuSans-12" transform="translate(480.483398 0.90625)"/>
      <use xlink:href="#DejaVuSans-39" transform="translate(514.174805 0.90625)"/>
      <use xlink:href="#DejaVuSans-c" transform="translate(582.583008 0.90625)"/>
     </g>
    </g>
   </g>
   <g id="line2d_27">
    <path d="M 86.583878 210.270593 
L 91.453696 207.096832 
L 95.917696 203.906119 
L 99.975878 200.71381 
L 103.222423 197.921027 
L 106.063151 195.273384 
L 108.903878 192.405025 
L 111.338787 189.746284 
L 114.179514 186.372209 
L 116.614423 183.202133 
L 119.049332 179.723113 
L 121.484241 175.867393 
L 123.919151 171.550811 
L 126.35406 166.680307 
L 127.977332 162.99548 
L 128.788969 160.657269 
L 129.600605 157.480356 
L 130.81806 151.492102 
L 132.847151 141.263488 
L 134.064605 136.276435 
L 134.876241 133.719845 
L 135.687878 131.870825 
L 136.499514 130.7779 
L 136.905332 130.523349 
L 137.311151 130.466589 
L 137.716969 130.606101 
L 138.122787 130.942058 
L 138.528605 131.471131 
L 139.340241 133.096005 
L 140.151878 135.441152 
L 140.963514 138.450071 
L 142.180969 144.042224 
L 143.804241 152.981057 
L 146.644969 169.42423 
L 147.862423 174.955268 
L 148.67406 177.493701 
L 149.485696 179.116571 
L 151.108969 181.509561 
L 153.13806 184.163928 
L 155.167151 186.398414 
L 157.196241 188.230139 
L 159.225332 189.712386 
L 161.254423 190.894793 
L 163.283514 191.817366 
L 165.312605 192.51117 
L 167.341696 193.000007 
L 169.776605 193.341125 
L 172.211514 193.435427 
L 174.646423 193.297956 
L 177.081332 192.937529 
L 179.516241 192.357524 
L 181.951151 191.556245 
L 184.38606 190.526932 
L 186.820969 189.257396 
L 189.255878 187.729267 
L 191.690787 185.916734 
L 194.125696 183.784614 
L 196.154787 181.729979 
L 198.183878 179.384952 
L 200.212969 176.703814 
L 202.24206 173.628931 
L 204.271151 170.091474 
L 206.300241 166.028844 
L 209.140969 159.664053 
L 209.952605 157.633548 
L 210.358423 156.224278 
L 211.17006 152.226485 
L 211.981696 147.005943 
L 213.199151 137.194325 
L 216.851514 106.375216 
L 218.068969 98.127558 
L 219.286423 91.366904 
L 220.09806 88.228714 
L 220.909696 86.000518 
L 221.315514 85.204101 
L 221.721332 84.692011 
L 222.127151 84.481312 
L 222.532969 84.566707 
L 222.938787 84.932112 
L 223.344605 85.557635 
L 224.156241 87.486618 
L 224.967878 90.302702 
L 225.779514 94.19427 
L 227.402787 103.672867 
L 229.431878 116.359893 
L 230.243514 119.805926 
L 231.055151 122.023828 
L 232.272605 124.816713 
L 233.084241 126.520624 
L 233.895878 128.872531 
L 239.171514 146.126474 
L 240.388969 150.279858 
L 243.229696 157.983132 
L 244.447151 160.344582 
L 246.070423 163.073603 
L 246.88206 163.669883 
L 247.693696 164.251781 
L 248.505332 164.731481 
L 248.911151 164.760907 
L 249.722787 164.518756 
L 250.940241 164.206584 
L 252.157696 164.021939 
L 252.969332 163.87642 
L 253.780969 164.207369 
L 254.592605 164.538062 
L 255.81006 164.608049 
L 257.027514 165.093629 
L 257.839151 165.308929 
L 259.056605 165.417409 
L 260.27406 165.945369 
L 261.491514 166.013098 
L 263.114787 166.538315 
L 265.143878 166.881642 
L 265.955514 167.184856 
L 267.578787 167.34819 
L 268.390423 167.652023 
L 270.419514 167.906984 
L 271.636969 168.198036 
L 273.260241 168.332912 
L 274.071878 168.626636 
L 274.883514 168.647072 
L 275.695151 168.642091 
L 277.318423 169.071466 
L 278.941696 169.084246 
L 280.159151 169.457166 
L 281.376605 169.311189 
L 283.405696 169.696868 
L 284.217332 169.633854 
L 285.028969 169.760488 
L 285.840605 169.981696 
L 286.652241 169.895985 
L 287.463878 169.879336 
L 288.681332 170.163482 
L 289.898787 170.065858 
L 292.333696 170.24276 
L 293.145332 170.225417 
L 294.362787 170.405318 
L 295.580241 170.291077 
L 296.797696 170.45981 
L 299.232605 170.461085 
L 300.044241 170.527666 
L 301.261696 170.324232 
L 302.479151 170.554136 
L 304.508241 170.372622 
L 305.725696 170.473462 
L 306.943151 170.226507 
L 308.566423 170.386818 
L 309.783878 170.155189 
L 311.407151 170.229448 
L 313.030423 170.039305 
L 313.84206 170.099065 
L 315.871151 169.903991 
L 316.682787 169.858701 
L 318.30606 169.678864 
L 319.523514 169.628064 
L 320.740969 169.407496 
L 321.958423 169.43277 
L 323.581696 169.122068 
L 324.799151 169.111742 
L 326.422423 168.788219 
L 327.639878 168.752363 
L 329.263151 168.427318 
L 330.480605 168.328054 
L 333.321332 167.87072 
L 343.466787 165.927237 
L 347.119151 165.095371 
L 348.336605 164.711889 
L 349.959878 164.348028 
L 351.583151 163.894986 
L 352.800605 163.536585 
L 356.047151 162.56088 
L 357.264605 162.193922 
L 358.887878 161.655519 
L 360.105332 161.217843 
L 361.322787 160.796148 
L 362.540241 160.347013 
L 372.685696 155.982265 
L 379.178787 152.475549 
L 384.860241 148.765593 
L 387.700969 146.657662 
L 391.353332 143.573072 
L 394.19406 140.899891 
L 397.440605 137.424431 
L 399.469696 135.009925 
L 401.904605 131.800997 
L 404.339514 128.173048 
L 406.774423 124.041084 
L 408.803514 120.126107 
L 410.832605 115.686006 
L 412.455878 111.65531 
L 414.079151 106.992908 
L 415.296605 102.658242 
L 416.108241 98.951305 
L 417.325696 91.927274 
L 420.166423 74.012149 
L 420.97806 69.973609 
L 421.789696 66.825292 
L 422.601332 64.720315 
L 423.007151 64.092002 
L 423.412969 63.754819 
L 423.818787 63.71298 
L 424.224605 63.971464 
L 424.630423 64.535351 
L 425.036241 65.406024 
L 425.847878 68.048848 
L 426.659514 71.847195 
L 427.471151 76.74187 
L 428.688605 85.914758 
L 429.90606 96.859636 
L 432.340969 121.491261 
L 433.964241 137.156426 
L 435.181696 146.818057 
L 436.399151 154.137769 
L 437.616605 159.878774 
L 439.239878 166.524044 
L 441.268969 173.926831 
L 443.29806 180.549586 
L 445.732969 187.673172 
L 448.167878 194.090167 
L 451.008605 200.897509 
L 454.255151 208.024954 
L 458.313332 216.308695 
L 466.023878 231.826582 
L 467.241332 235.136199 
L 468.864605 240.359635 
L 472.922787 253.977207 
L 474.140241 257.363418 
L 475.357696 260.167051 
L 476.575151 262.299747 
L 477.386787 263.321426 
L 478.198423 264.014665 
L 479.01006 264.381399 
L 479.821696 264.432641 
L 480.633332 264.189891 
L 481.444969 263.687174 
L 482.256605 262.973934 
L 486.720605 257.986182 
L 487.532241 257.43436 
L 488.343878 257.117818 
L 489.155514 257.086971 
L 489.967151 257.392233 
L 490.778787 258.084017 
L 491.590423 259.21274 
L 492.40206 260.828815 
L 492.40206 260.828815 
" clip-path="url(#pd873ae1330)" style="fill: none; stroke: #1f4e79; stroke-width: 1.8; stroke-linecap: square"/>
   </g>
   <g id="line2d_28">
    <path d="M 86.583878 199.338179 
L 91.453696 195.739659 
L 95.511878 192.481721 
L 99.164241 189.263547 
L 102.816605 185.748231 
L 106.063151 182.314168 
L 109.715514 178.047528 
L 112.556241 174.381901 
L 115.396969 170.34033 
L 118.237696 165.834884 
L 120.672605 161.521908 
L 123.107514 156.6919 
L 125.542423 151.240151 
L 127.165696 147.122446 
L 127.977332 144.537997 
L 128.788969 141.013379 
L 130.006423 134.295891 
L 132.035514 122.729611 
L 133.252969 117.067654 
L 134.064605 114.158801 
L 134.876241 112.049372 
L 135.687878 110.795746 
L 136.093696 110.499765 
L 136.499514 110.42789 
L 136.905332 110.578841 
L 137.311151 110.952406 
L 137.716969 111.545473 
L 138.528605 113.374924 
L 139.340241 116.023046 
L 140.151878 119.426521 
L 141.369332 125.76185 
L 142.992605 135.908212 
L 146.239151 156.986927 
L 147.050787 161.02211 
L 147.862423 163.97706 
L 148.67406 165.869503 
L 150.297332 168.613455 
L 152.326423 171.660223 
L 153.949696 173.756803 
L 155.572969 175.553308 
L 157.196241 177.079569 
L 159.225332 178.65451 
L 161.254423 179.907751 
L 163.283514 180.880467 
L 165.312605 181.604368 
L 167.341696 182.10358 
L 169.370787 182.396195 
L 171.399878 182.495434 
L 173.834787 182.371921 
L 176.269696 181.99225 
L 178.704605 181.359296 
L 181.139514 180.469861 
L 183.574423 179.314579 
L 186.009332 177.877361 
L 188.444241 176.134308 
L 190.473332 174.424347 
L 192.502423 172.453299 
L 194.531514 170.188118 
L 196.560605 167.586402 
L 198.589696 164.59397 
L 200.618787 161.14287 
L 202.647878 157.154278 
L 204.676969 152.570308 
L 207.517696 145.516376 
L 207.923514 144.276525 
L 208.329332 142.642168 
L 209.140969 138.053009 
L 209.952605 132.097801 
L 211.17006 120.957993 
L 214.822423 86.350952 
L 216.039878 77.120898 
L 216.851514 71.83182 
L 217.663151 67.762778 
L 218.474787 64.8465 
L 219.286423 62.86067 
L 219.692241 62.345817 
L 220.09806 62.171902 
L 220.503878 62.325039 
L 220.909696 62.786256 
L 221.315514 63.53118 
L 222.127151 65.751842 
L 222.938787 69.07239 
L 223.750423 73.588412 
L 225.373696 84.390515 
L 227.402787 98.716894 
L 228.214423 102.557651 
L 229.431878 106.407722 
L 230.243514 108.29433 
L 231.055151 109.821949 
L 231.866787 112.004088 
L 233.49006 116.705918 
L 234.301696 119.811978 
L 237.548241 134.085321 
L 238.765696 139.414299 
L 241.606423 151.110623 
L 244.041332 158.653771 
L 246.070423 162.325611 
L 246.88206 163.036585 
L 247.693696 163.254322 
L 248.505332 163.256886 
L 249.316969 163.045223 
L 249.722787 162.718253 
L 250.534423 161.807744 
L 250.940241 161.534988 
L 252.969332 161.141127 
L 253.780969 161.30666 
L 254.592605 161.587912 
L 255.404241 161.596688 
L 256.215878 161.54703 
L 257.839151 162.11617 
L 258.650787 161.947829 
L 259.056605 162.017359 
L 260.27406 162.512488 
L 261.085696 162.532415 
L 261.897332 162.496207 
L 262.708969 162.805287 
L 263.114787 163.023572 
L 263.520605 163.09611 
L 264.73806 162.923318 
L 265.955514 163.44886 
L 267.984605 163.538447 
L 269.20206 163.901464 
L 270.825332 163.924557 
L 271.636969 164.23566 
L 272.448605 164.195057 
L 273.260241 164.254997 
L 274.477696 164.533433 
L 276.506787 164.683574 
L 277.318423 164.884987 
L 278.535878 164.790275 
L 280.159151 165.1364 
L 281.376605 165.067059 
L 283.405696 165.389808 
L 284.217332 165.21476 
L 285.028969 165.491063 
L 285.434787 165.643683 
L 285.840605 165.650649 
L 286.652241 165.428106 
L 287.463878 165.513464 
L 288.681332 165.776236 
L 290.304605 165.594458 
L 291.52206 165.908455 
L 292.739514 165.676633 
L 294.768605 165.882649 
L 295.98606 165.792106 
L 297.203514 165.947264 
L 298.420969 165.804376 
L 299.638423 165.931432 
L 300.855878 165.799986 
L 302.479151 165.887896 
L 304.102423 165.731168 
L 304.91406 165.888529 
L 305.725696 165.731721 
L 306.537332 165.586542 
L 307.754787 165.77287 
L 308.566423 165.615999 
L 309.37806 165.453796 
L 311.001332 165.573026 
L 312.218787 165.300907 
L 313.436241 165.37987 
L 317.900241 164.89706 
L 319.117696 164.809657 
L 320.335151 164.649176 
L 321.552605 164.552162 
L 322.77006 164.332422 
L 324.393332 164.201525 
L 325.610787 163.953192 
L 327.23406 163.804767 
L 328.857332 163.501147 
L 330.480605 163.283423 
L 331.69806 163.002447 
L 333.321332 162.772433 
L 335.350423 162.364584 
L 336.567878 162.124327 
L 338.191151 161.777851 
L 343.466787 160.568821 
L 344.684241 160.151155 
L 345.901696 159.94645 
L 347.524969 159.381838 
L 348.742423 159.111974 
L 349.959878 158.657407 
L 351.177332 158.335448 
L 353.206423 157.658714 
L 362.94606 153.833122 
L 365.380969 152.704657 
L 368.221696 151.294769 
L 376.33806 146.422346 
L 378.772969 144.696713 
L 380.80206 143.162511 
L 383.642787 140.824368 
L 387.295151 137.377519 
L 389.73006 134.826244 
L 392.570787 131.475539 
L 395.411514 127.673064 
L 397.846423 123.98362 
L 400.281332 119.781652 
L 402.310423 115.806141 
L 403.933696 112.268516 
L 405.962787 107.304214 
L 407.58606 102.77763 
L 409.209332 97.59483 
L 410.426787 92.861658 
L 411.238423 88.86888 
L 412.05006 83.911354 
L 413.673332 71.915268 
L 415.296605 59.826479 
L 416.51406 52.37057 
L 417.325696 48.617287 
L 418.137332 46.013678 
L 418.543151 45.185199 
L 418.948969 44.687243 
L 419.354787 44.523938 
L 419.760605 44.695706 
L 420.166423 45.203344 
L 420.572241 46.04912 
L 421.383878 48.759399 
L 422.195514 52.783365 
L 423.007151 58.023224 
L 424.224605 67.958579 
L 425.44206 79.894747 
L 427.876969 106.842917 
L 429.500241 123.861188 
L 430.717696 134.191768 
L 431.935151 141.947945 
L 433.152605 148.125801 
L 435.181696 157.038098 
L 437.210787 164.900741 
L 439.239878 171.937563 
L 441.674787 179.505586 
L 444.109696 186.31026 
L 446.950423 193.49794 
L 449.791151 200.066738 
L 453.037696 207.012563 
L 457.095878 215.132575 
L 461.965696 224.399086 
L 465.212241 230.460496 
L 466.429696 233.497335 
L 467.647151 237.436235 
L 468.864605 242.270061 
L 470.893696 251.62124 
L 473.734423 264.953668 
L 475.357696 271.485237 
L 476.575151 275.467147 
L 477.386787 277.593721 
L 478.198423 279.255401 
L 479.01006 280.427573 
L 479.821696 281.098372 
L 480.227514 281.246356 
L 480.633332 281.272191 
L 481.444969 280.975496 
L 482.256605 280.266104 
L 483.47406 278.415521 
L 486.720605 273.218517 
L 487.532241 272.26947 
L 488.343878 271.611808 
L 489.155514 271.321181 
L 489.561332 271.337146 
L 489.967151 271.473239 
L 490.372969 271.738917 
L 491.184605 272.69685 
L 491.996241 274.286597 
L 492.40206 275.342041 
L 492.40206 275.342041 
" clip-path="url(#pd873ae1330)" style="fill: none; stroke: #2e9e2e; stroke-width: 1.8; stroke-linecap: square"/>
   </g>
   <g id="line2d_29">
    <path d="M 86.583878 196.816675 
L 92.265332 192.203721 
L 96.323514 188.627408 
L 99.57006 185.48968 
L 102.004969 182.973595 
L 106.063151 178.368704 
L 110.121332 173.161874 
L 113.367878 168.448917 
L 115.802787 164.535456 
L 118.237696 160.208019 
L 120.672605 155.377124 
L 123.107514 149.937484 
L 125.136605 144.831736 
L 125.948241 142.414416 
L 126.759878 139.196049 
L 127.571514 134.98595 
L 131.223878 114.29914 
L 132.035514 110.971049 
L 132.847151 108.428673 
L 133.658787 106.741856 
L 134.064605 106.233486 
L 134.470423 105.951449 
L 134.876241 105.898512 
L 135.28206 106.07348 
L 135.687878 106.47557 
L 136.093696 107.101656 
L 136.905332 109.00891 
L 137.716969 111.748392 
L 138.528605 115.253648 
L 139.74606 121.753054 
L 141.369332 132.115195 
L 144.21006 151.082378 
L 145.021696 155.528205 
L 145.833332 158.973938 
L 146.644969 161.242353 
L 147.862423 163.421425 
L 149.891514 166.5529 
L 151.514787 168.732412 
L 153.13806 170.592279 
L 154.761332 172.156375 
L 156.384605 173.456498 
L 158.007878 174.521905 
L 160.036969 175.560586 
L 162.06606 176.308626 
L 164.095151 176.794667 
L 166.124241 177.039757 
L 168.153332 177.058773 
L 170.182423 176.861436 
L 172.211514 176.452977 
L 174.240605 175.834529 
L 176.269696 175.00327 
L 178.298787 173.952345 
L 180.327878 172.670556 
L 182.356969 171.141797 
L 184.38606 169.344168 
L 186.415151 167.248707 
L 188.444241 164.817634 
L 190.473332 162.002081 
L 192.502423 158.739677 
L 194.531514 154.954188 
L 196.560605 150.568671 
L 198.589696 145.599903 
L 200.618787 140.329369 
L 201.024605 138.784529 
L 201.836241 134.296351 
L 202.647878 128.343538 
L 203.865332 117.052844 
L 207.517696 81.477229 
L 209.140969 68.907271 
L 209.952605 64.011482 
L 210.764241 60.334239 
L 211.575878 57.549293 
L 211.981696 56.62104 
L 212.387514 56.039137 
L 212.793332 55.793287 
L 213.199151 55.86524 
L 213.604969 56.231217 
L 214.010787 56.860625 
L 214.416605 57.728242 
L 214.822423 58.887955 
L 215.63406 62.245324 
L 216.851514 69.029609 
L 218.068969 77.436967 
L 220.09806 91.90564 
L 220.909696 96.009939 
L 221.721332 98.766397 
L 222.938787 101.710296 
L 224.156241 104.726505 
L 224.967878 106.658103 
L 226.591151 110.056342 
L 227.808605 112.609961 
L 231.055151 118.077657 
L 231.866787 120.083631 
L 233.49006 125.418089 
L 234.707514 129.964038 
L 238.359878 145.119754 
L 240.794787 154.084269 
L 242.012241 157.544593 
L 243.635514 161.409373 
L 244.447151 162.49526 
L 245.664605 163.721353 
L 246.070423 163.969339 
L 246.476241 164.035523 
L 246.88206 163.92814 
L 248.911151 162.702887 
L 250.128605 161.583303 
L 250.534423 161.43244 
L 256.215878 161.549318 
L 257.027514 161.737342 
L 258.650787 161.704004 
L 259.868241 161.935354 
L 261.085696 161.848476 
L 262.708969 162.152437 
L 263.926423 162.060868 
L 265.143878 162.363034 
L 265.955514 162.305642 
L 266.767151 162.24287 
L 268.390423 162.565235 
L 269.20206 162.386621 
L 270.013696 162.562179 
L 270.825332 162.707897 
L 272.448605 162.624279 
L 273.66606 162.79456 
L 275.289332 162.780835 
L 276.506787 162.855662 
L 277.724241 162.857106 
L 278.941696 162.919721 
L 280.159151 162.862943 
L 281.376605 163.007197 
L 282.999878 162.872243 
L 283.811514 163.037803 
L 286.246423 162.945494 
L 287.05806 162.952825 
L 288.681332 162.800913 
L 289.898787 162.869729 
L 291.52206 162.707379 
L 293.145332 162.682345 
L 295.98606 162.483365 
L 297.609332 162.365544 
L 298.826787 162.278945 
L 299.638423 162.250412 
L 302.073332 161.978563 
L 303.290787 161.884479 
L 304.91406 161.650991 
L 306.537332 161.5097 
L 307.348969 161.295734 
L 309.37806 161.105931 
L 311.001332 160.843905 
L 312.218787 160.687072 
L 313.436241 160.458003 
L 315.465332 160.118631 
L 317.088605 159.793504 
L 317.900241 159.61174 
L 319.117696 159.483467 
L 320.335151 159.064229 
L 321.552605 158.979457 
L 323.175878 158.458812 
L 324.393332 158.27545 
L 325.610787 157.888396 
L 326.828241 157.615822 
L 328.045696 157.287284 
L 328.857332 157.093222 
L 330.074787 156.659832 
L 331.69806 156.254952 
L 332.915514 155.810219 
L 334.132969 155.496146 
L 336.16206 154.771102 
L 337.785332 154.194865 
L 343.872605 151.828118 
L 345.495878 151.052225 
L 346.713332 150.518236 
L 348.336605 149.736807 
L 352.800605 147.402134 
L 358.887878 143.597544 
L 361.728605 141.587312 
L 364.569332 139.341235 
L 368.221696 136.140366 
L 371.062423 133.310876 
L 373.497332 130.633969 
L 375.526423 128.203497 
L 377.961332 124.995357 
L 380.396241 121.385909 
L 382.425332 118.012394 
L 384.454423 114.295046 
L 386.889332 109.243302 
L 388.918423 104.412715 
L 390.541696 100.04619 
L 392.164969 95.187728 
L 393.788241 89.507249 
L 394.599878 86.125205 
L 395.411514 81.930905 
L 396.223151 76.671169 
L 397.846423 63.940523 
L 399.469696 51.104028 
L 400.687151 43.23106 
L 401.498787 39.248315 
L 402.310423 36.504548 
L 402.716241 35.63367 
L 403.12206 35.103393 
L 403.527878 34.918125 
L 403.933696 35.084991 
L 404.339514 35.609292 
L 404.745332 36.49277 
L 405.556969 39.322216 
L 406.368605 43.514667 
L 407.180241 48.985024 
L 408.397696 59.351299 
L 409.615151 71.804541 
L 412.05006 99.876625 
L 413.673332 117.513584 
L 414.890787 128.105217 
L 415.702423 133.544254 
L 416.919878 140.087359 
L 418.543151 147.491762 
L 420.572241 155.691922 
L 422.601332 162.967898 
L 424.630423 169.47629 
L 427.065332 176.46277 
L 429.500241 182.72042 
L 431.935151 188.388839 
L 434.775878 194.397945 
L 437.616605 199.879917 
L 440.863151 205.634571 
L 444.109696 210.949638 
L 447.76206 216.531544 
L 452.22606 222.943034 
L 457.907514 230.692647 
L 460.342423 233.694199 
L 461.965696 235.697943 
L 463.183151 237.685313 
L 463.994787 239.387992 
L 465.212241 242.594526 
L 466.429696 246.59896 
L 467.647151 251.332135 
L 469.676241 260.28115 
L 472.516969 272.844014 
L 474.140241 278.883269 
L 475.357696 282.467185 
L 476.169332 284.311011 
L 476.980969 285.675595 
L 477.792605 286.540918 
L 478.604241 286.909783 
L 479.415878 286.820235 
L 480.227514 286.359619 
L 481.444969 285.260193 
L 484.691514 281.803989 
L 486.314787 280.154639 
L 487.532241 279.183292 
L 488.343878 278.732874 
L 489.155514 278.484129 
L 489.967151 278.474732 
L 490.778787 278.742357 
L 491.590423 279.324679 
L 492.40206 280.259374 
L 492.40206 280.259374 
" clip-path="url(#pd873ae1330)" style="fill: none; stroke: #c00000; stroke-width: 1.8; stroke-linecap: square"/>
   </g>
   <g id="line2d_30">
    <path d="M 439.645696 299.518125 
L 439.645696 22.318125 
" clip-path="url(#pd873ae1330)" style="fill: none; stroke-dasharray: 1.5,2.475; stroke-dashoffset: 0; stroke: #808080; stroke-width: 1.5"/>
   </g>
   <g id="patch_3">
    <path d="M 66.292969 299.518125 
L 66.292969 22.318125 
" style="fill: none; stroke: #000000; stroke-width: 0.8; stroke-linejoin: miter; stroke-linecap: square"/>
   </g>
   <g id="patch_4">
    <path d="M 512.692969 299.518125 
L 512.692969 22.318125 
" style="fill: none; stroke: #000000; stroke-width: 0.8; stroke-linejoin: miter; stroke-linecap: square"/>
   </g>
   <g id="patch_5">
    <path d="M 66.292969 299.518125 
L 512.692969 299.518125 
" style="fill: none; stroke: #000000; stroke-width: 0.8; stroke-linejoin: miter; stroke-linecap: square"/>
   </g>
   <g id="patch_6">
    <path d="M 66.292969 22.318125 
L 512.692969 22.318125 
" style="fill: none; stroke: #000000; stroke-width: 0.8; stroke-linejoin: miter; stroke-linecap: square"/>
   </g>
   <g id="text_16">
    <!-- Fig. 2e - interband SHG susceptibility (SavGol-smoothed) -->
    <g transform="translate(118.507969 16.318125) scale(0.12 -0.12)">
     <defs>
      <path id="DejaVuSans-29" d="M 628 4666 
L 3309 4666 
L 3309 4134 
L 1259 4134 
L 1259 2759 
L 3109 2759 
L 3109 2228 
L 1259 2228 
L 1259 0 
L 628 0 
L 628 4666 
z
" transform="scale(0.015625)"/>
      <path id="DejaVuSans-4c" d="M 603 3500 
L 1178 3500 
L 1178 0 
L 603 0 
L 603 3500 
z
M 603 4863 
L 1178 4863 
L 1178 4134 
L 603 4134 
L 603 4863 
z
" transform="scale(0.015625)"/>
      <path id="DejaVuSans-10" d="M 313 2009 
L 1997 2009 
L 1997 1497 
L 313 1497 
L 313 2009 
z
" transform="scale(0.015625)"/>
      <path id="DejaVuSans-55" d="M 2631 2963 
Q 2534 3019 2420 3045 
Q 2306 3072 2169 3072 
Q 1681 3072 1420 2755 
Q 1159 2438 1159 1844 
L 1159 0 
L 581 0 
L 581 3500 
L 1159 3500 
L 1159 2956 
Q 1341 3275 1631 3429 
Q 1922 3584 2338 3584 
Q 2397 3584 2469 3576 
Q 2541 3569 2628 3553 
L 2631 2963 
z
" transform="scale(0.015625)"/>
      <path id="DejaVuSans-45" d="M 3116 1747 
Q 3116 2381 2855 2742 
Q 2594 3103 2138 3103 
Q 1681 3103 1420 2742 
Q 1159 2381 1159 1747 
Q 1159 1113 1420 752 
Q 1681 391 2138 391 
Q 2594 391 2855 752 
Q 3116 1113 3116 1747 
z
M 1159 2969 
Q 1341 3281 1617 3432 
Q 1894 3584 2278 3584 
Q 2916 3584 3314 3078 
Q 3713 2572 3713 1747 
Q 3713 922 3314 415 
Q 2916 -91 2278 -91 
Q 1894 -91 1617 61 
Q 1341 213 1159 525 
L 1159 0 
L 581 0 
L 581 4863 
L 1159 4863 
L 1159 2969 
z
" transform="scale(0.015625)"/>
      <path id="DejaVuSans-47" d="M 2906 2969 
L 2906 4863 
L 3481 4863 
L 3481 0 
L 2906 0 
L 2906 525 
Q 2725 213 2448 61 
Q 2172 -91 1784 -91 
Q 1150 -91 751 415 
Q 353 922 353 1747 
Q 353 2572 751 3078 
Q 1150 3584 1784 3584 
Q 2172 3584 2448 3432 
Q 2725 3281 2906 2969 
z
M 947 1747 
Q 947 1113 1208 752 
Q 1469 391 1925 391 
Q 2381 391 2643 752 
Q 2906 1113 2906 1747 
Q 2906 2381 2643 2742 
Q 2381 3103 1925 3103 
Q 1469 3103 1208 2742 
Q 947 2381 947 1747 
z
" transform="scale(0.015625)"/>
      <path id="DejaVuSans-36" d="M 3425 4513 
L 3425 3897 
Q 3066 4069 2747 4153 
Q 2428 4238 2131 4238 
Q 1616 4238 1336 4038 
Q 1056 3838 1056 3469 
Q 1056 3159 1242 3001 
Q 1428 2844 1947 2747 
L 2328 2669 
Q 3034 2534 3370 2195 
Q 3706 1856 3706 1288 
Q 3706 609 3251 259 
Q 2797 -91 1919 -91 
Q 1588 -91 1214 -16 
Q 841 59 441 206 
L 441 856 
Q 825 641 1194 531 
Q 1563 422 1919 422 
Q 2459 422 2753 634 
Q 3047 847 3047 1241 
Q 3047 1584 2836 1778 
Q 2625 1972 2144 2069 
L 1759 2144 
Q 1053 2284 737 2584 
Q 422 2884 422 3419 
Q 422 4038 858 4394 
Q 1294 4750 2059 4750 
Q 2388 4750 2728 4690 
Q 3069 4631 3425 4513 
z
" transform="scale(0.015625)"/>
      <path id="DejaVuSans-2b" d="M 628 4666 
L 1259 4666 
L 1259 2753 
L 3553 2753 
L 3553 4666 
L 4184 4666 
L 4184 0 
L 3553 0 
L 3553 2222 
L 1259 2222 
L 1259 0 
L 628 0 
L 628 4666 
z
" transform="scale(0.015625)"/>
      <path id="DejaVuSans-2a" d="M 3809 666 
L 3809 1919 
L 2778 1919 
L 2778 2438 
L 4434 2438 
L 4434 434 
Q 4069 175 3628 42 
Q 3188 -91 2688 -91 
Q 1594 -91 976 548 
Q 359 1188 359 2328 
Q 359 3472 976 4111 
Q 1594 4750 2688 4750 
Q 3144 4750 3555 4637 
Q 3966 4525 4313 4306 
L 4313 3634 
Q 3963 3931 3569 4081 
Q 3175 4231 2741 4231 
Q 1884 4231 1454 3753 
Q 1025 3275 1025 2328 
Q 1025 1384 1454 906 
Q 1884 428 2741 428 
Q 3075 428 3337 486 
Q 3600 544 3809 666 
z
" transform="scale(0.015625)"/>
      <path id="DejaVuSans-56" d="M 2834 3397 
L 2834 2853 
Q 2591 2978 2328 3040 
Q 2066 3103 1784 3103 
Q 1356 3103 1142 2972 
Q 928 2841 928 2578 
Q 928 2378 1081 2264 
Q 1234 2150 1697 2047 
L 1894 2003 
Q 2506 1872 2764 1633 
Q 3022 1394 3022 966 
Q 3022 478 2636 193 
Q 2250 -91 1575 -91 
Q 1294 -91 989 -36 
Q 684 19 347 128 
L 347 722 
Q 666 556 975 473 
Q 1284 391 1588 391 
Q 1994 391 2212 530 
Q 2431 669 2431 922 
Q 2431 1156 2273 1281 
Q 2116 1406 1581 1522 
L 1381 1569 
Q 847 1681 609 1914 
Q 372 2147 372 2553 
Q 372 3047 722 3315 
Q 1072 3584 1716 3584 
Q 2034 3584 2315 3537 
Q 2597 3491 2834 3397 
z
" transform="scale(0.015625)"/>
      <path id="DejaVuSans-46" d="M 3122 3366 
L 3122 2828 
Q 2878 2963 2633 3030 
Q 2388 3097 2138 3097 
Q 1578 3097 1268 2742 
Q 959 2388 959 1747 
Q 959 1106 1268 751 
Q 1578 397 2138 397 
Q 2388 397 2633 464 
Q 2878 531 3122 666 
L 3122 134 
Q 2881 22 2623 -34 
Q 2366 -91 2075 -91 
Q 1284 -91 818 406 
Q 353 903 353 1747 
Q 353 2603 823 3093 
Q 1294 3584 2113 3584 
Q 2378 3584 2631 3529 
Q 2884 3475 3122 3366 
z
" transform="scale(0.015625)"/>
      <path id="DejaVuSans-5c" d="M 2059 -325 
Q 1816 -950 1584 -1140 
Q 1353 -1331 966 -1331 
L 506 -1331 
L 506 -850 
L 844 -850 
Q 1081 -850 1212 -737 
Q 1344 -625 1503 -206 
L 1606 56 
L 191 3500 
L 800 3500 
L 1894 763 
L 2988 3500 
L 3597 3500 
L 2059 -325 
z
" transform="scale(0.015625)"/>
      <path id="DejaVuSans-52" d="M 1959 3097 
Q 1497 3097 1228 2736 
Q 959 2375 959 1747 
Q 959 1119 1226 758 
Q 1494 397 1959 397 
Q 2419 397 2687 759 
Q 2956 1122 2956 1747 
Q 2956 2369 2687 2733 
Q 2419 3097 1959 3097 
z
M 1959 3584 
Q 2709 3584 3137 3096 
Q 3566 2609 3566 1747 
Q 3566 888 3137 398 
Q 2709 -91 1959 -91 
Q 1206 -91 779 398 
Q 353 888 353 1747 
Q 353 2609 779 3096 
Q 1206 3584 1959 3584 
z
" transform="scale(0.015625)"/>
     </defs>
     <use xlink:href="#DejaVuSans-29"/>
     <use xlink:href="#DejaVuSans-4c" transform="translate(50.234375 0)"/>
     <use xlink:href="#DejaVuSans-4a" transform="translate(78.015625 0)"/>
     <use xlink:href="#DejaVuSans-11" transform="translate(141.5 0)"/>
     <use xlink:href="#DejaVuSans-3" transform="translate(173.28125 0)"/>
     <use xlink:href="#DejaVuSans-15" transform="translate(205.0625 0)"/>
     <use xlink:href="#DejaVuSans-48" transform="translate(268.6875 0)"/>
     <use xlink:href="#DejaVuSans-3" transform="translate(330.21875 0)"/>
     <use xlink:href="#DejaVuSans-10" transform="translate(362 0)"/>
     <use xlink:href="#DejaVuSans-3" transform="translate(398.078125 0)"/>
     <use xlink:href="#DejaVuSans-4c" transform="translate(429.859375 0)"/>
     <use xlink:href="#DejaVuSans-51" transform="translate(457.640625 0)"/>
     <use xlink:href="#DejaVuSans-57" transform="translate(521.015625 0)"/>
     <use xlink:href="#DejaVuSans-48" transform="translate(560.21875 0)"/>
     <use xlink:href="#DejaVuSans-55" transform="translate(621.75 0)"/>
     <use xlink:href="#DejaVuSans-45" transform="translate(662.859375 0)"/>
     <use xlink:href="#DejaVuSans-44" transform="translate(726.34375 0)"/>
     <use xlink:href="#DejaVuSans-51" transform="translate(787.625 0)"/>
     <use xlink:href="#DejaVuSans-47" transform="translate(851 0)"/>
     <use xlink:href="#DejaVuSans-3" transform="translate(914.484375 0)"/>
     <use xlink:href="#DejaVuSans-36" transform="translate(946.265625 0)"/>
     <use xlink:href="#DejaVuSans-2b" transform="translate(1009.75 0)"/>
     <use xlink:href="#DejaVuSans-2a" transform="translate(1084.953125 0)"/>
     <use xlink:href="#DejaVuSans-3" transform="translate(1162.4375 0)"/>
     <use xlink:href="#DejaVuSans-56" transform="translate(1194.21875 0)"/>
     <use xlink:href="#DejaVuSans-58" transform="translate(1246.3125 0)"/>
     <use xlink:href="#DejaVuSans-56" transform="translate(1309.6875 0)"/>
     <use xlink:href="#DejaVuSans-46" transform="translate(1361.78125 0)"/>
     <use xlink:href="#DejaVuSans-48" transform="translate(1416.765625 0)"/>
     <use xlink:href="#DejaVuSans-53" transform="translate(1478.296875 0)"/>
     <use xlink:href="#DejaVuSans-57" transform="translate(1541.78125 0)"/>
     <use xlink:href="#DejaVuSans-4c" transform="translate(1580.984375 0)"/>
     <use xlink:href="#DejaVuSans-45" transform="translate(1608.765625 0)"/>
     <use xlink:href="#DejaVuSans-4c" transform="translate(1672.25 0)"/>
     <use xlink:href="#DejaVuSans-4f" transform="translate(1700.03125 0)"/>
     <use xlink:href="#DejaVuSans-4c" transform="translate(1727.8125 0)"/>
     <use xlink:href="#DejaVuSans-57" transform="translate(1755.59375 0)"/>
     <use xlink:href="#DejaVuSans-5c" transform="translate(1794.796875 0)"/>
     <use xlink:href="#DejaVuSans-3" transform="translate(1853.984375 0)"/>
     <use xlink:href="#DejaVuSans-b" transform="translate(1885.765625 0)"/>
     <use xlink:href="#DejaVuSans-36" transform="translate(1924.78125 0)"/>
     <use xlink:href="#DejaVuSans-44" transform="translate(1988.265625 0)"/>
     <use xlink:href="#DejaVuSans-59" transform="translate(2049.546875 0)"/>
     <use xlink:href="#DejaVuSans-2a" transform="translate(2108.734375 0)"/>
     <use xlink:href="#DejaVuSans-52" transform="translate(2186.21875 0)"/>
     <use xlink:href="#DejaVuSans-4f" transform="translate(2247.40625 0)"/>
     <use xlink:href="#DejaVuSans-10" transform="translate(2275.1875 0)"/>
     <use xlink:href="#DejaVuSans-56" transform="translate(2311.265625 0)"/>
     <use xlink:href="#DejaVuSans-50" transform="translate(2363.359375 0)"/>
     <use xlink:href="#DejaVuSans-52" transform="translate(2460.765625 0)"/>
     <use xlink:href="#DejaVuSans-52" transform="translate(2521.953125 0)"/>
     <use xlink:href="#DejaVuSans-57" transform="translate(2583.140625 0)"/>
     <use xlink:href="#DejaVuSans-4b" transform="translate(2622.34375 0)"/>
     <use xlink:href="#DejaVuSans-48" transform="translate(2685.71875 0)"/>
     <use xlink:href="#DejaVuSans-47" transform="translate(2747.25 0)"/>
     <use xlink:href="#DejaVuSans-c" transform="translate(2810.734375 0)"/>
    </g>
   </g>
   <g id="legend_1">
    <g id="patch_7">
     <path d="M 71.892969 76.720625 
L 182.605469 76.720625 
Q 184.205469 76.720625 184.205469 75.120625 
L 184.205469 27.918125 
Q 184.205469 26.318125 182.605469 26.318125 
L 71.892969 26.318125 
Q 70.292969 26.318125 70.292969 27.918125 
L 70.292969 75.120625 
Q 70.292969 76.720625 71.892969 76.720625 
z
" style="fill: #ffffff; opacity: 0.8; stroke: #cccccc; stroke-linejoin: miter"/>
    </g>
    <g id="line2d_31">
     <path d="M 73.492969 32.796875 
L 81.492969 32.796875 
L 89.492969 32.796875 
" style="fill: none; stroke: #1f4e79; stroke-width: 1.8; stroke-linecap: square"/>
    </g>
    <g id="text_17">
     <!-- aestimo_ideal -->
     <g transform="translate(95.892969 35.596875) scale(0.08 -0.08)">
      <defs>
       <path id="DejaVuSans-42" d="M 3263 -1063 
L 3263 -1509 
L -63 -1509 
L -63 -1063 
L 3263 -1063 
z
" transform="scale(0.015625)"/>
      </defs>
      <use xlink:href="#DejaVuSans-44"/>
      <use xlink:href="#DejaVuSans-48" transform="translate(61.28125 0)"/>
      <use xlink:href="#DejaVuSans-56" transform="translate(122.8125 0)"/>
      <use xlink:href="#DejaVuSans-57" transform="translate(174.90625 0)"/>
      <use xlink:href="#DejaVuSans-4c" transform="translate(214.109375 0)"/>
      <use xlink:href="#DejaVuSans-50" transform="translate(241.890625 0)"/>
      <use xlink:href="#DejaVuSans-52" transform="translate(339.296875 0)"/>
      <use xlink:href="#DejaVuSans-42" transform="translate(400.484375 0)"/>
      <use xlink:href="#DejaVuSans-4c" transform="translate(450.484375 0)"/>
      <use xlink:href="#DejaVuSans-47" transform="translate(478.265625 0)"/>
      <use xlink:href="#DejaVuSans-48" transform="translate(541.75 0)"/>
      <use xlink:href="#DejaVuSans-44" transform="translate(603.28125 0)"/>
      <use xlink:href="#DejaVuSans-4f" transform="translate(664.5625 0)"/>
     </g>
    </g>
    <g id="line2d_32">
     <path d="M 73.492969 44.7975 
L 81.492969 44.7975 
L 89.492969 44.7975 
" style="fill: none; stroke: #2e9e2e; stroke-width: 1.8; stroke-linecap: square"/>
    </g>
    <g id="text_18">
     <!-- aestimo_graded -->
     <g transform="translate(95.892969 47.5975) scale(0.08 -0.08)">
      <use xlink:href="#DejaVuSans-44"/>
      <use xlink:href="#DejaVuSans-48" transform="translate(61.28125 0)"/>
      <use xlink:href="#DejaVuSans-56" transform="translate(122.8125 0)"/>
      <use xlink:href="#DejaVuSans-57" transform="translate(174.90625 0)"/>
      <use xlink:href="#DejaVuSans-4c" transform="translate(214.109375 0)"/>
      <use xlink:href="#DejaVuSans-50" transform="translate(241.890625 0)"/>
      <use xlink:href="#DejaVuSans-52" transform="translate(339.296875 0)"/>
      <use xlink:href="#DejaVuSans-42" transform="translate(400.484375 0)"/>
      <use xlink:href="#DejaVuSans-4a" transform="translate(450.484375 0)"/>
      <use xlink:href="#DejaVuSans-55" transform="translate(513.96875 0)"/>
      <use xlink:href="#DejaVuSans-44" transform="translate(555.078125 0)"/>
      <use xlink:href="#DejaVuSans-47" transform="translate(616.359375 0)"/>
      <use xlink:href="#DejaVuSans-48" transform="translate(679.84375 0)"/>
      <use xlink:href="#DejaVuSans-47" transform="translate(741.375 0)"/>
     </g>
    </g>
    <g id="line2d_33">
     <path d="M 73.492969 56.798125 
L 81.492969 56.798125 
L 89.492969 56.798125 
" style="fill: none; stroke: #c00000; stroke-width: 1.8; stroke-linecap: square"/>
    </g>
    <g id="text_19">
     <!-- kdotpy_graded -->
     <g transform="translate(95.892969 59.598125) scale(0.08 -0.08)">
      <defs>
       <path id="DejaVuSans-4e" d="M 581 4863 
L 1159 4863 
L 1159 1991 
L 2875 3500 
L 3609 3500 
L 1753 1863 
L 3688 0 
L 2938 0 
L 1159 1709 
L 1159 0 
L 581 0 
L 581 4863 
z
" transform="scale(0.015625)"/>
      </defs>
      <use xlink:href="#DejaVuSans-4e"/>
      <use xlink:href="#DejaVuSans-47" transform="translate(57.90625 0)"/>
      <use xlink:href="#DejaVuSans-52" transform="translate(121.390625 0)"/>
      <use xlink:href="#DejaVuSans-57" transform="translate(182.578125 0)"/>
      <use xlink:href="#DejaVuSans-53" transform="translate(221.78125 0)"/>
      <use xlink:href="#DejaVuSans-5c" transform="translate(285.265625 0)"/>
      <use xlink:href="#DejaVuSans-42" transform="translate(344.453125 0)"/>
      <use xlink:href="#DejaVuSans-4a" transform="translate(394.453125 0)"/>
      <use xlink:href="#DejaVuSans-55" transform="translate(457.9375 0)"/>
      <use xlink:href="#DejaVuSans-44" transform="translate(499.046875 0)"/>
      <use xlink:href="#DejaVuSans-47" transform="translate(560.328125 0)"/>
      <use xlink:href="#DejaVuSans-48" transform="translate(623.8125 0)"/>
      <use xlink:href="#DejaVuSans-47" transform="translate(685.34375 0)"/>
     </g>
    </g>
    <g id="line2d_34">
     <path d="M 73.492969 68.79875 
L 81.492969 68.79875 
L 89.492969 68.79875 
" style="fill: none; stroke-dasharray: 1.5,2.475; stroke-dashoffset: 0; stroke: #808080; stroke-width: 1.5"/>
    </g>
    <g id="text_20">
     <!-- 1.57 um operating pt -->
     <g transform="translate(95.892969 71.59875) scale(0.08 -0.08)">
      <use xlink:href="#DejaVuSans-14"/>
      <use xlink:href="#DejaVuSans-11" transform="translate(63.625 0)"/>
      <use xlink:href="#DejaVuSans-18" transform="translate(95.40625 0)"/>
      <use xlink:href="#DejaVuSans-1a" transform="translate(159.03125 0)"/>
      <use xlink:href="#DejaVuSans-3" transform="translate(222.65625 0)"/>
      <use xlink:href="#DejaVuSans-58" transform="translate(254.4375 0)"/>
      <use xlink:href="#DejaVuSans-50" transform="translate(317.8125 0)"/>
      <use xlink:href="#DejaVuSans-3" transform="translate(415.21875 0)"/>
      <use xlink:href="#DejaVuSans-52" transform="translate(447 0)"/>
      <use xlink:href="#DejaVuSans-53" transform="translate(508.1875 0)"/>
      <use xlink:href="#DejaVuSans-48" transform="translate(571.671875 0)"/>
      <use xlink:href="#DejaVuSans-55" transform="translate(633.203125 0)"/>
      <use xlink:href="#DejaVuSans-44" transform="translate(674.3125 0)"/>
      <use xlink:href="#DejaVuSans-57" transform="translate(735.59375 0)"/>
      <use xlink:href="#DejaVuSans-4c" transform="translate(774.796875 0)"/>
      <use xlink:href="#DejaVuSans-51" transform="translate(802.578125 0)"/>
      <use xlink:href="#DejaVuSans-4a" transform="translate(865.953125 0)"/>
      <use xlink:href="#DejaVuSans-3" transform="translate(929.4375 0)"/>
      <use xlink:href="#DejaVuSans-53" transform="translate(961.21875 0)"/>
      <use xlink:href="#DejaVuSans-57" transform="translate(1024.703125 0)"/>
     </g>
    </g>
   </g>
  </g>
 </g>
 <defs>
  <clipPath id="pd873ae1330">
   <rect x="66.292969" y="22.318125" width="446.4" height="277.2"/>
  </clipPath>
 </defs>
</svg>
