<?xml version="1.0" encoding="utf-8" standalone="no"?>
<!DOCTYPE svg PUBLIC "-//W3C//DTD SVG 1.1//EN"
  "http://www.w3.org/Graphics/SVG/1.1/DTD/svg11.dtd">
<svg xmlns:xlink="http://www.w3.org/1999/xlink" width="500.805469pt" height="337.718906pt" viewBox="0 0 500.805469 337.718906" xmlns="http://www.w3.org/2000/svg" version="1.1">
 <metadata>
  <rdf:RDF xmlns:dc="http://purl.org/dc/elements/1.1/" xmlns:cc="http://creativecommons.org/ns#" xmlns:rdf="http://www.w3.org/1999/02/22-rdf-syntax-ns#">
   <cc:Work>
    <dc:type rdf:resource="http://purl.org/dc/dcmitype/StillImage"/>
    <dc:date>2026-07-17T19:00:34.215485</dc:date>
    <dc:format>image/svg+xml</dc:format>
    <dc:creator>
     <cc:Agent>
      <dc:title>Matplotlib v3.11.0, https://matplotlib.org/</dc:title>
     </cc:Agent>
    </dc:creator>
   </cc:Work>
  </rdf:RDF>
 </metadata>
 <defs>
  <style type="text/css">*{stroke-linejoin: round; stroke-linecap: butt}</style>
 </defs>
 <g id="figure_1">
  <g id="patch_1">
   <path d="M 0 337.718906 
L 500.805469 337.718906 
L 500.805469 0 
L 0 0 
z
" style="fill: #ffffff"/>
  </g>
  <g id="axes_1">
   <g id="patch_2">
    <path d="M 47.205469 299.518125 
L 493.605469 299.518125 
L 493.605469 22.318125 
L 47.205469 22.318125 
z
" style="fill: #ffffff"/>
   </g>
   <g id="matplotlib.axis_1">
    <g id="xtick_1">
     <g id="line2d_1">
      <path d="M 108.078196 299.518125 
L 108.078196 22.318125 
" clip-path="url(#p76beccc829)" style="fill: none; stroke: #b0b0b0; stroke-opacity: 0.25; stroke-width: 0.8; stroke-linecap: square"/>
     </g>
     <g id="line2d_2">
      <defs>
       <path id="m1affb83457" d="M 0 0 
L 0 3.5 
" style="stroke: #000000; stroke-width: 0.8"/>
      </defs>
      <g>
       <use xlink:href="#m1affb83457" x="108.078196" y="299.518125" style="stroke: #000000; stroke-width: 0.8"/>
      </g>
     </g>
     <g id="text_1">
      <!-- 800 -->
      <g transform="translate(98.534446 314.115781) scale(0.1 -0.1)">
       <defs>
        <path id="DejaVuSans-1b" d="M 2034 2216 
Q 1584 2216 1326 1975 
Q 1069 1734 1069 1313 
Q 1069 891 1326 650 
Q 1584 409 2034 409 
Q 2484 409 2743 651 
Q 3003 894 3003 1313 
Q 3003 1734 2745 1975 
Q 2488 2216 2034 2216 
z
M 1403 2484 
Q 997 2584 770 2862 
Q 544 3141 544 3541 
Q 544 4100 942 4425 
Q 1341 4750 2034 4750 
Q 2731 4750 3128 4425 
Q 3525 4100 3525 3541 
Q 3525 3141 3298 2862 
Q 3072 2584 2669 2484 
Q 3125 2378 3379 2068 
Q 3634 1759 3634 1313 
Q 3634 634 3220 271 
Q 2806 -91 2034 -91 
Q 1263 -91 848 271 
Q 434 634 434 1313 
Q 434 1759 690 2068 
Q 947 2378 1403 2484 
z
M 1172 3481 
Q 1172 3119 1398 2916 
Q 1625 2713 2034 2713 
Q 2441 2713 2670 2916 
Q 2900 3119 2900 3481 
Q 2900 3844 2670 4047 
Q 2441 4250 2034 4250 
Q 1625 4250 1398 4047 
Q 1172 3844 1172 3481 
z
" transform="scale(0.015625)"/>
        <path id="DejaVuSans-13" d="M 2034 4250 
Q 1547 4250 1301 3770 
Q 1056 3291 1056 2328 
Q 1056 1369 1301 889 
Q 1547 409 2034 409 
Q 2525 409 2770 889 
Q 3016 1369 3016 2328 
Q 3016 3291 2770 3770 
Q 2525 4250 2034 4250 
z
M 2034 4750 
Q 2819 4750 3233 4129 
Q 3647 3509 3647 2328 
Q 3647 1150 3233 529 
Q 2819 -91 2034 -91 
Q 1250 -91 836 529 
Q 422 1150 422 2328 
Q 422 3509 836 4129 
Q 1250 4750 2034 4750 
z
" transform="scale(0.015625)"/>
       </defs>
       <use xlink:href="#DejaVuSans-1b"/>
       <use xlink:href="#DejaVuSans-13" transform="translate(63.625 0)"/>
       <use xlink:href="#DejaVuSans-13" transform="translate(127.25 0)"/>
      </g>
     </g>
    </g>
    <g id="xtick_2">
     <g id="line2d_3">
      <path d="M 189.241832 299.518125 
L 189.241832 22.318125 
" clip-path="url(#p76beccc829)" style="fill: none; stroke: #b0b0b0; stroke-opacity: 0.25; stroke-width: 0.8; stroke-linecap: square"/>
     </g>
     <g id="line2d_4">
      <g>
       <use xlink:href="#m1affb83457" x="189.241832" y="299.518125" style="stroke: #000000; stroke-width: 0.8"/>
      </g>
     </g>
     <g id="text_2">
      <!-- 1000 -->
      <g transform="translate(176.516832 314.115781) scale(0.1 -0.1)">
       <defs>
        <path id="DejaVuSans-14" d="M 794 531 
L 1825 531 
L 1825 4091 
L 703 3866 
L 703 4441 
L 1819 4666 
L 2450 4666 
L 2450 531 
L 3481 531 
L 3481 0 
L 794 0 
L 794 531 
z
" transform="scale(0.015625)"/>
       </defs>
       <use xlink:href="#DejaVuSans-14"/>
       <use xlink:href="#DejaVuSans-13" transform="translate(63.625 0)"/>
       <use xlink:href="#DejaVuSans-13" transform="translate(127.25 0)"/>
       <use xlink:href="#DejaVuSans-13" transform="translate(190.875 0)"/>
      </g>
     </g>
    </g>
    <g id="xtick_3">
     <g id="line2d_5">
      <path d="M 270.405469 299.518125 
L 270.405469 22.318125 
" clip-path="url(#p76beccc829)" style="fill: none; stroke: #b0b0b0; stroke-opacity: 0.25; stroke-width: 0.8; stroke-linecap: square"/>
     </g>
     <g id="line2d_6">
      <g>
       <use xlink:href="#m1affb83457" x="270.405469" y="299.518125" style="stroke: #000000; stroke-width: 0.8"/>
      </g>
     </g>
     <g id="text_3">
      <!-- 1200 -->
      <g transform="translate(257.680469 314.115781) scale(0.1 -0.1)">
       <defs>
        <path id="DejaVuSans-15" d="M 1228 531 
L 3431 531 
L 3431 0 
L 469 0 
L 469 531 
Q 828 903 1448 1529 
Q 2069 2156 2228 2338 
Q 2531 2678 2651 2914 
Q 2772 3150 2772 3378 
Q 2772 3750 2511 3984 
Q 2250 4219 1831 4219 
Q 1534 4219 1204 4116 
Q 875 4013 500 3803 
L 500 4441 
Q 881 4594 1212 4672 
Q 1544 4750 1819 4750 
Q 2544 4750 2975 4387 
Q 3406 4025 3406 3419 
Q 3406 3131 3298 2873 
Q 3191 2616 2906 2266 
Q 2828 2175 2409 1742 
Q 1991 1309 1228 531 
z
" transform="scale(0.015625)"/>
       </defs>
       <use xlink:href="#DejaVuSans-14"/>
       <use xlink:href="#DejaVuSans-15" transform="translate(63.625 0)"/>
       <use xlink:href="#DejaVuSans-13" transform="translate(127.25 0)"/>
       <use xlink:href="#DejaVuSans-13" transform="translate(190.875 0)"/>
      </g>
     </g>
    </g>
    <g id="xtick_4">
     <g id="line2d_7">
      <path d="M 351.569105 299.518125 
L 351.569105 22.318125 
" clip-path="url(#p76beccc829)" style="fill: none; stroke: #b0b0b0; stroke-opacity: 0.25; stroke-width: 0.8; stroke-linecap: square"/>
     </g>
     <g id="line2d_8">
      <g>
       <use xlink:href="#m1affb83457" x="351.569105" y="299.518125" style="stroke: #000000; stroke-width: 0.8"/>
      </g>
     </g>
     <g id="text_4">
      <!-- 1400 -->
      <g transform="translate(338.844105 314.115781) scale(0.1 -0.1)">
       <defs>
        <path id="DejaVuSans-17" d="M 2419 4116 
L 825 1625 
L 2419 1625 
L 2419 4116 
z
M 2253 4666 
L 3047 4666 
L 3047 1625 
L 3713 1625 
L 3713 1100 
L 3047 1100 
L 3047 0 
L 2419 0 
L 2419 1100 
L 313 1100 
L 313 1709 
L 2253 4666 
z
" transform="scale(0.015625)"/>
       </defs>
       <use xlink:href="#DejaVuSans-14"/>
       <use xlink:href="#DejaVuSans-17" transform="translate(63.625 0)"/>
       <use xlink:href="#DejaVuSans-13" transform="translate(127.25 0)"/>
       <use xlink:href="#DejaVuSans-13" transform="translate(190.875 0)"/>
      </g>
     </g>
    </g>
    <g id="xtick_5">
     <g id="line2d_9">
      <path d="M 432.732741 299.518125 
L 432.732741 22.318125 
" clip-path="url(#p76beccc829)" style="fill: none; stroke: #b0b0b0; stroke-opacity: 0.25; stroke-width: 0.8; stroke-linecap: square"/>
     </g>
     <g id="line2d_10">
      <g>
       <use xlink:href="#m1affb83457" x="432.732741" y="299.518125" style="stroke: #000000; stroke-width: 0.8"/>
      </g>
     </g>
     <g id="text_5">
      <!-- 1600 -->
      <g transform="translate(420.007741 314.115781) scale(0.1 -0.1)">
       <defs>
        <path id="DejaVuSans-19" d="M 2113 2584 
Q 1688 2584 1439 2293 
Q 1191 2003 1191 1497 
Q 1191 994 1439 701 
Q 1688 409 2113 409 
Q 2538 409 2786 701 
Q 3034 994 3034 1497 
Q 3034 2003 2786 2293 
Q 2538 2584 2113 2584 
z
M 3366 4563 
L 3366 3988 
Q 3128 4100 2886 4159 
Q 2644 4219 2406 4219 
Q 1781 4219 1451 3797 
Q 1122 3375 1075 2522 
Q 1259 2794 1537 2939 
Q 1816 3084 2150 3084 
Q 2853 3084 3261 2657 
Q 3669 2231 3669 1497 
Q 3669 778 3244 343 
Q 2819 -91 2113 -91 
Q 1303 -91 875 529 
Q 447 1150 447 2328 
Q 447 3434 972 4092 
Q 1497 4750 2381 4750 
Q 2619 4750 2861 4703 
Q 3103 4656 3366 4563 
z
" transform="scale(0.015625)"/>
       </defs>
       <use xlink:href="#DejaVuSans-14"/>
       <use xlink:href="#DejaVuSans-19" transform="translate(63.625 0)"/>
       <use xlink:href="#DejaVuSans-13" transform="translate(127.25 0)"/>
       <use xlink:href="#DejaVuSans-13" transform="translate(190.875 0)"/>
      </g>
     </g>
    </g>
    <g id="text_6">
     <!-- Pump wavelength (nm) -->
     <g transform="translate(212.019531 328.116563) scale(0.1 -0.1)">
      <defs>
       <path id="DejaVuSans-33" d="M 1259 4147 
L 1259 2394 
L 2053 2394 
Q 2494 2394 2734 2622 
Q 2975 2850 2975 3272 
Q 2975 3691 2734 3919 
Q 2494 4147 2053 4147 
L 1259 4147 
z
M 628 4666 
L 2053 4666 
Q 2838 4666 3239 4311 
Q 3641 3956 3641 3272 
Q 3641 2581 3239 2228 
Q 2838 1875 2053 1875 
L 1259 1875 
L 1259 0 
L 628 0 
L 628 4666 
z
" transform="scale(0.015625)"/>
       <path id="DejaVuSans-58" d="M 544 1381 
L 544 3500 
L 1119 3500 
L 1119 1403 
Q 1119 906 1312 657 
Q 1506 409 1894 409 
Q 2359 409 2629 706 
Q 2900 1003 2900 1516 
L 2900 3500 
L 3475 3500 
L 3475 0 
L 2900 0 
L 2900 538 
Q 2691 219 2414 64 
Q 2138 -91 1772 -91 
Q 1169 -91 856 284 
Q 544 659 544 1381 
z
M 1991 3584 
L 1991 3584 
z
" transform="scale(0.015625)"/>
       <path id="DejaVuSans-50" d="M 3328 2828 
Q 3544 3216 3844 3400 
Q 4144 3584 4550 3584 
Q 5097 3584 5394 3201 
Q 5691 2819 5691 2113 
L 5691 0 
L 5113 0 
L 5113 2094 
Q 5113 2597 4934 2840 
Q 4756 3084 4391 3084 
Q 3944 3084 3684 2787 
Q 3425 2491 3425 1978 
L 3425 0 
L 2847 0 
L 2847 2094 
Q 2847 2600 2669 2842 
Q 2491 3084 2119 3084 
Q 1678 3084 1418 2786 
Q 1159 2488 1159 1978 
L 1159 0 
L 581 0 
L 581 3500 
L 1159 3500 
L 1159 2956 
Q 1356 3278 1631 3431 
Q 1906 3584 2284 3584 
Q 2666 3584 2933 3390 
Q 3200 3197 3328 2828 
z
" transform="scale(0.015625)"/>
       <path id="DejaVuSans-53" d="M 1159 525 
L 1159 -1331 
L 581 -1331 
L 581 3500 
L 1159 3500 
L 1159 2969 
Q 1341 3281 1617 3432 
Q 1894 3584 2278 3584 
Q 2916 3584 3314 3078 
Q 3713 2572 3713 1747 
Q 3713 922 3314 415 
Q 2916 -91 2278 -91 
Q 1894 -91 1617 61 
Q 1341 213 1159 525 
z
M 3116 1747 
Q 3116 2381 2855 2742 
Q 2594 3103 2138 3103 
Q 1681 3103 1420 2742 
Q 1159 2381 1159 1747 
Q 1159 1113 1420 752 
Q 1681 391 2138 391 
Q 2594 391 2855 752 
Q 3116 1113 3116 1747 
z
" transform="scale(0.015625)"/>
       <path id="DejaVuSans-3" transform="scale(0.015625)"/>
       <path id="DejaVuSans-5a" d="M 269 3500 
L 844 3500 
L 1563 769 
L 2278 3500 
L 2956 3500 
L 3675 769 
L 4391 3500 
L 4966 3500 
L 4050 0 
L 3372 0 
L 2619 2869 
L 1863 0 
L 1184 0 
L 269 3500 
z
" transform="scale(0.015625)"/>
       <path id="DejaVuSans-44" d="M 2194 1759 
Q 1497 1759 1228 1600 
Q 959 1441 959 1056 
Q 959 750 1161 570 
Q 1363 391 1709 391 
Q 2188 391 2477 730 
Q 2766 1069 2766 1631 
L 2766 1759 
L 2194 1759 
z
M 3341 1997 
L 3341 0 
L 2766 0 
L 2766 531 
Q 2569 213 2275 61 
Q 1981 -91 1556 -91 
Q 1019 -91 701 211 
Q 384 513 384 1019 
Q 384 1609 779 1909 
Q 1175 2209 1959 2209 
L 2766 2209 
L 2766 2266 
Q 2766 2663 2505 2880 
Q 2244 3097 1772 3097 
Q 1472 3097 1187 3025 
Q 903 2953 641 2809 
L 641 3341 
Q 956 3463 1253 3523 
Q 1550 3584 1831 3584 
Q 2591 3584 2966 3190 
Q 3341 2797 3341 1997 
z
" transform="scale(0.015625)"/>
       <path id="DejaVuSans-59" d="M 191 3500 
L 800 3500 
L 1894 563 
L 2988 3500 
L 3597 3500 
L 2284 0 
L 1503 0 
L 191 3500 
z
" transform="scale(0.015625)"/>
       <path id="DejaVuSans-48" d="M 3597 1894 
L 3597 1613 
L 953 1613 
Q 991 1019 1311 708 
Q 1631 397 2203 397 
Q 2534 397 2845 478 
Q 3156 559 3463 722 
L 3463 178 
Q 3153 47 2828 -22 
Q 2503 -91 2169 -91 
Q 1331 -91 842 396 
Q 353 884 353 1716 
Q 353 2575 817 3079 
Q 1281 3584 2069 3584 
Q 2775 3584 3186 3129 
Q 3597 2675 3597 1894 
z
M 3022 2063 
Q 3016 2534 2758 2815 
Q 2500 3097 2075 3097 
Q 1594 3097 1305 2825 
Q 1016 2553 972 2059 
L 3022 2063 
z
" transform="scale(0.015625)"/>
       <path id="DejaVuSans-4f" d="M 603 4863 
L 1178 4863 
L 1178 0 
L 603 0 
L 603 4863 
z
" transform="scale(0.015625)"/>
       <path id="DejaVuSans-51" d="M 3513 2113 
L 3513 0 
L 2938 0 
L 2938 2094 
Q 2938 2591 2744 2837 
Q 2550 3084 2163 3084 
Q 1697 3084 1428 2787 
Q 1159 2491 1159 1978 
L 1159 0 
L 581 0 
L 581 3500 
L 1159 3500 
L 1159 2956 
Q 1366 3272 1645 3428 
Q 1925 3584 2291 3584 
Q 2894 3584 3203 3211 
Q 3513 2838 3513 2113 
z
" transform="scale(0.015625)"/>
       <path id="DejaVuSans-4a" d="M 2906 1791 
Q 2906 2416 2648 2759 
Q 2391 3103 1925 3103 
Q 1463 3103 1205 2759 
Q 947 2416 947 1791 
Q 947 1169 1205 825 
Q 1463 481 1925 481 
Q 2391 481 2648 825 
Q 2906 1169 2906 1791 
z
M 3481 434 
Q 3481 -459 3084 -895 
Q 2688 -1331 1869 -1331 
Q 1566 -1331 1297 -1286 
Q 1028 -1241 775 -1147 
L 775 -588 
Q 1028 -725 1275 -790 
Q 1522 -856 1778 -856 
Q 2344 -856 2625 -561 
Q 2906 -266 2906 331 
L 2906 616 
Q 2728 306 2450 153 
Q 2172 0 1784 0 
Q 1141 0 747 490 
Q 353 981 353 1791 
Q 353 2603 747 3093 
Q 1141 3584 1784 3584 
Q 2172 3584 2450 3431 
Q 2728 3278 2906 2969 
L 2906 3500 
L 3481 3500 
L 3481 434 
z
" transform="scale(0.015625)"/>
       <path id="DejaVuSans-57" d="M 1172 4494 
L 1172 3500 
L 2356 3500 
L 2356 3053 
L 1172 3053 
L 1172 1153 
Q 1172 725 1289 603 
Q 1406 481 1766 481 
L 2356 481 
L 2356 0 
L 1766 0 
Q 1100 0 847 248 
Q 594 497 594 1153 
L 594 3053 
L 172 3053 
L 172 3500 
L 594 3500 
L 594 4494 
L 1172 4494 
z
" transform="scale(0.015625)"/>
       <path id="DejaVuSans-4b" d="M 3513 2113 
L 3513 0 
L 2938 0 
L 2938 2094 
Q 2938 2591 2744 2837 
Q 2550 3084 2163 3084 
Q 1697 3084 1428 2787 
Q 1159 2491 1159 1978 
L 1159 0 
L 581 0 
L 581 4863 
L 1159 4863 
L 1159 2956 
Q 1366 3272 1645 3428 
Q 1925 3584 2291 3584 
Q 2894 3584 3203 3211 
Q 3513 2838 3513 2113 
z
" transform="scale(0.015625)"/>
       <path id="DejaVuSans-b" d="M 1984 4856 
Q 1566 4138 1362 3434 
Q 1159 2731 1159 2009 
Q 1159 1288 1364 580 
Q 1569 -128 1984 -844 
L 1484 -844 
Q 1016 -109 783 600 
Q 550 1309 550 2009 
Q 550 2706 781 3412 
Q 1013 4119 1484 4856 
L 1984 4856 
z
" transform="scale(0.015625)"/>
       <path id="DejaVuSans-c" d="M 513 4856 
L 1013 4856 
Q 1481 4119 1714 3412 
Q 1947 2706 1947 2009 
Q 1947 1309 1714 600 
Q 1481 -109 1013 -844 
L 513 -844 
Q 928 -128 1133 580 
Q 1338 1288 1338 2009 
Q 1338 2731 1133 3434 
Q 928 4138 513 4856 
z
" transform="scale(0.015625)"/>
      </defs>
      <use xlink:href="#DejaVuSans-33"/>
      <use xlink:href="#DejaVuSans-58" transform="translate(58.546875 0)"/>
      <use xlink:href="#DejaVuSans-50" transform="translate(121.921875 0)"/>
      <use xlink:href="#DejaVuSans-53" transform="translate(219.328125 0)"/>
      <use xlink:href="#DejaVuSans-3" transform="translate(282.8125 0)"/>
      <use xlink:href="#DejaVuSans-5a" transform="translate(314.59375 0)"/>
      <use xlink:href="#DejaVuSans-44" transform="translate(396.375 0)"/>
      <use xlink:href="#DejaVuSans-59" transform="translate(457.65625 0)"/>
      <use xlink:href="#DejaVuSans-48" transform="translate(516.84375 0)"/>
      <use xlink:href="#DejaVuSans-4f" transform="translate(578.375 0)"/>
      <use xlink:href="#DejaVuSans-48" transform="translate(606.15625 0)"/>
      <use xlink:href="#DejaVuSans-51" transform="translate(667.6875 0)"/>
      <use xlink:href="#DejaVuSans-4a" transform="translate(731.0625 0)"/>
      <use xlink:href="#DejaVuSans-57" transform="translate(794.546875 0)"/>
      <use xlink:href="#DejaVuSans-4b" transform="translate(833.75 0)"/>
      <use xlink:href="#DejaVuSans-3" transform="translate(897.125 0)"/>
      <use xlink:href="#DejaVuSans-b" transform="translate(928.90625 0)"/>
      <use xlink:href="#DejaVuSans-51" transform="translate(967.921875 0)"/>
      <use xlink:href="#DejaVuSans-50" transform="translate(1031.296875 0)"/>
      <use xlink:href="#DejaVuSans-c" transform="translate(1128.703125 0)"/>
     </g>
    </g>
   </g>
   <g id="matplotlib.axis_2">
    <g id="ytick_1">
     <g id="line2d_11">
      <path d="M 47.205469 288.363905 
L 493.605469 288.363905 
" clip-path="url(#p76beccc829)" style="fill: none; stroke: #b0b0b0; stroke-opacity: 0.25; stroke-width: 0.8; stroke-linecap: square"/>
     </g>
     <g id="line2d_12">
      <defs>
       <path id="m3655de9c65" d="M 0 0 
L -3.5 0 
" style="stroke: #000000; stroke-width: 0.8"/>
      </defs>
      <g>
       <use xlink:href="#m3655de9c65" x="47.205469" y="288.363905" style="stroke: #000000; stroke-width: 0.8"/>
      </g>
     </g>
     <g id="text_7">
      <!-- 0.0 -->
      <g transform="translate(24.302344 292.162733) scale(0.1 -0.1)">
       <defs>
        <path id="DejaVuSans-11" d="M 684 794 
L 1344 794 
L 1344 0 
L 684 0 
L 684 794 
z
" transform="scale(0.015625)"/>
       </defs>
       <use xlink:href="#DejaVuSans-13"/>
       <use xlink:href="#DejaVuSans-11" transform="translate(63.625 0)"/>
       <use xlink:href="#DejaVuSans-13" transform="translate(95.40625 0)"/>
      </g>
     </g>
    </g>
    <g id="ytick_2">
     <g id="line2d_13">
      <path d="M 47.205469 234.15669 
L 493.605469 234.15669 
" clip-path="url(#p76beccc829)" style="fill: none; stroke: #b0b0b0; stroke-opacity: 0.25; stroke-width: 0.8; stroke-linecap: square"/>
     </g>
     <g id="line2d_14">
      <g>
       <use xlink:href="#m3655de9c65" x="47.205469" y="234.15669" style="stroke: #000000; stroke-width: 0.8"/>
      </g>
     </g>
     <g id="text_8">
      <!-- 0.5 -->
      <g transform="translate(24.302344 237.955518) scale(0.1 -0.1)">
       <defs>
        <path id="DejaVuSans-18" d="M 691 4666 
L 3169 4666 
L 3169 4134 
L 1269 4134 
L 1269 2991 
Q 1406 3038 1543 3061 
Q 1681 3084 1819 3084 
Q 2600 3084 3056 2656 
Q 3513 2228 3513 1497 
Q 3513 744 3044 326 
Q 2575 -91 1722 -91 
Q 1428 -91 1123 -41 
Q 819 9 494 109 
L 494 744 
Q 775 591 1075 516 
Q 1375 441 1709 441 
Q 2250 441 2565 725 
Q 2881 1009 2881 1497 
Q 2881 1984 2565 2268 
Q 2250 2553 1709 2553 
Q 1456 2553 1204 2497 
Q 953 2441 691 2322 
L 691 4666 
z
" transform="scale(0.015625)"/>
       </defs>
       <use xlink:href="#DejaVuSans-13"/>
       <use xlink:href="#DejaVuSans-11" transform="translate(63.625 0)"/>
       <use xlink:href="#DejaVuSans-18" transform="translate(95.40625 0)"/>
      </g>
     </g>
    </g>
    <g id="ytick_3">
     <g id="line2d_15">
      <path d="M 47.205469 179.949476 
L 493.605469 179.949476 
" clip-path="url(#p76beccc829)" style="fill: none; stroke: #b0b0b0; stroke-opacity: 0.25; stroke-width: 0.8; stroke-linecap: square"/>
     </g>
     <g id="line2d_16">
      <g>
       <use xlink:href="#m3655de9c65" x="47.205469" y="179.949476" style="stroke: #000000; stroke-width: 0.8"/>
      </g>
     </g>
     <g id="text_9">
      <!-- 1.0 -->
      <g transform="translate(24.302344 183.748304) scale(0.1 -0.1)">
       <use xlink:href="#DejaVuSans-14"/>
       <use xlink:href="#DejaVuSans-11" transform="translate(63.625 0)"/>
       <use xlink:href="#DejaVuSans-13" transform="translate(95.40625 0)"/>
      </g>
     </g>
    </g>
    <g id="ytick_4">
     <g id="line2d_17">
      <path d="M 47.205469 125.742262 
L 493.605469 125.742262 
" clip-path="url(#p76beccc829)" style="fill: none; stroke: #b0b0b0; stroke-opacity: 0.25; stroke-width: 0.8; stroke-linecap: square"/>
     </g>
     <g id="line2d_18">
      <g>
       <use xlink:href="#m3655de9c65" x="47.205469" y="125.742262" style="stroke: #000000; stroke-width: 0.8"/>
      </g>
     </g>
     <g id="text_10">
      <!-- 1.5 -->
      <g transform="translate(24.302344 129.54109) scale(0.1 -0.1)">
       <use xlink:href="#DejaVuSans-14"/>
       <use xlink:href="#DejaVuSans-11" transform="translate(63.625 0)"/>
       <use xlink:href="#DejaVuSans-18" transform="translate(95.40625 0)"/>
      </g>
     </g>
    </g>
    <g id="ytick_5">
     <g id="line2d_19">
      <path d="M 47.205469 71.535048 
L 493.605469 71.535048 
" clip-path="url(#p76beccc829)" style="fill: none; stroke: #b0b0b0; stroke-opacity: 0.25; stroke-width: 0.8; stroke-linecap: square"/>
     </g>
     <g id="line2d_20">
      <g>
       <use xlink:href="#m3655de9c65" x="47.205469" y="71.535048" style="stroke: #000000; stroke-width: 0.8"/>
      </g>
     </g>
     <g id="text_11">
      <!-- 2.0 -->
      <g transform="translate(24.302344 75.333876) scale(0.1 -0.1)">
       <use xlink:href="#DejaVuSans-15"/>
       <use xlink:href="#DejaVuSans-11" transform="translate(63.625 0)"/>
       <use xlink:href="#DejaVuSans-13" transform="translate(95.40625 0)"/>
      </g>
     </g>
    </g>
    <g id="text_12">
     <!-- $|\chi^{(2)}_{xzx}|$ (nm/V) -->
     <g transform="translate(17.9 192.018125) rotate(-90) scale(0.1 -0.1)">
      <defs>
       <path id="DejaVuSans-5f" d="M 1344 4891 
L 1344 -1509 
L 813 -1509 
L 813 4891 
L 1344 4891 
z
" transform="scale(0.015625)"/>
       <path id="DejaVuSans-Oblique-35b" d="M 1922 -781 
L 1691 416 
L 394 -1334 
L -284 -1334 
L 1553 1141 
L 1269 2613 
Q 1194 3006 713 3006 
L 559 3006 
L 653 3500 
L 872 3494 
Q 1675 3472 1775 2950 
L 2006 1753 
L 3303 3503 
L 3981 3503 
L 2144 1028 
L 2428 -444 
Q 2503 -838 2984 -838 
L 3138 -838 
L 3044 -1331 
L 2825 -1325 
Q 2022 -1303 1922 -781 
z
" transform="scale(0.015625)"/>
       <path id="DejaVuSans-Oblique-5b" d="M 3841 3500 
L 2234 1784 
L 3219 0 
L 2559 0 
L 1819 1388 
L 531 0 
L -166 0 
L 1556 1844 
L 641 3500 
L 1300 3500 
L 1972 2234 
L 3144 3500 
L 3841 3500 
z
" transform="scale(0.015625)"/>
       <path id="DejaVuSans-Oblique-5d" d="M 744 3500 
L 3475 3500 
L 3372 2975 
L 738 459 
L 2913 459 
L 2822 0 
L -19 0 
L 84 525 
L 2719 3041 
L 653 3041 
L 744 3500 
z
" transform="scale(0.015625)"/>
       <path id="DejaVuSans-12" d="M 1625 4666 
L 2156 4666 
L 531 -594 
L 0 -594 
L 1625 4666 
z
" transform="scale(0.015625)"/>
       <path id="DejaVuSans-39" d="M 1831 0 
L 50 4666 
L 709 4666 
L 2188 738 
L 3669 4666 
L 4325 4666 
L 2547 0 
L 1831 0 
z
" transform="scale(0.015625)"/>
      </defs>
      <use xlink:href="#DejaVuSans-5f" transform="translate(0 0.90625)"/>
      <use xlink:href="#DejaVuSans-Oblique-35b" transform="translate(33.691406 0.90625)"/>
      <use xlink:href="#DejaVuSans-b" transform="translate(97.343802 53.8875) scale(0.7)"/>
      <use xlink:href="#DejaVuSans-15" transform="translate(124.653372 53.8875) scale(0.7)"/>
      <use xlink:href="#DejaVuSans-c" transform="translate(169.189505 53.8875) scale(0.7)"/>
      <use xlink:href="#DejaVuSans-Oblique-5b" transform="translate(92.871094 -18.625) scale(0.7)"/>
      <use xlink:href="#DejaVuSans-Oblique-5d" transform="translate(134.296875 -18.625) scale(0.7)"/>
      <use xlink:href="#DejaVuSans-Oblique-5b" transform="translate(171.040039 -18.625) scale(0.7)"/>
      <use xlink:href="#DejaVuSans-5f" transform="translate(215.200195 0.90625)"/>
      <use xlink:href="#DejaVuSans-3" transform="translate(248.891602 0.90625)"/>
      <use xlink:href="#DejaVuSans-b" transform="translate(280.678711 0.90625)"/>
      <use xlink:href="#DejaVuSans-51" transform="translate(319.692383 0.90625)"/>
      <use xlink:href="#DejaVuSans-50" transform="translate(383.071289 0.90625)"/>
      <use xlink:href="#DejaVuSans-12" transform="translate(480.483398 0.90625)"/>
      <use xlink:href="#DejaVuSans-39" transform="translate(514.174805 0.90625)"/>
      <use xlink:href="#DejaVuSans-c" transform="translate(582.583008 0.90625)"/>
     </g>
    </g>
   </g>
   <g id="line2d_21">
    <path d="M 67.496378 285.739566 
L 75.206923 285.416834 
L 78.859287 285.093265 
L 83.323287 284.583599 
L 86.164014 284.518794 
L 89.004741 284.694538 
L 92.657105 285.190918 
L 96.715287 285.739073 
L 101.585105 285.952955 
L 112.136378 286.250411 
L 121.876014 286.386572 
L 138.108741 286.259292 
L 158.399651 285.963474 
L 171.791651 285.567423 
L 180.719651 285.098844 
L 185.183651 284.693547 
L 188.024378 284.048684 
L 192.08256 283.149337 
L 194.517469 282.842574 
L 196.952378 282.78505 
L 199.387287 282.978629 
L 206.286196 283.786016 
L 218.460741 284.295018 
L 228.200378 284.557684 
L 244.838923 284.658423 
L 277.304378 284.685094 
L 314.233832 284.495522 
L 343.046923 284.142622 
L 361.71456 283.709592 
L 373.077469 283.246189 
L 379.976378 282.76736 
L 382.817105 282.353558 
L 386.063651 281.877964 
L 388.092741 281.774643 
L 390.121832 281.872311 
L 392.556741 282.247516 
L 395.397469 282.951403 
L 399.861469 284.098952 
L 402.296378 284.441233 
L 408.383651 284.993329 
L 416.905832 285.522805 
L 429.892014 286.077764 
L 443.689832 286.499959 
L 464.38656 286.859207 
L 473.31456 286.918125 
L 473.31456 286.918125 
" clip-path="url(#p76beccc829)" style="fill: none; stroke: #1f4e79; stroke-width: 1.8; stroke-linecap: square"/>
   </g>
   <g id="line2d_22">
    <path d="M 67.496378 280.206667 
L 68.713832 280.586879 
L 69.931287 280.738855 
L 71.148741 280.697805 
L 72.772014 280.403665 
L 74.801105 279.768597 
L 79.670923 278.085672 
L 81.294196 277.828802 
L 82.917469 277.792022 
L 84.540741 277.974633 
L 86.164014 278.360412 
L 88.193105 279.074009 
L 93.468741 281.118554 
L 95.092014 281.349933 
L 103.208378 282.086167 
L 110.513105 282.451813 
L 118.223651 282.65781 
L 125.528378 282.628759 
L 143.384378 282.222619 
L 154.341469 281.73785 
L 163.269469 281.131877 
L 170.168378 280.454911 
L 175.444014 279.734748 
L 180.719651 278.786996 
L 181.937105 278.420501 
L 183.15456 277.805544 
L 185.589469 276.223859 
L 188.024378 274.676187 
L 189.647651 273.856189 
L 191.270923 273.288193 
L 192.488378 273.054548 
L 193.705832 272.996659 
L 194.923287 273.114613 
L 196.54656 273.525532 
L 198.575651 274.346459 
L 201.01056 275.335226 
L 202.633832 275.618623 
L 209.532741 276.443682 
L 216.837469 277.055162 
L 224.548014 277.508655 
L 231.852741 277.727792 
L 251.737832 278.000485 
L 271.622923 278.016223 
L 293.537105 277.808677 
L 314.233832 277.39471 
L 331.278196 276.844097 
L 344.670196 276.202725 
L 354.815651 275.508799 
L 362.526196 274.771386 
L 368.207651 274.026136 
L 372.671651 273.228665 
L 374.700741 272.690214 
L 376.324014 272.026124 
L 379.164741 270.81068 
L 380.788014 270.402212 
L 382.005469 270.308502 
L 383.222923 270.414555 
L 384.440378 270.721318 
L 385.657832 271.218119 
L 387.281105 272.137896 
L 389.310196 273.584935 
L 392.96256 276.270862 
L 394.585832 277.103322 
L 396.614923 277.770024 
L 400.267287 278.685302 
L 404.731287 279.571942 
L 410.412741 280.458518 
L 416.905832 281.242376 
L 426.239651 282.126315 
L 435.573469 282.831173 
L 450.182923 283.601169 
L 458.299287 283.909733 
L 473.31456 284.244745 
L 473.31456 284.244745 
" clip-path="url(#p76beccc829)" style="fill: none; stroke: #2e9e2e; stroke-width: 1.8; stroke-linecap: square"/>
   </g>
   <g id="line2d_23">
    <path d="M 67.496378 281.007059 
L 68.713832 279.876935 
L 69.931287 279.02703 
L 71.148741 278.430751 
L 72.366196 278.061507 
L 73.583651 277.892704 
L 75.206923 277.933468 
L 76.830196 278.220262 
L 79.670923 279.01895 
L 82.105832 279.98357 
L 85.352378 281.255441 
L 86.569832 281.525852 
L 91.033832 281.978914 
L 96.715287 282.397697 
L 104.831651 282.749 
L 115.788741 282.962755 
L 123.499287 282.872271 
L 141.761105 282.304195 
L 151.90656 281.754606 
L 160.022923 281.100953 
L 166.110196 280.402626 
L 170.980014 279.636666 
L 174.632378 278.902808 
L 175.849832 278.361137 
L 177.878923 277.107525 
L 181.125469 275.032669 
L 182.748741 274.22244 
L 184.372014 273.662044 
L 185.589469 273.432442 
L 186.806923 273.376854 
L 188.024378 273.495211 
L 189.647651 273.903654 
L 191.676741 274.716773 
L 193.705832 275.56687 
L 194.923287 275.842865 
L 200.198923 276.485576 
L 206.692014 277.051429 
L 216.025832 277.642784 
L 224.548014 278.004755 
L 233.476014 278.152771 
L 251.737832 278.266454 
L 272.43456 278.167733 
L 293.537105 277.845686 
L 311.798923 277.35353 
L 326.408378 276.747983 
L 337.365469 276.087539 
L 345.887651 275.359355 
L 351.974923 274.637558 
L 356.844741 273.849172 
L 359.279651 273.294278 
L 360.902923 272.692042 
L 364.555287 271.152899 
L 365.772741 270.866092 
L 366.990196 270.763434 
L 368.207651 270.859512 
L 369.425105 271.155522 
L 370.64256 271.641169 
L 372.265832 272.546351 
L 374.294923 273.977825 
L 377.947287 276.65147 
L 379.164741 277.306274 
L 380.788014 277.897731 
L 384.03456 278.747312 
L 388.49856 279.670729 
L 393.774196 280.518505 
L 400.267287 281.319044 
L 408.383651 282.08681 
L 419.340741 282.889137 
L 433.950196 283.736277 
L 455.052741 284.49027 
L 473.31456 284.783541 
L 473.31456 284.783541 
" clip-path="url(#p76beccc829)" style="fill: none; stroke: #c00000; stroke-width: 1.8; stroke-linecap: square"/>
   </g>
   <g id="line2d_24">
    <path d="M 67.496378 170.291654 
L 69.931287 166.945889 
L 72.366196 163.19955 
L 74.395287 159.672232 
L 76.424378 155.63526 
L 78.047651 151.886116 
L 79.670923 147.452455 
L 80.888378 143.466622 
L 82.105832 138.721212 
L 82.917469 135.397774 
L 83.323287 134.25198 
L 83.729105 134.462913 
L 84.134923 137.145578 
L 85.352378 150.570274 
L 86.164014 156.309674 
L 86.975651 160.063073 
L 87.787287 162.646534 
L 88.598923 164.486395 
L 89.41056 165.817103 
L 90.222196 166.777849 
L 91.033832 167.456978 
L 91.845469 167.914974 
L 93.062923 168.297313 
L 94.280378 168.385377 
L 95.497832 168.204363 
L 96.715287 167.799194 
L 97.932741 167.199143 
L 99.556014 166.12595 
L 101.179287 164.760027 
L 102.80256 163.106237 
L 104.425832 161.153903 
L 106.049105 158.875823 
L 107.672378 156.226839 
L 109.295651 153.185892 
L 110.918923 149.629397 
L 112.136378 146.472698 
L 113.353832 142.76843 
L 114.571287 138.322315 
L 115.788741 132.815592 
L 117.006196 125.782995 
L 118.223651 117.685379 
L 118.629469 116.054922 
L 119.035287 116.351582 
L 119.441105 118.82852 
L 121.064378 133.270322 
L 121.876014 138.621418 
L 122.687651 142.845039 
L 123.905105 147.75145 
L 125.12256 151.513603 
L 126.340014 154.504027 
L 127.557469 156.940478 
L 128.774923 158.959501 
L 130.398196 161.154761 
L 132.021469 162.90937 
L 133.644741 164.317051 
L 135.268014 165.442164 
L 136.891287 166.330595 
L 138.920378 167.158739 
L 140.949469 167.716956 
L 142.97856 168.039394 
L 145.007651 168.150678 
L 147.036741 168.068541 
L 149.471651 167.731977 
L 151.90656 167.148583 
L 154.341469 166.325283 
L 156.776378 165.262915 
L 159.211287 163.956529 
L 161.646196 162.395167 
L 164.081105 160.561096 
L 166.516014 158.428342 
L 168.950923 155.960215 
L 170.980014 153.610685 
L 173.009105 150.951989 
L 175.038196 147.928332 
L 177.067287 144.461379 
L 178.69056 141.293547 
L 180.313832 137.684842 
L 181.937105 133.509867 
L 183.560378 128.572584 
L 184.777832 124.178156 
L 185.995287 118.937924 
L 187.212741 112.440352 
L 188.024378 107.041974 
L 188.836014 100.308695 
L 189.647651 91.492997 
L 190.865105 74.608737 
L 191.270923 72.359325 
L 191.676741 73.930133 
L 193.300014 86.961706 
L 194.111651 91.597735 
L 194.923287 95.192975 
L 195.734923 98.051639 
L 196.952378 101.362991 
L 198.169832 103.828624 
L 199.387287 105.685379 
L 200.604741 107.105532 
L 201.822196 108.134001 
L 203.039651 108.819747 
L 204.257105 109.197429 
L 205.47456 109.286511 
L 206.692014 109.094079 
L 207.909469 108.616184 
L 209.126923 107.83748 
L 210.344378 106.728891 
L 211.561832 105.242356 
L 212.779287 103.303692 
L 213.996741 100.876149 
L 215.214196 97.830916 
L 216.025832 95.314315 
L 216.837469 92.286284 
L 217.649105 88.587175 
L 218.460741 83.966412 
L 219.272378 78.006505 
L 220.084014 69.970545 
L 220.895651 58.605532 
L 222.113105 37.567044 
L 222.518923 34.918125 
L 222.924741 35.382353 
L 223.736378 39.855391 
L 224.953832 46.957017 
L 226.171287 52.660044 
L 227.388741 57.242022 
L 228.606196 61.032789 
L 230.229469 65.221159 
L 231.852741 68.701436 
L 233.476014 71.665345 
L 235.099287 74.235555 
L 237.128378 77.018532 
L 239.157469 79.42515 
L 241.592378 81.921523 
L 244.027287 84.075521 
L 246.462196 85.951149 
L 249.302923 87.849085 
L 252.143651 89.485847 
L 255.390196 91.088201 
L 258.636741 92.447548 
L 262.289105 93.728724 
L 265.941469 94.782767 
L 269.999651 95.721933 
L 274.463651 96.507196 
L 278.927651 97.062123 
L 283.797469 97.431713 
L 288.667287 97.576956 
L 293.942923 97.50012 
L 299.21856 97.193928 
L 304.494196 96.667651 
L 309.769832 95.92582 
L 315.045469 94.96852 
L 320.321105 93.79135 
L 325.596741 92.385034 
L 330.872378 90.734606 
L 335.742196 88.975532 
L 340.206196 87.143234 
L 344.670196 85.074539 
L 348.728378 82.959875 
L 352.78656 80.586119 
L 356.438923 78.188588 
L 359.685469 75.809492 
L 362.932014 73.148272 
L 365.772741 70.536991 
L 368.613469 67.597297 
L 371.048378 64.750057 
L 373.483287 61.519041 
L 375.512378 58.458611 
L 377.541469 54.991261 
L 379.976378 50.296835 
L 381.599651 47.283551 
L 382.005469 46.731411 
L 382.411287 46.382299 
L 382.817105 46.35915 
L 383.222923 46.845428 
L 383.628741 48.094187 
L 384.03456 50.396766 
L 384.440378 53.962954 
L 385.252014 64.282531 
L 386.469469 80.595817 
L 387.281105 89.015147 
L 388.092741 95.539877 
L 388.904378 100.652949 
L 389.716014 104.738708 
L 390.933469 109.503819 
L 392.150923 113.122271 
L 393.368378 115.938271 
L 394.585832 118.16684 
L 395.803287 119.949205 
L 397.020741 121.382208 
L 398.238196 122.534825 
L 399.861469 123.722385 
L 401.484741 124.597875 
L 403.108014 125.234776 
L 404.731287 125.648053 
L 406.35456 125.860773 
L 408.383651 125.888074 
L 410.412741 125.686356 
L 412.441832 125.281765 
L 414.876741 124.552451 
L 417.311651 123.573833 
L 419.74656 122.353909 
L 422.181469 120.892044 
L 424.616378 119.17946 
L 427.051287 117.198913 
L 429.486196 114.924043 
L 431.921105 112.32265 
L 434.356014 109.392751 
L 436.385105 106.655499 
L 438.414196 103.512765 
L 440.443287 99.888883 
L 442.06656 96.574636 
L 443.689832 92.808542 
L 445.313105 88.483755 
L 446.936378 83.455056 
L 448.559651 77.533939 
L 450.182923 70.531781 
L 453.023651 57.376899 
L 453.429469 56.377087 
L 453.835287 56.111845 
L 454.241105 56.811013 
L 454.646923 58.602221 
L 455.052741 61.431089 
L 455.864378 69.202278 
L 457.893469 89.98306 
L 459.110923 100.131175 
L 460.328378 108.586123 
L 461.545832 115.737572 
L 463.169105 123.768494 
L 464.792378 130.531861 
L 466.415651 136.356748 
L 468.038923 141.462893 
L 470.068014 147.062524 
L 472.097105 151.980987 
L 473.31456 154.666396 
L 473.31456 154.666396 
" clip-path="url(#p76beccc829)" style="fill: none; stroke-dasharray: 2.96,1.28; stroke-dashoffset: 0; stroke: #2e9e2e; stroke-opacity: 0.6; stroke-width: 0.8"/>
   </g>
   <g id="line2d_25">
    <path d="M 420.558196 299.518125 
L 420.558196 22.318125 
" clip-path="url(#p76beccc829)" style="fill: none; stroke-dasharray: 1.5,2.475; stroke-dashoffset: 0; stroke: #808080; stroke-width: 1.5"/>
   </g>
   <g id="patch_3">
    <path d="M 47.205469 299.518125 
L 47.205469 22.318125 
" style="fill: none; stroke: #000000; stroke-width: 0.8; stroke-linejoin: miter; stroke-linecap: square"/>
   </g>
   <g id="patch_4">
    <path d="M 493.605469 299.518125 
L 493.605469 22.318125 
" style="fill: none; stroke: #000000; stroke-width: 0.8; stroke-linejoin: miter; stroke-linecap: square"/>
   </g>
   <g id="patch_5">
    <path d="M 47.205469 299.518125 
L 493.605469 299.518125 
" style="fill: none; stroke: #000000; stroke-width: 0.8; stroke-linejoin: miter; stroke-linecap: square"/>
   </g>
   <g id="patch_6">
    <path d="M 47.205469 22.318125 
L 493.605469 22.318125 
" style="fill: none; stroke: #000000; stroke-width: 0.8; stroke-linejoin: miter; stroke-linecap: square"/>
   </g>
   <g id="text_13">
    <!-- Fig. 2e - interband SHG susceptibility (coherent Eq-2 sum, SavGol) -->
    <g transform="translate(70.925156 16.318125) scale(0.12 -0.12)">
     <defs>
      <path id="DejaVuSans-29" d="M 628 4666 
L 3309 4666 
L 3309 4134 
L 1259 4134 
L 1259 2759 
L 3109 2759 
L 3109 2228 
L 1259 2228 
L 1259 0 
L 628 0 
L 628 4666 
z
" transform="scale(0.015625)"/>
      <path id="DejaVuSans-4c" d="M 603 3500 
L 1178 3500 
L 1178 0 
L 603 0 
L 603 3500 
z
M 603 4863 
L 1178 4863 
L 1178 4134 
L 603 4134 
L 603 4863 
z
" transform="scale(0.015625)"/>
      <path id="DejaVuSans-10" d="M 313 2009 
L 1997 2009 
L 1997 1497 
L 313 1497 
L 313 2009 
z
" transform="scale(0.015625)"/>
      <path id="DejaVuSans-55" d="M 2631 2963 
Q 2534 3019 2420 3045 
Q 2306 3072 2169 3072 
Q 1681 3072 1420 2755 
Q 1159 2438 1159 1844 
L 1159 0 
L 581 0 
L 581 3500 
L 1159 3500 
L 1159 2956 
Q 1341 3275 1631 3429 
Q 1922 3584 2338 3584 
Q 2397 3584 2469 3576 
Q 2541 3569 2628 3553 
L 2631 2963 
z
" transform="scale(0.015625)"/>
      <path id="DejaVuSans-45" d="M 3116 1747 
Q 3116 2381 2855 2742 
Q 2594 3103 2138 3103 
Q 1681 3103 1420 2742 
Q 1159 2381 1159 1747 
Q 1159 1113 1420 752 
Q 1681 391 2138 391 
Q 2594 391 2855 752 
Q 3116 1113 3116 1747 
z
M 1159 2969 
Q 1341 3281 1617 3432 
Q 1894 3584 2278 3584 
Q 2916 3584 3314 3078 
Q 3713 2572 3713 1747 
Q 3713 922 3314 415 
Q 2916 -91 2278 -91 
Q 1894 -91 1617 61 
Q 1341 213 1159 525 
L 1159 0 
L 581 0 
L 581 4863 
L 1159 4863 
L 1159 2969 
z
" transform="scale(0.015625)"/>
      <path id="DejaVuSans-47" d="M 2906 2969 
L 2906 4863 
L 3481 4863 
L 3481 0 
L 2906 0 
L 2906 525 
Q 2725 213 2448 61 
Q 2172 -91 1784 -91 
Q 1150 -91 751 415 
Q 353 922 353 1747 
Q 353 2572 751 3078 
Q 1150 3584 1784 3584 
Q 2172 3584 2448 3432 
Q 2725 3281 2906 2969 
z
M 947 1747 
Q 947 1113 1208 752 
Q 1469 391 1925 391 
Q 2381 391 2643 752 
Q 2906 1113 2906 1747 
Q 2906 2381 2643 2742 
Q 2381 3103 1925 3103 
Q 1469 3103 1208 2742 
Q 947 2381 947 1747 
z
" transform="scale(0.015625)"/>
      <path id="DejaVuSans-36" d="M 3425 4513 
L 3425 3897 
Q 3066 4069 2747 4153 
Q 2428 4238 2131 4238 
Q 1616 4238 1336 4038 
Q 1056 3838 1056 3469 
Q 1056 3159 1242 3001 
Q 1428 2844 1947 2747 
L 2328 2669 
Q 3034 2534 3370 2195 
Q 3706 1856 3706 1288 
Q 3706 609 3251 259 
Q 2797 -91 1919 -91 
Q 1588 -91 1214 -16 
Q 841 59 441 206 
L 441 856 
Q 825 641 1194 531 
Q 1563 422 1919 422 
Q 2459 422 2753 634 
Q 3047 847 3047 1241 
Q 3047 1584 2836 1778 
Q 2625 1972 2144 2069 
L 1759 2144 
Q 1053 2284 737 2584 
Q 422 2884 422 3419 
Q 422 4038 858 4394 
Q 1294 4750 2059 4750 
Q 2388 4750 2728 4690 
Q 3069 4631 3425 4513 
z
" transform="scale(0.015625)"/>
      <path id="DejaVuSans-2b" d="M 628 4666 
L 1259 4666 
L 1259 2753 
L 3553 2753 
L 3553 4666 
L 4184 4666 
L 4184 0 
L 3553 0 
L 3553 2222 
L 1259 2222 
L 1259 0 
L 628 0 
L 628 4666 
z
" transform="scale(0.015625)"/>
      <path id="DejaVuSans-2a" d="M 3809 666 
L 3809 1919 
L 2778 1919 
L 2778 2438 
L 4434 2438 
L 4434 434 
Q 4069 175 3628 42 
Q 3188 -91 2688 -91 
Q 1594 -91 976 548 
Q 359 1188 359 2328 
Q 359 3472 976 4111 
Q 1594 4750 2688 4750 
Q 3144 4750 3555 4637 
Q 3966 4525 4313 4306 
L 4313 3634 
Q 3963 3931 3569 4081 
Q 3175 4231 2741 4231 
Q 1884 4231 1454 3753 
Q 1025 3275 1025 2328 
Q 1025 1384 1454 906 
Q 1884 428 2741 428 
Q 3075 428 3337 486 
Q 3600 544 3809 666 
z
" transform="scale(0.015625)"/>
      <path id="DejaVuSans-56" d="M 2834 3397 
L 2834 2853 
Q 2591 2978 2328 3040 
Q 2066 3103 1784 3103 
Q 1356 3103 1142 2972 
Q 928 2841 928 2578 
Q 928 2378 1081 2264 
Q 1234 2150 1697 2047 
L 1894 2003 
Q 2506 1872 2764 1633 
Q 3022 1394 3022 966 
Q 3022 478 2636 193 
Q 2250 -91 1575 -91 
Q 1294 -91 989 -36 
Q 684 19 347 128 
L 347 722 
Q 666 556 975 473 
Q 1284 391 1588 391 
Q 1994 391 2212 530 
Q 2431 669 2431 922 
Q 2431 1156 2273 1281 
Q 2116 1406 1581 1522 
L 1381 1569 
Q 847 1681 609 1914 
Q 372 2147 372 2553 
Q 372 3047 722 3315 
Q 1072 3584 1716 3584 
Q 2034 3584 2315 3537 
Q 2597 3491 2834 3397 
z
" transform="scale(0.015625)"/>
      <path id="DejaVuSans-46" d="M 3122 3366 
L 3122 2828 
Q 2878 2963 2633 3030 
Q 2388 3097 2138 3097 
Q 1578 3097 1268 2742 
Q 959 2388 959 1747 
Q 959 1106 1268 751 
Q 1578 397 2138 397 
Q 2388 397 2633 464 
Q 2878 531 3122 666 
L 3122 134 
Q 2881 22 2623 -34 
Q 2366 -91 2075 -91 
Q 1284 -91 818 406 
Q 353 903 353 1747 
Q 353 2603 823 3093 
Q 1294 3584 2113 3584 
Q 2378 3584 2631 3529 
Q 2884 3475 3122 3366 
z
" transform="scale(0.015625)"/>
      <path id="DejaVuSans-5c" d="M 2059 -325 
Q 1816 -950 1584 -1140 
Q 1353 -1331 966 -1331 
L 506 -1331 
L 506 -850 
L 844 -850 
Q 1081 -850 1212 -737 
Q 1344 -625 1503 -206 
L 1606 56 
L 191 3500 
L 800 3500 
L 1894 763 
L 2988 3500 
L 3597 3500 
L 2059 -325 
z
" transform="scale(0.015625)"/>
      <path id="DejaVuSans-52" d="M 1959 3097 
Q 1497 3097 1228 2736 
Q 959 2375 959 1747 
Q 959 1119 1226 758 
Q 1494 397 1959 397 
Q 2419 397 2687 759 
Q 2956 1122 2956 1747 
Q 2956 2369 2687 2733 
Q 2419 3097 1959 3097 
z
M 1959 3584 
Q 2709 3584 3137 3096 
Q 3566 2609 3566 1747 
Q 3566 888 3137 398 
Q 2709 -91 1959 -91 
Q 1206 -91 779 398 
Q 353 888 353 1747 
Q 353 2609 779 3096 
Q 1206 3584 1959 3584 
z
" transform="scale(0.015625)"/>
      <path id="DejaVuSans-28" d="M 628 4666 
L 3578 4666 
L 3578 4134 
L 1259 4134 
L 1259 2753 
L 3481 2753 
L 3481 2222 
L 1259 2222 
L 1259 531 
L 3634 531 
L 3634 0 
L 628 0 
L 628 4666 
z
" transform="scale(0.015625)"/>
      <path id="DejaVuSans-54" d="M 947 1747 
Q 947 1113 1208 752 
Q 1469 391 1925 391 
Q 2381 391 2643 752 
Q 2906 1113 2906 1747 
Q 2906 2381 2643 2742 
Q 2381 3103 1925 3103 
Q 1469 3103 1208 2742 
Q 947 2381 947 1747 
z
M 2906 525 
Q 2725 213 2448 61 
Q 2172 -91 1784 -91 
Q 1150 -91 751 415 
Q 353 922 353 1747 
Q 353 2572 751 3078 
Q 1150 3584 1784 3584 
Q 2172 3584 2448 3432 
Q 2725 3281 2906 2969 
L 2906 3500 
L 3481 3500 
L 3481 -1331 
L 2906 -1331 
L 2906 525 
z
" transform="scale(0.015625)"/>
      <path id="DejaVuSans-f" d="M 750 794 
L 1409 794 
L 1409 256 
L 897 -744 
L 494 -744 
L 750 256 
L 750 794 
z
" transform="scale(0.015625)"/>
     </defs>
     <use xlink:href="#DejaVuSans-29"/>
     <use xlink:href="#DejaVuSans-4c" transform="translate(50.234375 0)"/>
     <use xlink:href="#DejaVuSans-4a" transform="translate(78.015625 0)"/>
     <use xlink:href="#DejaVuSans-11" transform="translate(141.5 0)"/>
     <use xlink:href="#DejaVuSans-3" transform="translate(173.28125 0)"/>
     <use xlink:href="#DejaVuSans-15" transform="translate(205.0625 0)"/>
     <use xlink:href="#DejaVuSans-48" transform="translate(268.6875 0)"/>
     <use xlink:href="#DejaVuSans-3" transform="translate(330.21875 0)"/>
     <use xlink:href="#DejaVuSans-10" transform="translate(362 0)"/>
     <use xlink:href="#DejaVuSans-3" transform="translate(398.078125 0)"/>
     <use xlink:href="#DejaVuSans-4c" transform="translate(429.859375 0)"/>
     <use xlink:href="#DejaVuSans-51" transform="translate(457.640625 0)"/>
     <use xlink:href="#DejaVuSans-57" transform="translate(521.015625 0)"/>
     <use xlink:href="#DejaVuSans-48" transform="translate(560.21875 0)"/>
     <use xlink:href="#DejaVuSans-55" transform="translate(621.75 0)"/>
     <use xlink:href="#DejaVuSans-45" transform="translate(662.859375 0)"/>
     <use xlink:href="#DejaVuSans-44" transform="translate(726.34375 0)"/>
     <use xlink:href="#DejaVuSans-51" transform="translate(787.625 0)"/>
     <use xlink:href="#DejaVuSans-47" transform="translate(851 0)"/>
     <use xlink:href="#DejaVuSans-3" transform="translate(914.484375 0)"/>
     <use xlink:href="#DejaVuSans-36" transform="translate(946.265625 0)"/>
     <use xlink:href="#DejaVuSans-2b" transform="translate(1009.75 0)"/>
     <use xlink:href="#DejaVuSans-2a" transform="translate(1084.953125 0)"/>
     <use xlink:href="#DejaVuSans-3" transform="translate(1162.4375 0)"/>
     <use xlink:href="#DejaVuSans-56" transform="translate(1194.21875 0)"/>
     <use xlink:href="#DejaVuSans-58" transform="translate(1246.3125 0)"/>
     <use xlink:href="#DejaVuSans-56" transform="translate(1309.6875 0)"/>
     <use xlink:href="#DejaVuSans-46" transform="translate(1361.78125 0)"/>
     <use xlink:href="#DejaVuSans-48" transform="translate(1416.765625 0)"/>
     <use xlink:href="#DejaVuSans-53" transform="translate(1478.296875 0)"/>
     <use xlink:href="#DejaVuSans-57" transform="translate(1541.78125 0)"/>
     <use xlink:href="#DejaVuSans-4c" transform="translate(1580.984375 0)"/>
     <use xlink:href="#DejaVuSans-45" transform="translate(1608.765625 0)"/>
     <use xlink:href="#DejaVuSans-4c" transform="translate(1672.25 0)"/>
     <use xlink:href="#DejaVuSans-4f" transform="translate(1700.03125 0)"/>
     <use xlink:href="#DejaVuSans-4c" transform="translate(1727.8125 0)"/>
     <use xlink:href="#DejaVuSans-57" transform="translate(1755.59375 0)"/>
     <use xlink:href="#DejaVuSans-5c" transform="translate(1794.796875 0)"/>
     <use xlink:href="#DejaVuSans-3" transform="translate(1853.984375 0)"/>
     <use xlink:href="#DejaVuSans-b" transform="translate(1885.765625 0)"/>
     <use xlink:href="#DejaVuSans-46" transform="translate(1924.78125 0)"/>
     <use xlink:href="#DejaVuSans-52" transform="translate(1979.765625 0)"/>
     <use xlink:href="#DejaVuSans-4b" transform="translate(2040.953125 0)"/>
     <use xlink:href="#DejaVuSans-48" transform="translate(2104.328125 0)"/>
     <use xlink:href="#DejaVuSans-55" transform="translate(2165.859375 0)"/>
     <use xlink:href="#DejaVuSans-48" transform="translate(2204.765625 0)"/>
     <use xlink:href="#DejaVuSans-51" transform="translate(2266.296875 0)"/>
     <use xlink:href="#DejaVuSans-57" transform="translate(2329.671875 0)"/>
     <use xlink:href="#DejaVuSans-3" transform="translate(2368.875 0)"/>
     <use xlink:href="#DejaVuSans-28" transform="translate(2400.65625 0)"/>
     <use xlink:href="#DejaVuSans-54" transform="translate(2463.84375 0)"/>
     <use xlink:href="#DejaVuSans-10" transform="translate(2527.328125 0)"/>
     <use xlink:href="#DejaVuSans-15" transform="translate(2563.40625 0)"/>
     <use xlink:href="#DejaVuSans-3" transform="translate(2627.03125 0)"/>
     <use xlink:href="#DejaVuSans-56" transform="translate(2658.8125 0)"/>
     <use xlink:href="#DejaVuSans-58" transform="translate(2710.90625 0)"/>
     <use xlink:href="#DejaVuSans-50" transform="translate(2774.28125 0)"/>
     <use xlink:href="#DejaVuSans-f" transform="translate(2871.6875 0)"/>
     <use xlink:href="#DejaVuSans-3" transform="translate(2903.46875 0)"/>
     <use xlink:href="#DejaVuSans-36" transform="translate(2935.25 0)"/>
     <use xlink:href="#DejaVuSans-44" transform="translate(2998.734375 0)"/>
     <use xlink:href="#DejaVuSans-59" transform="translate(3060.015625 0)"/>
     <use xlink:href="#DejaVuSans-2a" transform="translate(3119.203125 0)"/>
     <use xlink:href="#DejaVuSans-52" transform="translate(3196.6875 0)"/>
     <use xlink:href="#DejaVuSans-4f" transform="translate(3257.875 0)"/>
     <use xlink:href="#DejaVuSans-c" transform="translate(3285.65625 0)"/>
    </g>
   </g>
   <g id="legend_1">
    <g id="patch_7">
     <path d="M 191.314766 188.219492 
L 349.496172 188.219492 
Q 350.896172 188.219492 350.896172 186.819492 
L 350.896172 135.016758 
Q 350.896172 133.616758 349.496172 133.616758 
L 191.314766 133.616758 
Q 189.914766 133.616758 189.914766 135.016758 
L 189.914766 186.819492 
Q 189.914766 188.219492 191.314766 188.219492 
z
" style="fill: #ffffff; opacity: 0.8; stroke: #cccccc; stroke-linejoin: miter"/>
    </g>
    <g id="line2d_26">
     <path d="M 192.714766 139.285664 
L 199.714766 139.285664 
L 206.714766 139.285664 
" style="fill: none; stroke: #1f4e79; stroke-width: 1.8; stroke-linecap: square"/>
    </g>
    <g id="text_14">
     <!-- aestimo_ideal -->
     <g transform="translate(212.314766 141.735664) scale(0.07 -0.07)">
      <defs>
       <path id="DejaVuSans-42" d="M 3263 -1063 
L 3263 -1509 
L -63 -1509 
L -63 -1063 
L 3263 -1063 
z
" transform="scale(0.015625)"/>
      </defs>
      <use xlink:href="#DejaVuSans-44"/>
      <use xlink:href="#DejaVuSans-48" transform="translate(61.28125 0)"/>
      <use xlink:href="#DejaVuSans-56" transform="translate(122.8125 0)"/>
      <use xlink:href="#DejaVuSans-57" transform="translate(174.90625 0)"/>
      <use xlink:href="#DejaVuSans-4c" transform="translate(214.109375 0)"/>
      <use xlink:href="#DejaVuSans-50" transform="translate(241.890625 0)"/>
      <use xlink:href="#DejaVuSans-52" transform="translate(339.296875 0)"/>
      <use xlink:href="#DejaVuSans-42" transform="translate(400.484375 0)"/>
      <use xlink:href="#DejaVuSans-4c" transform="translate(450.484375 0)"/>
      <use xlink:href="#DejaVuSans-47" transform="translate(478.265625 0)"/>
      <use xlink:href="#DejaVuSans-48" transform="translate(541.75 0)"/>
      <use xlink:href="#DejaVuSans-44" transform="translate(603.28125 0)"/>
      <use xlink:href="#DejaVuSans-4f" transform="translate(664.5625 0)"/>
     </g>
    </g>
    <g id="line2d_27">
     <path d="M 192.714766 149.786211 
L 199.714766 149.786211 
L 206.714766 149.786211 
" style="fill: none; stroke: #2e9e2e; stroke-width: 1.8; stroke-linecap: square"/>
    </g>
    <g id="text_15">
     <!-- aestimo_graded -->
     <g transform="translate(212.314766 152.236211) scale(0.07 -0.07)">
      <use xlink:href="#DejaVuSans-44"/>
      <use xlink:href="#DejaVuSans-48" transform="translate(61.28125 0)"/>
      <use xlink:href="#DejaVuSans-56" transform="translate(122.8125 0)"/>
      <use xlink:href="#DejaVuSans-57" transform="translate(174.90625 0)"/>
      <use xlink:href="#DejaVuSans-4c" transform="translate(214.109375 0)"/>
      <use xlink:href="#DejaVuSans-50" transform="translate(241.890625 0)"/>
      <use xlink:href="#DejaVuSans-52" transform="translate(339.296875 0)"/>
      <use xlink:href="#DejaVuSans-42" transform="translate(400.484375 0)"/>
      <use xlink:href="#DejaVuSans-4a" transform="translate(450.484375 0)"/>
      <use xlink:href="#DejaVuSans-55" transform="translate(513.96875 0)"/>
      <use xlink:href="#DejaVuSans-44" transform="translate(555.078125 0)"/>
      <use xlink:href="#DejaVuSans-47" transform="translate(616.359375 0)"/>
      <use xlink:href="#DejaVuSans-48" transform="translate(679.84375 0)"/>
      <use xlink:href="#DejaVuSans-47" transform="translate(741.375 0)"/>
     </g>
    </g>
    <g id="line2d_28">
     <path d="M 192.714766 160.286758 
L 199.714766 160.286758 
L 206.714766 160.286758 
" style="fill: none; stroke: #c00000; stroke-width: 1.8; stroke-linecap: square"/>
    </g>
    <g id="text_16">
     <!-- kdotpy_graded -->
     <g transform="translate(212.314766 162.736758) scale(0.07 -0.07)">
      <defs>
       <path id="DejaVuSans-4e" d="M 581 4863 
L 1159 4863 
L 1159 1991 
L 2875 3500 
L 3609 3500 
L 1753 1863 
L 3688 0 
L 2938 0 
L 1159 1709 
L 1159 0 
L 581 0 
L 581 4863 
z
" transform="scale(0.015625)"/>
      </defs>
      <use xlink:href="#DejaVuSans-4e"/>
      <use xlink:href="#DejaVuSans-47" transform="translate(57.90625 0)"/>
      <use xlink:href="#DejaVuSans-52" transform="translate(121.390625 0)"/>
      <use xlink:href="#DejaVuSans-57" transform="translate(182.578125 0)"/>
      <use xlink:href="#DejaVuSans-53" transform="translate(221.78125 0)"/>
      <use xlink:href="#DejaVuSans-5c" transform="translate(285.265625 0)"/>
      <use xlink:href="#DejaVuSans-42" transform="translate(344.453125 0)"/>
      <use xlink:href="#DejaVuSans-4a" transform="translate(394.453125 0)"/>
      <use xlink:href="#DejaVuSans-55" transform="translate(457.9375 0)"/>
      <use xlink:href="#DejaVuSans-44" transform="translate(499.046875 0)"/>
      <use xlink:href="#DejaVuSans-47" transform="translate(560.328125 0)"/>
      <use xlink:href="#DejaVuSans-48" transform="translate(623.8125 0)"/>
      <use xlink:href="#DejaVuSans-47" transform="translate(685.34375 0)"/>
     </g>
    </g>
    <g id="line2d_29">
     <path d="M 192.714766 170.787305 
L 199.714766 170.787305 
L 206.714766 170.787305 
" style="fill: none; stroke-dasharray: 2.96,1.28; stroke-dashoffset: 0; stroke: #2e9e2e; stroke-opacity: 0.6; stroke-width: 0.8"/>
    </g>
    <g id="text_17">
     <!-- graded electron-channel (uncancelled) -->
     <g transform="translate(212.314766 173.237305) scale(0.07 -0.07)">
      <use xlink:href="#DejaVuSans-4a"/>
      <use xlink:href="#DejaVuSans-55" transform="translate(63.484375 0)"/>
      <use xlink:href="#DejaVuSans-44" transform="translate(104.59375 0)"/>
      <use xlink:href="#DejaVuSans-47" transform="translate(165.875 0)"/>
      <use xlink:href="#DejaVuSans-48" transform="translate(229.359375 0)"/>
      <use xlink:href="#DejaVuSans-47" transform="translate(290.890625 0)"/>
      <use xlink:href="#DejaVuSans-3" transform="translate(354.375 0)"/>
      <use xlink:href="#DejaVuSans-48" transform="translate(386.15625 0)"/>
      <use xlink:href="#DejaVuSans-4f" transform="translate(447.6875 0)"/>
      <use xlink:href="#DejaVuSans-48" transform="translate(475.46875 0)"/>
      <use xlink:href="#DejaVuSans-46" transform="translate(537 0)"/>
      <use xlink:href="#DejaVuSans-57" transform="translate(591.984375 0)"/>
      <use xlink:href="#DejaVuSans-55" transform="translate(631.1875 0)"/>
      <use xlink:href="#DejaVuSans-52" transform="translate(670.09375 0)"/>
      <use xlink:href="#DejaVuSans-51" transform="translate(731.28125 0)"/>
      <use xlink:href="#DejaVuSans-10" transform="translate(794.65625 0)"/>
      <use xlink:href="#DejaVuSans-46" transform="translate(830.734375 0)"/>
      <use xlink:href="#DejaVuSans-4b" transform="translate(885.71875 0)"/>
      <use xlink:href="#DejaVuSans-44" transform="translate(949.09375 0)"/>
      <use xlink:href="#DejaVuSans-51" transform="translate(1010.375 0)"/>
      <use xlink:href="#DejaVuSans-51" transform="translate(1073.75 0)"/>
      <use xlink:href="#DejaVuSans-48" transform="translate(1137.125 0)"/>
      <use xlink:href="#DejaVuSans-4f" transform="translate(1198.65625 0)"/>
      <use xlink:href="#DejaVuSans-3" transform="translate(1226.4375 0)"/>
      <use xlink:href="#DejaVuSans-b" transform="translate(1258.21875 0)"/>
      <use xlink:href="#DejaVuSans-58" transform="translate(1297.234375 0)"/>
      <use xlink:href="#DejaVuSans-51" transform="translate(1360.609375 0)"/>
      <use xlink:href="#DejaVuSans-46" transform="translate(1423.984375 0)"/>
      <use xlink:href="#DejaVuSans-44" transform="translate(1478.96875 0)"/>
      <use xlink:href="#DejaVuSans-51" transform="translate(1540.25 0)"/>
      <use xlink:href="#DejaVuSans-46" transform="translate(1603.625 0)"/>
      <use xlink:href="#DejaVuSans-48" transform="translate(1658.609375 0)"/>
      <use xlink:href="#DejaVuSans-4f" transform="translate(1720.140625 0)"/>
      <use xlink:href="#DejaVuSans-4f" transform="translate(1747.921875 0)"/>
      <use xlink:href="#DejaVuSans-48" transform="translate(1775.703125 0)"/>
      <use xlink:href="#DejaVuSans-47" transform="translate(1837.234375 0)"/>
      <use xlink:href="#DejaVuSans-c" transform="translate(1900.71875 0)"/>
     </g>
    </g>
    <g id="line2d_30">
     <path d="M 192.714766 181.287852 
L 199.714766 181.287852 
L 206.714766 181.287852 
" style="fill: none; stroke-dasharray: 1.5,2.475; stroke-dashoffset: 0; stroke: #808080; stroke-width: 1.5"/>
    </g>
    <g id="text_18">
     <!-- 1.57 um op. pt -->
     <g transform="translate(212.314766 183.737852) scale(0.07 -0.07)">
      <defs>
       <path id="DejaVuSans-1a" d="M 525 4666 
L 3525 4666 
L 3525 4397 
L 1831 0 
L 1172 0 
L 2766 4134 
L 525 4134 
L 525 4666 
z
" transform="scale(0.015625)"/>
      </defs>
      <use xlink:href="#DejaVuSans-14"/>
      <use xlink:href="#DejaVuSans-11" transform="translate(63.625 0)"/>
      <use xlink:href="#DejaVuSans-18" transform="translate(95.40625 0)"/>
      <use xlink:href="#DejaVuSans-1a" transform="translate(159.03125 0)"/>
      <use xlink:href="#DejaVuSans-3" transform="translate(222.65625 0)"/>
      <use xlink:href="#DejaVuSans-58" transform="translate(254.4375 0)"/>
      <use xlink:href="#DejaVuSans-50" transform="translate(317.8125 0)"/>
      <use xlink:href="#DejaVuSans-3" transform="translate(415.21875 0)"/>
      <use xlink:href="#DejaVuSans-52" transform="translate(447 0)"/>
      <use xlink:href="#DejaVuSans-53" transform="translate(508.1875 0)"/>
      <use xlink:href="#DejaVuSans-11" transform="translate(571.671875 0)"/>
      <use xlink:href="#DejaVuSans-3" transform="translate(603.453125 0)"/>
      <use xlink:href="#DejaVuSans-53" transform="translate(635.234375 0)"/>
      <use xlink:href="#DejaVuSans-57" transform="translate(698.71875 0)"/>
     </g>
    </g>
   </g>
  </g>
 </g>
 <defs>
  <clipPath id="p76beccc829">
   <rect x="47.205469" y="22.318125" width="446.4" height="277.2"/>
  </clipPath>
 </defs>
</svg>
